<?xml version="1.0" encoding="UTF-8" standalone="no"?>
<svg
   height="64"
   viewBox="545 370 253.696 229.376"
   width="64"
   version="1.1"
   id="svg10"
   sodipodi:docname="accessories-camera.svg"
   inkscape:version="1.1.1 (3bf5ae0d25, 2021-09-20, custom)"
   xmlns:inkscape="http://www.inkscape.org/namespaces/inkscape"
   xmlns:sodipodi="http://sodipodi.sourceforge.net/DTD/sodipodi-0.dtd"
   xmlns:xlink="http://www.w3.org/1999/xlink"
   xmlns="http://www.w3.org/2000/svg"
   xmlns:svg="http://www.w3.org/2000/svg">
  <defs
     id="defs14">
    <linearGradient
       inkscape:collect="always"
       id="linearGradient10454">
      <stop
         style="stop-color:#1a1a1a;stop-opacity:1;"
         offset="0"
         id="stop10450" />
      <stop
         style="stop-color:#1a1a1a;stop-opacity:0;"
         offset="1"
         id="stop10452" />
    </linearGradient>
    <linearGradient
       inkscape:collect="always"
       xlink:href="#linearGradient10454"
       id="linearGradient10456"
       x1="-6.5576382"
       y1="76.586578"
       x2="1977.5839"
       y2="1992.5081"
       gradientUnits="userSpaceOnUse"
       gradientTransform="matrix(0.0570816,0,0,0.0570816,600.49598,414.42402)" />
  </defs>
  <sodipodi:namedview
     id="namedview12"
     pagecolor="#ffffff"
     bordercolor="#666666"
     borderopacity="1.0"
     inkscape:pageshadow="2"
     inkscape:pageopacity="0.0"
     inkscape:pagecheckerboard="0"
     showgrid="false"
     inkscape:zoom="6.1953125"
     inkscape:cx="-1.9369483"
     inkscape:cy="27.682219"
     inkscape:window-width="1920"
     inkscape:window-height="1012"
     inkscape:window-x="0"
     inkscape:window-y="0"
     inkscape:window-maximized="1"
     inkscape:current-layer="svg10" />
  <circle
     style="fill:#f9f9f9;fill-opacity:1;stroke-width:3.964"
     cx="671.84802"
     cy="484.68799"
     r="110.992"
     id="circle4" />
  <path
     d="m 608.92,549.98564 c -3.6864,-0.9648 -6.6384,-3.7152 -7.9776,-7.4304 l -0.4464,-1.2672 v -91.15201 l 0.4464,-1.2672 c 1.3392,-3.744 4.3056,-6.4944 8.0352,-7.4448 1.1088,-0.2736 1.5696,-0.288 13.9104,-0.288 h 12.7584 l 9.36,-9.6624 c 5.5728,-5.76 9.5616,-9.7632 9.8784,-9.936 0.5184,-0.2592 1.0512,-0.2736 16.8624,-0.2736 h 16.3296 l 0.5904,0.3312 c 0.3744,0.2016 4.0032,3.8592 9.8352,9.9216 l 9.2448,9.6192 h 12.9168 c 12.4848,0 12.9456,0.0144 14.0544,0.288 3.7296,0.9504 6.696,3.7008 8.0352,7.4448 l 0.4464,1.2672 v 91.15201 l -0.4464,1.2672 c -1.3392,3.744 -4.3056,6.4944 -8.0352,7.4448 -1.1376,0.288 -1.3824,0.288 -62.928,0.2736 -60.9264,0 -61.8048,0 -62.8704,-0.288 z"
     fill="#565656"
     id="path2"
     style="stroke-width:0.0144" />
  <path
     id="rect853"
     style="fill:#636363;fill-opacity:1;stroke-width:0.0735108"
     d="m 671.7472,421.264 c -15.8112,0 -16.344,0.0144 -16.8624,0.27359 -0.3168,0.1728 -4.3056,4.17599 -9.8784,9.93599 l -9.36,9.6624 H 622.888 c -12.3408,0 -12.8016,0.0145 -13.9104,0.28808 -3.7296,0.9504 -6.696,3.7008 -8.0352,7.4448 l -0.4464,1.26717 V 478.3456 H 743.2 v -28.20957 l -0.4464,-1.26717 c -1.3392,-3.744 -4.3056,-6.4944 -8.0352,-7.4448 -1.1088,-0.2736 -1.5696,-0.28808 -14.0544,-0.28808 h -12.9168 l -9.2448,-9.61915 c -5.832,-6.0624 -9.4608,-9.72 -9.8352,-9.9216 l -0.5904,-0.33123 z" />
  <path
     id="rect10111-7"
     style="fill:url(#linearGradient10456);fill-opacity:1;stroke-width:0.0576021"
     d="m 698.37686,465.51251 -54.37632,54.37635 30.38366,30.38366 c 57.23776,0.0135 59.22382,0.0112 60.3342,-0.27248 3.7296,-0.9504 6.696,-3.7008 8.0352,-7.4448 l 0.4464,-1.2672 v -30.95246 z" />
  <path
     d="m 669.04,532.05764 c -0.2304,-0.0292 -1.0512,-0.1296 -1.8,-0.216 -10.0656,-1.1376 -19.7712,-6.7824 -26.0496,-15.1632 -9.0288,-12.024 -10.1664,-28.52641 -2.8944,-41.61601 1.9008,-3.4128 3.7728,-5.8896 6.5376,-8.6688 3.2112,-3.1968 6.0048,-5.2128 10.1232,-7.272 7.6608,-3.8592 16.4592,-4.9824 25.0992,-3.2112 5.5296,1.1376 11.5632,3.9888 16.128,7.632 1.584,1.2672 4.7232,4.4064 5.9472,5.9616 4.3632,5.5008 7.056,11.7792 8.1216,18.9072 0.3168,2.0592 0.3456,8.00641 0.072,10.03681 -1.2384,8.784 -4.9536,16.3296 -11.0304,22.4064 -5.976,5.976 -13.3488,9.6624 -21.9024,10.944 -1.368,0.216 -7.3872,0.3888 -8.352,0.2592 z m 55.8144,-67.39201 c -0.432,-0.1152 -1.1088,-0.3888 -1.512,-0.6048 -0.936,-0.4896 -2.5056,-2.0448 -2.9952,-2.9952 -1.1088,-2.0592 -1.1088,-4.68 0,-6.7392 0.4896,-0.936 2.0592,-2.5056 2.9952,-2.9952 2.0592,-1.1088 4.68,-1.1088 6.7392,0 0.936,0.4896 2.5056,2.0592 2.9952,2.9952 1.1088,2.0592 1.1088,4.68 0,6.7392 -0.4896,0.936 -2.0592,2.5056 -2.9952,2.9952 -1.512,0.8064 -3.5856,1.0512 -5.2272,0.6048 z"
     fill="#4285f4"
     id="path4"
     style="stroke-width:0.0144;fill:#5dd37d;fill-opacity:1" />
  <path
     d="m 669.04,532.05764 c -0.2304,-0.0292 -1.0512,-0.1296 -1.8,-0.216 -10.0656,-1.1376 -19.7712,-6.7824 -26.0496,-15.1632 -9.0288,-12.024 -10.1664,-28.52641 -2.8944,-41.61601 1.9008,-3.4128 3.7728,-5.8896 6.5376,-8.6688 3.2112,-3.1968 6.0048,-5.2128 10.1232,-7.272 7.6608,-3.8592 16.4592,-4.9824 25.0992,-3.2112 5.5296,1.1376 11.5632,3.9888 16.128,7.632 1.584,1.2672 4.7232,4.4064 5.9472,5.9616 4.3632,5.5008 7.056,11.7792 8.1216,18.9072 0.3168,2.0592 0.3456,8.00641 0.072,10.03681 -1.2384,8.784 -4.9536,16.3296 -11.0304,22.4064 -5.976,5.976 -13.3488,9.6624 -21.9024,10.944 -1.368,0.216 -7.3872,0.3888 -8.352,0.2592 z m 5.688,-9.7056 c 5.5296,-0.576 10.9584,-2.808 15.264,-6.2928 1.2816,-1.0368 3.7008,-3.4992 4.6224,-4.7232 5.8608,-7.6752 7.56,-17.5248 4.5792,-26.64001 -1.4544,-4.4208 -3.9312,-8.352 -7.344,-11.664 -2.4192,-2.3328 -4.5504,-3.8304 -7.5024,-5.256 -9.8208,-4.7376 -21.3984,-3.528 -30.1392,3.1536 -1.224,0.9216 -3.6864,3.3408 -4.7232,4.6224 -8.3952,10.3968 -8.568,25.09921 -0.4032,35.78401 0.9216,1.224 3.3408,3.6864 4.6224,4.7232 5.8752,4.7376 13.608,7.056 21.024,6.2928 z m 50.1264,-57.68641 c -0.432,-0.1152 -1.1088,-0.3888 -1.512,-0.6048 -0.936,-0.4896 -2.5056,-2.0448 -2.9952,-2.9952 -1.1088,-2.0592 -1.1088,-4.68 0,-6.7392 0.4896,-0.936 2.0592,-2.5056 2.9952,-2.9952 2.0592,-1.1088 4.68,-1.1088 6.7392,0 0.936,0.4896 2.5056,2.0592 2.9952,2.9952 1.1088,2.0592 1.1088,4.68 0,6.7392 -0.4896,0.936 -2.0592,2.5056 -2.9952,2.9952 -1.512,0.8064 -3.5856,1.0512 -5.2272,0.6048 z"
     fill="#bbbbbb"
     id="path6"
     style="stroke-width:0.0144" />
  <path
     d="m 669.2128,531.98564 c -3.24,-0.2304 -7.1856,-1.0656 -10.2528,-2.1744 -3.4992,-1.2528 -7.8336,-3.6864 -10.872,-6.0768 -1.3968,-1.0944 -5.04,-4.7376 -6.1344,-6.1344 -2.3328,-2.9664 -4.7808,-7.3152 -6.0192,-10.6992 -2.6928,-7.3296 -3.0528,-15.52321 -1.0224,-23.24161 0.6768,-2.592 1.3392,-4.32 2.664,-7.0416 1.9584,-4.0032 4.32,-7.2432 7.5888,-10.44 3.1968,-3.1248 6.0048,-5.1264 9.9072,-7.0416 2.7072,-1.3248 4.4352,-1.9872 7.0272,-2.664 11.808,-3.096 24.0768,-0.6192 33.6528,6.8256 1.6272,1.2528 4.8096,4.3776 6.12,5.9904 2.4768,3.0384 5.0256,7.5024 6.3216,11.0592 2.6928,7.3296 3.0528,15.52321 1.0224,23.24161 -0.6768,2.592 -1.3392,4.32 -2.664,7.0416 -3.7008,7.5456 -9.936,13.7808 -17.4816,17.4816 -2.7216,1.3248 -4.4496,1.9872 -7.0416,2.664 -4.3488,1.1376 -8.4384,1.5264 -12.816,1.2096 z m 5.5152,-9.6336 c 5.5296,-0.576 10.9584,-2.808 15.264,-6.2928 1.2816,-1.0368 3.7008,-3.4992 4.6224,-4.7232 5.8608,-7.6752 7.56,-17.5248 4.5792,-26.64001 -1.4544,-4.4208 -3.9312,-8.352 -7.344,-11.664 -2.4192,-2.3328 -4.5504,-3.8304 -7.5024,-5.256 -9.8208,-4.7376 -21.3984,-3.528 -30.1392,3.1536 -1.224,0.9216 -3.6864,3.3408 -4.7232,4.6224 -8.3952,10.3968 -8.568,25.09921 -0.4032,35.78401 0.9216,1.224 3.3408,3.6864 4.6224,4.7232 5.8752,4.7376 13.608,7.056 21.024,6.2928 z"
     fill="#ffffff"
     id="path8"
     style="stroke-width:0.0144" />
</svg>
