<?xml version="1.0" encoding="UTF-8" standalone="no"?>
<svg
   width="64"
   height="64"
   version="1.1"
   id="svg20"
   sodipodi:docname="accessories-ebook-reader.svg"
   inkscape:version="1.1.1 (3bf5ae0d25, 2021-09-20, custom)"
   xmlns:inkscape="http://www.inkscape.org/namespaces/inkscape"
   xmlns:sodipodi="http://sodipodi.sourceforge.net/DTD/sodipodi-0.dtd"
   xmlns:xlink="http://www.w3.org/1999/xlink"
   xmlns="http://www.w3.org/2000/svg"
   xmlns:svg="http://www.w3.org/2000/svg">
  <defs
     id="defs24">
    <linearGradient
       inkscape:collect="always"
       id="linearGradient2576">
      <stop
         style="stop-color:#000000;stop-opacity:1;"
         offset="0"
         id="stop2572" />
      <stop
         style="stop-color:#000000;stop-opacity:0;"
         offset="1"
         id="stop2574" />
    </linearGradient>
    <linearGradient
       inkscape:collect="always"
       xlink:href="#linearGradient2576"
       id="linearGradient2578"
       x1="31.731026"
       y1="-11.994919"
       x2="67.878769"
       y2="-13.349646"
       gradientUnits="userSpaceOnUse"
       gradientTransform="matrix(0.8660254,0.5,0,1,0,0)" />
  </defs>
  <sodipodi:namedview
     id="namedview22"
     pagecolor="#ffffff"
     bordercolor="#666666"
     borderopacity="1.0"
     inkscape:pageshadow="2"
     inkscape:pageopacity="0.0"
     inkscape:pagecheckerboard="0"
     showgrid="false"
     inkscape:zoom="12.859375"
     inkscape:cx="26.90644"
     inkscape:cy="33.63305"
     inkscape:window-width="1920"
     inkscape:window-height="1012"
     inkscape:window-x="0"
     inkscape:window-y="0"
     inkscape:window-maximized="1"
     inkscape:current-layer="svg20" />
  <circle
     style="fill:#007e80;fill-opacity:1"
     cx="32"
     cy="32"
     r="28"
     id="circle4" />
  <path
     id="circle4-3"
     style="fill:#005051;fill-opacity:1"
     d="M 14 10.587891 A 28 28 0 0 0 4 32 A 28 28 0 0 0 14 53.412109 L 14 10.587891 z " />
  <path
     id="rect1692-6"
     style="opacity:0.2;fill:url(#linearGradient2578);stroke-width:2.06643"
     d="M 42 5.8554688 L 42 22 L 59.972656 32.376953 A 28 28 0 0 0 60 32 A 28 28 0 0 0 42 5.8554688 z " />
  <path
     id="rect1692"
     style="fill:#aae6e6;stroke-width:0.962689;fill-opacity:1"
     d="M 42 5.8554688 L 42 22 L 46 19 L 50 22 L 50 10.560547 A 28 28 0 0 0 42 5.8554688 z " />
</svg>
