<?xml version="1.0" encoding="UTF-8" standalone="no"?>
<!-- Created with Inkscape (http://www.inkscape.org/) -->

<svg
   width="64"
   height="64"
   viewBox="0 0 16.933333 16.933334"
   version="1.1"
   id="svg828"
   sodipodi:docname="gnome-dictionary.svg"
   inkscape:version="1.1.1 (3bf5ae0d25, 2021-09-20, custom)"
   xmlns:inkscape="http://www.inkscape.org/namespaces/inkscape"
   xmlns:sodipodi="http://sodipodi.sourceforge.net/DTD/sodipodi-0.dtd"
   xmlns="http://www.w3.org/2000/svg"
   xmlns:svg="http://www.w3.org/2000/svg">
  <sodipodi:namedview
     id="namedview830"
     pagecolor="#ffffff"
     bordercolor="#666666"
     borderopacity="1.0"
     inkscape:pageshadow="2"
     inkscape:pageopacity="0.0"
     inkscape:pagecheckerboard="0"
     inkscape:document-units="px"
     showgrid="false"
     units="px"
     height="64px"
     inkscape:zoom="11.313708"
     inkscape:cx="36.327612"
     inkscape:cy="34.117904"
     inkscape:window-width="1920"
     inkscape:window-height="1002"
     inkscape:window-x="0"
     inkscape:window-y="0"
     inkscape:window-maximized="1"
     inkscape:current-layer="svg828"
     inkscape:lockguides="false" />
  <defs
     id="defs825" />
  <circle
     style="fill:#8d6e63;fill-opacity:1;stroke-width:0.576115;stroke-linecap:round;stroke-linejoin:round;stroke-dasharray:6.91338, 0.576115"
     id="path911"
     cx="8.4666662"
     cy="8.4666672"
     r="7.4083333" />
  <path
     id="rect1039"
     style="fill:#ffffff;stroke-width:0.529167;stroke-linecap:round;stroke-linejoin:round"
     d="m 5.8208334,3.7041667 h 5.2916656 c 0.586317,0 1.058334,0.4720168 1.058334,1.0583336 v 7.4083327 c 0,0.586316 -0.472017,1.058333 -1.058334,1.058333 H 5.8208334 c -0.5863168,0 -1.0583336,-0.472017 -1.0583336,-1.058333 V 4.7625003 c 0,-0.5863168 0.4720168,-1.0583336 1.0583336,-1.0583336 z" />
  <path
     id="rect1209"
     style="fill:#5f4439;fill-opacity:1;stroke-width:2;stroke-linecap:round;stroke-linejoin:round"
     d="m 22,14 c -2.216,0 -4,1.784 -4,4 v 28 c 0,2.216 1.784,4 4,4 h 2 V 14 Z"
     transform="scale(0.26458334)"
     sodipodi:nodetypes="ssssccs" />
  <path
     id="path6016"
     style="font-size:3.45578px;line-height:1.25;font-family:'Noto Serif';-inkscape-font-specification:'Noto Serif';stroke-width:0.0863949;fill:#bb9a8e;fill-opacity:1"
     d="M 8.2392905,6.8791667 7.4718954,8.9322715 c -0.041469,0.1105848 -0.079647,0.1829999 -0.1142048,0.2175579 -0.032254,0.034558 -0.0815,0.051676 -0.1483114,0.051676 H 7.1437501 V 9.3467165 H 7.9865928 V 9.2015057 h -0.079065 c -0.1520545,0 -0.2284098,-0.05661 -0.22841,-0.1694987 0,-0.043773 0.010271,-0.093019 0.031006,-0.1483114 L 7.8418988,8.520927 h 0.9084718 l 0.1384927,0.3870566 c 0.00922,0.025343 0.016064,0.047995 0.02067,0.06873 0.00461,0.020735 0.00672,0.04048 0.00672,0.058911 0,0.110585 -0.068991,0.1658813 -0.2072225,0.1658813 H 8.6294475 V 9.3467165 H 9.5797772 V 9.2015057 h -0.044959 c -0.066812,0 -0.1186847,-0.012382 -0.1555459,-0.037724 -0.034558,-0.025342 -0.064058,-0.073791 -0.0894,-0.1452108 L 8.5085247,6.8791667 Z m 0.062012,0.3178101 c 0.018431,0.082939 0.042397,0.1695654 0.072347,0.2594158 0.02995,0.08985 0.063391,0.1854346 0.1002525,0.2868041 L 8.6883588,8.3478112 H 7.9075279 L 8.1421387,7.712191 C 8.1813047,7.6039097 8.2139477,7.5117493 8.2392907,7.435722 8.2646327,7.359695 8.2851757,7.2799155 8.3013025,7.1969768 Z M 10.519771,7.46001 c -0.112889,0 -0.216634,0.011585 -0.311091,0.034623 -0.09446,0.020735 -0.170297,0.054972 -0.2278937,0.1033529 -0.055293,0.048381 -0.082682,0.1131517 -0.082682,0.1937866 0,0.078331 0.023967,0.134424 0.072347,0.168982 0.050685,0.032254 0.1244137,0.048576 0.2211757,0.048576 0,-0.073723 0.0069,-0.138494 0.02067,-0.1937867 0.01613,-0.057596 0.04745,-0.1021048 0.09353,-0.1343588 0.04608,-0.032254 0.112958,-0.048576 0.200504,-0.048576 0.09445,0 0.164243,0.018432 0.210323,0.055294 0.04607,0.036861 0.07609,0.087421 0.08992,0.1519288 0.01383,0.062204 0.02067,0.1351357 0.02067,0.2180744 v 0.2072227 l -0.286804,0.010335 c -0.264944,0.00922 -0.46296,0.057664 -0.5942794,0.1452108 -0.1290159,0.087546 -0.19327,0.2234189 -0.19327,0.4077271 0,0.188916 0.050559,0.328212 0.1519288,0.4180624 0.1013696,0.08985 0.2290806,0.1348755 0.3834396,0.1348755 0.09676,0 0.175227,-0.013695 0.235127,-0.041341 0.0622,-0.02995 0.116184,-0.069442 0.162264,-0.1178224 0.04608,-0.050685 0.09321,-0.1080913 0.141594,-0.1725994 h 0.0279 l 0.05529,0.2971396 h 0.466638 V 9.2015057 h -0.01034 c -0.07833,0 -0.133628,-0.017118 -0.165882,-0.051676 C 11.1686,9.1152717 11.15228,9.0497042 11.15228,8.9529424 V 8.0579062 c 0,-0.218866 -0.05319,-0.3731705 -0.159164,-0.4630209 C 10.889454,7.5050352 10.731726,7.46001 10.519771,7.46001 Z m 0.307475,0.9467122 v 0.2800864 c 0,0.1474465 -0.04108,0.2648868 -0.124024,0.3524332 -0.08294,0.085242 -0.194844,0.1276408 -0.33538,0.1276408 -0.186611,0 -0.280086,-0.1071692 -0.280086,-0.3214275 0,-0.1359273 0.03686,-0.2383591 0.110589,-0.3074746 0.07603,-0.07142 0.211898,-0.1117077 0.407725,-0.1209231 z" />
</svg>
