<?xml version="1.0" encoding="UTF-8" standalone="no"?>
<svg
   height="64"
   viewBox="545 370 229.376 229.376"
   width="64"
   version="1.1"
   id="svg10"
   sodipodi:docname="accessories-camera.svg"
   inkscape:version="1.1.1 (3bf5ae0d25, 2021-09-20, custom)"
   xmlns:inkscape="http://www.inkscape.org/namespaces/inkscape"
   xmlns:sodipodi="http://sodipodi.sourceforge.net/DTD/sodipodi-0.dtd"
   xmlns:xlink="http://www.w3.org/1999/xlink"
   xmlns="http://www.w3.org/2000/svg"
   xmlns:svg="http://www.w3.org/2000/svg">
  <defs
     id="defs14">
    <linearGradient
       inkscape:collect="always"
       id="linearGradient10454">
      <stop
         style="stop-color:#1a1a1a;stop-opacity:1;"
         offset="0"
         id="stop10450" />
      <stop
         style="stop-color:#1a1a1a;stop-opacity:0;"
         offset="1"
         id="stop10452" />
    </linearGradient>
    <linearGradient
       inkscape:collect="always"
       xlink:href="#linearGradient10454"
       id="linearGradient10456"
       x1="-6.5576382"
       y1="76.586578"
       x2="1977.5839"
       y2="1992.5081"
       gradientUnits="userSpaceOnUse"
       gradientTransform="matrix(0.0516096,0,0,0.0516096,595.17597,421.15971)" />
  </defs>
  <sodipodi:namedview
     id="namedview12"
     pagecolor="#ffffff"
     bordercolor="#666666"
     borderopacity="1.0"
     inkscape:pageshadow="2"
     inkscape:pageopacity="0.0"
     inkscape:pagecheckerboard="0"
     showgrid="false"
     inkscape:zoom="6.1953125"
     inkscape:cx="83.450189"
     inkscape:cy="27.682219"
     inkscape:window-width="1920"
     inkscape:window-height="1024"
     inkscape:window-x="0"
     inkscape:window-y="24"
     inkscape:window-maximized="1"
     inkscape:current-layer="svg10" />
  <circle
     style="fill:#f9f9f9;fill-opacity:1;stroke-width:3.584"
     cx="659.68799"
     cy="484.68799"
     r="100.352"
     id="circle4" />
  <path
     d="m 602.79245,543.72602 c -3.33302,-0.87231 -6.00203,-3.35905 -7.21285,-6.7181 l -0.40361,-1.14572 v -82.41393 l 0.40361,-1.14572 c 1.21082,-3.38509 3.89285,-5.87183 7.26492,-6.73113 1.00251,-0.24737 1.41914,-0.26039 12.57692,-0.26039 h 11.53534 l 8.46272,-8.73613 c 5.03858,-5.20783 8.645,-8.82728 8.93143,-8.98351 0.46871,-0.23435 0.95043,-0.24737 15.24593,-0.24737 h 14.7642 l 0.5338,0.29945 c 0.33851,0.18227 3.61944,3.48924 8.89237,8.97049 l 8.35857,8.69707 h 11.67856 c 11.28797,0 11.7046,0.013 12.70711,0.26039 3.37207,0.8593 6.0541,3.34604 7.26492,6.73113 l 0.40361,1.14572 v 82.41393 l -0.40361,1.14572 c -1.21082,3.38509 -3.89285,5.87183 -7.26492,6.73112 -1.02855,0.26039 -1.24988,0.26039 -56.89555,0.24737 -55.08583,0 -55.88003,0 -56.84347,-0.26039 z"
     fill="#565656"
     id="path2"
     style="stroke-width:0.0130196" />
  <path
     id="rect853"
     style="fill:#636363;fill-opacity:1;stroke-width:0.0664639"
     d="m 659.59686,427.34399 c -14.2955,0 -14.77722,0.013 -15.24593,0.24736 -0.28643,0.15624 -3.89285,3.77567 -8.93143,8.9835 l -8.46272,8.73614 h -11.53534 c -11.15778,0 -11.57441,0.0131 -12.57692,0.26046 -3.37207,0.85929 -6.0541,3.34603 -7.26492,6.73112 l -0.40361,1.1457 v 25.50532 H 724.2 v -25.50532 l -0.40361,-1.1457 c -1.21082,-3.38509 -3.89285,-5.87183 -7.26492,-6.73112 -1.00251,-0.24737 -1.41914,-0.26046 -12.70711,-0.26046 H 692.1458 l -8.35857,-8.69703 c -5.27293,-5.48125 -8.55386,-8.78822 -8.89237,-8.97049 l -0.5338,-0.29948 z" />
  <path
     id="rect10111-7"
     style="fill:url(#linearGradient10456);fill-opacity:1;stroke-width:0.0520802"
     d="m 683.67373,467.35072 -49.16366,49.16368 27.471,27.471 c 51.75079,0.0122 53.54646,0.0101 54.5504,-0.24636 3.37207,-0.85929 6.0541,-3.34603 7.26492,-6.73112 L 724.2,535.8622 v -27.98528 z" />
  <path
     d="m 657.14918,527.51665 c -0.20832,-0.0264 -0.95043,-0.11718 -1.62745,-0.19529 -9.10068,-1.02855 -17.87588,-6.13223 -23.55241,-13.70962 -8.16328,-10.87135 -9.19182,-25.79179 -2.61694,-37.62658 1.71859,-3.08564 3.41113,-5.32501 5.91089,-7.83779 2.90337,-2.89035 5.42916,-4.71309 9.15276,-6.57489 6.92642,-3.48924 14.88138,-4.50477 22.69312,-2.90336 4.99952,1.02855 10.45472,3.60642 14.58193,6.90037 1.43215,1.14573 4.27042,3.98399 5.37708,5.39011 3.94494,4.97348 6.3796,10.65001 7.34305,17.0947 0.28643,1.8618 0.31247,7.2389 0.0651,9.07466 -1.11968,7.94194 -4.47873,14.7642 -9.97299,20.25846 -5.40313,5.40312 -12.06915,8.73613 -19.80278,9.89488 -1.23686,0.19529 -6.67904,0.35152 -7.55135,0.23435 z m 50.46388,-60.93163 c -0.39059,-0.10416 -1.00251,-0.35153 -1.36706,-0.54682 -0.84627,-0.44267 -2.26541,-1.84878 -2.70807,-2.70807 -1.00251,-1.8618 -1.00251,-4.23137 0,-6.09316 0.44266,-0.84628 1.8618,-2.26541 2.70807,-2.70808 1.8618,-1.0025 4.23136,-1.0025 6.09316,0 0.84628,0.44267 2.26541,1.8618 2.70807,2.70808 1.00251,1.86179 1.00251,4.23136 0,6.09316 -0.44266,0.84627 -1.86179,2.2654 -2.70807,2.70807 -1.36705,0.7291 -3.24187,0.95043 -4.7261,0.54682 z"
     fill="#4285f4"
     id="path4"
     style="stroke-width:0.0130196" />
  <path
     d="m 657.14918,527.51665 c -0.20832,-0.0264 -0.95043,-0.11718 -1.62745,-0.19529 -9.10068,-1.02855 -17.87588,-6.13223 -23.55241,-13.70962 -8.16328,-10.87135 -9.19182,-25.79179 -2.61694,-37.62658 1.71859,-3.08564 3.41113,-5.32501 5.91089,-7.83779 2.90337,-2.89035 5.42916,-4.71309 9.15276,-6.57489 6.92642,-3.48924 14.88138,-4.50477 22.69312,-2.90336 4.99952,1.02855 10.45472,3.60642 14.58193,6.90037 1.43215,1.14573 4.27042,3.98399 5.37708,5.39011 3.94494,4.97348 6.3796,10.65001 7.34305,17.0947 0.28643,1.8618 0.31247,7.2389 0.0651,9.07466 -1.11968,7.94194 -4.47873,14.7642 -9.97299,20.25846 -5.40313,5.40312 -12.06915,8.73613 -19.80278,9.89488 -1.23686,0.19529 -6.67904,0.35152 -7.55135,0.23435 z m 5.14273,-8.7752 c 4.99952,-0.52078 9.9079,-2.53881 13.80075,-5.68955 1.15874,-0.93741 3.34603,-3.16376 4.17929,-4.27042 5.29896,-6.93944 6.83527,-15.84483 4.14022,-24.08623 -1.31498,-3.99701 -3.55434,-7.55135 -6.63998,-10.54585 -2.18729,-2.10918 -4.11419,-3.46321 -6.7832,-4.75215 -8.87935,-4.28344 -19.34709,-3.1898 -27.24998,2.85129 -1.10666,0.83325 -3.33301,3.02054 -4.27042,4.17928 -7.59041,9.40014 -7.74665,22.69313 -0.36455,32.35366 0.83326,1.10666 3.02055,3.33301 4.17929,4.27042 5.31199,4.28344 12.3035,6.37959 19.00858,5.68955 z m 45.32115,-52.15643 c -0.39059,-0.10416 -1.00251,-0.35153 -1.36706,-0.54682 -0.84627,-0.44267 -2.26541,-1.84878 -2.70807,-2.70807 -1.00251,-1.8618 -1.00251,-4.23137 0,-6.09316 0.44266,-0.84628 1.8618,-2.26541 2.70807,-2.70808 1.8618,-1.0025 4.23136,-1.0025 6.09316,0 0.84628,0.44267 2.26541,1.8618 2.70807,2.70808 1.00251,1.86179 1.00251,4.23136 0,6.09316 -0.44266,0.84627 -1.86179,2.2654 -2.70807,2.70807 -1.36705,0.7291 -3.24187,0.95043 -4.7261,0.54682 z"
     fill="#bbbbbb"
     id="path6"
     style="stroke-width:0.0130196" />
  <path
     d="m 657.30541,527.45155 c -2.9294,-0.20831 -6.49677,-0.96345 -9.26994,-1.96596 -3.16375,-1.1327 -7.08265,-3.33301 -9.82978,-5.49426 -1.26289,-0.98948 -4.55685,-4.28344 -5.54634,-5.54634 -2.10917,-2.68203 -4.32249,-6.61394 -5.44218,-9.67354 -2.43466,-6.62697 -2.76015,-14.03511 -0.92439,-21.01361 0.61192,-2.34352 1.21082,-3.90587 2.40862,-6.36657 1.77067,-3.61944 3.90588,-6.54885 6.86132,-9.43919 2.89035,-2.82525 5.42916,-4.63497 8.95747,-6.36658 2.44768,-1.1978 4.01003,-1.7967 6.35355,-2.40862 10.67605,-2.79921 21.76873,-0.55984 30.42675,6.17128 1.47121,1.1327 4.34854,3.95795 5.53332,5.41615 2.23937,2.74713 4.54383,6.78319 5.7156,9.99903 2.43466,6.62696 2.76015,14.03511 0.92439,21.01361 -0.61192,2.34352 -1.21082,3.90587 -2.40863,6.36657 -3.34603,6.82226 -8.9835,12.45973 -15.80576,15.80576 -2.4607,1.19781 -4.02305,1.79671 -6.36657,2.40863 -3.93192,1.02854 -7.62948,1.38007 -11.58743,1.09364 z m 4.9865,-8.7101 c 4.99952,-0.52078 9.9079,-2.53881 13.80075,-5.68955 1.15874,-0.93741 3.34603,-3.16376 4.17929,-4.27042 5.29896,-6.93944 6.83527,-15.84483 4.14022,-24.08623 -1.31498,-3.99701 -3.55434,-7.55135 -6.63998,-10.54585 -2.18729,-2.10918 -4.11419,-3.46321 -6.7832,-4.75215 -8.87935,-4.28344 -19.34709,-3.1898 -27.24998,2.85129 -1.10666,0.83325 -3.33301,3.02054 -4.27042,4.17928 -7.59041,9.40014 -7.74665,22.69313 -0.36455,32.35366 0.83326,1.10666 3.02055,3.33301 4.17929,4.27042 5.31199,4.28344 12.3035,6.37959 19.00858,5.68955 z"
     fill="#ffffff"
     id="path8"
     style="stroke-width:0.0130196" />
</svg>
