<?xml version="1.0" encoding="UTF-8" standalone="no"?>
<svg
   width="64"
   height="64"
   version="1"
   id="svg20"
   sodipodi:docname="org.gnome.Contacts.svg"
   inkscape:version="1.1.1 (3bf5ae0d25, 2021-09-20, custom)"
   xmlns:inkscape="http://www.inkscape.org/namespaces/inkscape"
   xmlns:sodipodi="http://sodipodi.sourceforge.net/DTD/sodipodi-0.dtd"
   xmlns="http://www.w3.org/2000/svg"
   xmlns:svg="http://www.w3.org/2000/svg">
  <defs
     id="defs24" />
  <sodipodi:namedview
     id="namedview22"
     pagecolor="#ffffff"
     bordercolor="#666666"
     borderopacity="1.0"
     inkscape:pageshadow="2"
     inkscape:pageopacity="0.0"
     inkscape:pagecheckerboard="0"
     showgrid="false"
     inkscape:zoom="8"
     inkscape:cx="44.875"
     inkscape:cy="45.4375"
     inkscape:window-width="1920"
     inkscape:window-height="1012"
     inkscape:window-x="0"
     inkscape:window-y="0"
     inkscape:window-maximized="1"
     inkscape:current-layer="svg20" />
  <circle
     style="fill:#1fc24c;fill-opacity:1"
     cx="32"
     cy="32"
     r="28"
     id="circle4" />
  <path
     style="fill:#ffffff"
     d="m 32,16 c -3.8668,0 -7,3.1346 -7,7 0,3.8654 3.1332,7 7,7 3.8668,0 7,-3.1346 7,-7 0,-3.8654 -3.1332,-7 -7,-7 z"
     id="path12" />
  <path
     id="path14"
     style="fill:#ffffff"
     d="M 32,35 C 20.030206,35 18,41.861328 18,41.861328 V 44 45 c 0,1.662 1.338,3 3,3 h 22 c 1.662,0 3,-1.338 3,-3 V 44 41.861328 C 46,41.861328 43.893835,35 32.001953,35 Z"
     sodipodi:nodetypes="sccssssccss" />
</svg>
