<?xml version="1.0" encoding="UTF-8" standalone="no"?>
<!-- Created with Inkscape (http://www.inkscape.org/) -->

<svg
   width="64"
   height="64"
   viewBox="0 0 16.933333 16.933333"
   version="1.1"
   id="svg5"
   inkscape:version="1.1.1 (3bf5ae0d25, 2021-09-20, custom)"
   sodipodi:docname="amazon-store.svg"
   xmlns:inkscape="http://www.inkscape.org/namespaces/inkscape"
   xmlns:sodipodi="http://sodipodi.sourceforge.net/DTD/sodipodi-0.dtd"
   xmlns="http://www.w3.org/2000/svg"
   xmlns:svg="http://www.w3.org/2000/svg">
  <sodipodi:namedview
     id="namedview7"
     pagecolor="#ffffff"
     bordercolor="#666666"
     borderopacity="1.0"
     inkscape:pageshadow="2"
     inkscape:pageopacity="0.0"
     inkscape:pagecheckerboard="0"
     inkscape:document-units="px"
     showgrid="false"
     units="px"
     height="48px"
     inkscape:zoom="5.656854"
     inkscape:cx="-2.1213204"
     inkscape:cy="15.821515"
     inkscape:window-width="1920"
     inkscape:window-height="1019"
     inkscape:window-x="0"
     inkscape:window-y="0"
     inkscape:window-maximized="1"
     inkscape:current-layer="svg5"
     inkscape:lockguides="true" />
  <defs
     id="defs2" />
  <circle
     style="fill:#f9f9f9;stroke-width:0.529167;stroke-linecap:round;stroke-linejoin:round;stroke-dasharray:6.35, 0.529167"
     id="path931"
     cx="8.4666662"
     cy="8.4666662"
     r="7.4083333" />
  <path
     id="path6"
     style="fill-rule:evenodd;stroke-width:0.215004;stroke-opacity:0.255;fill:#212121;fill-opacity:1"
     d="m 8.4811085,4.233335 c -1.036021,0 -2.19309,0.4050197 -2.438094,1.7430461 -0.024,0.1430028 0.0743,0.2182615 0.163297,0.239262 l 1.056783,0.1178221 c 0.100002,-0.005 0.170169,-0.1047372 0.19017,-0.2077392 0.09,-0.4620091 0.459907,-0.6852295 0.875915,-0.6852295 0.224005,0 0.478846,0.087135 0.611849,0.2971395 0.151003,0.2340046 0.131258,0.5547505 0.131258,0.824756 v 0.1483111 c -0.632012,0.075002 -1.458959,0.1228026 -2.04897,0.394808 -0.682014,0.308006 -1.162203,0.9389507 -1.162203,1.863969 0,1.1840229 0.714923,1.7761189 1.631941,1.7761189 0.776016,0 1.198261,-0.190877 1.796273,-0.8288899 0.200004,0.3000059 0.264795,0.4461539 0.625802,0.7601599 a 0.22000433,0.22000433 0 0 0 0.2568305,-0.02842 l -0.0016,0.0021 0.0036,0.0041 a 52.391032,52.391032 0 0 1 0.836125,-0.7570593 c 0.088,-0.077001 0.07207,-0.2008219 0.0021,-0.3028238 C 10.813201,9.3057573 10.601377,9.0714738 10.601377,8.5374631 v -1.775602 c 0,-0.7520149 0.05094,-1.4430769 -0.480074,-1.9600871 C 9.7042955,4.3817657 9.0111035,4.2333332 8.4810935,4.2333332 Z m 0.592212,3.3904907 v 0.2470134 c 0,0.4450088 0.01088,0.8147375 -0.204122,1.2097453 -0.173004,0.3200062 -0.447953,0.5172811 -0.753959,0.5172811 -0.419009,0 -0.661975,-0.3332631 -0.661975,-0.8252727 0,-0.9720191 0.83304,-1.1487671 1.620056,-1.1487671 z" />
  <path
     id="path8"
     style="fill-rule:evenodd;stroke-width:0.215004;stroke-opacity:0.255;fill:#ffb300;fill-opacity:1"
     d="m 12.079338,10.743532 c -0.296381,0.0041 -0.646551,0.07203 -0.911056,0.263033 -0.083,0.059 -0.06926,0.139191 0.02274,0.129191 0.297006,-0.037 0.963068,-0.118796 1.08107,0.03721 0.119003,0.155003 -0.132876,0.795582 -0.242879,1.081588 -0.034,0.086 0.0382,0.122328 0.114205,0.05633 0.49901,-0.426009 0.626035,-1.318938 0.525033,-1.44694 -0.05,-0.0645 -0.292731,-0.124532 -0.589111,-0.120406 z m -7.7685177,0.170532 c -0.072898,-0.0043 -0.1104797,0.08073 -0.039791,0.145728 a 6.1171203,6.1171203 0 0 0 4.1873412,1.638143 c 1.158023,0 2.5006795,-0.373306 3.4276975,-1.07332 l 10e-4,-0.001 c 0.154035,-0.118004 0.02216,-0.290729 -0.134844,-0.222727 A 8.1381602,8.1381602 0 0 1 8.5560375,12.070584 8.2701626,8.2701626 0 0 1 4.3661124,10.932669 c -0.019688,-0.01181 -0.038471,-0.01762 -0.055294,-0.0186 z" />
</svg>
