<?xml version="1.0" encoding="UTF-8" standalone="no"?>
<svg
   width="64"
   height="64"
   version="1"
   id="svg22"
   sodipodi:docname="android-sdk.svg"
   inkscape:version="1.1.1 (3bf5ae0d25, 2021-09-20, custom)"
   xmlns:inkscape="http://www.inkscape.org/namespaces/inkscape"
   xmlns:sodipodi="http://sodipodi.sourceforge.net/DTD/sodipodi-0.dtd"
   xmlns="http://www.w3.org/2000/svg"
   xmlns:svg="http://www.w3.org/2000/svg">
  <defs
     id="defs26" />
  <sodipodi:namedview
     id="namedview24"
     pagecolor="#ffffff"
     bordercolor="#666666"
     borderopacity="1.0"
     inkscape:pageshadow="2"
     inkscape:pageopacity="0.0"
     inkscape:pagecheckerboard="0"
     showgrid="false"
     inkscape:zoom="11.421875"
     inkscape:cx="31.956224"
     inkscape:cy="32"
     inkscape:window-width="1920"
     inkscape:window-height="1019"
     inkscape:window-x="0"
     inkscape:window-y="0"
     inkscape:window-maximized="1"
     inkscape:current-layer="svg22" />
  <rect
     style="fill:#295f6e"
     width="55.999"
     height="55.999"
     x="4"
     y="4"
     rx="28"
     ry="28"
     id="rect4" />
  <path
     style="fill:none;stroke:#30dd81;stroke-width:2.66662312;stroke-linecap:round"
     d="M 22.598674,28.600844 19.398728,23.267598"
     id="path10" />
  <path
     style="fill:none;stroke:#30dd81;stroke-width:2.66662312;stroke-linecap:round"
     d="m 41.398414,28.600844 3.199948,-5.333246"
     id="path12" />
  <path
     style="fill:#30dd81"
     d="m 32.003288,24.000543 c -8.355749,0 -15.221312,6.346784 -15.999771,14.460732 -0.0735,1.53992 1.55076,1.53904 1.55076,1.53904 h 28.851149 c 0,0 1.670878,-3.38e-4 1.589821,-1.617165 C 47.180921,30.306045 40.332619,24.000543 32.003288,24.000543 Z"
     id="path14" />
  <path
     style="fill:#ffffff"
     d="M 23.999496,32.000429 A 1.9999673,1.9999673 0 0 1 25.999468,34.0004 1.9999673,1.9999673 0 0 1 23.999496,36.000372 1.9999673,1.9999673 0 0 1 21.999525,34.0004 1.9999673,1.9999673 0 0 1 23.999496,32.000429 Z"
     id="path18" />
  <path
     style="fill:#ffffff"
     d="M 39.999268,32.000429 A 1.9999673,1.9999673 0 0 1 41.999239,34.0004 1.9999673,1.9999673 0 0 1 39.999268,36.000372 1.9999673,1.9999673 0 0 1 37.999296,34.0004 1.9999673,1.9999673 0 0 1 39.999268,32.000429 Z"
     id="path20" />
</svg>
