<?xml version="1.0" encoding="UTF-8" standalone="no"?>
<svg
   width="64"
   height="64"
   version="1.1"
   id="svg18"
   sodipodi:docname="baobab.svg"
   inkscape:version="1.1.1 (3bf5ae0d25, 2021-09-20, custom)"
   xmlns:inkscape="http://www.inkscape.org/namespaces/inkscape"
   xmlns:sodipodi="http://sodipodi.sourceforge.net/DTD/sodipodi-0.dtd"
   xmlns="http://www.w3.org/2000/svg"
   xmlns:svg="http://www.w3.org/2000/svg">
  <defs
     id="defs22" />
  <sodipodi:namedview
     id="namedview20"
     pagecolor="#ffffff"
     bordercolor="#666666"
     borderopacity="1.0"
     inkscape:pageshadow="2"
     inkscape:pageopacity="0.0"
     inkscape:pagecheckerboard="0"
     showgrid="false"
     inkscape:zoom="11.046875"
     inkscape:cx="31.954738"
     inkscape:cy="32"
     inkscape:window-width="1920"
     inkscape:window-height="1019"
     inkscape:window-x="0"
     inkscape:window-y="0"
     inkscape:window-maximized="1"
     inkscape:current-layer="svg18" />
  <path
     style="fill:#fff55d"
     d="M 60,32 C 60,47.463972 47.463972,60 32,60 24.04778,60 16.86984,56.684916 11.772766,51.361336 6.958015,46.332624 7.7275542,41.332188 7.7275542,33.820434 7.7275542,18.356461 16.362652,8.3343652 31.826626,8.3343652 47.290598,8.3343652 60,16.536027 60,32 Z"
     id="path4" />
  <path
     style="fill:#4098fe"
     d="M 60,32 H 32 V 4 c 15.463972,0 28,12.536027 28,28 z"
     id="path8" />
  <path
     style="fill:#24db65"
     d="M 32,4 C 16.536027,4 4,16.536027 4,32 4.00692,39.423412 6.9614544,46.540252 12.214062,51.785936 L 32,32 Z"
     id="path10" />
  <path
     style="fill:#25a068"
     d="M 32,27.8 12.214062,47.585936 C 7.455747,42.818652 4.575396,36.495858 4.1011718,29.776952 4.0380028,30.516334 4.0042522,31.257936 4,32 4.00692,39.423412 6.9614544,46.540252 12.214062,51.785936 L 32,32 Z"
     id="path12" />
  <path
     style="fill:#2379e0"
     d="m 32,26 v 6 h 28 c 0,-2.060914 -0.237584,-4.065838 -0.660156,-6 z"
     id="path14" />
</svg>
