<?xml version="1.0" encoding="UTF-8" standalone="no"?>
<!-- Created with Inkscape (http://www.inkscape.org/) -->

<svg
   width="64"
   height="64"
   viewBox="0 0 16.933333 16.933333"
   version="1.1"
   id="svg5"
   inkscape:version="1.1.1 (3bf5ae0d25, 2021-09-20, custom)"
   sodipodi:docname="calligrakarbon.svg"
   xmlns:inkscape="http://www.inkscape.org/namespaces/inkscape"
   xmlns:sodipodi="http://sodipodi.sourceforge.net/DTD/sodipodi-0.dtd"
   xmlns:xlink="http://www.w3.org/1999/xlink"
   xmlns="http://www.w3.org/2000/svg"
   xmlns:svg="http://www.w3.org/2000/svg">
  <sodipodi:namedview
     id="namedview7"
     pagecolor="#ffffff"
     bordercolor="#666666"
     borderopacity="1.0"
     inkscape:pageshadow="2"
     inkscape:pageopacity="0.0"
     inkscape:pagecheckerboard="0"
     inkscape:document-units="px"
     showgrid="false"
     units="px"
     height="48px"
     inkscape:zoom="5.656854"
     inkscape:cx="18.915107"
     inkscape:cy="22.185476"
     inkscape:window-width="1920"
     inkscape:window-height="1019"
     inkscape:window-x="0"
     inkscape:window-y="0"
     inkscape:window-maximized="1"
     inkscape:current-layer="svg5"
     inkscape:lockguides="true" />
  <defs
     id="defs2">
    <linearGradient
       inkscape:collect="always"
       id="linearGradient921">
      <stop
         style="stop-color:#c6cdd1;stop-opacity:1;"
         offset="0"
         id="stop917" />
      <stop
         style="stop-color:#e0e5e7;stop-opacity:1"
         offset="1"
         id="stop919" />
    </linearGradient>
    <linearGradient
       xlink:href="#b"
       id="e"
       y1="24.02"
       x1="18.190001"
       y2="40.189999"
       x2="34.360001"
       gradientUnits="userSpaceOnUse"
       gradientTransform="matrix(0.34395833,0,0,0.34395833,0.21166665,0.21166663)" />
    <linearGradient
       id="b"
       y1="14.849"
       y2="26.16"
       x2="0"
       gradientUnits="userSpaceOnUse">
      <stop
         id="stop7" />
      <stop
         offset="1"
         stop-opacity="0"
         id="stop9" />
    </linearGradient>
    <linearGradient
       id="a"
       y1="45"
       y2="13"
       x2="0"
       gradientUnits="userSpaceOnUse"
       gradientTransform="matrix(1.3,0,0,1.3,0.79999995,0.79999988)">
      <stop
         stop-color="#663579"
         id="stop2" />
      <stop
         offset="1"
         stop-color="#16a085"
         id="stop4" />
    </linearGradient>
    <linearGradient
       id="g"
       x1="8.2130003"
       x2="40.550999"
       gradientUnits="userSpaceOnUse"
       gradientTransform="matrix(1.3,0,0,1.3,0.79999995,0.79999988)">
      <stop
         stop-color="#1d1e1e"
         id="stop20" />
      <stop
         offset="1"
         stop-color="#2c2f32"
         id="stop22" />
    </linearGradient>
    <linearGradient
       inkscape:collect="always"
       xlink:href="#b"
       id="linearGradient896"
       gradientUnits="userSpaceOnUse"
       y1="14.849"
       x2="0"
       y2="26.16"
       gradientTransform="translate(0.8158923,2.12132)" />
    <linearGradient
       id="linearGradient2779"
       y1="14.849"
       y2="26.16"
       x2="0"
       gradientUnits="userSpaceOnUse">
      <stop
         id="stop2775" />
      <stop
         offset="1"
         stop-opacity="0"
         id="stop2777" />
    </linearGradient>
    <linearGradient
       inkscape:collect="always"
       xlink:href="#h"
       id="linearGradient898"
       gradientUnits="userSpaceOnUse"
       gradientTransform="translate(-21.923077,-0.92307733)"
       x1="7"
       x2="11" />
    <linearGradient
       id="h"
       x1="7"
       x2="11"
       gradientUnits="userSpaceOnUse"
       gradientTransform="translate(-21,-3)">
      <stop
         stop-color="#1d1e1e"
         id="stop25" />
      <stop
         offset="1"
         stop-color="#44484c"
         id="stop27" />
    </linearGradient>
    <linearGradient
       xlink:href="#b"
       id="d"
       y1="36.77"
       y2="48.080002"
       x2="0"
       gradientUnits="userSpaceOnUse"
       gradientTransform="translate(2.1757132,2.1757132)" />
    <linearGradient
       id="linearGradient2790"
       y1="14.849"
       y2="26.16"
       x2="0"
       gradientUnits="userSpaceOnUse">
      <stop
         id="stop2786" />
      <stop
         offset="1"
         stop-opacity="0"
         id="stop2788" />
    </linearGradient>
    <linearGradient
       xlink:href="#h"
       id="j"
       x1="19"
       x2="25"
       gradientUnits="userSpaceOnUse"
       gradientTransform="translate(-52,-4.923077)" />
    <linearGradient
       id="linearGradient2797"
       x1="7"
       x2="11"
       gradientUnits="userSpaceOnUse"
       gradientTransform="translate(-21,-3)">
      <stop
         stop-color="#1d1e1e"
         id="stop2793" />
      <stop
         offset="1"
         stop-color="#44484c"
         id="stop2795" />
    </linearGradient>
    <linearGradient
       xlink:href="#b"
       id="c"
       y1="31.885"
       y2="44.48"
       x2="0"
       gradientUnits="userSpaceOnUse" />
    <linearGradient
       id="linearGradient2804"
       y1="14.849"
       y2="26.16"
       x2="0"
       gradientUnits="userSpaceOnUse">
      <stop
         id="stop2800" />
      <stop
         offset="1"
         stop-opacity="0"
         id="stop2802" />
    </linearGradient>
    <linearGradient
       xlink:href="#h"
       id="i"
       x1="23"
       x2="28"
       gradientUnits="userSpaceOnUse"
       gradientTransform="translate(-45,6)" />
    <linearGradient
       id="linearGradient2811"
       x1="7"
       x2="11"
       gradientUnits="userSpaceOnUse"
       gradientTransform="translate(-21,-3)">
      <stop
         stop-color="#1d1e1e"
         id="stop2807" />
      <stop
         offset="1"
         stop-color="#44484c"
         id="stop2809" />
    </linearGradient>
    <linearGradient
       xlink:href="#h"
       id="k"
       x1="34"
       x2="42"
       gradientUnits="userSpaceOnUse"
       gradientTransform="matrix(0.96153846,0,0,0.96153846,-70.923077,4.1923048)" />
    <linearGradient
       id="linearGradient2818"
       x1="7"
       x2="11"
       gradientUnits="userSpaceOnUse"
       gradientTransform="translate(-21,-3)">
      <stop
         stop-color="#1d1e1e"
         id="stop2814" />
      <stop
         offset="1"
         stop-color="#44484c"
         id="stop2816" />
    </linearGradient>
    <linearGradient
       id="a-7"
       y1="45"
       y2="13"
       x2="0"
       gradientUnits="userSpaceOnUse"
       gradientTransform="matrix(0.34395833,0,0,0.34395833,-16.751295,2.3144215)">
      <stop
         stop-color="#663579"
         id="stop2-5" />
      <stop
         offset="1"
         stop-color="#16a085"
         id="stop4-3" />
    </linearGradient>
    <linearGradient
       inkscape:collect="always"
       xlink:href="#linearGradient921"
       id="linearGradient4696"
       x1="8.4666662"
       y1="16.933334"
       x2="8.4666672"
       y2="6.7529299e-07"
       gradientUnits="userSpaceOnUse"
       gradientTransform="scale(3.7795276)" />
  </defs>
  <path
     id="rect914"
     style="fill:url(#linearGradient4696);fill-opacity:1;stroke-width:3;stroke-linecap:round;stroke-linejoin:round"
     d="M 32 4 A 28 28 0 0 0 4 32 A 28 28 0 0 0 32 60 A 28 28 0 0 0 60 32 A 28 28 0 0 0 32 4 z "
     transform="scale(0.26458333)" />
  <path
     opacity="0.2"
     fill="url(#e)"
     d="m 8.6131928,5.7149999 -4.2740262,5.1593751 4.4594198,4.45942 a 6.8791666,6.8791666 0 0 0 5.7565996,-3.676727 z"
     id="path37"
     style="fill:url(#e);fill-rule:evenodd;stroke-width:0.343958" />
  <path
     id="path39"
     style="fill:url(#a);fill-rule:evenodd;stroke-width:1.3"
     d="M 8.9902344 16.056641 A 28 28 0 0 0 4 32 A 28 28 0 0 0 32 60 A 28 28 0 0 0 55.939453 46.492188 C 46.779608 46.220329 31.443661 45.226609 29.34375 39.974609 C 26.68525 33.32901 35.988103 31.999116 34.658203 25.353516 C 33.250229 18.313646 19.030356 16.405201 8.9902344 16.056641 z "
     transform="scale(0.26458333)" />
  <path
     id="path43"
     style="fill:url(#g);fill-rule:evenodd;stroke-width:1.3"
     d="M 8.9746094 16.078125 A 28 28 0 0 0 8.921875 16.150391 C 18.219096 16.569992 31.880182 17.957549 33.359375 25.353516 C 34.687975 31.999115 25.325875 33.270416 27.984375 39.916016 C 30.17775 45.397713 45.304882 48.519516 54.314453 48.884766 A 28 28 0 0 0 55.896484 46.560547 C 48.555324 46.415376 31.554132 45.499981 29.34375 39.974609 C 26.68525 33.329009 35.988756 31.999115 34.660156 25.353516 C 33.079446 17.449962 18.486007 16.280756 8.9746094 16.078125 z "
     transform="scale(0.26458333)" />
  <g
     stroke-linejoin="bevel"
     stroke-width="2"
     id="g75"
     transform="matrix(0.34395833,0,0,0.34395833,0.21166665,0.21166663)">
    <g
       stroke-linecap="round"
       id="g57"
       transform="translate(-3)">
      <rect
         width="4"
         x="-3.3041077"
         opacity="0.2"
         y="16.971319"
         fill="url(#b)"
         height="15"
         transform="rotate(-45)"
         id="rect47"
         style="fill:url(#linearGradient896)" />
      <circle
         fill="url(#h)"
         cx="-12.923077"
         cy="11.076923"
         r="2"
         transform="rotate(-90)"
         id="circle49"
         style="fill:url(#linearGradient898)" />
      <circle
         fill="#ffffff"
         cx="11.076923"
         cy="12.923077"
         r="1"
         id="circle51" />
      <rect
         width="6"
         x="-6.4842863"
         opacity="0.2"
         y="38.945713"
         fill="url(#d)"
         height="12"
         transform="rotate(-45)"
         id="rect53"
         style="fill:url(#d)" />
      <circle
         fill="url(#j)"
         cx="-30"
         cy="25.076923"
         r="3"
         transform="rotate(-90)"
         id="circle55"
         style="fill:url(#j)" />
    </g>
    <path
       opacity="0.2"
       fill="url(#c)"
       d="m 1.743,31.82 h 5 v 14 h -5 z"
       transform="rotate(-45)"
       id="path59"
       style="fill:url(#c)" />
    <g
       stroke-linecap="round"
       id="g73">
      <circle
         fill="url(#i)"
         cx="-19.5"
         cy="25.5"
         r="2.5"
         transform="rotate(-90)"
         id="circle61"
         style="fill:url(#i)" />
      <g
         fill="#ffffff"
         id="g67">
        <circle
           cx="25.5"
           cy="19.5"
           r="1.5"
           id="circle63" />
        <circle
           cx="22"
           cy="30"
           r="2"
           id="circle65" />
      </g>
      <circle
         fill="url(#k)"
         cx="-34.384617"
         cy="37.846153"
         r="3.8461537"
         transform="rotate(-90)"
         id="circle69"
         style="fill:url(#k);stroke-width:1.92308" />
      <circle
         fill="#ffffff"
         cx="37.846153"
         cy="34.384617"
         r="2.8846154"
         id="circle71"
         style="stroke-width:1.92308" />
    </g>
  </g>
  <path
     id="path1124"
     style="fill:#4f2c60;fill-opacity:1;stroke-width:2;stroke-linecap:round;stroke-linejoin:round"
     d="M 59.990234 31.279297 A 28 28 0 0 1 32 59 A 28 28 0 0 1 4.0195312 31.5 A 28 28 0 0 0 4 32 A 28 28 0 0 0 32 60 A 28 28 0 0 0 60 32 A 28 28 0 0 0 59.990234 31.279297 z "
     transform="scale(0.26458333)" />
</svg>
