<?xml version="1.0" encoding="UTF-8" standalone="no"?>
<!-- Created with Inkscape (http://www.inkscape.org/) -->

<svg
   sodipodi:docname="celluloid.svg"
   inkscape:version="1.1.1 (3bf5ae0d25, 2021-09-20, custom)"
   id="svg5"
   version="1.1"
   viewBox="0 0 16.933333 16.933334"
   height="64"
   width="64"
   xmlns:inkscape="http://www.inkscape.org/namespaces/inkscape"
   xmlns:sodipodi="http://sodipodi.sourceforge.net/DTD/sodipodi-0.dtd"
   xmlns:xlink="http://www.w3.org/1999/xlink"
   xmlns="http://www.w3.org/2000/svg"
   xmlns:svg="http://www.w3.org/2000/svg">
  <sodipodi:namedview
     id="namedview7"
     pagecolor="#ffffff"
     bordercolor="#666666"
     borderopacity="1.0"
     inkscape:pageshadow="2"
     inkscape:pageopacity="0.0"
     inkscape:pagecheckerboard="0"
     inkscape:document-units="px"
     showgrid="false"
     units="px"
     height="64px"
     inkscape:zoom="8"
     inkscape:cx="38.125"
     inkscape:cy="34.5625"
     inkscape:window-width="1920"
     inkscape:window-height="996"
     inkscape:window-x="0"
     inkscape:window-y="0"
     inkscape:window-maximized="1"
     inkscape:current-layer="svg5" />
  <defs
     id="defs2">
    <linearGradient
       inkscape:collect="always"
       id="linearGradient1764">
      <stop
         style="stop-color:#30399f;stop-opacity:1;"
         offset="0"
         id="stop1760" />
      <stop
         style="stop-color:#880e4f;stop-opacity:1"
         offset="1"
         id="stop1762" />
    </linearGradient>
    <linearGradient
       inkscape:collect="always"
       id="linearGradient1190">
      <stop
         style="stop-color:#000000;stop-opacity:1;"
         offset="0"
         id="stop1186" />
      <stop
         style="stop-color:#000000;stop-opacity:0;"
         offset="1"
         id="stop1188" />
    </linearGradient>
    <linearGradient
       inkscape:collect="always"
       xlink:href="#linearGradient1190"
       id="linearGradient1192"
       x1="23.946775"
       y1="31.08252"
       x2="47.22998"
       y2="44.525879"
       gradientUnits="userSpaceOnUse"
       gradientTransform="matrix(0.26458334,0,0,0.26458334,0,-0.52916667)" />
    <linearGradient
       inkscape:collect="always"
       xlink:href="#linearGradient1764"
       id="linearGradient1766"
       x1="7.9374995"
       y1="1.0583328"
       x2="7.9375"
       y2="15.875"
       gradientUnits="userSpaceOnUse" />
    <linearGradient
       inkscape:collect="always"
       xlink:href="#linearGradient1190"
       id="linearGradient2403"
       gradientUnits="userSpaceOnUse"
       gradientTransform="translate(-5.8255348,9.0000008)"
       x1="23.946775"
       y1="31.08252"
       x2="47.22998"
       y2="44.525879" />
  </defs>
  <circle
     style="fill:url(#linearGradient1766);fill-opacity:1;stroke-width:0.529167;stroke-linecap:round;stroke-linejoin:round"
     id="path1039"
     cx="8.4666662"
     cy="8.4666662"
     r="7.4083333" />
  <path
     id="rect951-3"
     style="opacity:1;fill:#ffffff;stroke-width:0.972141;stroke-linecap:round;stroke-linejoin:round"
     d="m 4.8947917,12.7 h 3.4395836 c 0.219868,0 0.396875,0.177007 0.396875,0.396875 0,0.219869 -0.177007,0.396875 -0.396875,0.396875 H 4.8947917 c -0.2198688,0 -0.396875,-0.177006 -0.396875,-0.396875 0,-0.219868 0.1770062,-0.396875 0.396875,-0.396875 z"
     sodipodi:nodetypes="sssssss" />
  <path
     id="path1989"
     style="opacity:0.2;fill:url(#linearGradient1192);fill-opacity:1;stroke-width:0.529167;stroke-linecap:round;stroke-linejoin:round"
     d="m 7.6729169,7.4083335 -1.3229167,3.1750005 6.1603478,3.556888 a 7.4083335,7.4083335 0 0 0 2.92592,-3.706233 L 11.1125,7.9375002 Z" />
  <path
     id="path1989-3"
     style="opacity:0.2;fill:url(#linearGradient2403);fill-opacity:1;stroke-width:2;stroke-linecap:round;stroke-linejoin:round"
     d="M 46.095703 48.109375 L 46.072266 48.113281 C 46.121167 48.133419 46.170683 48.154698 46.216797 48.179688 L 46.095703 48.109375 z M 46.216797 48.179688 C 46.684461 48.43311 47 48.928689 47 49.5 C 47 50.331001 46.330997 51 45.5 51 L 18.5 51 C 18.441184 51 18.383185 50.994804 18.326172 50.988281 L 18.173828 51 L 33.654297 59.9375 A 28 28 0 0 0 52.033203 51.537109 L 46.216797 48.179688 z "
     transform="scale(0.26458334)" />
  <path
     id="rect7216"
     style="opacity:1;fill:#ffffff;stroke-width:0.529167;stroke-linecap:round;stroke-linejoin:round"
     d="M 6.3499999,5.2916665 11.1125,7.9374999 6.3499999,10.583333 Z"
     sodipodi:nodetypes="cccc" />
  <path
     id="rect951"
     style="opacity:0.2;fill:#ffffff;stroke-width:0.972141;stroke-linecap:round;stroke-linejoin:round"
     d="m 4.8947917,12.7 h 7.1437503 c 0.219868,0 0.396875,0.177007 0.396875,0.396875 0,0.219869 -0.177007,0.396875 -0.396875,0.396875 H 4.8947917 c -0.2198688,0 -0.396875,-0.177006 -0.396875,-0.396875 0,-0.219868 0.1770062,-0.396875 0.396875,-0.396875 z" />
</svg>
