<?xml version="1.0" encoding="UTF-8" standalone="no"?>
<svg
   inkscape:version="1.1.1 (3bf5ae0d25, 2021-09-20, custom)"
   sodipodi:docname="org.gnome.clocks.svg"
   id="svg20"
   version="1"
   height="64"
   width="64"
   xmlns:inkscape="http://www.inkscape.org/namespaces/inkscape"
   xmlns:sodipodi="http://sodipodi.sourceforge.net/DTD/sodipodi-0.dtd"
   xmlns:xlink="http://www.w3.org/1999/xlink"
   xmlns="http://www.w3.org/2000/svg"
   xmlns:svg="http://www.w3.org/2000/svg">
  <defs
     id="defs24">
    <linearGradient
       inkscape:collect="always"
       id="linearGradient6831">
      <stop
         style="stop-color:#1a1a1a;stop-opacity:1;"
         offset="0"
         id="stop6827" />
      <stop
         style="stop-color:#1a1a1a;stop-opacity:0;"
         offset="1"
         id="stop6829" />
    </linearGradient>
    <linearGradient
       inkscape:collect="always"
       xlink:href="#linearGradient6831"
       id="linearGradient6833"
       x1="47.359268"
       y1="54.10154"
       x2="13.939453"
       y2="23.3125"
       gradientUnits="userSpaceOnUse" />
  </defs>
  <sodipodi:namedview
     id="namedview22"
     pagecolor="#ffffff"
     bordercolor="#666666"
     borderopacity="1.0"
     inkscape:pageshadow="2"
     inkscape:pageopacity="0.0"
     inkscape:pagecheckerboard="0"
     showgrid="false"
     inkscape:zoom="8.6620581"
     inkscape:cx="2.8861501"
     inkscape:cy="45.658895"
     inkscape:window-width="1920"
     inkscape:window-height="1012"
     inkscape:window-x="0"
     inkscape:window-y="0"
     inkscape:window-maximized="1"
     inkscape:current-layer="svg20" />
  <circle
     style="fill:#e3e3e3;fill-opacity:1"
     cx="32"
     cy="32"
     id="circle4"
     r="28" />
  <circle
     style="fill:#41c667;fill-opacity:1;stroke-width:2.05851"
     id="path1271"
     cx="32"
     cy="32"
     r="24" />
  <rect
     style="fill:#e3e3e3;fill-opacity:1;stroke-width:1.0308"
     id="rect1581"
     width="3"
     height="20"
     x="-13.220154"
     y="23.728058"
     transform="rotate(-60)" />
  <rect
     style="fill:#484848;fill-opacity:1;stroke-width:0.99584"
     id="rect1581-3"
     width="2"
     height="28"
     x="31"
     y="32" />
  <path
     id="rect1581-3-6-7"
     style="fill:#ffffff;fill-opacity:1;stroke-width:1.21965"
     d="M 55.499075,16.700736 33.493234,29.405814 a 3,3 0 0 0 -2.992871,-0.0041 3,3 0 0 0 -1.098076,4.098076 3,3 0 0 0 4.098076,1.098076 A 3,3 0 0 0 35,32 L 56.999075,19.298812 Z" />
  <path
     id="path5439"
     style="fill:url(#linearGradient6833);stroke-width:1.0308;opacity:0.12;fill-opacity:1"
     d="M 56.470703 18.408203 L 33 32 L 33 59.927734 C 48.044125 59.390129 59.97075 47.053699 60 32 C 59.997202 27.243163 58.782572 22.565458 56.470703 18.408203 z M 13.939453 23.3125 L 31.001953 40.375 L 31.001953 34.804688 C 30.331932 34.572299 29.7659 34.110063 29.404297 33.5 C 29.143178 33.046664 29.005148 32.532925 29.003906 32.009766 L 13.939453 23.3125 z " />
  <path
     id="rect1581-3-6-7-9"
     style="fill:#ffffff;fill-opacity:1;stroke-width:1.21965"
     d="M 55.499075,16.700736 33.493234,29.405814 a 3,3 0 0 0 -2.992871,-0.0041 3,3 0 0 0 -1.098076,4.098076 3,3 0 0 0 4.098076,1.098076 A 3,3 0 0 0 35,32 L 56.999075,19.298812 Z" />
</svg>
