<?xml version="1.0" encoding="UTF-8" standalone="no"?>
<!-- Created with Inkscape (http://www.inkscape.org/) -->

<svg
   width="64"
   height="64"
   viewBox="0 0 16.933333 16.933334"
   version="1.1"
   id="svg5"
   inkscape:version="1.1.1 (3bf5ae0d25, 2021-09-20, custom)"
   sodipodi:docname="deja-dup.svg"
   xmlns:inkscape="http://www.inkscape.org/namespaces/inkscape"
   xmlns:sodipodi="http://sodipodi.sourceforge.net/DTD/sodipodi-0.dtd"
   xmlns:xlink="http://www.w3.org/1999/xlink"
   xmlns="http://www.w3.org/2000/svg"
   xmlns:svg="http://www.w3.org/2000/svg">
  <sodipodi:namedview
     id="namedview7"
     pagecolor="#ffffff"
     bordercolor="#666666"
     borderopacity="1.0"
     inkscape:pageshadow="2"
     inkscape:pageopacity="0.0"
     inkscape:pagecheckerboard="0"
     inkscape:document-units="px"
     showgrid="false"
     units="px"
     height="64px"
     inkscape:zoom="8"
     inkscape:cx="18.5"
     inkscape:cy="45.1875"
     inkscape:window-width="1920"
     inkscape:window-height="1012"
     inkscape:window-x="0"
     inkscape:window-y="0"
     inkscape:window-maximized="1"
     inkscape:current-layer="svg5" />
  <defs
     id="defs2">
    <linearGradient
       inkscape:collect="always"
       id="linearGradient5750">
      <stop
         style="stop-color:#000000;stop-opacity:1;"
         offset="0"
         id="stop5746" />
      <stop
         style="stop-color:#000000;stop-opacity:0;"
         offset="1"
         id="stop5748" />
    </linearGradient>
    <linearGradient
       inkscape:collect="always"
       xlink:href="#linearGradient5750"
       id="linearGradient5752"
       x1="23.169922"
       y1="22.584961"
       x2="50"
       y2="48.584961"
       gradientUnits="userSpaceOnUse" />
  </defs>
  <circle
     style="fill:#546e7a;fill-opacity:1;stroke-width:0.529167;stroke-linecap:round;stroke-linejoin:round"
     id="path1039"
     cx="8.4666662"
     cy="8.4666662"
     r="7.4083333" />
  <path
     id="path5351"
     style="opacity:0.2;fill:url(#linearGradient5752);stroke-width:1.80999;stroke-linecap:round;stroke-linejoin:round;fill-opacity:1"
     d="M 46.830078 17.169922 L 29 22 L 22 29 L 17.169922 46.830078 L 30.275391 59.935547 A 28 28 0 0 0 32 60 A 28 28 0 0 0 60 32 A 28 28 0 0 0 59.945312 30.285156 L 46.830078 17.169922 z "
     transform="scale(0.26458334)" />
  <path
     id="rect3525"
     style="opacity:1;fill:#ffffff;stroke-width:1.80999;stroke-linecap:round;stroke-linejoin:round"
     d="M 20 16 C 17.784 16 16 17.784 16 20 L 16 44 C 16 46.216001 17.784 48 20 48 L 44 48 C 46.215997 48 48 46.216001 48 44 L 48 20 C 48 17.784 46.215997 16 44 16 L 20 16 z M 32 22 L 41 31 L 36 31 L 36 41 L 28 41 L 28 31 L 23 31 L 32 22 z "
     transform="scale(0.26458334)" />
</svg>
