<?xml version="1.0" encoding="UTF-8" standalone="no"?>
<!-- Created with Inkscape (http://www.inkscape.org/) -->

<svg
   width="64"
   height="64"
   viewBox="0 0 16.933333 16.933334"
   version="1.1"
   id="svg5"
   inkscape:version="1.1.1 (3bf5ae0d25, 2021-09-20, custom)"
   sodipodi:docname="devhelp.svg"
   xmlns:inkscape="http://www.inkscape.org/namespaces/inkscape"
   xmlns:sodipodi="http://sodipodi.sourceforge.net/DTD/sodipodi-0.dtd"
   xmlns="http://www.w3.org/2000/svg"
   xmlns:svg="http://www.w3.org/2000/svg">
  <sodipodi:namedview
     id="namedview7"
     pagecolor="#ffffff"
     bordercolor="#666666"
     borderopacity="1.0"
     inkscape:pageshadow="2"
     inkscape:pageopacity="0.0"
     inkscape:pagecheckerboard="0"
     inkscape:document-units="px"
     showgrid="false"
     units="px"
     height="64px"
     inkscape:zoom="4"
     inkscape:cx="-2.625"
     inkscape:cy="5.625"
     inkscape:window-width="1531"
     inkscape:window-height="937"
     inkscape:window-x="45"
     inkscape:window-y="29"
     inkscape:window-maximized="0"
     inkscape:current-layer="svg5"
     showguides="false" />
  <defs
     id="defs2" />
  <circle
     style="fill:#6a242e;stroke-width:0.529167;stroke-linecap:round;stroke-linejoin:round;fill-opacity:1"
     id="path1039"
     cx="8.4666662"
     cy="8.4666662"
     r="7.4083333" />
  <path
     id="path25513"
     style="opacity:1;fill:#ececec;fill-opacity:1;stroke-width:1.8;stroke-linecap:round;stroke-linejoin:round"
     d="M 32 14 A 17.999999 17.999999 0 0 0 14 32 A 17.999999 17.999999 0 0 0 32 50 A 17.999999 17.999999 0 0 0 50 32 A 17.999999 17.999999 0 0 0 32 14 z M 32 24 A 8.0000004 8.0000004 0 0 1 40 32 A 8.0000004 8.0000004 0 0 1 32 40 A 8.0000004 8.0000004 0 0 1 24 32 A 8.0000004 8.0000004 0 0 1 32 24 z "
     transform="scale(0.26458334)" />
  <path
     id="path28312"
     style="opacity:0.2;fill:#ffffff;fill-opacity:1;stroke-width:2;stroke-linecap:round;stroke-linejoin:round"
     d="M 50 22 A 28 28 0 0 0 22 50 A 28 28 0 0 0 23.375 58.625 A 28 28 0 0 0 32 60 A 28 28 0 0 0 60 32 A 28 28 0 0 0 58.634766 23.365234 A 28 28 0 0 0 50 22 z "
     transform="scale(0.26458334)" />
  <path
     id="rect26615"
     style="opacity:1;fill:#ff2a2a;stroke-width:2;stroke-linecap:round;stroke-linejoin:round;fill-opacity:1"
     d="M 32 14 A 17.999999 17.999999 0 0 0 25.353516 15.275391 L 28.066406 25.037109 A 8.0000005 8.0000005 0 0 1 28.1875 24.982422 A 8.0000004 8.0000004 0 0 1 29.287109 24.478516 A 8.0000005 8.0000005 0 0 1 29.320312 24.464844 A 8.0000004 8.0000004 0 0 1 30.509766 24.152344 A 8.0000005 8.0000005 0 0 1 30.773438 24.107422 A 8.0000004 8.0000004 0 0 1 32 24 A 8.0000004 8.0000004 0 0 1 33.345703 24.115234 A 8.0000005 8.0000005 0 0 1 33.384766 24.123047 A 8.0000004 8.0000004 0 0 1 34.681641 24.462891 A 8.0000005 8.0000005 0 0 1 34.695312 24.466797 A 8.0000004 8.0000004 0 0 1 34.705078 24.470703 A 8.0000004 8.0000004 0 0 1 35.919922 25.027344 A 8.0000005 8.0000005 0 0 1 35.935547 25.035156 L 38.646484 15.273438 A 17.999999 17.999999 0 0 0 32 14 z M 15.275391 25.353516 A 17.999999 17.999999 0 0 0 14 32 A 17.999999 17.999999 0 0 0 15.275391 38.646484 L 25.037109 35.933594 A 8.0000005 8.0000005 0 0 1 24.982422 35.8125 A 8.0000004 8.0000004 0 0 1 24.478516 34.712891 A 8.0000005 8.0000005 0 0 1 24.464844 34.679688 A 8.0000004 8.0000004 0 0 1 24.152344 33.490234 A 8.0000005 8.0000005 0 0 1 24.107422 33.226562 A 8.0000004 8.0000004 0 0 1 24 32 A 8.0000004 8.0000004 0 0 1 24.107422 30.773438 A 8.0000005 8.0000005 0 0 1 24.152344 30.509766 A 8.0000004 8.0000004 0 0 1 24.464844 29.320312 A 8.0000005 8.0000005 0 0 1 24.478516 29.287109 A 8.0000004 8.0000004 0 0 1 24.982422 28.1875 A 8.0000005 8.0000005 0 0 1 25.037109 28.066406 L 15.275391 25.353516 z M 48.726562 25.353516 L 38.964844 28.064453 A 8.0000005 8.0000005 0 0 1 38.972656 28.080078 A 8.0000004 8.0000004 0 0 1 39.529297 29.294922 A 8.0000005 8.0000005 0 0 1 39.535156 29.310547 A 8.0000004 8.0000004 0 0 1 39.537109 29.318359 A 8.0000004 8.0000004 0 0 1 39.876953 30.615234 A 8.0000005 8.0000005 0 0 1 39.884766 30.654297 A 8.0000004 8.0000004 0 0 1 40 32 A 8.0000004 8.0000004 0 0 1 39.892578 33.226562 A 8.0000005 8.0000005 0 0 1 39.847656 33.490234 A 8.0000004 8.0000004 0 0 1 39.535156 34.679688 A 8.0000004 8.0000004 0 0 1 39.521484 34.712891 A 8.0000004 8.0000004 0 0 1 39.017578 35.8125 A 8.0000005 8.0000005 0 0 1 38.962891 35.933594 L 48.724609 38.646484 A 17.999999 17.999999 0 0 0 50 32 A 17.999999 17.999999 0 0 0 48.726562 25.353516 z M 28.066406 38.962891 L 25.353516 48.724609 A 17.999999 17.999999 0 0 0 32 50 A 17.999999 17.999999 0 0 0 38.646484 48.724609 L 35.933594 38.962891 A 8.0000005 8.0000005 0 0 1 35.8125 39.017578 A 8.0000004 8.0000004 0 0 1 34.712891 39.521484 A 8.0000004 8.0000004 0 0 1 34.679688 39.535156 A 8.0000004 8.0000004 0 0 1 33.490234 39.847656 A 8.0000005 8.0000005 0 0 1 33.226562 39.892578 A 8.0000004 8.0000004 0 0 1 32 40 A 8.0000004 8.0000004 0 0 1 30.773438 39.892578 A 8.0000005 8.0000005 0 0 1 30.509766 39.847656 A 8.0000004 8.0000004 0 0 1 29.320312 39.535156 A 8.0000005 8.0000005 0 0 1 29.287109 39.521484 A 8.0000004 8.0000004 0 0 1 28.1875 39.017578 A 8.0000005 8.0000005 0 0 1 28.066406 38.962891 z "
     transform="scale(0.26458334)" />
</svg>
