<?xml version="1.0" encoding="UTF-8" standalone="no"?>
<!-- Created with Inkscape (http://www.inkscape.org/) -->

<svg
   width="64"
   height="64"
   viewBox="0 0 16.933333 16.933334"
   version="1.1"
   id="svg5"
   inkscape:version="1.1.1 (3bf5ae0d25, 2021-09-20, custom)"
   sodipodi:docname="epiphany.svg"
   xmlns:inkscape="http://www.inkscape.org/namespaces/inkscape"
   xmlns:sodipodi="http://sodipodi.sourceforge.net/DTD/sodipodi-0.dtd"
   xmlns:xlink="http://www.w3.org/1999/xlink"
   xmlns="http://www.w3.org/2000/svg"
   xmlns:svg="http://www.w3.org/2000/svg">
  <sodipodi:namedview
     id="namedview7"
     pagecolor="#ffffff"
     bordercolor="#666666"
     borderopacity="1.0"
     inkscape:pageshadow="2"
     inkscape:pageopacity="0.0"
     inkscape:pagecheckerboard="0"
     inkscape:document-units="px"
     showgrid="false"
     units="px"
     height="64px"
     inkscape:zoom="5.6568542"
     inkscape:cx="38.183766"
     inkscape:cy="40.747028"
     inkscape:window-width="1920"
     inkscape:window-height="1019"
     inkscape:window-x="0"
     inkscape:window-y="0"
     inkscape:window-maximized="1"
     inkscape:current-layer="svg5" />
  <defs
     id="defs2">
    <linearGradient
       inkscape:collect="always"
       id="linearGradient1746">
      <stop
         style="stop-color:#2166bb;stop-opacity:1;"
         offset="0"
         id="stop1742" />
      <stop
         style="stop-color:#89eda9;stop-opacity:1"
         offset="1"
         id="stop1744" />
    </linearGradient>
    <linearGradient
       inkscape:collect="always"
       id="linearGradient1040">
      <stop
         style="stop-color:#1e6eb5;stop-opacity:1;"
         offset="0"
         id="stop1036" />
      <stop
         style="stop-color:#236ac0;stop-opacity:1"
         offset="1"
         id="stop1038" />
    </linearGradient>
    <linearGradient
       inkscape:collect="always"
       xlink:href="#linearGradient1040"
       id="linearGradient1042"
       x1="12.17083"
       y1="14.287495"
       x2="13.229162"
       y2="14.287495"
       gradientUnits="userSpaceOnUse" />
    <linearGradient
       inkscape:collect="always"
       xlink:href="#linearGradient1746"
       id="linearGradient1748"
       x1="8.351059"
       y1="13.993239"
       x2="2.4695284"
       y2="13.993239"
       gradientUnits="userSpaceOnUse"
       gradientTransform="translate(0.14595646,0.29426046)" />
  </defs>
  <circle
     style="fill:url(#linearGradient1042);fill-opacity:1;stroke-width:0.529167;stroke-linecap:round;stroke-linejoin:round"
     id="path846"
     cx="8.4666662"
     cy="8.4666662"
     r="7.4083333" />
  <path
     id="path1608"
     style="fill:url(#linearGradient1748);fill-opacity:1;stroke-width:0.529167;stroke-linecap:round;stroke-linejoin:round"
     d="M 8.4666669,1.0583334 A 7.4083335,7.4083335 0 0 0 1.0583334,8.4666669 7.4083335,7.4083335 0 0 0 8.4666669,15.875 Z" />
  <path
     id="path2278"
     style="fill:#40a1c8;fill-opacity:1;stroke-width:0.529167;stroke-linecap:round;stroke-linejoin:round"
     d="M 8.4666669,1.0583334 A 7.4083335,7.4083335 0 0 0 1.063501,8.3343752 7.4083335,7.4083335 0 0 0 8.4666669,15.610417 7.4083335,7.4083335 0 0 0 15.872416,8.2759809 a 7.4083335,7.4083335 0 0 0 0,-0.00259 7.4083335,7.4083335 0 0 0 -7.4057491,-7.2150546 z" />
  <path
     id="rect2568"
     style="fill:#53d795;fill-opacity:1;stroke-width:0.529167;stroke-linecap:round;stroke-linejoin:round"
     d="M 8.4666669,1.0583334 A 7.4083335,7.4083335 0 0 0 1.0583334,8.4666669 h 7.4083335 z" />
  <path
     id="rect3035"
     style="fill:#378bde;fill-opacity:1;stroke-width:0.529167;stroke-linecap:round;stroke-linejoin:round"
     d="M 8.4666669,1.0583334 V 8.4666669 H 15.875 A 7.4083335,7.4083348 0 0 0 8.4666669,1.0583334 Z" />
  <path
     id="rect2568-3"
     style="fill:#49bbb0;fill-opacity:1;stroke-width:0.529167;stroke-linecap:round;stroke-linejoin:round"
     d="m 8.4666669,1.0583334 v 3.175 A 7.4083335,7.4083335 0 0 0 11.653036,3.5088299 10.054168,10.05417 0 0 0 9.8422936,1.1901083 7.4083335,7.4083335 0 0 0 9.8397007,1.1895923 7.4083335,7.4083335 0 0 0 9.50122,1.133265 7.4083335,7.4083335 0 0 0 9.1684239,1.0929574 a 7.4083335,7.4083335 0 0 0 -0.0863,-0.0062 7.4083335,7.4083335 0 0 0 -0.2666505,-0.019637 7.4083335,7.4083335 0 0 0 -0.0031,0 7.4083335,7.4083335 0 0 0 -0.3457059,-0.00879 z m 0,3.175 A 7.4083335,7.4083335 0 0 1 5.287016,3.5119306 10.054168,10.05417 0 0 0 3.9687501,8.4666669 H 8.4666669 Z M 6.4693728,1.837614 A 10.054168,10.05417 0 0 0 6.4569708,1.852083 10.054168,10.05417 0 0 1 6.4693718,1.837614 Z M 5.9112673,2.5336955 a 10.054168,10.05417 0 0 0 -0.027905,0.039274 10.054168,10.05417 0 0 1 0.027905,-0.039274 z M 5.4100059,3.2876546 a 10.054168,10.05417 0 0 0 -0.02222,0.037207 10.054168,10.05417 0 0 1 0.02222,-0.037207 z M 1.0681519,8.4697675 A 7.4083335,7.4083335 0 0 0 4.063318,14.153142 c 0.026661,-0.01964 0.052659,-0.04015 0.079582,-0.05943 0.356447,-0.255045 0.7348247,-0.477957 1.1306805,-0.666109 l 0.00672,-0.0031 C 4.4200737,11.914602 3.9658823,10.207518 3.9620321,8.4697675 Z" />
  <path
     id="rect2568-3-1"
     style="fill:#378bde;fill-opacity:1;stroke-width:0.529167;stroke-linecap:round;stroke-linejoin:round"
     d="M 8.4666669,8.4666669 V 12.7 a 7.4083335,7.4083335 0 0 1 3.1796511,0.721403 10.054167,10.054169 0 0 0 1.318266,-4.9547361 z m 0,4.2333331 a 7.4083335,7.4083335 0 0 0 -3.186369,0.724504 10.054167,10.054169 0 0 0 1.4769124,1.983858 7.4083335,7.4083335 0 0 0 1.7094566,0.202055 z m 3.0788821,0.908472 a 10.054167,10.054169 0 0 1 -0.02222,0.03721 10.054167,10.054169 0 0 0 0.02222,-0.03721 z m -0.495577,0.751892 a 10.054167,10.054169 0 0 1 -0.02791,0.03927 10.054167,10.054169 0 0 0 0.02791,-0.03927 z m -0.573609,0.720886 a 10.054167,10.054169 0 0 1 -0.0124,0.01447 10.054167,10.054169 0 0 0 0.0124,-0.01447 z" />
  <path
     id="rect2568-3-3"
     style="fill:#40a1c8;fill-opacity:1;stroke-width:0.529167;stroke-linecap:round;stroke-linejoin:round"
     d="m 11.650969,3.5098634 c -0.994412,0.4749967 -2.0822699,0.7221569 -3.1843021,0.72347 v 4.2333335 h 4.4979171 c -0.0021,-1.738035 -0.45467,-3.4458496 -1.313615,-4.9568035 z"
     sodipodi:nodetypes="ccccc" />
  <path
     id="path2931-2"
     style="fill:#72e99a;fill-opacity:1;stroke-width:0.529167;stroke-linecap:round;stroke-linejoin:round"
     d="m 4.4658683,2.2339714 c -0.097098,0.062353 -0.1927251,0.1269662 -0.2868041,0.1937866 -0.00465,0.00327 -0.00931,0.00654 -0.013952,0.00982 -0.09428,0.067237 -0.1869786,0.1366749 -0.2780114,0.208257 0.086041,0.067559 0.173568,0.1332045 0.2625164,0.1968873 C 4.5060646,3.0977669 4.8844421,3.3206776 5.2802979,3.5088299 5.7669204,2.6513182 6.3770313,1.8700489 7.0910402,1.1901083 6.1010439,1.3558331 5.178514,1.7842157 4.4658683,2.2339714 Z"
     sodipodi:nodetypes="cccccccc" />
  <path
     id="path2931-2-8"
     style="fill:#1e62b5;fill-opacity:1;stroke-width:0.529167;stroke-linecap:round;stroke-linejoin:round"
     d="m 11.646318,13.421403 c -0.409984,0.722463 -0.907468,1.390837 -1.481047,1.99006 a 7.4083335,7.4083335 0 0 0 2.703195,-1.257288 c -0.03031,-0.02241 -0.06082,-0.04472 -0.09147,-0.06666 -0.356447,-0.255044 -0.734824,-0.477958 -1.13068,-0.66611 z" />
  <path
     id="path2931-2-9"
     style="fill:#40a1c8;fill-opacity:1;stroke-width:0.529167;stroke-linecap:round;stroke-linejoin:round"
     d="m 12.467468,2.2339714 c 0.0971,0.062353 0.192725,0.1269662 0.286804,0.1937866 0.0046,0.00327 0.0093,0.00654 0.01395,0.00982 0.09428,0.067237 0.186979,0.1366749 0.278012,0.208257 -0.08604,0.067559 -0.173568,0.1332045 -0.262517,0.1968873 C 12.42727,3.0977669 12.048893,3.3206776 11.653037,3.5088299 11.166414,2.6513182 10.556303,1.8700489 9.8422936,1.1901083 10.83229,1.3558331 11.75482,1.7842157 12.467466,2.2339714 Z"
     sodipodi:nodetypes="cccccccc" />
  <path
     id="rect2568-2"
     style="fill:#266ec5;fill-opacity:1;stroke-width:0.529167;stroke-linecap:round;stroke-linejoin:round"
     d="m 12.964584,8.4666669 c -0.0039,1.7377501 -0.458042,3.4448341 -1.318266,4.9547361 l 0.0067,0.0031 c 0.395855,0.188151 0.774233,0.411064 1.13068,0.666109 0.02872,0.02056 0.05633,0.0426 0.08475,0.06356 A 7.4083335,7.4083335 0 0 0 15.865182,8.4666669 Z M 11.646318,13.421403 A 7.4083335,7.4083335 0 0 0 8.4599488,12.6969 v 2.913517 a 7.4083335,7.4083335 0 0 0 0.00672,0 7.4083335,7.4083335 0 0 0 1.6862022,-0.195854 10.054167,10.054169 0 0 0 1.493449,-1.99316 z" />
</svg>
