<?xml version="1.0" encoding="UTF-8" standalone="no"?>
<svg
   version="1.1"
   viewBox="0 0 64 64"
   id="svg15"
   sodipodi:docname="fbmessenger.svg"
   width="64"
   height="64"
   inkscape:version="1.1.1 (3bf5ae0d25, 2021-09-20, custom)"
   xmlns:inkscape="http://www.inkscape.org/namespaces/inkscape"
   xmlns:sodipodi="http://sodipodi.sourceforge.net/DTD/sodipodi-0.dtd"
   xmlns="http://www.w3.org/2000/svg"
   xmlns:svg="http://www.w3.org/2000/svg">
  <defs
     id="defs19" />
  <sodipodi:namedview
     id="namedview17"
     pagecolor="#ffffff"
     bordercolor="#666666"
     borderopacity="1.0"
     inkscape:pageshadow="2"
     inkscape:pageopacity="0.0"
     inkscape:pagecheckerboard="0"
     showgrid="false"
     inkscape:zoom="4.452563"
     inkscape:cx="16.507346"
     inkscape:cy="81.638373"
     inkscape:window-width="1541"
     inkscape:window-height="947"
     inkscape:window-x="45"
     inkscape:window-y="29"
     inkscape:window-maximized="0"
     inkscape:current-layer="svg15" />
  <radialGradient
     id="Gradient"
     cx="101.925"
     cy="809.00787"
     r="1.0896"
     gradientTransform="matrix(40,0,0,-39.999924,-4057.3,32412.037)"
     gradientUnits="userSpaceOnUse">
    <stop
       offset="0"
       style="stop-color:#0099FF"
       id="stop2" />
    <stop
       offset="0.6098"
       style="stop-color:#A033FF"
       id="stop4" />
    <stop
       offset="0.9348"
       style="stop-color:#FF5280"
       id="stop6" />
    <stop
       offset="1"
       style="stop-color:#FF7061"
       id="stop8" />
  </radialGradient>
  <circle
     style="fill:#ffffff;stroke-width:2;stroke-linecap:round;stroke-linejoin:round;stroke-dasharray:24, 2"
     id="path856"
     cx="32"
     cy="32"
     r="28" />
  <path
     fill="url(#Gradient)"
     d="m 32,12 c -11.265,0 -20,8.255 -20,19.4 0,5.83 2.39,10.87 6.28,14.35 0.325,0.29 0.525,0.7 0.535,1.14 l 0.11,3.56 c 0.035,1.135 1.205,1.875 2.245,1.415 l 3.97,-1.75 c 0.335,-0.15 0.715,-0.175 1.07,-0.08 1.825,0.5 3.765,0.77 5.79,0.77 11.265,0 20,-8.255 20,-19.4 C 52,20.26 43.265,12 32,12 Z"
     id="path11"
     style="fill:url(#Gradient);stroke-width:0.05" />
  <path
     fill="#ffffff"
     d="m 19.99,37.075 5.875,-9.32 c 0.935,-1.485 2.935,-1.85 4.34,-0.8 l 4.675,3.505 c 0.43,0.32 1.02,0.32 1.445,-0.005 l 6.31,-4.79 c 0.84,-0.64 1.94,0.37 1.38,1.265 l -5.88,9.315 c -0.935,1.485 -2.935,1.85 -4.34,0.8 L 29.12,33.54 c -0.43,-0.32 -1.02,-0.32 -1.445,0.005 l -6.31,4.79 c -0.84,0.64 -1.94,-0.365 -1.375,-1.26 z"
     id="path13"
     style="stroke-width:0.05" />
</svg>
