<?xml version="1.0" encoding="UTF-8" standalone="no"?>
<!-- Created with Inkscape (http://www.inkscape.org/) -->

<svg
   width="64"
   height="64"
   viewBox="0 0 16.933333 16.933334"
   version="1.1"
   id="svg5"
   inkscape:version="1.1.1 (3bf5ae0d25, 2021-09-20, custom)"
   sodipodi:docname="firmware.svg"
   xmlns:inkscape="http://www.inkscape.org/namespaces/inkscape"
   xmlns:sodipodi="http://sodipodi.sourceforge.net/DTD/sodipodi-0.dtd"
   xmlns:xlink="http://www.w3.org/1999/xlink"
   xmlns="http://www.w3.org/2000/svg"
   xmlns:svg="http://www.w3.org/2000/svg">
  <sodipodi:namedview
     id="namedview7"
     pagecolor="#ffffff"
     bordercolor="#666666"
     borderopacity="1.0"
     inkscape:pageshadow="2"
     inkscape:pageopacity="0.0"
     inkscape:pagecheckerboard="0"
     inkscape:document-units="px"
     showgrid="false"
     units="px"
     height="64px"
     inkscape:zoom="8"
     inkscape:cx="21.5"
     inkscape:cy="34.375"
     inkscape:window-width="1920"
     inkscape:window-height="1002"
     inkscape:window-x="0"
     inkscape:window-y="0"
     inkscape:window-maximized="1"
     inkscape:current-layer="svg5" />
  <defs
     id="defs2">
    <linearGradient
       inkscape:collect="always"
       id="linearGradient28010">
      <stop
         style="stop-color:#4d4d4d;stop-opacity:1;"
         offset="0"
         id="stop28006" />
      <stop
         style="stop-color:#4d4d4d;stop-opacity:0;"
         offset="1"
         id="stop28008" />
    </linearGradient>
    <linearGradient
       inkscape:collect="always"
       xlink:href="#linearGradient28010"
       id="linearGradient28012"
       x1="5.8208332"
       y1="5.8208332"
       x2="14.325353"
       y2="14.187249"
       gradientUnits="userSpaceOnUse"
       gradientTransform="scale(3.7795275)" />
  </defs>
  <circle
     style="fill:#666666;stroke-width:0.529167;stroke-linecap:round;stroke-linejoin:round;fill-opacity:1"
     id="path1039"
     cx="8.4666662"
     cy="8.4666662"
     r="7.4083333" />
  <path
     id="rect26421"
     style="opacity:0.2;fill:url(#linearGradient28012);fill-opacity:1;stroke-width:2;stroke-linecap:round;stroke-linejoin:round"
     d="M 28 12 L 24 28 L 12 28 L 20 36 L 12 36 L 12 40 L 32 60 A 28 28 0 0 0 60 32 L 40 12 L 36 20 L 28 12 z "
     transform="scale(0.26458334)" />
  <path
     id="rect926"
     style="fill:#f2f2f2;fill-opacity:1;stroke-width:1.98893;stroke-linecap:round;stroke-linejoin:round"
     d="M 24,12 V 24 H 12 v 4 h 12 v 7.999999 H 12 v 4 H 24 V 52 h 4 V 39.999999 h 7.999999 V 52 h 4 V 39.999999 H 52 v -4 H 39.999999 V 28 H 52 V 24 H 39.999999 V 12 h -4 V 24 H 28 V 12 Z m 4,16 h 7.999999 v 7.999999 H 28 Z"
     transform="scale(0.26458334)"
     sodipodi:nodetypes="cccccccccccccccccccccccccccccccccc" />
  <path
     id="rect3704"
     style="fill:#cccccc;stroke-width:0.611802;stroke-linecap:round;stroke-linejoin:round;fill-opacity:1"
     d="m 5.5562501,4.4979167 h 5.8208329 c 0.586317,0 1.058334,0.4720167 1.058334,1.0583334 v 5.8208329 c 0,0.586317 -0.472017,1.058334 -1.058334,1.058334 H 5.5562501 c -0.5863167,0 -1.0583334,-0.472017 -1.0583334,-1.058334 V 5.5562501 c 0,-0.5863167 0.4720167,-1.0583334 1.0583334,-1.0583334 z" />
  <rect
     style="fill:#47d167;fill-opacity:1;stroke-width:0.54527;stroke-linecap:round;stroke-linejoin:round"
     id="rect8512"
     width="5.2916665"
     height="5.2916665"
     x="5.8208332"
     y="5.8208332" />
</svg>
