<?xml version="1.0" encoding="UTF-8" standalone="no"?>
<!-- Created with Inkscape (http://www.inkscape.org/) -->

<svg
   width="64"
   height="64"
   viewBox="0 0 16.933333 16.933334"
   version="1.1"
   id="svg5"
   inkscape:version="1.1.1 (3bf5ae0d25, 2021-09-20, custom)"
   sodipodi:docname="foliate.svg"
   xmlns:inkscape="http://www.inkscape.org/namespaces/inkscape"
   xmlns:sodipodi="http://sodipodi.sourceforge.net/DTD/sodipodi-0.dtd"
   xmlns:xlink="http://www.w3.org/1999/xlink"
   xmlns="http://www.w3.org/2000/svg"
   xmlns:svg="http://www.w3.org/2000/svg">
  <sodipodi:namedview
     id="namedview7"
     pagecolor="#ffffff"
     bordercolor="#666666"
     borderopacity="1.0"
     inkscape:pageshadow="2"
     inkscape:pageopacity="0.0"
     inkscape:pagecheckerboard="0"
     inkscape:document-units="px"
     showgrid="false"
     units="px"
     height="64px"
     inkscape:zoom="5.6568542"
     inkscape:cx="50.381358"
     inkscape:cy="12.727922"
     inkscape:window-width="1920"
     inkscape:window-height="1002"
     inkscape:window-x="0"
     inkscape:window-y="0"
     inkscape:window-maximized="1"
     inkscape:current-layer="svg5" />
  <defs
     id="defs2">
    <linearGradient
       inkscape:collect="always"
       id="linearGradient1842">
      <stop
         style="stop-color:#000000;stop-opacity:1;"
         offset="0"
         id="stop1838" />
      <stop
         style="stop-color:#000000;stop-opacity:0;"
         offset="1"
         id="stop1840" />
    </linearGradient>
    <linearGradient
       inkscape:collect="always"
       xlink:href="#linearGradient1842"
       id="linearGradient1844"
       x1="27.016359"
       y1="27.958477"
       x2="49.583633"
       y2="50.143753"
       gradientUnits="userSpaceOnUse"
       gradientTransform="translate(-3.1748031e-5)" />
  </defs>
  <circle
     style="fill:#3176ba;fill-opacity:1;stroke-width:0.529167;stroke-linecap:round;stroke-linejoin:round"
     id="path1039"
     cx="8.4666662"
     cy="8.4666662"
     r="7.4083333" />
  <path
     id="rect951"
     style="fill:#80deea;stroke-width:2;stroke-linecap:round;stroke-linejoin:round"
     d="m 18,20 c -2.215997,0 -4,1.784 -4,4 v 18 c 0,2.216001 1.784003,4 4,4 h 14 14 c 2.215997,0 4,-1.783999 4,-4 V 24 c 0,-2.216 -1.784003,-4 -4,-4 H 32 Z"
     transform="scale(0.26458334)"
     sodipodi:nodetypes="sssscsssscs" />
  <path
     id="rect951-3-6"
     style="fill:#ffffff;stroke-width:0.529167;stroke-linecap:round;stroke-linejoin:round"
     d="M 8.4666667,5.2916671 11.90625,4.6958997 c 0.587797,-0.1018117 1.058333,0.2734277 1.058333,0.8597441 v 4.7625002 c 0,0.586317 -0.470536,1.15511 -1.058333,1.256922 l -3.4395833,0.595767 z"
     sodipodi:nodetypes="csssscc" />
  <path
     id="path1707"
     style="opacity:0.2;fill:url(#linearGradient1844);fill-opacity:1;stroke-width:2;stroke-linecap:round;stroke-linejoin:round"
     d="M 45.019531 16.376953 C 45.003546 16.388904 44.997112 16.441599 45.007812 16.544922 L 45.609375 22.357422 L 30.892578 27.787109 L 15.169922 44.830078 L 30.275391 59.935547 C 30.849462 59.974747 31.424605 59.996241 32 60 C 47.33292 59.994623 59.809669 47.658052 59.988281 32.326172 L 50.029297 22.367188 C 49.798179 20.55525 48.005859 18.306641 48.005859 18.306641 L 45.517578 17.794922 C 45.582091 17.591048 45.113026 16.307057 45.019531 16.376953 z "
     transform="scale(0.26458334)" />
  <path
     id="rect951-3"
     style="fill:#ffffff;stroke-width:0.529167;stroke-linecap:round;stroke-linejoin:round"
     d="M 8.4666667,5.291667 11.377084,4.1227378 c 0.596949,-0.2397564 1.058333,-0.00578 1.058333,0.5805393 v 4.7624997 c 0,0.5863172 -0.461384,1.2963712 -1.058333,1.5361272 l -2.9104173,1.168929 z"
     sodipodi:nodetypes="csssscc" />
  <path
     d="m 4.7624997,5.291666 c -0.586316,0 -1.058333,0.4720167 -1.058333,1.0583333 V 11.1125 c 0,0.586317 0.472017,1.058333 1.058333,1.058333 h 3.704167 V 5.291666 Z"
     style="fill:#80deea;stroke-width:0.529167;stroke-linecap:round;stroke-linejoin:round"
     id="path8831" />
  <path
     id="rect951-9-1"
     style="fill:#f2f2f2;stroke-width:0.529167;stroke-linecap:round;stroke-linejoin:round;fill-opacity:1"
     d="M 8.4666667,5.291667 H 5.2916674 c -0.586316,0 -1.058333,0.472016 -1.058333,1.058333 v 4.7625 c 0,0.586317 0.472017,1.058333 1.058333,1.058333 h 3.1749993 z"
     sodipodi:nodetypes="csssscc" />
  <path
     id="path8948"
     style="opacity:1;fill:#80cbc4;fill-opacity:1;stroke-width:2.07556;stroke-linecap:round;stroke-linejoin:round"
     d="M 25 12 A 11.25 15.317112 0 0 0 18.910156 16.736328 L 20.287109 19.169922 L 17.558594 19.238281 A 11.25 15.317112 0 0 0 16 27 A 11.25 15.317112 0 0 0 25 42 L 25 12 z "
     transform="scale(0.26458334)" />
  <path
     id="path8948-0"
     style="fill:#80deea;fill-opacity:1;stroke-width:0.549158;stroke-linecap:round;stroke-linejoin:round"
     d="m 6.6145834,3.175 a 2.9765624,4.0526525 0 0 1 2.38125,3.9687499 2.9765624,4.0526525 0 0 1 -2.38125,3.9687501 z" />
  <path
     id="path8948-0-9"
     style="fill:#53d2e1;fill-opacity:1;stroke-width:2.07556;stroke-linecap:round;stroke-linejoin:round"
     d="M 31.800781 17.919922 L 25 22 L 25 32 L 33.990234 26.605469 A 11.25 15.317112 0 0 0 31.800781 17.919922 z "
     transform="scale(0.26458334)" />
  <path
     id="path8948-06"
     style="fill:#4db6ac;fill-opacity:1;stroke-width:2.07556;stroke-linecap:round;stroke-linejoin:round"
     d="M 20.283203 19.169922 L 17.568359 19.238281 A 11.25 15.317112 0 0 0 16.009766 26.605469 L 25 32 L 25 22 L 20.283203 19.169922 z "
     transform="scale(0.26458334)" />
  <path
     id="path8948-1"
     style="fill:#26a69a;fill-opacity:1;stroke-width:2.07556;stroke-linecap:round;stroke-linejoin:round"
     d="M 16.009766 26.605469 A 11.25 15.317112 0 0 0 16 27 A 11.25 15.317112 0 0 0 25 42 L 25 32 L 16.009766 26.605469 z "
     transform="scale(0.26458334)" />
  <path
     id="path8948-0-2"
     style="fill:#00bcd4;fill-opacity:1;stroke-width:2.07556;stroke-linecap:round;stroke-linejoin:round"
     d="M 33.990234 26.605469 L 25 32 L 25 42 A 11.25 15.317112 0 0 0 34 27 A 11.25 15.317112 0 0 0 33.990234 26.605469 z "
     transform="scale(0.26458334)" />
</svg>
