<?xml version="1.0" encoding="UTF-8" standalone="no"?>
<svg
   width="64"
   height="64"
   version="1.1"
   id="svg35"
   sodipodi:docname="gnome-extensions.svg"
   inkscape:version="1.1.1 (3bf5ae0d25, 2021-09-20, custom)"
   xmlns:inkscape="http://www.inkscape.org/namespaces/inkscape"
   xmlns:sodipodi="http://sodipodi.sourceforge.net/DTD/sodipodi-0.dtd"
   xmlns="http://www.w3.org/2000/svg"
   xmlns:svg="http://www.w3.org/2000/svg">
  <sodipodi:namedview
     id="namedview37"
     pagecolor="#ffffff"
     bordercolor="#666666"
     borderopacity="1.0"
     inkscape:pageshadow="2"
     inkscape:pageopacity="0.0"
     inkscape:pagecheckerboard="0"
     showgrid="false"
     inkscape:zoom="6.4296874"
     inkscape:cx="7.1543135"
     inkscape:cy="32.272175"
     inkscape:window-width="1920"
     inkscape:window-height="1019"
     inkscape:window-x="0"
     inkscape:window-y="0"
     inkscape:window-maximized="1"
     inkscape:current-layer="svg35" />
  <defs
     id="defs29">
    <linearGradient
       id="a"
       gradientUnits="userSpaceOnUse"
       x1="10.23"
       y1="87.43"
       x2="133.23599"
       y2="88.679001"
       gradientTransform="matrix(0.34375,0,0,0.34375,7.25,4.5)">
      <stop
         offset="0"
         stop-color="#208757"
         id="stop2" />
      <stop
         offset=".077"
         stop-color="#2ec27e"
         id="stop4" />
      <stop
         offset=".147"
         stop-color="#208a5a"
         id="stop6" />
      <stop
         offset=".198"
         stop-color="#26a269"
         id="stop8" />
      <stop
         offset=".364"
         stop-color="#1c774d"
         id="stop10" />
      <stop
         offset=".407"
         stop-color="#26a269"
         id="stop12" />
      <stop
         offset=".493"
         stop-color="#26a269"
         id="stop14" />
      <stop
         offset=".576"
         stop-color="#26a269"
         id="stop16" />
      <stop
         offset=".606"
         stop-color="#2ec27e"
         id="stop18" />
      <stop
         offset=".681"
         stop-color="#26a269"
         id="stop20" />
      <stop
         offset=".784"
         stop-color="#1d7a4e"
         id="stop22" />
      <stop
         offset=".945"
         stop-color="#28ab6f"
         id="stop24" />
      <stop
         offset="1"
         stop-color="#48d493"
         id="stop26" />
    </linearGradient>
  </defs>
  <circle
     style="fill:#33d17a;fill-opacity:1"
     cx="32.000004"
     cy="32"
     r="28"
     id="circle4" />
  <path
     d="m 17.550469,16.312281 0.700906,6.100188 c 0.146437,1.277031 0.39875,2.548562 0.376062,3.832468 -0.01203,0.641782 -0.116875,1.295938 -0.425906,1.859688 -0.154344,0.2805 -0.359906,0.536937 -0.613594,0.733219 -0.253687,0.197312 -0.555843,0.334125 -0.874156,0.374687 -0.517,0.06703 -1.029875,-0.11825 -1.505281,-0.330344 -0.474031,-0.213468 -0.945312,-0.462 -1.459562,-0.534531 -0.503594,-0.0722 -1.02575,0.0323 -1.475719,0.267094 -0.449625,0.2365 -0.827063,0.600187 -1.102406,1.027469 -0.550344,0.853875 -0.677875,1.926718 -0.541063,2.933906 0.103125,0.762781 0.360938,1.523844 0.8635,2.108219 0.250937,0.291156 0.561344,0.535562 0.913,0.691281 0.351656,0.157094 0.74525,0.225844 1.127844,0.17875 0.529375,-0.066 1.005812,-0.34375 1.486375,-0.576125 0.242,-0.1155 0.488812,-0.221375 0.748,-0.284625 0.259187,-0.06325 0.533156,-0.08181 0.793719,-0.02269 0.281875,0.0629 0.538312,0.215876 0.743875,0.418688 0.206593,0.201438 0.360937,0.451344 0.472656,0.717063 0.22,0.533156 0.261937,1.119937 0.28875,1.696062 a 42.35,42.35 0 0 1 -0.773438,10.300469 45.863125,45.863125 0 0 0 7.179563,1.900937 c 0.8085,0.146781 1.647593,0.268813 2.444062,0.06738 0.39875,-0.100719 0.780313,-0.284625 1.0835,-0.561344 0.303531,-0.276374 0.52525,-0.649687 0.588156,-1.056687 0.04572,-0.302156 0.0041,-0.614969 -0.08594,-0.9075 -0.09006,-0.292875 -0.229625,-0.569594 -0.378469,-0.838063 -0.298375,-0.535906 -0.648656,-1.060812 -0.765531,-1.66375 -0.103125,-0.535562 -0.0079,-1.102406 0.232375,-1.592593 0.241656,-0.489844 0.62425,-0.903719 1.0725,-1.215157 0.898563,-0.620124 2.028125,-0.819156 3.119531,-0.828437 1.000313,-0.0079 2.034313,0.142312 2.884063,0.671345 0.424531,0.264686 0.795094,0.621842 1.045,1.055311 0.250937,0.432438 0.377093,0.942906 0.327593,1.439625 -0.04022,0.382594 -0.180125,0.749376 -0.352,1.093126 -0.171875,0.345125 -0.375718,0.672718 -0.553093,1.013718 -0.176,0.342375 -0.326563,0.703656 -0.381563,1.0835 -0.05362,0.381562 -0.0065,0.787187 0.190782,1.117188 0.140937,0.235125 0.350624,0.422812 0.583,0.566844 0.232031,0.145062 0.487437,0.248187 0.74525,0.340999 a 10.391562,10.391562 0 0 0 5.219156,0.457875 10.3565,10.3565 0 0 0 4.77125,-2.163219 l -0.889282,-6.658777 c -0.155718,-1.170813 -0.391875,-2.341969 -0.359906,-3.522063 0.01478,-0.590906 0.116875,-1.189718 0.392219,-1.711875 a 2.336125,2.336125 0 0 1 0.542437,-0.694375 1.8349375,1.8349375 0 0 1 0.777563,-0.405625 c 0.275,-0.0629 0.562719,-0.05638 0.839094,-0.0069 0.278093,0.04985 0.546562,0.140938 0.8085,0.243375 0.524906,0.205219 1.039156,0.460625 1.59775,0.535564 0.515625,0.06978 1.050156,-0.02131 1.521437,-0.240282 0.472656,-0.22 0.882063,-0.5665 1.192469,-0.984157 0.6215,-0.836686 0.831187,-1.933593 0.703656,-2.966561 -0.104844,-0.8415 -0.432437,-1.671313 -1.015094,-2.287657 -0.2915,-0.307656 -0.644531,-0.560313 -1.03675,-0.721188 -0.391875,-0.162593 -0.823281,-0.235125 -1.244718,-0.19353 -0.562719,0.05397 -1.083844,0.30078 -1.6115,0.502218 -0.262969,0.102093 -0.532813,0.192156 -0.809532,0.243032 -0.278093,0.05122 -0.566843,0.0605 -0.842187,-0.0014 -0.417313,-0.09281 -0.78925,-0.346157 -1.059094,-0.677875 -0.270187,-0.33172 -0.442062,-0.735625 -0.531781,-1.155 -0.180125,-0.835313 -0.04297,-1.702595 0.07906,-2.548563 a 68.468125,68.468125 0 0 0 0.6875,-8.564187 41.017969,41.017969 0 0 0 -7.665625,-1.673036 c -0.800593,-0.09659 -1.632812,-0.165 -2.395937,0.09419 -0.382594,0.129938 -0.73975,0.34375 -1.008219,0.644532 -0.268469,0.299062 -0.443094,0.691281 -0.451,1.094156 -0.0069,0.28325 0.0684,0.565469 0.186656,0.823281 0.119282,0.257813 0.279125,0.495344 0.451,0.720844 0.34375,0.452719 0.738375,0.879656 0.953219,1.405937 0.2365,0.576125 0.232375,1.239563 0.02819,1.82875 -0.203844,0.588157 -0.600188,1.102407 -1.091407,1.485 -0.492937,0.382938 -1.078343,0.636625 -1.685406,0.777907 -0.606719,0.140937 -1.235094,0.171875 -1.858312,0.135437 -1.003063,-0.05912 -2.026063,-0.305937 -2.829063,-0.911625 -0.4015,-0.3025 -0.741469,-0.693 -0.959062,-1.145375 -0.21725,-0.452719 -0.311438,-0.969375 -0.237188,-1.466437 0.10175,-0.675469 0.493969,-1.265 0.824313,-1.862438 0.165,-0.299406 0.317968,-0.608437 0.412156,-0.936031 0.09522,-0.327594 0.130281,-0.67925 0.05775,-1.012344 -0.07528,-0.34925 -0.266063,-0.667219 -0.51975,-0.9185 -0.253685,-0.249518 -0.567872,-0.433424 -0.903716,-0.5558 -0.669969,-0.244062 -1.401812,-0.243031 -2.113375,-0.201437 a 20.016219,20.016219 0 0 0 -7.649812,2.016781 z m 0,0"
     fill="#33d17a"
     id="path33"
     style="fill:#ffffff;stroke-width:0.34375" />
</svg>
