<?xml version="1.0" encoding="UTF-8" standalone="no"?>
<svg
   viewBox="0 0 64 64"
   style="display:inline;enable-background:new"
   version="1.0"
   id="svg11300"
   height="64"
   width="64"
   sodipodi:docname="gnome-tweaks.svg"
   inkscape:version="1.1.1 (3bf5ae0d25, 2021-09-20, custom)"
   xmlns:inkscape="http://www.inkscape.org/namespaces/inkscape"
   xmlns:sodipodi="http://sodipodi.sourceforge.net/DTD/sodipodi-0.dtd"
   xmlns="http://www.w3.org/2000/svg"
   xmlns:svg="http://www.w3.org/2000/svg"
   xmlns:rdf="http://www.w3.org/1999/02/22-rdf-syntax-ns#"
   xmlns:cc="http://creativecommons.org/ns#"
   xmlns:dc="http://purl.org/dc/elements/1.1/">
  <sodipodi:namedview
     id="namedview18"
     pagecolor="#ffffff"
     bordercolor="#666666"
     borderopacity="1.0"
     inkscape:pageshadow="2"
     inkscape:pageopacity="0.0"
     inkscape:pagecheckerboard="0"
     showgrid="false"
     inkscape:zoom="8.4410872"
     inkscape:cx="3.6725127"
     inkscape:cy="44.129387"
     inkscape:window-width="1920"
     inkscape:window-height="1019"
     inkscape:window-x="0"
     inkscape:window-y="0"
     inkscape:window-maximized="1"
     inkscape:current-layer="svg11300"
     showguides="false" />
  <title
     id="title4162">Adwaita Icon Template</title>
  <defs
     id="defs3">
    <clipPath
       id="clipPath16-6"
       clipPathUnits="userSpaceOnUse">
      <path
         id="path18-8"
         d="M 0,500 H 500 V 0 H 0 Z" />
    </clipPath>
  </defs>
  <metadata
     id="metadata4">
    <rdf:RDF>
      <cc:Work
         rdf:about="">
        <dc:format>image/svg+xml</dc:format>
        <dc:type
           rdf:resource="http://purl.org/dc/dcmitype/StillImage" />
        <dc:creator>
          <cc:Agent>
            <dc:title>GNOME Design Team</dc:title>
          </cc:Agent>
        </dc:creator>
        <dc:source />
        <cc:license
           rdf:resource="http://creativecommons.org/licenses/by-sa/4.0/" />
        <dc:title>Adwaita Icon Template</dc:title>
        <dc:subject>
          <rdf:Bag />
        </dc:subject>
        <dc:date />
        <dc:rights>
          <cc:Agent>
            <dc:title />
          </cc:Agent>
        </dc:rights>
        <dc:publisher>
          <cc:Agent>
            <dc:title />
          </cc:Agent>
        </dc:publisher>
        <dc:identifier />
        <dc:relation />
        <dc:language />
        <dc:coverage />
        <dc:description />
        <dc:contributor>
          <cc:Agent>
            <dc:title />
          </cc:Agent>
        </dc:contributor>
      </cc:Work>
      <cc:License
         rdf:about="http://creativecommons.org/licenses/by-sa/4.0/">
        <cc:permits
           rdf:resource="http://creativecommons.org/ns#Reproduction" />
        <cc:permits
           rdf:resource="http://creativecommons.org/ns#Distribution" />
        <cc:requires
           rdf:resource="http://creativecommons.org/ns#Notice" />
        <cc:requires
           rdf:resource="http://creativecommons.org/ns#Attribution" />
        <cc:permits
           rdf:resource="http://creativecommons.org/ns#DerivativeWorks" />
        <cc:requires
           rdf:resource="http://creativecommons.org/ns#ShareAlike" />
      </cc:License>
    </rdf:RDF>
  </metadata>
  <circle
     style="fill:#f6f5f4;fill-opacity:1"
     cx="32"
     cy="32"
     r="28"
     id="circle4" />
  <path
     id="rect931"
     style="fill:#3584e4;fill-opacity:1;stroke-width:0.856308"
     d="m 23,18 h 18 c 3.324,0 6,2.676 6,6 0,3.324 -2.676,6 -6,6 H 23 c -3.324,0 -6,-2.676 -6,-6 0,-3.324 2.676,-6 6,-6 z"
     sodipodi:nodetypes="sssssss" />
  <path
     id="rect931-6"
     style="display:inline;fill:#1a5fb4;fill-opacity:1;stroke-width:0.856308;enable-background:new"
     d="m 23,18 c -3.323999,0 -6,2.676 -6,6 0,0.168838 0.01185,0.334771 0.02539,0.5 C 17.278463,21.412289 19.844838,19 23,19 h 18 c 3.155162,0 5.721537,2.412289 5.974609,5.5 C 46.988152,24.334771 47,24.168838 47,24 47,20.676 44.323999,18 41,18 Z"
     sodipodi:nodetypes="sscsscsss" />
  <path
     id="rect931-3"
     style="display:inline;fill:#9a9996;fill-opacity:1;stroke-width:0.856308;enable-background:new"
     d="m 23,36 h 18 c 3.324,0 6,2.676 6,6 0,3.324 -2.676,6 -6,6 H 23 c -3.324,0 -6,-2.676 -6,-6 0,-3.324 2.676,-6 6,-6 z"
     sodipodi:nodetypes="sssssss" />
  <path
     id="rect931-3-9"
     style="display:inline;fill:#c0bfbc;fill-opacity:1;stroke-width:0.856308;enable-background:new"
     d="m 23,37 c -3.155162,0 -5.721537,2.412289 -5.974609,5.5 C 17.278463,45.587711 19.844838,48 23,48 h 18 c 3.155162,0 5.721537,-2.412289 5.974609,-5.5 C 46.721537,39.412289 44.155162,37 41,37 Z"
     sodipodi:nodetypes="scsscss" />
  <path
     id="path2180-6"
     style="display:inline;fill:#deddda;fill-opacity:1;stroke-width:0.77367;enable-background:new"
     d="m 40.978515,18 a 6,6 0 0 0 -5.591797,3.86523 h -0.408203 v 2 h 0.0098 A 6,6 0 0 0 34.978515,24 a 6,6 0 0 0 6,6 6,6 0 0 0 6,-6 6,6 0 0 0 -0.0039,-0.13477 h 0.0039 v -2 H 46.583978 A 6,6 0 0 0 40.978509,18 Z" />
  <circle
     style="fill:#ffffff;fill-opacity:1;stroke-width:0.77367"
     id="path2180"
     cx="40.978516"
     cy="22"
     r="6" />
  <path
     id="path2180-6-7"
     style="display:inline;fill:#deddda;fill-opacity:1;stroke-width:0.77367;enable-background:new"
     d="m 23,36 a 6,6 0 0 0 -5.591797,3.865234 H 17 v 2 h 0.0098 A 6,6 0 0 0 17,42 a 6,6 0 0 0 6,6 6,6 0 0 0 6,-6 6,6 0 0 0 -0.0039,-0.134766 H 29 v -2 H 28.605469 A 6,6 0 0 0 23,36 Z" />
  <circle
     style="display:inline;fill:#ffffff;fill-opacity:1;stroke-width:0.77367;enable-background:new"
     id="path2180-5"
     cx="23"
     cy="40"
     r="6" />
</svg>
