<?xml version="1.0" encoding="UTF-8" standalone="no"?>
<!-- Created with Inkscape (http://www.inkscape.org/) -->

<svg
   width="64"
   height="64"
   viewBox="0 0 16.933333 16.933333"
   version="1.1"
   id="svg5"
   inkscape:version="1.1.1 (3bf5ae0d25, 2021-09-20, custom)"
   sodipodi:docname="internet-news-reader.svg"
   xmlns:inkscape="http://www.inkscape.org/namespaces/inkscape"
   xmlns:sodipodi="http://sodipodi.sourceforge.net/DTD/sodipodi-0.dtd"
   xmlns="http://www.w3.org/2000/svg"
   xmlns:svg="http://www.w3.org/2000/svg">
  <sodipodi:namedview
     id="namedview7"
     pagecolor="#ffffff"
     bordercolor="#666666"
     borderopacity="1.0"
     inkscape:pageshadow="2"
     inkscape:pageopacity="0.0"
     inkscape:pagecheckerboard="0"
     inkscape:document-units="px"
     showgrid="false"
     units="px"
     height="48px"
     inkscape:zoom="4"
     inkscape:cx="104.5"
     inkscape:cy="81.875"
     inkscape:window-width="1920"
     inkscape:window-height="1012"
     inkscape:window-x="0"
     inkscape:window-y="0"
     inkscape:window-maximized="1"
     inkscape:current-layer="svg5"
     inkscape:lockguides="true"
     showguides="false" />
  <defs
     id="defs2" />
  <circle
     style="fill:#ff7f2a;stroke-width:0.529167;stroke-linecap:round;stroke-linejoin:round"
     id="path851"
     cx="8.4666662"
     cy="8.4666662"
     r="7.4083333" />
  <path
     id="path1545"
     style="fill:#ffffff;fill-opacity:1;stroke-width:0.662475;stroke-linejoin:round"
     d="M 4.2333333,4.2333333 V 5.6848668 A 7.0152372,7.0152372 0 0 1 11.248467,12.7 H 12.7 A 8.4666651,8.4666651 0 0 0 4.2333333,4.2333333 Z m 0,3.2034793 V 8.8097977 A 4.1189182,4.1189182 0 0 1 8.338509,12.7 H 9.7133313 A 5.4918911,5.4918911 0 0 0 4.2333333,7.4368126 Z M 5.2631874,10.640751 A 1.0297295,1.0297295 0 0 0 4.2333333,11.670146 1.0297295,1.0297295 0 0 0 5.2631874,12.7 1.0297295,1.0297295 0 0 0 6.2925811,11.670146 1.0297295,1.0297295 0 0 0 5.2631874,10.640751 Z" />
</svg>
