<?xml version="1.0" encoding="UTF-8" standalone="no"?>
<svg
   viewBox="0 0 63.999998 63.999999"
   version="1.1"
   id="svg12"
   sodipodi:docname="latexilla.svg"
   width="64"
   height="64"
   inkscape:version="1.1.1 (3bf5ae0d25, 2021-09-20, custom)"
   xmlns:inkscape="http://www.inkscape.org/namespaces/inkscape"
   xmlns:sodipodi="http://sodipodi.sourceforge.net/DTD/sodipodi-0.dtd"
   xmlns:xlink="http://www.w3.org/1999/xlink"
   xmlns="http://www.w3.org/2000/svg"
   xmlns:svg="http://www.w3.org/2000/svg">
  <defs
     id="defs16">
    <linearGradient
       inkscape:collect="always"
       id="linearGradient3022">
      <stop
         style="stop-color:#d0bb8e;stop-opacity:1;"
         offset="0"
         id="stop3018" />
      <stop
         style="stop-color:#ffffff;stop-opacity:1"
         offset="1"
         id="stop3020" />
    </linearGradient>
    <linearGradient
       inkscape:collect="always"
       xlink:href="#linearGradient3022"
       id="linearGradient3024"
       x1="33.476669"
       y1="51.916641"
       x2="26.827709"
       y2="44.405735"
       gradientUnits="userSpaceOnUse" />
  </defs>
  <sodipodi:namedview
     id="namedview14"
     pagecolor="#ffffff"
     bordercolor="#666666"
     borderopacity="1.0"
     inkscape:pageshadow="2"
     inkscape:pageopacity="0.0"
     inkscape:pagecheckerboard="0"
     showgrid="false"
     inkscape:zoom="14.517857"
     inkscape:cx="32.02952"
     inkscape:cy="31.995079"
     inkscape:window-width="1920"
     inkscape:window-height="1019"
     inkscape:window-x="0"
     inkscape:window-y="0"
     inkscape:window-maximized="1"
     inkscape:current-layer="svg12" />
  <path
     id="path866"
     style="fill:#f6f5f4;stroke-width:0.873441;fill-opacity:1"
     d="M 60.000006,32 A 27.999999,27.999999 0 0 1 32.000002,59.999999 27.999999,27.999999 0 0 1 4.0000029,32 27.999999,27.999999 0 0 1 32.000002,4 27.999999,27.999999 0 0 1 60.000006,32 Z" />
  <path
     id="path7581-5"
     style="fill:#d5d3cf;fill-opacity:1;stroke-width:0.724431"
     d="M 17.5 12 A 1.5 1.5 0 0 0 16 13.5 A 1.5 1.5 0 0 0 17.5 15 A 1.5 1.5 0 0 0 19 13.5 A 1.5 1.5 0 0 0 17.5 12 z M 23.5 12 A 1.5 1.5 0 0 0 22 13.5 A 1.5 1.5 0 0 0 23.5 15 A 1.5 1.5 0 0 0 25 13.5 A 1.5 1.5 0 0 0 23.5 12 z M 29.5 12 A 1.5 1.5 0 0 0 28 13.5 A 1.5 1.5 0 0 0 29.5 15 A 1.5 1.5 0 0 0 31 13.5 A 1.5 1.5 0 0 0 29.5 12 z M 35.5 12 A 1.5 1.5 0 0 0 34 13.5 A 1.5 1.5 0 0 0 35.5 15 A 1.5 1.5 0 0 0 37 13.5 A 1.5 1.5 0 0 0 35.5 12 z M 41.5 12 A 1.5 1.5 0 0 0 40 13.5 A 1.5 1.5 0 0 0 41.5 15 A 1.5 1.5 0 0 0 43 13.5 A 1.5 1.5 0 0 0 41.5 12 z M 47.5 12 A 1.5 1.5 0 0 0 46 13.5 A 1.5 1.5 0 0 0 47.5 15 A 1.5 1.5 0 0 0 49 13.5 A 1.5 1.5 0 0 0 47.5 12 z M 12.283203 12.220703 A 27.999999 27.999999 0 0 0 10.296875 14.388672 A 1.5 1.5 0 0 0 11.5 15 A 1.5 1.5 0 0 0 13 13.5 A 1.5 1.5 0 0 0 12.283203 12.220703 z M 52.25 12.675781 A 1.5 1.5 0 0 0 52 13.5 A 1.5 1.5 0 0 0 53.5 15 A 1.5 1.5 0 0 0 54.130859 14.861328 A 27.999999 27.999999 0 0 0 52.25 12.675781 z " />
  <path
     id="path12-6"
     style="opacity:0.1;fill:#000000;fill-opacity:1"
     d="M 52.242438,13.666027 25.002203,40.908215 v 5.455078 3.636718 h 3.636719 5.453125 0.002 L 58.888922,25.207043 A 27.999999,27.999999 0 0 0 52.242438,13.666027 Z" />
  <path
     style="fill:url(#linearGradient3024);fill-opacity:1"
     d="m 25,49.000011 v -9.093 l 9.093,9.093 z"
     id="path12" />
  <path
     style="fill:#424048;fill-opacity:1"
     d="m 25,49.000011 v -3.637 l 3.637,3.637 z"
     id="path14" />
  <path
     id="path16-5"
     style="fill:#77f62d;stroke-width:1.00003;fill-opacity:1"
     d="M 52.240234 12.666016 L 25 39.908203 L 34.091797 49.001953 L 58.886719 24.207031 A 27.999999 27.999999 0 0 0 52.240234 12.666016 z " />
  <path
     id="path16-5-3"
     style="fill:#a9f96b;fill-opacity:1;stroke-width:1.00003"
     d="M 52.240234 12.666016 L 25 39.908203 L 27.271484 42.179688 L 54.314453 15.136719 A 27.999999 27.999999 0 0 0 52.240234 12.666016 z " />
  <path
     id="path16-5-3-5"
     style="fill:#3fe50a;fill-opacity:1;stroke-width:1.00003"
     d="M 57.660156 20.884766 L 31.820312 46.726562 L 34.09375 49 L 58.886719 24.207031 A 27.999999 27.999999 0 0 0 57.660156 20.884766 z " />
  <path
     id="rect1071"
     style="fill:#808080;stroke-width:0.999999"
     d="m 11.087133,18.875505 h 13.999999 v 4 H 24.087 v -2 h -9.17137 l 5.08474,7.500495 -5.084741,7.499506 8.671371,-3e-6 0.5,-2 h 1.000132 v 4.000001 H 11.087133 L 17.587134,28.376 Z"
     sodipodi:nodetypes="ccccccccccccccc" />
</svg>
