<?xml version="1.0" encoding="UTF-8" standalone="no"?>
<!-- Generator: Adobe Illustrator 25.0.0, SVG Export Plug-In . SVG Version: 6.00 Build 0)  -->

<svg
   version="1.1"
   id="Layer_1"
   x="0px"
   y="0px"
   viewBox="0 0 64 64"
   xml:space="preserve"
   sodipodi:docname="org.libreoffice.LibreOffice.writer.svg"
   width="64"
   height="64"
   inkscape:version="1.1.1 (3bf5ae0d25, 2021-09-20, custom)"
   xmlns:inkscape="http://www.inkscape.org/namespaces/inkscape"
   xmlns:sodipodi="http://sodipodi.sourceforge.net/DTD/sodipodi-0.dtd"
   xmlns="http://www.w3.org/2000/svg"
   xmlns:svg="http://www.w3.org/2000/svg"><defs
   id="defs14">
	
	
	
</defs><sodipodi:namedview
   id="namedview12"
   pagecolor="#ffffff"
   bordercolor="#666666"
   borderopacity="1.0"
   inkscape:pageshadow="2"
   inkscape:pageopacity="0.0"
   inkscape:pagecheckerboard="0"
   showgrid="false"
   inkscape:zoom="6.6130554"
   inkscape:cx="29.940774"
   inkscape:cy="48.918386"
   inkscape:window-width="1920"
   inkscape:window-height="1012"
   inkscape:window-x="0"
   inkscape:window-y="0"
   inkscape:window-maximized="1"
   inkscape:current-layer="Layer_1"
   showguides="false" />
<style
   type="text/css"
   id="style2">
	.st0{fill:#0DC54C;}
	.st1{fill:#08962D;}
	.st2{fill:#FDFFFF;}
</style>
<path
   id="path866"
   style="fill:#1e88e5;fill-opacity:1;stroke-width:0.873441"
   d="M 60.000007,32 A 27.999999,27.999999 0 0 1 32.000003,59.999999 27.999999,27.999999 0 0 1 4.0000039,32 27.999999,27.999999 0 0 1 32.000003,4 27.999999,27.999999 0 0 1 60.000007,32 Z" />
<path
   id="rect902"
   style="fill:#ffffff;fill-opacity:1;stroke-width:1.33426"
   d="M 20.513672,13 C 19.120837,13 18,14.120837 18,15.513672 V 48.986328 C 18,50.379163 19.120837,51.5 20.513672,51.5 H 43.486328 C 44.879163,51.5 46,50.379163 46,48.986328 V 25 L 34,13 Z"
   sodipodi:nodetypes="ssssssccs" /><path
   id="rect850"
   style="fill:#6ab7ff;stroke-width:1.00791;fill-opacity:1"
   d="m 24,28 v 2 h 16 v -2 z m 0,5 v 2.05 H 40 V 33 Z m 0,5.05 V 40 h 8 v -1.95 z"
   sodipodi:nodetypes="ccccccccccccccc" /><path
   id="rect929"
   style="fill:#005cb2;fill-opacity:1;stroke-width:2;stroke-linecap:round;stroke-linejoin:round"
   d="m 36,13 h 7 c 1.662,0 3,1.338 3,3 v 7 z"
   sodipodi:nodetypes="csscc" /></svg>
