<?xml version="1.0" encoding="UTF-8" standalone="no"?>
<!-- Generator: Adobe Illustrator 25.0.0, SVG Export Plug-In . SVG Version: 6.00 Build 0)  -->

<svg
   version="1.1"
   id="Layer_1"
   x="0px"
   y="0px"
   viewBox="0 0 64 64"
   xml:space="preserve"
   sodipodi:docname="org.libreoffice.LibreOffice.draw.svg"
   width="64"
   height="64"
   inkscape:version="1.1.1 (3bf5ae0d25, 2021-09-20, custom)"
   xmlns:inkscape="http://www.inkscape.org/namespaces/inkscape"
   xmlns:sodipodi="http://sodipodi.sourceforge.net/DTD/sodipodi-0.dtd"
   xmlns="http://www.w3.org/2000/svg"
   xmlns:svg="http://www.w3.org/2000/svg"><defs
   id="defs14">
	
	
	
</defs><sodipodi:namedview
   id="namedview12"
   pagecolor="#ffffff"
   bordercolor="#666666"
   borderopacity="1.0"
   inkscape:pageshadow="2"
   inkscape:pageopacity="0.0"
   inkscape:pagecheckerboard="0"
   showgrid="false"
   inkscape:zoom="9.3522727"
   inkscape:cx="25.876063"
   inkscape:cy="40.150668"
   inkscape:window-width="1920"
   inkscape:window-height="1012"
   inkscape:window-x="0"
   inkscape:window-y="0"
   inkscape:window-maximized="1"
   inkscape:current-layer="Layer_1"
   showguides="false" />
<style
   type="text/css"
   id="style2">
	.st0{fill:#0DC54C;}
	.st1{fill:#08962D;}
	.st2{fill:#FDFFFF;}
</style>
<path
   id="path866"
   style="fill:#ffb300;fill-opacity:1;stroke-width:0.873441"
   d="M 60.000007,32 A 27.999999,27.999999 0 0 1 32.000003,59.999999 27.999999,27.999999 0 0 1 4.0000039,32 27.999999,27.999999 0 0 1 32.000003,4 27.999999,27.999999 0 0 1 60.000007,32 Z" /><path
   id="rect929"
   style="fill:#c68400;fill-opacity:1;stroke-width:2;stroke-linecap:round;stroke-linejoin:round"
   d="m 36,13 h 7 c 1.662,0 3,1.338 3,3 v 7 z"
   sodipodi:nodetypes="csscc" />
<path
   id="rect902"
   style="fill:#ffffff;fill-opacity:1;stroke-width:1.33426"
   d="M 20.513672,13 C 19.120837,13 18,14.120837 18,15.513672 V 48.986328 C 18,50.379163 19.120837,51.5 20.513672,51.5 H 43.486328 C 44.879163,51.5 46,50.379163 46,48.986328 V 25 L 34,13 Z"
   sodipodi:nodetypes="ssssssccs" /><path
   d="m 38.830833,30.155866 c -0.264062,-0.0031 -0.540271,0.05008 -0.810146,0.200198 -0.867209,0.48248 -1.180522,1.456252 -1.181043,2.29719 -5.21e-4,0.840917 0.207844,1.690835 0.393271,2.50146 0.185427,0.810616 0.347126,1.58271 0.342001,2.10344 -0.0051,0.520802 -0.05315,0.644469 -0.322469,0.780021 -0.23924,0.120417 -0.358595,0.122083 -0.489709,0.09543 -0.131115,-0.02667 -0.303365,-0.111573 -0.520022,-0.298667 -0.433312,-0.374198 -0.965052,-1.127501 -1.568855,-1.94521 C 34.0701,35.072058 33.377297,34.181182 32.425526,33.538682 31.473744,32.89616 30.218024,32.551795 28.795314,32.876046 l -0.01628,0.0039 -0.01628,0.0043 c -0.953917,0.258437 -1.654584,0.982876 -2.133231,1.845314 -0.478615,0.862417 -0.769479,1.897085 -0.911667,2.993752 -0.01181,0.09112 -0.01662,0.184761 -0.02645,0.276688 -0.228729,-0.01268 -0.45625,-0.02978 -0.686855,-0.03478 l -1.538543,-0.03336 -0.833125,-0.01812 -0.03621,1.666251 2.371669,0.05148 c 0.221719,0.0048 0.438979,0.02105 0.657761,0.03377 0.04568,1.60771 0.406979,3.206566 1.181459,4.459587 l 0.01628,0.02624 0.01811,0.02503 c 1.224897,1.687293 3.310316,2.186356 4.886671,1.57271 0.788199,-0.306844 1.478647,-0.967209 1.688856,-1.87521 0.210219,-0.908001 -0.04791,-1.946043 -0.752772,-3.040211 -0.689084,-1.069583 -1.855626,-1.742604 -3.195836,-2.183438 -0.662521,-0.217938 -1.376147,-0.378428 -2.118335,-0.490115 0.0077,-0.07367 0.01071,-0.149396 0.02014,-0.222167 0.12126,-0.935376 0.377813,-1.789897 0.716146,-2.399481 0.334355,-0.602459 0.71523,-0.930657 1.098022,-1.039626 0.992813,-0.221417 1.654897,-0.0193 2.307918,0.421542 0.657564,0.443907 1.26271,1.177501 1.84021,1.959585 0.577522,0.782147 1.110522,1.603855 1.820106,2.216564 0.354792,0.306397 0.773459,0.568115 1.277293,0.670574 0.503834,0.102458 1.063438,0.01574 1.571251,-0.239865 0.884834,-0.445344 1.231355,-1.417293 1.239584,-2.252606 0.0082,-0.835313 -0.198021,-1.679689 -0.383708,-2.49146 -0.185688,-0.811741 -0.351678,-1.589898 -0.351355,-2.128753 3.13e-4,-0.538761 0.06295,-0.696073 0.324709,-0.841677 -0.0558,0.03104 -0.0045,-0.01081 0.203854,0.05961 0.208313,0.07043 0.504053,0.231855 0.78023,0.420532 0.552365,0.377344 1.020303,0.8315 1.020303,0.8315 l 0.595292,0.583095 1.166147,-1.190835 -0.5955,-0.583083 c 0,0 -0.544209,-0.537334 -1.246147,-1.016855 -0.350969,-0.239751 -0.743001,-0.47322 -1.186564,-0.623168 -0.22176,-0.07497 -0.473844,-0.134396 -0.737917,-0.137531 z M 27.333949,39.85275 c 0.576302,0.09683 1.125521,0.219614 1.614376,0.380448 1.123334,0.369531 1.93146,0.906823 2.315523,1.502918 0.54699,0.849042 0.607875,1.425938 0.530188,1.761459 -0.07769,0.335521 -0.282126,0.547136 -0.669761,0.698043 -0.769647,0.299614 -2.14396,0.06006 -2.914794,-0.977793 -0.506157,-0.835438 -0.795824,-2.080418 -0.875449,-3.365107 z"
   color="#000000"
   color-rendering="auto"
   enable-background="new"
   fill="#cccccc"
   fill-rule="evenodd"
   image-rendering="auto"
   shape-rendering="auto"
   solid-color="#000000"
   style="text-indent:0;text-decoration-line:none;text-decoration-style:solid;text-decoration-color:#000000;text-transform:none;white-space:normal;isolation:auto;mix-blend-mode:normal;stroke-width:0.104167;fill:#ffe54c;fill-opacity:1"
   id="path25" /></svg>
