<?xml version="1.0" encoding="UTF-8" standalone="no"?>
<!-- Created with Inkscape (http://www.inkscape.org/) -->

<svg
   width="64"
   height="64"
   viewBox="0 0 16.933333 16.933334"
   version="1.1"
   id="svg5"
   inkscape:version="1.1.1 (3bf5ae0d25, 2021-09-20, custom)"
   sodipodi:docname="onboard.svg"
   xmlns:inkscape="http://www.inkscape.org/namespaces/inkscape"
   xmlns:sodipodi="http://sodipodi.sourceforge.net/DTD/sodipodi-0.dtd"
   xmlns:xlink="http://www.w3.org/1999/xlink"
   xmlns="http://www.w3.org/2000/svg"
   xmlns:svg="http://www.w3.org/2000/svg">
  <sodipodi:namedview
     id="namedview7"
     pagecolor="#ffffff"
     bordercolor="#666666"
     borderopacity="1.0"
     inkscape:pageshadow="2"
     inkscape:pageopacity="0.0"
     inkscape:pagecheckerboard="0"
     inkscape:document-units="px"
     showgrid="false"
     units="px"
     height="64px"
     inkscape:zoom="3.9999998"
     inkscape:cx="5.0000002"
     inkscape:cy="52.625002"
     inkscape:window-width="1920"
     inkscape:window-height="996"
     inkscape:window-x="0"
     inkscape:window-y="0"
     inkscape:window-maximized="1"
     inkscape:current-layer="svg5" />
  <defs
     id="defs2">
    <linearGradient
       inkscape:collect="always"
       id="linearGradient7315">
      <stop
         style="stop-color:#000000;stop-opacity:1;"
         offset="0"
         id="stop7311" />
      <stop
         style="stop-color:#000000;stop-opacity:0;"
         offset="1"
         id="stop7313" />
    </linearGradient>
    <linearGradient
       inkscape:collect="always"
       xlink:href="#linearGradient7315"
       id="linearGradient7317"
       x1="14"
       y1="12.043945"
       x2="52"
       y2="34.043945"
       gradientUnits="userSpaceOnUse" />
  </defs>
  <circle
     style="fill:#808080;stroke-width:0.529167;stroke-linecap:round;stroke-linejoin:round;fill-opacity:1"
     id="path1039"
     cx="8.4666662"
     cy="8.4666662"
     r="7.4083333" />
  <path
     id="rect1434"
     style="opacity:1;fill:#cccccc;fill-opacity:1;stroke-width:0.333334;stroke-linecap:round;stroke-linejoin:round"
     d="M 14 32 L 14 36 L 18 36 L 18 32 L 14 32 z M 22 32 L 22 36 L 26 36 L 26 32 L 22 32 z M 30 32 L 30 36 L 34 36 L 34 32 L 30 32 z M 38 32 L 38 36 L 42 36 L 42 32 L 38 32 z M 46 32 L 46 36 L 50 36 L 50 32 L 46 32 z M 14 40 L 14 44 L 18 44 L 18 40 L 14 40 z M 22 40 L 22 44 L 26 44 L 26 40 L 22 40 z M 30 40 L 30 44 L 34 44 L 34 40 L 30 40 z M 38 40 L 38 44 L 42 44 L 42 40 L 38 40 z M 46 40 L 46 44 L 50 44 L 50 40 L 46 40 z M 18 48 L 18 52 L 46 52 L 46 48 L 18 48 z "
     transform="scale(0.26458334)" />
  <path
     id="path6978"
     style="fill:url(#linearGradient7317);fill-opacity:1;stroke-width:1.92725;stroke-linecap:round;stroke-linejoin:round;opacity:0.3"
     d="M 43.046875 11.28125 C 43.661001 11.63047 44.081116 12.269957 44 13 L 34 26 L 32 42 L 50.716797 52.806641 A 28 28 0 0 0 60 32 A 28 28 0 0 0 56.957031 19.310547 L 43.060547 11.287109 C 43.056247 11.284609 43.051145 11.28375 43.046875 11.28125 z "
     transform="scale(0.26458334)" />
  <path
     id="rect2110"
     style="fill:#ececec;fill-opacity:1;stroke-width:0.509918;stroke-linecap:round;stroke-linejoin:round"
     d="M 5.8208335,2.9104167 H 11.1125 c 0.293159,0 0.561541,0.2378014 0.529167,0.5291667 v 5.55625 L 8.4666655,11.1125 5.2916675,8.9958334 v -5.55625 c 0,-0.2931583 0.236008,-0.5291667 0.529166,-0.5291667 z"
     sodipodi:nodetypes="ssscccss" />
  <path
     id="rect2110-3"
     style="fill:#2196f3;fill-opacity:1;stroke-width:1.92725;stroke-linecap:round;stroke-linejoin:round"
     d="M 32,24 V 42 L 44,34 V 24 Z"
     transform="scale(0.26458334)"
     sodipodi:nodetypes="ccccc" />
  <path
     id="rect2110-3-7"
     style="fill:#fdd835;fill-opacity:1;stroke-width:1.92725;stroke-linecap:round;stroke-linejoin:round"
     d="m 22,11 c -1.107999,0 -2,0.892 -2,2 V 24 H 32 V 11 Z"
     transform="scale(0.26458334)"
     sodipodi:nodetypes="sscccs" />
  <g
     aria-label="B"
     id="text6055"
     style="font-size:10.5833px;line-height:1.25;font-family:'Noto Sans CJK KR';-inkscape-font-specification:'Noto Sans CJK KR';stroke-width:0.264583"
     transform="matrix(0.39139068,0,0,0.39139068,8.8554229,9.8923379)">
    <path
       d="m 1.0347561,-1.8804586 h 1.8494316 c 1.3017458,0 2.206618,-0.5635606 2.206618,-1.706557 0,-0.7937474 -0.4921235,-1.254121 -1.1826838,-1.3890581 v -0.039688 c 0.5476858,-0.1746241 0.8493098,-0.6826225 0.8493098,-1.2620581 0,-1.0239343 -0.8254974,-1.420808 -2.0002436,-1.420808 h -1.722432 z m 0.7302477,-3.3496143 v -1.8891189 h 0.8969346 c 0.9128095,0 1.3731831,0.2539992 1.3731831,0.936622 0,0.5953106 -0.4048112,0.9524969 -1.404933,0.9524969 z m 0,2.7622413 v -2.1907431 h 1.0159967 c 1.0239342,0 1.5874949,0.3254365 1.5874949,1.0477467 0,0.78581 -0.5873731,1.1429964 -1.5874949,1.1429964 z"
       id="path7854"
       style="stroke-width:0.198437" />
  </g>
  <g
     aria-label="O"
     id="text1395"
     style="font-size:10.5833px;line-height:1.25;font-family:'Noto Sans CJK KR';-inkscape-font-specification:'Noto Sans CJK KR';stroke-width:0.264583"
     transform="matrix(0.28349893,0,0,0.28349893,4.9825288,4.593854)">
    <path
       d="m 6.7362057,3.9612077 c 1.9473272,0 3.3125733,-1.555745 3.3125733,-4.04282042 0,-2.48707538 -1.3652461,-3.98990398 -3.3125733,-3.98990398 -1.9473271,0 -3.3125727,1.5028286 -3.3125727,3.98990398 0,2.48707542 1.3652456,4.04282042 3.3125727,4.04282042 z m 0,-0.8572472 c -1.3969955,0 -2.3071593,-1.2488294 -2.3071593,-3.18557322 0,-1.93674388 0.9101638,-3.13265668 2.3071593,-3.13265668 1.3969956,0 2.3071594,1.1959128 2.3071594,3.13265668 0,1.93674382 -0.9101638,3.18557322 -2.3071594,3.18557322 z"
       id="path7857" />
  </g>
</svg>
