<?xml version="1.0" encoding="UTF-8" standalone="no"?>
<!-- Created with Inkscape (http://www.inkscape.org/) -->

<svg
   width="64"
   height="64"
   viewBox="0 0 16.933333 16.933334"
   version="1.1"
   id="svg5"
   inkscape:version="1.1.1 (3bf5ae0d25, 2021-09-20, custom)"
   sodipodi:docname="pidgin.svg"
   xmlns:inkscape="http://www.inkscape.org/namespaces/inkscape"
   xmlns:sodipodi="http://sodipodi.sourceforge.net/DTD/sodipodi-0.dtd"
   xmlns="http://www.w3.org/2000/svg"
   xmlns:svg="http://www.w3.org/2000/svg">
  <sodipodi:namedview
     id="namedview7"
     pagecolor="#ffffff"
     bordercolor="#666666"
     borderopacity="1.0"
     inkscape:pageshadow="2"
     inkscape:pageopacity="0.0"
     inkscape:pagecheckerboard="0"
     inkscape:document-units="px"
     showgrid="false"
     units="px"
     height="64px"
     inkscape:zoom="12.328125"
     inkscape:cx="31.959442"
     inkscape:cy="32"
     inkscape:window-width="1920"
     inkscape:window-height="996"
     inkscape:window-x="0"
     inkscape:window-y="0"
     inkscape:window-maximized="1"
     inkscape:current-layer="svg5" />
  <defs
     id="defs2" />
  <circle
     style="fill:#8a22a5;stroke-width:0.529167;stroke-linecap:round;stroke-linejoin:round;fill-opacity:1"
     id="path1039"
     cx="8.4666662"
     cy="8.4666662"
     r="7.4083333" />
  <path
     style="opacity:0.2;stroke-width:0.264583"
     d="M 3.9091994,5.5562508 A 0.46873045,0.41362978 0 0 0 3.5030224,6.176368 l 0.9952882,1.5213542 v 2.7140458 c 0,0.827743 0.6744573,1.494484 1.5120525,1.494484 h 4.9133949 c 0.837595,0 1.512052,-0.666741 1.512052,-1.494484 V 7.0507334 c 0,-0.8277415 -0.674457,-1.4944826 -1.512052,-1.4944826 H 8.1580358 6.0331009 6.0103626 Z"
     id="path6" />
  <path
     id="rect8"
     style="fill:#ffffff;stroke-width:0.264583"
     d="M 3.9091994,5.2916675 A 0.46873045,0.41362978 0 0 0 3.5025057,5.9123014 l 0.9958049,1.5203208 v 2.7150798 c 0,0.827733 0.6744991,1.493966 1.5120525,1.493966 h 4.9133949 c 0.837553,0 1.512052,-0.666233 1.512052,-1.493966 V 6.7856331 c 0,-0.8277326 -0.674499,-1.4939656 -1.512052,-1.4939656 H 8.1575188 6.0331006 6.0103623 Z" />
  <path
     id="rect12"
     style="fill:#f88ad4;stroke-width:0.999999;fill-opacity:1"
     d="M 22.501953 24 C 21.670953 24 21.001953 24.669 21.001953 25.5 C 21.001953 26.331 21.670953 27 22.501953 27 L 41.501953 27 C 42.332953 27 43.001953 26.331 43.001953 25.5 C 43.001953 24.669 42.332953 24 41.501953 24 L 22.501953 24 z M 22.501953 30 C 21.670953 30 21.001953 30.669 21.001953 31.5 C 21.001953 32.331 21.670953 33 22.501953 33 L 41.501953 33 C 42.332953 33 43.001953 32.331 43.001953 31.5 C 43.001953 30.669 42.332953 30 41.501953 30 L 22.501953 30 z M 22.701172 36 C 21.870172 36 21.201172 36.669 21.201172 37.5 C 21.201172 38.331 21.870172 39 22.701172 39 L 35.701172 39 C 36.532172 39 37.201172 38.331 37.201172 37.5 C 37.201172 36.669 36.532172 36 35.701172 36 L 22.701172 36 z "
     transform="scale(0.26458334)" />
</svg>
