<?xml version="1.0" encoding="UTF-8" standalone="no"?>
<!-- Created with Inkscape (http://www.inkscape.org/) -->

<svg
   width="64"
   height="64"
   viewBox="0 0 16.933333 16.933333"
   version="1.1"
   id="svg5"
   inkscape:version="1.1.1 (3bf5ae0d25, 2021-09-20, custom)"
   sodipodi:docname="qvidcap.svg"
   xmlns:inkscape="http://www.inkscape.org/namespaces/inkscape"
   xmlns:sodipodi="http://sodipodi.sourceforge.net/DTD/sodipodi-0.dtd"
   xmlns="http://www.w3.org/2000/svg"
   xmlns:svg="http://www.w3.org/2000/svg">
  <sodipodi:namedview
     id="namedview7"
     pagecolor="#ffffff"
     bordercolor="#666666"
     borderopacity="1.0"
     inkscape:pageshadow="2"
     inkscape:pageopacity="0.0"
     inkscape:pagecheckerboard="0"
     inkscape:document-units="px"
     showgrid="false"
     units="px"
     height="48px"
     inkscape:zoom="12.265625"
     inkscape:cx="37.503185"
     inkscape:cy="36.321019"
     inkscape:window-width="1920"
     inkscape:window-height="1012"
     inkscape:window-x="0"
     inkscape:window-y="0"
     inkscape:window-maximized="1"
     inkscape:current-layer="svg5"
     inkscape:lockguides="true" />
  <defs
     id="defs2" />
  <circle
     style="opacity:1;fill:#ffffff;fill-opacity:1;stroke-width:3.92191;stroke-linecap:round;stroke-linejoin:round"
     id="path850"
     cx="8.4666662"
     cy="8.4666662"
     r="7.4083333" />
  <path
     id="rect866"
     style="fill:#6de5a3;stroke-width:1.98841;stroke-linecap:round;stroke-linejoin:round;fill-opacity:1"
     d="M 18 20 C 16.338 20 15 21.338 15 23 L 15 41 C 15 42.662002 16.338 44 18 44 L 46 44 C 47.662002 44 49 42.662002 49 41 L 49 23 C 49 21.338 47.662002 20 46 20 L 18 20 z M 19 24 L 45 24 L 45 40 L 19 40 L 19 24 z "
     transform="scale(0.26458333)" />
  <path
     id="rect4113"
     style="fill:#7cd55c;fill-opacity:1;stroke-width:2;stroke-linecap:round;stroke-linejoin:round"
     d="m 15,37 v 4 c 0,1.661998 1.338,3 3,3 h 28 c 1.662002,0 3,-1.338002 3,-3 v -4 c 0,1.661998 -1.337998,3 -3,3 H 45 19 18 c -1.662002,0 -3,-1.338002 -3,-3 z"
     transform="scale(0.26458333)"
     sodipodi:nodetypes="csssscsccsc" />
  <path
     id="rect4009"
     style="fill:#43cead;fill-opacity:1;stroke-width:2;stroke-linecap:round;stroke-linejoin:round"
     d="m 42,20 c 1.662002,0 3,1.338 3,3 v 1 16 1 c 0,1.662002 -1.337998,3 -3,3 h 4 c 1.662002,0 3,-1.337998 3,-3 V 23 c 0,-1.662 -1.337998,-3 -3,-3 z"
     transform="scale(0.26458333)"
     sodipodi:nodetypes="csccscssssc" />
  <path
     id="rect4217"
     style="fill:#00cc5c;fill-opacity:1;stroke-width:2;stroke-linecap:round;stroke-linejoin:round"
     d="M 22 20 C 20.338001 20 19 21.338 19 23 L 19 24 L 46 24 C 47.662002 24 49 25.338 49 27 L 49 23 C 49 21.338 47.662002 20 46 20 L 22 20 z "
     transform="scale(0.26458333)" />
</svg>
