<?xml version="1.0" encoding="UTF-8" standalone="no"?>
<!-- Created with Inkscape (http://www.inkscape.org/) -->

<svg
   width="64"
   height="64"
   viewBox="0 0 16.933333 16.933333"
   version="1.1"
   id="svg5"
   inkscape:version="1.1.1 (3bf5ae0d25, 2021-09-20, custom)"
   sodipodi:docname="reddit.svg"
   xmlns:inkscape="http://www.inkscape.org/namespaces/inkscape"
   xmlns:sodipodi="http://sodipodi.sourceforge.net/DTD/sodipodi-0.dtd"
   xmlns="http://www.w3.org/2000/svg"
   xmlns:svg="http://www.w3.org/2000/svg">
  <sodipodi:namedview
     id="namedview7"
     pagecolor="#ffffff"
     bordercolor="#666666"
     borderopacity="1.0"
     inkscape:pageshadow="2"
     inkscape:pageopacity="0.0"
     inkscape:pagecheckerboard="0"
     inkscape:document-units="px"
     showgrid="false"
     units="px"
     height="48px"
     inkscape:zoom="7.9999996"
     inkscape:cx="12.375001"
     inkscape:cy="24.312501"
     inkscape:window-width="1920"
     inkscape:window-height="1019"
     inkscape:window-x="0"
     inkscape:window-y="0"
     inkscape:window-maximized="1"
     inkscape:current-layer="svg5"
     inkscape:lockguides="true" />
  <defs
     id="defs2" />
  <circle
     style="fill:#ff4500;fill-opacity:1;stroke-width:0.719299"
     id="path850"
     cx="8.4666662"
     cy="8.4666662"
     r="7.4083333" />
  <path
     id="path8"
     style="fill:#ffffff;fill-rule:nonzero;stroke:none;stroke-width:0.176572;stroke-linecap:butt;stroke-linejoin:miter;stroke-miterlimit:10;stroke-dasharray:none"
     d="m 9.0594417,3.7042099 c -0.114353,-0.00215 -0.218953,0.075988 -0.24491,0.1935631 v 0.00394 l -0.586599,2.7571662 c -1.1060478,0.017834 -2.1824478,0.3575451 -3.0988568,0.9776663 -0.46615,-0.4384287 -1.200824,-0.4167468 -1.639253,0.051346 -0.438428,0.4661499 -0.416746,1.2009479 0.05135,1.6393759 0.09094,0.08493 0.195478,0.158065 0.312016,0.209447 -0.0079,0.116538 -0.0079,0.233033 0,0.349571 0,1.7794946 2.07383,3.2271606 4.6314778,3.2271606 2.5576463,0 4.6314773,-1.445724 4.6314773,-3.2271606 0.0079,-0.116538 0.0079,-0.233033 0,-0.349571 0.399053,-0.199527 0.649955,-0.610466 0.642009,-1.05684 -0.02366,-0.6398969 -0.560911,-1.139631 -1.202751,-1.1179126 -0.284458,0.00989 -0.554985,0.1264015 -0.760338,0.3218665 C 10.890486,7.0675918 9.8278837,6.7298226 8.7356087,6.706162 l 0.51543,-2.4786421 1.7004493,0.3575746 c 0.04732,0.4364863 0.438488,0.7525503 0.874974,0.7050525 0.436486,-0.047321 0.752551,-0.438488 0.705053,-0.8749742 -0.0475,-0.4364863 -0.438489,-0.7525504 -0.874974,-0.7050525 -0.25091,0.025603 -0.475961,0.1718592 -0.600267,0.3892195 L 9.1088167,3.7101202 c -0.01653,-0.00371 -0.03304,-0.0056 -0.04938,-0.00591 z M 6.6083809,8.4798744 c 0.438429,0 0.7960458,0.357618 0.7960458,0.796047 0,0.438428 -0.3576168,0.7959226 -0.7960458,0.7959226 -0.440371,-0.0041 -0.795924,-0.3574946 -0.795924,-0.7959226 0,-0.438429 0.357495,-0.796047 0.795924,-0.796047 z m 3.6776991,0.02758 c 0.438429,0 0.795924,0.357495 0.795924,0.795924 0.01766,0.438605 -0.324003,0.8078876 -0.762432,0.8257216 h -0.03953 l 0.006,-0.02967 c -0.4384293,0 -0.7960463,-0.3576176 -0.7960463,-0.7960466 0,-0.438429 0.357617,-0.795924 0.7960463,-0.795924 z M 6.6667449,11.109229 c 0.04816,0 0.09665,0.01631 0.137169,0.04888 0.477981,0.349614 1.0606448,0.52739 1.6530438,0.499669 0.592576,0.03161 1.177239,-0.138233 1.6610473,-0.483784 0.08687,-0.08493 0.229002,-0.08293 0.31411,0.0039 0.08493,0.08687 0.08293,0.228931 -0.0039,0.313862 v -0.03152 c -0.5648553,0.424656 -1.2561653,0.641821 -1.9633363,0.612334 -0.707172,0.02966 -1.3981828,-0.187678 -1.9632128,-0.612334 -0.07504,-0.09093 -0.06138,-0.227122 0.02955,-0.302166 0.03946,-0.03258 0.08741,-0.04888 0.135568,-0.04888 z" />
</svg>
