<?xml version="1.0" encoding="UTF-8" standalone="no"?>
<svg
   width="64"
   height="64"
   version="1.1"
   id="svg20"
   sodipodi:docname="shotwell.svg"
   inkscape:version="1.1.1 (3bf5ae0d25, 2021-09-20, custom)"
   xmlns:inkscape="http://www.inkscape.org/namespaces/inkscape"
   xmlns:sodipodi="http://sodipodi.sourceforge.net/DTD/sodipodi-0.dtd"
   xmlns:xlink="http://www.w3.org/1999/xlink"
   xmlns="http://www.w3.org/2000/svg"
   xmlns:svg="http://www.w3.org/2000/svg">
  <defs
     id="defs24">
    <linearGradient
       inkscape:collect="always"
       id="linearGradient1748">
      <stop
         style="stop-color:#3999c2;stop-opacity:1"
         offset="0"
         id="stop1744" />
      <stop
         style="stop-color:#cbe5f4;stop-opacity:1"
         offset="1"
         id="stop1746" />
    </linearGradient>
    <linearGradient
       inkscape:collect="always"
       xlink:href="#linearGradient1748"
       id="linearGradient1750"
       x1="39.81171"
       y1="10.685207"
       x2="27.022181"
       y2="57.969696"
       gradientUnits="userSpaceOnUse" />
  </defs>
  <sodipodi:namedview
     id="namedview22"
     pagecolor="#ffffff"
     bordercolor="#666666"
     borderopacity="1.0"
     inkscape:pageshadow="2"
     inkscape:pageopacity="0.0"
     inkscape:pagecheckerboard="0"
     showgrid="false"
     inkscape:zoom="6.4296875"
     inkscape:cx="53.657351"
     inkscape:cy="36.315917"
     inkscape:window-width="1920"
     inkscape:window-height="1019"
     inkscape:window-x="0"
     inkscape:window-y="0"
     inkscape:window-maximized="1"
     inkscape:current-layer="svg20" />
  <circle
     style="fill:#f5f5f5;fill-opacity:1"
     cx="32"
     cy="32"
     r="28"
     id="circle4" />
  <circle
     style="fill:url(#linearGradient1750);fill-opacity:1;stroke-width:0.857142"
     cx="32"
     cy="32"
     r="24"
     id="circle4-3" />
  <path
     id="circle4-3-5"
     style="fill:#333333;fill-opacity:1;stroke-width:0.857142"
     d="M 34.244141 21.480469 L 33.025391 24.941406 L 29.103516 23.427734 L 31.890625 26.558594 L 31.15625 32.119141 L 22.578125 28.082031 L 24.458984 30.039062 L 20 31.853516 L 25.894531 31.533203 L 29.605469 35.394531 L 29.605469 46 L 12.539062 46 A 24 24 0 0 0 31.960938 56 A 24 24 0 0 0 51.382812 46 L 34.160156 46 L 34.160156 39.689453 L 34.160156 36.21875 L 37.441406 34.541016 L 43.796875 35.599609 L 39.667969 33.402344 L 44 31.189453 L 39.904297 31.826172 L 38.033203 28.789062 L 37.878906 31.949219 L 34.101562 33.560547 L 34.232422 28.814453 L 40.154297 27.138672 L 34.294922 26.775391 L 34.244141 21.480469 z " />
  <circle
     style="fill:#f4f2d0;fill-opacity:1;stroke-width:1.67011"
     id="path2600"
     cx="22"
     cy="22"
     r="4" />
</svg>
