<?xml version="1.0" encoding="UTF-8" standalone="no"?>
<!-- Created with Inkscape (http://www.inkscape.org/) -->

<svg
   width="64"
   height="64"
   viewBox="0 0 16.933333 16.933334"
   version="1.1"
   id="svg5"
   inkscape:version="1.1.1 (3bf5ae0d25, 2021-09-20, custom)"
   sodipodi:docname="sound-recorder.svg"
   xmlns:inkscape="http://www.inkscape.org/namespaces/inkscape"
   xmlns:sodipodi="http://sodipodi.sourceforge.net/DTD/sodipodi-0.dtd"
   xmlns="http://www.w3.org/2000/svg"
   xmlns:svg="http://www.w3.org/2000/svg">
  <sodipodi:namedview
     id="namedview7"
     pagecolor="#ffffff"
     bordercolor="#666666"
     borderopacity="1.0"
     inkscape:pageshadow="2"
     inkscape:pageopacity="0.0"
     inkscape:pagecheckerboard="0"
     inkscape:document-units="px"
     showgrid="false"
     units="px"
     height="64px"
     inkscape:zoom="1"
     inkscape:cx="32"
     inkscape:cy="31.5"
     inkscape:window-width="1920"
     inkscape:window-height="1019"
     inkscape:window-x="0"
     inkscape:window-y="0"
     inkscape:window-maximized="1"
     inkscape:current-layer="svg5" />
  <defs
     id="defs2" />
  <circle
     style="fill:#ee4335;stroke-width:0.529167;stroke-linecap:round;stroke-linejoin:round;fill-opacity:1"
     id="path1039"
     cx="8.4666662"
     cy="8.4666662"
     r="7.4083333" />
  <path
     id="rect40827"
     style="fill:#ffffff;fill-opacity:1;stroke-width:0.364982;stroke-linecap:round;stroke-linejoin:round"
     d="m 7.4083335,4.2333334 c -0.146579,0 -0.264583,0.1180042 -0.264583,0.2645833 v 7.9375003 c 0,0.146579 0.118004,0.264583 0.264583,0.264583 0.146579,0 0.264583,-0.118004 0.264583,-0.264583 V 4.4979167 c 0,-0.1465791 -0.118004,-0.2645833 -0.264583,-0.2645833 z m -1.322917,1.8520833 c -0.146579,0 -0.264583,0.1180042 -0.264583,0.2645833 v 4.233333 c 0,0.146579 0.118004,0.264584 0.264583,0.264584 0.146579,0 0.264584,-0.118005 0.264584,-0.264584 V 6.35 c 0,-0.1465791 -0.118005,-0.2645833 -0.264584,-0.2645833 z m 2.645833,0 c -0.146579,0 -0.264583,0.1180042 -0.264583,0.2645833 v 4.233333 c 0,0.146579 0.118004,0.264584 0.264583,0.264584 0.14658,0 0.264584,-0.118005 0.264584,-0.264584 V 6.35 c 0,-0.1465791 -0.118004,-0.2645833 -0.264584,-0.2645833 z m 2.6458335,0 c -0.146579,0 -0.264584,0.1180042 -0.264584,0.2645833 v 4.233333 c 0,0.146579 0.118005,0.264584 0.264584,0.264584 0.146579,0 0.264583,-0.118005 0.264583,-0.264584 V 6.35 c 0,-0.1465791 -0.118004,-0.2645833 -0.264583,-0.2645833 z M 4.7625,7.4083334 c -0.1465791,0 -0.2645833,0.1180041 -0.2645833,0.2645833 v 1.5875 C 4.4979167,9.406996 4.6159209,9.525 4.7625,9.525 c 0.1465792,0 0.2645834,-0.118004 0.2645834,-0.2645833 v -1.5875 c 0,-0.1465792 -0.1180042,-0.2645833 -0.2645834,-0.2645833 z m 5.291666,0 c -0.1465785,0 -0.2645825,0.1180041 -0.2645825,0.2645833 v 1.5875 c 0,0.1465793 0.118004,0.2645833 0.2645825,0.2645833 0.146579,0 0.264583,-0.118004 0.264583,-0.2645833 v -1.5875 c 0,-0.1465792 -0.118004,-0.2645833 -0.264583,-0.2645833 z m 2.645833,0 c -0.146578,0 -0.264583,0.1180041 -0.264583,0.2645833 v 1.5875 c 0,0.1465793 0.118005,0.2645833 0.264583,0.2645833 0.146579,0 0.264584,-0.118004 0.264584,-0.2645833 v -1.5875 c 0,-0.1465792 -0.118005,-0.2645833 -0.264584,-0.2645833 z M 2.3812501,8.2020833 A 0.26458332,0.26458332 0 0 0 2.1166667,8.4666667 0.26458332,0.26458332 0 0 0 2.3812501,8.73125 0.26458332,0.26458332 0 0 0 2.6458334,8.4666667 0.26458332,0.26458332 0 0 0 2.3812501,8.2020833 Z m 1.0583333,0 A 0.26458332,0.26458332 0 0 0 3.1750001,8.4666667 0.26458332,0.26458332 0 0 0 3.4395834,8.73125 0.26458332,0.26458332 0 0 0 3.7041667,8.4666667 0.26458332,0.26458332 0 0 0 3.4395834,8.2020833 Z m 10.3187496,0 A 0.26458311,0.26458332 0 0 0 13.493749,8.4666667 0.26458311,0.26458332 0 0 0 13.758333,8.73125 0.26458311,0.26458332 0 0 0 14.022916,8.4666667 0.26458311,0.26458332 0 0 0 13.758333,8.2020833 Z m 1.058333,0 A 0.26458332,0.26458332 0 0 0 14.552083,8.4666667 0.26458332,0.26458332 0 0 0 14.816666,8.73125 0.26458332,0.26458332 0 0 0 15.081249,8.4666667 0.26458332,0.26458332 0 0 0 14.816666,8.2020833 Z" />
</svg>
