<?xml version="1.0" encoding="UTF-8" standalone="no"?>
<!-- Created with Inkscape (http://www.inkscape.org/) -->

<svg
   width="64"
   height="64"
   viewBox="0 0 16.933333 16.933333"
   version="1.1"
   id="svg5"
   inkscape:version="1.1.1 (3bf5ae0d25, 2021-09-20, custom)"
   sodipodi:docname="syncthing.svg"
   xmlns:inkscape="http://www.inkscape.org/namespaces/inkscape"
   xmlns:sodipodi="http://sodipodi.sourceforge.net/DTD/sodipodi-0.dtd"
   xmlns:xlink="http://www.w3.org/1999/xlink"
   xmlns="http://www.w3.org/2000/svg"
   xmlns:svg="http://www.w3.org/2000/svg">
  <sodipodi:namedview
     id="namedview7"
     pagecolor="#ffffff"
     bordercolor="#666666"
     borderopacity="1.0"
     inkscape:pageshadow="2"
     inkscape:pageopacity="0.0"
     inkscape:pagecheckerboard="0"
     inkscape:document-units="px"
     showgrid="false"
     units="px"
     height="48px"
     inkscape:zoom="11.313708"
     inkscape:cx="20.859651"
     inkscape:cy="32.482719"
     inkscape:window-width="1920"
     inkscape:window-height="1019"
     inkscape:window-x="0"
     inkscape:window-y="0"
     inkscape:window-maximized="1"
     inkscape:current-layer="svg5"
     inkscape:lockguides="true" />
  <defs
     id="defs2">
    <linearGradient
       inkscape:collect="always"
       id="linearGradient3290">
      <stop
         style="stop-color:#088ec8;stop-opacity:1;"
         offset="0"
         id="stop3286" />
      <stop
         style="stop-color:#26b6db;stop-opacity:1"
         offset="1"
         id="stop3288" />
    </linearGradient>
    <linearGradient
       inkscape:collect="always"
       xlink:href="#linearGradient3290"
       id="linearGradient3292"
       x1="9.5249996"
       y1="16.933334"
       x2="9.5250006"
       y2="6.3308715e-07"
       gradientUnits="userSpaceOnUse"
       gradientTransform="scale(3.7795276)" />
  </defs>
  <path
     id="rect863"
     style="fill:url(#linearGradient3292);fill-opacity:1;stroke-width:0.999999"
     d="M 32 4 A 28 28 0 0 0 4 32 A 28 28 0 0 0 32 60 A 28 28 0 0 0 60 32 A 28 28 0 0 0 32 4 z "
     transform="scale(0.26458333)" />
  <path
     id="path1145"
     style="fill:#ffffff;fill-opacity:1;stroke-width:2.91041;stroke-linecap:round;stroke-linejoin:round"
     d="m 8.4667293,2.6458332 a 5.8208369,5.8208369 0 0 0 -5.8208369,5.8208369 5.8208369,5.8208369 0 0 0 0.1856908,1.410997 0.97013946,0.97013946 0 0 0 -0.5090707,0.8526629 0.97013946,0.97013946 0 0 0 0.9701396,0.970138 0.97013946,0.97013946 0 0 0 0.3050632,-0.04927 5.8208369,5.8208369 0 0 0 4.869014,2.636303 5.8208369,5.8208369 0 0 0 2.3514517,-0.50149 0.97013946,0.97013946 0 0 0 0.558967,0.178111 0.97013946,0.97013946 0 0 0 0.97014,-0.970139 0.97013946,0.97013946 0 0 0 -0.01706,-0.180009 A 5.8208369,5.8208369 0 0 0 14.287566,8.4666691 5.8208369,5.8208369 0 0 0 14.118297,7.0739894 0.97013946,0.97013946 0 0 0 14.287566,6.5263912 0.97013946,0.97013946 0 0 0 13.517645,5.5770946 5.8208369,5.8208369 0 0 0 8.4667293,2.6458332 Z m 0,0.6467597 a 5.174077,5.174077 0 0 1 4.3631007,2.3950319 0.97013946,0.97013946 0 0 0 -0.482542,0.8387664 0.97013946,0.97013946 0 0 0 0.0701,0.3612761 L 9.9629926,8.9466871 A 0.97013946,0.97013946 0 0 0 8.951799,8.9201599 0.97013946,0.97013946 0 0 0 8.4964148,9.5246021 L 4.0846801,10.170099 A 0.97013946,0.97013946 0 0 0 3.4770794,9.7778741 5.174077,5.174077 0 0 1 3.2926521,8.4666701 5.174077,5.174077 0 0 1 8.4667293,3.2925929 Z m 4.3776287,4.0801442 a 0.97013946,0.97013946 0 0 0 0.473068,0.1237937 0.97013946,0.97013946 0 0 0 0.22485,-0.02716 5.174077,5.174077 0 0 1 0.09853,0.9972983 5.174077,5.174077 0 0 1 -1.644056,3.7813959 0.97013946,0.97013946 0 0 0 -0.619601,-0.224219 0.97013946,0.97013946 0 0 0 -0.250115,0.0398 L 10.166369,10.39937 A 0.97013946,0.97013946 0 0 0 10.359007,9.4589156 Z M 8.5583115,10.168835 a 0.97013946,0.97013946 0 0 0 0.038529,0.07643 0.97013946,0.97013946 0 0 0 1.0055091,0.470543 l 0.9878234,1.711639 a 0.97013946,0.97013946 0 0 0 -0.183164,0.566545 0.97013946,0.97013946 0 0 0 0.03411,0.253272 5.174077,5.174077 0 0 1 -1.9743851,0.393487 5.174077,5.174077 0 0 1 -4.3498376,-2.400715 0.97013946,0.97013946 0 0 0 0.1433736,-0.44212 z" />
</svg>
