<?xml version="1.0" encoding="UTF-8" standalone="no"?>
<svg
   width="64"
   height="64"
   version="1.1"
   id="svg18"
   sodipodi:docname="system-file-manager.svg"
   inkscape:version="1.1.1 (3bf5ae0d25, 2021-09-20, custom)"
   xmlns:inkscape="http://www.inkscape.org/namespaces/inkscape"
   xmlns:sodipodi="http://sodipodi.sourceforge.net/DTD/sodipodi-0.dtd"
   xmlns:xlink="http://www.w3.org/1999/xlink"
   xmlns="http://www.w3.org/2000/svg"
   xmlns:svg="http://www.w3.org/2000/svg">
  <defs
     id="defs22">
    <linearGradient
       inkscape:collect="always"
       id="linearGradient5715">
      <stop
         style="stop-color:#333333;stop-opacity:1;"
         offset="0"
         id="stop5711" />
      <stop
         style="stop-color:#333333;stop-opacity:0;"
         offset="1"
         id="stop5713" />
    </linearGradient>
    <linearGradient
       inkscape:collect="always"
       xlink:href="#linearGradient5715"
       id="linearGradient5717"
       x1="10.022864"
       y1="2.2139025"
       x2="59.902344"
       y2="40.854492"
       gradientUnits="userSpaceOnUse" />
  </defs>
  <sodipodi:namedview
     id="namedview20"
     pagecolor="#ffffff"
     bordercolor="#666666"
     borderopacity="1.0"
     inkscape:pageshadow="2"
     inkscape:pageopacity="0.0"
     inkscape:pagecheckerboard="0"
     showgrid="false"
     inkscape:zoom="8.6620581"
     inkscape:cx="26.783473"
     inkscape:cy="21.415234"
     inkscape:window-width="1920"
     inkscape:window-height="1019"
     inkscape:window-x="0"
     inkscape:window-y="0"
     inkscape:window-maximized="1"
     inkscape:current-layer="svg18" />
  <circle
     style="fill:#34be5b;fill-opacity:1"
     cx="32"
     cy="32"
     r="28"
     id="circle4" />
  <path
     id="rect1317"
     style="fill:#ffffff;fill-opacity:1;stroke-width:0.987136"
     d="m 19,17 c -2.216,0 -4,1.784 -4,4 0.0016,0.83463 9.45e-4,1.674011 0.002,2.509766 -8.4e-5,0.0086 -0.002,0.0168 -0.002,0.02539 0,6.976563 0,13.953125 0,20.929688 C 15,45.869315 16.130685,47 17.535156,47 H 46.464844 C 47.869315,47 49,45.869315 49,44.464844 V 23.535156 C 49,22.130685 47.869315,21 46.464844,21 H 31.857422 l -4,-4 z"
     sodipodi:nodetypes="sccccsssssccs" />
  <path
     id="path4418"
     style="fill:url(#linearGradient5717);fill-opacity:1;stroke-width:0.987136;opacity:0.5"
     d="M 48.224609 21.708984 C 48.702645 22.169545 49 22.81586 49 23.535156 L 49 37.083984 L 49 38.142578 L 49 44.464844 C 49 45.869315 47.869315 47 46.464844 47 L 17.535156 47 C 16.932217 47 16.379538 46.790376 15.945312 46.441406 L 15.904297 46.441406 L 29.267578 59.804688 A 28 28 0 0 0 32 60 A 28 28 0 0 0 59.902344 33.378906 L 48.232422 21.708984 L 48.224609 21.708984 z " />
</svg>
