<?xml version="1.0" encoding="UTF-8" standalone="no"?>
<!-- Created with Inkscape (http://www.inkscape.org/) -->

<svg
   width="64"
   height="64"
   viewBox="0 0 16.933333 16.933334"
   version="1.1"
   id="svg828"
   sodipodi:docname="system-settings.svg"
   inkscape:version="1.1.1 (3bf5ae0d25, 2021-09-20, custom)"
   xmlns:inkscape="http://www.inkscape.org/namespaces/inkscape"
   xmlns:sodipodi="http://sodipodi.sourceforge.net/DTD/sodipodi-0.dtd"
   xmlns:xlink="http://www.w3.org/1999/xlink"
   xmlns="http://www.w3.org/2000/svg"
   xmlns:svg="http://www.w3.org/2000/svg">
  <sodipodi:namedview
     id="namedview830"
     pagecolor="#ffffff"
     bordercolor="#666666"
     borderopacity="1.0"
     inkscape:pageshadow="2"
     inkscape:pageopacity="0.0"
     inkscape:pagecheckerboard="0"
     inkscape:document-units="px"
     showgrid="false"
     units="px"
     height="64px"
     inkscape:zoom="11.313708"
     inkscape:cx="28.461048"
     inkscape:cy="43.442873"
     inkscape:window-width="1920"
     inkscape:window-height="1019"
     inkscape:window-x="0"
     inkscape:window-y="0"
     inkscape:window-maximized="1"
     inkscape:current-layer="svg828" />
  <defs
     id="defs825">
    <linearGradient
       inkscape:collect="always"
       id="linearGradient4601">
      <stop
         style="stop-color:#4d4d4d;stop-opacity:1;"
         offset="0"
         id="stop4597" />
      <stop
         style="stop-color:#4d4d4d;stop-opacity:0;"
         offset="1"
         id="stop4599" />
    </linearGradient>
    <linearGradient
       inkscape:collect="always"
       xlink:href="#linearGradient4601"
       id="linearGradient4603"
       x1="17.447266"
       y1="21.644531"
       x2="52"
       y2="57.644531"
       gradientUnits="userSpaceOnUse"
       gradientTransform="scale(0.26458334)" />
  </defs>
  <circle
     style="fill:#34be5b;fill-opacity:1;stroke-width:0.576115;stroke-linecap:round;stroke-linejoin:round;stroke-dasharray:6.91338, 0.576115"
     id="path911"
     cx="8.4666662"
     cy="8.4666672"
     r="7.4083333" />
  <path
     id="path3807"
     style="opacity:0.2;fill:url(#linearGradient4603);fill-opacity:1;stroke-width:0.651282;stroke-linecap:round;stroke-linejoin:round;stroke-dasharray:7.81537, 0.651282"
     d="m 9.4449019,2.9868977 c 0.00412,0.00406 0.00854,0.00756 0.012401,0.011885 l -0.010335,-0.01085 c -5.557e-4,-5.557e-4 -0.00151,-4.763e-4 -0.00206,-0.00103 z m 0.012401,0.011885 c 0.029308,0.03286 0.050878,0.073549 0.060978,0.1188559 l 0.3374485,1.3503058 c 0.5059886,0.1757939 0.9740176,0.4460198 1.3792446,0.7963337 l 0.379821,-0.1085205 z m 3.2576821,1.8784385 c 0.0011,2.577e-4 0.0021,7.673e-4 0.0031,0.00103 -0.0011,-2.91e-4 -0.002,-7.673e-4 -0.0031,-0.00103 z m 0.120406,0.067179 c 0.01731,0.016732 0.03344,0.035187 0.04599,0.056844 l 0.794267,1.3751097 c 0.06172,0.107306 0.04053,0.2428611 -0.05064,0.3265951 l -1.000972,0.9678998 c 0.05037,0.2622828 0.0758,0.5287426 0.07597,0.7958175 -9.52e-4,0.2666222 -0.02707,0.5325591 -0.07803,0.7942667 l 1.00304,0.969966 c 0.09117,0.08374 0.112352,0.219288 0.05064,0.326595 L 13.492717,10.873755 9.7761478,7.157186 7.157186,9.7761478 9.8541792,12.473141 9.5182822,13.816211 C 9.4913474,13.937034 9.3842009,14.02322 9.2604169,14.023434 H 7.6724001 C 7.5486164,14.02322 7.4414697,13.937029 7.4145348,13.816211 L 7.0760542,12.462289 C 6.5719078,12.286742 6.105513,12.017426 5.7014609,11.668539 l -1.3420371,0.383956 c -0.099014,0.0311 -0.2041274,2.57e-4 -0.2723346,-0.07338 0.0023,0.0025 0.0038,0.0059 0.0062,0.0083 L 7.962303,15.85643 c 0.1678607,0.01193 0.3360788,0.01813 0.504362,0.0186 4.09151,0 7.408333,-3.316823 7.408333,-7.4083331 -1.73e-4,-0.1675823 -0.006,-0.3351102 -0.01757,-0.5022951 L 12.839526,4.9464681 c -0.0011,-0.00111 -0.003,-9.79e-4 -0.0041,-0.00206 z m 0.588595,6.0487268 -0.542603,0.939478 c -0.06208,0.1071 -0.189894,0.156979 -0.307991,0.119889 l -0.162264,-0.04651 z" />
  <path
     id="path1087"
     style="fill:#ffffff;fill-opacity:1;stroke-width:2.46154;stroke-linecap:round;stroke-linejoin:round;stroke-dasharray:29.5384, 2.46154"
     d="M 28.998047 11 C 28.530204 11.000808 28.125239 11.32657 28.023438 11.783203 L 26.744141 16.898438 C 24.838557 17.562509 23.075795 18.581067 21.548828 19.900391 L 16.476562 18.449219 C 16.030207 18.309065 15.547121 18.497589 15.3125 18.902344 L 12.3125 24.099609 C 12.07928 24.505176 12.157396 25.017509 12.501953 25.333984 L 16.294922 29 C 16.102423 29.98849 16.003677 30.992947 16 32 C 16.003676 33.007053 16.102423 34.01151 16.294922 35 L 12.501953 38.667969 C 12.157374 38.984466 12.079264 39.496774 12.3125 39.902344 L 15.3125 45.099609 C 15.547126 45.504385 16.030213 45.692917 16.476562 45.552734 L 21.548828 44.101562 C 23.075955 45.420192 24.838706 46.438078 26.744141 47.101562 L 28.023438 52.21875 C 28.125239 52.675385 28.530203 53.001144 28.998047 53.001953 L 35 53.001953 C 35.467844 53.001144 35.87281 52.675404 35.974609 52.21875 L 37.253906 47.101562 C 39.159339 46.438078 40.922093 45.420192 42.449219 44.101562 L 47.521484 45.552734 C 47.967835 45.692917 48.450925 45.504397 48.685547 45.099609 L 51.6875 39.902344 C 51.920735 39.496774 51.840673 38.984459 51.496094 38.667969 L 47.705078 35.001953 C 47.897683 34.012822 47.996447 33.007706 48 32 C 47.999384 30.990583 47.903265 29.98349 47.712891 28.992188 L 51.496094 25.333984 C 51.840673 25.017509 51.920757 24.505175 51.6875 24.099609 L 48.685547 18.902344 C 48.450929 18.497587 47.967847 18.309066 47.521484 18.449219 L 42.462891 19.896484 C 40.931328 18.572463 39.1624 17.551137 37.25 16.886719 L 35.974609 11.783203 C 35.872809 11.32657 35.467842 11.000808 35 11 L 28.998047 11 z M 32 22 A 9.9999998 9.9999998 0 0 1 42 32 A 9.9999998 9.9999998 0 0 1 32 42 A 9.9999998 9.9999998 0 0 1 22 32 A 9.9999998 9.9999998 0 0 1 32 22 z M 32 25 C 28.134006 25 25 28.134006 25 32 C 25.000001 35.865992 28.134007 39 32 39 C 35.865992 39 39 35.865992 39 32 C 39 28.134007 35.865992 25.000001 32 25 z "
     transform="scale(0.26458334)" />
</svg>
