<?xml version="1.0" encoding="UTF-8" standalone="no"?>
<!-- Created with Inkscape (http://www.inkscape.org/) -->

<svg
   width="64"
   height="64"
   viewBox="0 0 16.933333 16.933333"
   version="1.1"
   id="svg5"
   inkscape:version="1.1.1 (3bf5ae0d25, 2021-09-20, custom)"
   sodipodi:docname="twitter.svg"
   xmlns:inkscape="http://www.inkscape.org/namespaces/inkscape"
   xmlns:sodipodi="http://sodipodi.sourceforge.net/DTD/sodipodi-0.dtd"
   xmlns="http://www.w3.org/2000/svg"
   xmlns:svg="http://www.w3.org/2000/svg">
  <sodipodi:namedview
     id="namedview7"
     pagecolor="#ffffff"
     bordercolor="#666666"
     borderopacity="1.0"
     inkscape:pageshadow="2"
     inkscape:pageopacity="0.0"
     inkscape:pagecheckerboard="0"
     inkscape:document-units="px"
     showgrid="false"
     units="px"
     height="48px"
     inkscape:zoom="7.9999996"
     inkscape:cx="-2.1250001"
     inkscape:cy="20.687501"
     inkscape:window-width="1920"
     inkscape:window-height="1019"
     inkscape:window-x="0"
     inkscape:window-y="0"
     inkscape:window-maximized="1"
     inkscape:current-layer="svg5"
     inkscape:lockguides="true" />
  <defs
     id="defs2" />
  <circle
     style="fill:#1da1f2;fill-opacity:1;stroke-width:6.72445;stroke-linecap:round;stroke-linejoin:round;stroke-dasharray:80.6932, 6.72445"
     id="path850"
     cx="8.4666662"
     cy="8.4666662"
     r="7.4083333" />
  <path
     d="M 9.7358117,4.3332211 C 8.8278191,4.6725305 8.2550645,5.541163 8.3188548,6.4966588 L 8.3419271,6.8644703 7.9781873,6.8196809 C 6.6575951,6.6473122 5.5025855,6.0623425 4.5213022,5.0783448 L 4.0421972,4.589739 3.9186885,4.9521217 C 3.6567415,5.7542494 3.8236817,6.6038806 4.3679343,7.1739206 4.6583832,7.4887999 4.5932359,7.5335888 4.0910577,7.3462899 3.9173312,7.2865715 3.7639632,7.2417825 3.7490337,7.2648557 3.6988157,7.3177887 3.8738991,8.0004787 4.0109805,8.2719264 4.1996367,8.6478813 4.5850925,9.015693 5.0058362,9.232851 l 0.3569537,0.1723693 -0.4207438,0.00815 c -0.4071716,0 -0.4207439,0.00815 -0.3800268,0.165583 0.1452244,0.4886057 0.7193364,1.0070707 1.3585955,1.2323737 l 0.4506031,0.157435 -0.3922418,0.240231 A 4.0174252,4.0174252 0 0 1 4.0340538,11.76546 c -0.3270945,0.0068 -0.5944705,0.03665 -0.5944705,0.05836 0,0.07465 0.8849194,0.494034 1.4006699,0.659618 1.5472515,0.488605 3.3849521,0.278234 4.7666205,-0.55511 C 10.5868,11.335214 11.568084,10.15713 12.025474,9.0156923 12.27249,8.4062922 12.519508,7.2960714 12.519508,6.7586051 c 0,-0.3447386 0.02171,-0.3908846 0.428887,-0.8034851 0.24023,-0.2402311 0.465532,-0.502178 0.508964,-0.5781835 0.07329,-0.1438672 0.06515,-0.1438672 -0.305378,-0.013572 -0.617545,0.2253019 -0.705764,0.1967999 -0.399029,-0.1425096 0.225302,-0.2402313 0.494035,-0.6745475 0.494035,-0.8021279 0,-0.021716 -0.108579,0.012211 -0.232087,0.081434 A 3.908846,3.908846 0 0 1 12.37564,4.7539649 L 11.982041,4.8815453 11.626445,4.634528 C 11.431003,4.4988042 11.154126,4.3495079 11.008902,4.3033618 a 2.4362427,2.4362427 0 0 0 -1.2703763,0.02986"
     fill="#ffffff"
     id="path6"
     style="stroke-width:1.35723" />
</svg>
