<?xml version="1.0" encoding="UTF-8" standalone="no"?>
<!-- Created with Inkscape (http://www.inkscape.org/) -->

<svg
   width="64"
   height="64"
   viewBox="0 0 16.933333 16.933333"
   version="1.1"
   id="svg5"
   inkscape:version="1.1.1 (3bf5ae0d25, 2021-09-20, custom)"
   sodipodi:docname="virtualbox.svg"
   xmlns:inkscape="http://www.inkscape.org/namespaces/inkscape"
   xmlns:sodipodi="http://sodipodi.sourceforge.net/DTD/sodipodi-0.dtd"
   xmlns:xlink="http://www.w3.org/1999/xlink"
   xmlns="http://www.w3.org/2000/svg"
   xmlns:svg="http://www.w3.org/2000/svg">
  <sodipodi:namedview
     id="namedview7"
     pagecolor="#ffffff"
     bordercolor="#666666"
     borderopacity="1.0"
     inkscape:pageshadow="2"
     inkscape:pageopacity="0.0"
     inkscape:pagecheckerboard="0"
     inkscape:document-units="px"
     showgrid="false"
     units="px"
     height="48px"
     inkscape:zoom="11.313708"
     inkscape:cx="28.90299"
     inkscape:cy="30.184621"
     inkscape:window-width="1920"
     inkscape:window-height="1012"
     inkscape:window-x="0"
     inkscape:window-y="0"
     inkscape:window-maximized="1"
     inkscape:current-layer="svg5"
     inkscape:lockguides="true"
     showguides="false" />
  <defs
     id="defs2">
    <linearGradient
       inkscape:collect="always"
       id="linearGradient6770">
      <stop
         style="stop-color:#37a6ff;stop-opacity:1;"
         offset="0"
         id="stop6766" />
      <stop
         style="stop-color:#6ad8ff;stop-opacity:1"
         offset="1"
         id="stop6768" />
    </linearGradient>
    <linearGradient
       inkscape:collect="always"
       xlink:href="#linearGradient6770"
       id="linearGradient942"
       x1="8.9958324"
       y1="16.933332"
       x2="8.9958334"
       y2="-2.7838135e-07"
       gradientUnits="userSpaceOnUse" />
  </defs>
  <circle
     style="fill:url(#linearGradient942);stroke-width:0.529167;stroke-linecap:round;stroke-linejoin:round;fill-opacity:1"
     id="path854"
     cx="8.4666662"
     cy="8.4666662"
     r="7.4083333" />
  <path
     id="path1224"
     style="fill:#ffffff;stroke-width:1.83334;stroke-linecap:round;stroke-linejoin:round"
     d="M 32 10 A 22 22 0 0 0 10 32 A 22 22 0 0 0 32 54 A 22 22 0 0 0 54 32 A 22 22 0 0 0 32 10 z M 32 12 A 20 20 0 0 1 52 32 A 20 20 0 0 1 51.4375 36.445312 L 44.888672 36.445312 L 38.777344 16.445312 L 34.333984 32 L 29.888672 16.445312 L 22.111328 39.777344 L 18.777344 30.888672 L 12.087891 30.888672 A 20 20 0 0 1 32 12 z M 29.888672 24.222656 L 34.333984 39.777344 L 38.777344 24.222656 L 43.222656 38.666016 L 50.820312 38.666016 A 20 20 0 0 1 32 52 A 20 20 0 0 1 12.087891 33.111328 L 17.111328 33.111328 L 22.111328 46.445312 L 29.888672 24.222656 z "
     transform="scale(0.26458333)" />
</svg>
