<?xml version="1.0" encoding="UTF-8" standalone="no"?>
<svg
   width="16"
   height="16"
   version="1.1"
   id="svg4"
   sodipodi:docname="deja-dup-symbolic.svg"
   inkscape:version="1.1.1 (3bf5ae0d25, 2021-09-20)"
   xmlns:inkscape="http://www.inkscape.org/namespaces/inkscape"
   xmlns:sodipodi="http://sodipodi.sourceforge.net/DTD/sodipodi-0.dtd"
   xmlns="http://www.w3.org/2000/svg"
   xmlns:svg="http://www.w3.org/2000/svg">
  <defs
     id="defs8" />
  <sodipodi:namedview
     id="namedview6"
     pagecolor="#ffffff"
     bordercolor="#666666"
     borderopacity="1.0"
     inkscape:pageshadow="2"
     inkscape:pageopacity="0.0"
     inkscape:pagecheckerboard="0"
     showgrid="false"
     inkscape:zoom="12.890625"
     inkscape:cx="-10.046061"
     inkscape:cy="12.683636"
     inkscape:window-width="1853"
     inkscape:window-height="1012"
     inkscape:window-x="67"
     inkscape:window-y="32"
     inkscape:window-maximized="1"
     inkscape:current-layer="svg4" />
  <path
     id="path2"
     style="fill:#dfdfdf"
     d="M 3 1 C 3 1 1 1 1 3 L 1 13 C 1 13 1 15 3 15 L 13 15 C 13 15 15 15 15 13 L 15 3 C 15 1 13 1 13 1 L 3 1 z M 3 3 L 13 3 L 13 13 L 3 13 L 3 3 z M 8 4 C 5.790861 4.0000001 4 5.790861 4 8 C 4.0024927 9.5134217 4.8589105 10.896108 6.2128906 11.572266 L 7.1054688 9.7871094 C 6.4284939 9.4485879 6.0006503 8.7568958 6 8 C 6 6.8954305 6.8954305 6 8 6 C 9.1045695 6 10 6.8954305 10 8 C 10.000107 8.7576164 9.5721501 9.4502186 8.8945312 9.7890625 L 9.7890625 11.576172 C 11.143552 10.898811 11.999399 9.514418 12 8 C 12 5.790861 10.209139 4 8 4 z " />
</svg>
