<?xml version="1.0" encoding="UTF-8" standalone="no"?>
<!-- Created with Inkscape (http://www.inkscape.org/) -->

<svg
   width="16"
   height="16"
   viewBox="0 0 4.2333332 4.2333335"
   version="1.1"
   id="svg5"
   inkscape:version="1.1.1 (3bf5ae0d25, 2021-09-20, custom)"
   sodipodi:docname="gnome-tweak-tool.svg"
   xmlns:inkscape="http://www.inkscape.org/namespaces/inkscape"
   xmlns:sodipodi="http://sodipodi.sourceforge.net/DTD/sodipodi-0.dtd"
   xmlns="http://www.w3.org/2000/svg"
   xmlns:svg="http://www.w3.org/2000/svg">
  <sodipodi:namedview
     id="namedview7"
     pagecolor="#ffffff"
     bordercolor="#666666"
     borderopacity="1.0"
     inkscape:pageshadow="2"
     inkscape:pageopacity="0.0"
     inkscape:pagecheckerboard="0"
     inkscape:document-units="px"
     showgrid="false"
     units="px"
     height="16px"
     inkscape:zoom="45.254834"
     inkscape:cx="8.5294756"
     inkscape:cy="6.6843688"
     inkscape:window-width="1920"
     inkscape:window-height="996"
     inkscape:window-x="0"
     inkscape:window-y="0"
     inkscape:window-maximized="1"
     inkscape:current-layer="svg5" />
  <defs
     id="defs2" />
  <path
     id="rect846"
     style="fill:#dfdfdf;stroke-width:1.37482;stroke-linecap:round;stroke-linejoin:round;fill-opacity:1"
     d="m 1.0583333,0.26458333 c -0.43973747,0 -0.79374997,0.3540125 -0.79374997,0.79374997 0,0.4397375 0.3540125,0.79375 0.79374997,0.79375 H 3.175 c 0.4397375,0 0.79375,-0.3540125 0.79375,-0.79375 0,-0.43973747 -0.3540125,-0.79374997 -0.79375,-0.79374997 z M 3.175,0.79374999 A 0.26458336,0.26458336 0 0 1 3.4395833,1.0583333 0.26458336,0.26458336 0 0 1 3.175,1.3229166 0.26458336,0.26458336 0 0 1 2.9104166,1.0583333 0.26458336,0.26458336 0 0 1 3.175,0.79374999 Z M 1.0583333,2.38125 c -0.43973747,0 -0.79374997,0.3540125 -0.79374997,0.79375 0,0.4397375 0.3540125,0.79375 0.79374997,0.79375 H 3.175 c 0.4397375,0 0.79375,-0.3540125 0.79375,-0.79375 0,-0.4397375 -0.3540125,-0.79375 -0.79375,-0.79375 z m 0,0.5291666 A 0.26458336,0.26458336 0 0 1 1.3229166,3.175 0.26458336,0.26458336 0 0 1 1.0583333,3.4395833 0.26458336,0.26458336 0 0 1 0.79374999,3.175 0.26458336,0.26458336 0 0 1 1.0583333,2.9104166 Z" />
</svg>
