<?xml version="1.0" encoding="UTF-8" standalone="no"?>
<svg
   width="16"
   height="16"
   version="1"
   id="svg4"
   sodipodi:docname="rhythmbox-symbolic.svg"
   inkscape:version="1.1.1 (3bf5ae0d25, 2021-09-20)"
   xmlns:inkscape="http://www.inkscape.org/namespaces/inkscape"
   xmlns:sodipodi="http://sodipodi.sourceforge.net/DTD/sodipodi-0.dtd"
   xmlns="http://www.w3.org/2000/svg"
   xmlns:svg="http://www.w3.org/2000/svg">
  <defs
     id="defs8" />
  <sodipodi:namedview
     id="namedview6"
     pagecolor="#ffffff"
     bordercolor="#666666"
     borderopacity="1.0"
     inkscape:pageshadow="2"
     inkscape:pageopacity="0.0"
     inkscape:pagecheckerboard="0"
     showgrid="false"
     inkscape:zoom="36.460194"
     inkscape:cx="0.39769399"
     inkscape:cy="9.1195346"
     inkscape:window-width="1853"
     inkscape:window-height="1012"
     inkscape:window-x="67"
     inkscape:window-y="32"
     inkscape:window-maximized="1"
     inkscape:current-layer="svg4" />
  <path
     id="path2"
     style="fill:#dfdfdf;fill-opacity:1"
     d="M 3.5 1 C 2.669 1 2 1.669 2 2.5 L 2 13.5 C 2 14.331 2.669 15 3.5 15 L 11.5 15 C 12.331 15 13 14.331 13 13.5 L 13 2.5 C 13 1.669 12.331 1 11.5 1 L 3.5 1 z M 3.6269531 2 L 11.373047 2 C 11.72038 2 12 2.2796201 12 2.6269531 L 12 13.373047 C 12 13.72038 11.72038 14 11.373047 14 L 3.6269531 14 C 3.2796201 14 3 13.72038 3 13.373047 L 3 2.6269531 C 3 2.2796201 3.2796201 2 3.6269531 2 z M 5 3 C 4.4477153 3 4 3.4477153 4 4 C 4 4.5522847 4.4477153 5 5 5 C 5.5522847 5 6 4.5522847 6 4 C 6 3.4477153 5.5522847 3 5 3 z M 10 3 C 9.4477153 3 9 3.4477153 9 4 C 9 4.5522847 9.4477153 5 10 5 C 10.552285 5 11 4.5522847 11 4 C 11 3.4477153 10.552285 3 10 3 z M 7.5 6 C 5.5670034 6 4 7.5670034 4 9.5 C 4 11.432997 5.5670034 13 7.5 13 C 9.4329966 13 11 11.432997 11 9.5 C 11 7.5670034 9.4329966 6 7.5 6 z M 7.5 8 C 8.3284271 8 9 8.6715729 9 9.5 C 9 10.328427 8.3284271 11 7.5 11 C 6.6715729 11 6 10.328427 6 9.5 C 6 8.6715729 6.6715729 8 7.5 8 z " />
</svg>
