<?xml version="1.0" encoding="UTF-8" standalone="no"?>
<svg
   width="16"
   height="16"
   version="1.1"
   id="svg4"
   sodipodi:docname="eye-not-looking-symbolic.svg"
   inkscape:version="1.1.1 (3bf5ae0d25, 2021-09-20)"
   xmlns:inkscape="http://www.inkscape.org/namespaces/inkscape"
   xmlns:sodipodi="http://sodipodi.sourceforge.net/DTD/sodipodi-0.dtd"
   xmlns="http://www.w3.org/2000/svg"
   xmlns:svg="http://www.w3.org/2000/svg">
  <defs
     id="defs8" />
  <sodipodi:namedview
     id="namedview6"
     pagecolor="#ffffff"
     bordercolor="#666666"
     borderopacity="1.0"
     inkscape:pageshadow="2"
     inkscape:pageopacity="0.0"
     inkscape:pagecheckerboard="0"
     showgrid="false"
     inkscape:zoom="6.4453125"
     inkscape:cx="18.075151"
     inkscape:cy="26.453333"
     inkscape:window-width="1853"
     inkscape:window-height="1012"
     inkscape:window-x="67"
     inkscape:window-y="32"
     inkscape:window-maximized="1"
     inkscape:current-layer="svg4" />
  <path
     id="path2"
     d="M 8 2 C 4.4 2 1.2 4.4 0 8 C 1.2 11.6 4.4 14 8 14 C 8.6847569 14 9.3551979 13.911499 10 13.746094 L 10 12.152344 C 9.3976505 12.376429 8.7309359 12.508959 8 12.5 C 3.4006935 12.443629 1.75 8 1.75 8 C 1.75 8 3.5130127 3.5086177 8 3.5 C 12.618675 3.4911293 14.25 8 14.25 8 L 16 8 C 14.8 4.4 11.6 2 8 2 z M 8 5 A 3 3 0 0 0 5 8 A 3 3 0 0 0 8 11 A 3 3 0 0 0 11 8 A 3 3 0 0 0 8 5 z M 8 6.5 A 1.5 1.5 0 0 1 9.5 8 A 1.5 1.5 0 0 1 8 9.5 A 1.5 1.5 0 0 1 6.5 8 A 1.5 1.5 0 0 1 8 6.5 z M 13.25 9 A 1.5 1.5 0 0 0 11.75 10.5 L 11.75 11.25 L 11 11.25 L 11 15 L 15.5 15 L 15.5 11.25 L 14.75 11.25 L 14.75 10.5 A 1.5 1.5 0 0 0 13.25 9 z M 13.25 9.75 A 0.75 0.75 0 0 1 14 10.5 L 14 11.25 L 12.5 11.25 L 12.5 10.5 A 0.75 0.75 0 0 1 13.25 9.75 z "
     style="fill:#444444;fill-opacity:1" />
</svg>
