<?xml version="1.0" encoding="UTF-8" standalone="no"?>
<svg
   width="16"
   height="16"
   version="1.1"
   id="svg6"
   sodipodi:docname="cs-cat-prefs.svg"
   inkscape:version="1.1.1 (3bf5ae0d25, 2021-09-20, custom)"
   xmlns:inkscape="http://www.inkscape.org/namespaces/inkscape"
   xmlns:sodipodi="http://sodipodi.sourceforge.net/DTD/sodipodi-0.dtd"
   xmlns="http://www.w3.org/2000/svg"
   xmlns:svg="http://www.w3.org/2000/svg">
  <defs
     id="defs10" />
  <sodipodi:namedview
     id="namedview8"
     pagecolor="#ffffff"
     bordercolor="#666666"
     borderopacity="1.0"
     inkscape:pageshadow="2"
     inkscape:pageopacity="0.0"
     inkscape:pagecheckerboard="0"
     showgrid="false"
     inkscape:zoom="32"
     inkscape:cx="13.59375"
     inkscape:cy="12.484375"
     inkscape:window-width="1920"
     inkscape:window-height="1012"
     inkscape:window-x="0"
     inkscape:window-y="0"
     inkscape:window-maximized="1"
     inkscape:current-layer="svg6" />
  <path
     id="path2"
     style="fill:#819ca9;fill-opacity:1"
     d="M 6.25 0 C 5.73112 0.00015486 5.2985363 0.3971125 5.2539062 0.9140625 L 5.1367188 2.2539062 C 4.9016788 2.3719662 4.6760513 2.5027875 4.4570312 2.6484375 L 3.2363281 2.0742188 C 2.7652981 1.8524487 2.2029594 2.0291498 1.9433594 2.4804688 L 0.19335938 5.5097656 C -0.066070625 5.9596856 0.06207125 6.5332781 0.48828125 6.8300781 L 1.5371094 7.5625 C 1.5270924 7.70859 1.500124 7.85344 1.5 8 C 1.5001241 8.14591 1.5271804 8.2900969 1.5371094 8.4355469 L 0.4921875 9.15625 C 0.0623775 9.45211 -0.067730625 10.028719 0.19335938 10.480469 L 1.9433594 13.509766 C 2.2036594 13.961426 2.7672613 14.137372 3.2382812 13.914062 L 4.4492188 13.339844 C 4.6707988 13.486574 4.8988587 13.619751 5.1367188 13.738281 L 5.2539062 15.085938 C 5.2985453 15.602887 5.73113 15.99985 6.25 16 L 9.75 16 C 10.27095 15.99959 10.704334 15.599348 10.746094 15.080078 L 10.855469 13.736328 C 11.092649 13.617988 11.320036 13.486234 11.541016 13.339844 L 12.763672 13.914062 C 13.234212 14.136162 13.796441 13.960366 14.056641 13.509766 L 15.806641 10.480469 C 16.066901 10.029619 15.937786 9.4546031 15.509766 9.1582031 L 14.458984 8.4296875 C 14.469804 8.2907275 14.49813 8.1531619 14.5 8.0136719 C 14.500031 8.0091119 14.500031 8.004562 14.5 8 C 14.500145 7.85056 14.473031 7.7036475 14.462891 7.5546875 L 15.507812 6.8320312 C 15.936512 6.5363112 16.066511 5.9611356 15.806641 5.5097656 L 14.056641 2.4804688 C 13.797091 2.0291488 13.234732 1.8524488 12.763672 2.0742188 L 11.541016 2.6503906 C 11.320036 2.5040006 11.092659 2.3722462 10.855469 2.2539062 L 10.746094 0.91796875 C 10.703364 0.39946875 10.27025 0.00033 9.75 0 L 6.25 0 z M 7.1660156 2 L 8.828125 2 L 8.9023438 2.921875 C 8.9345077 3.309175 9.1881344 3.6427837 9.5527344 3.7773438 C 10.031834 3.9543837 10.478324 4.2125025 10.871094 4.5390625 C 11.169344 4.7872725 11.584207 4.8405613 11.935547 4.6757812 L 12.783203 4.2753906 L 13.613281 5.7109375 L 12.851562 6.2363281 C 12.530202 6.4577681 12.367014 6.8459187 12.433594 7.2304688 C 12.476954 7.4819287 12.4998 7.7370275 12.5 7.9921875 C 12.4963 8.2427675 12.471051 8.4937444 12.425781 8.7402344 C 12.355101 9.1265444 12.517074 9.5184275 12.839844 9.7421875 L 13.613281 10.277344 L 12.783203 11.714844 L 11.935547 11.314453 C 11.584247 11.149673 11.169394 11.202962 10.871094 11.451172 C 10.478364 11.777732 10.031874 12.035851 9.5527344 12.212891 C 9.1881344 12.347451 8.9345037 12.681049 8.9023438 13.068359 L 8.828125 14 L 7.1679688 14 L 7.0859375 13.064453 C 7.0526545 12.679093 6.80014 12.347461 6.4375 12.212891 C 5.9584 12.035851 5.5119106 11.777732 5.1191406 11.451172 C 4.8200806 11.202812 4.4041744 11.150256 4.0527344 11.316406 L 3.2148438 11.712891 L 2.3867188 10.279297 L 3.1484375 9.7519531 C 3.4690775 9.5308331 3.6321763 9.1436656 3.5664062 8.7597656 C 3.5230653 8.5084456 3.500217 8.25504 3.5 8 C 3.5002169 7.74497 3.5230663 7.4915644 3.5664062 7.2402344 C 3.6321983 6.8577744 3.4707957 6.47178 3.1523438 6.25 L 2.3847656 5.7148438 L 3.2167969 4.2753906 L 4.0644531 4.6757812 C 4.4166431 4.8408612 4.8326094 4.7867694 5.1308594 4.5371094 C 5.5211194 4.2113494 5.9632331 3.9552238 6.4394531 3.7773438 C 6.8013231 3.6421637 7.0529875 3.3106613 7.0859375 2.9257812 L 7.1660156 2 z M 8 5 A 3 3 0 0 0 5 8 A 3 3 0 0 0 8 11 A 3 3 0 0 0 11 8 A 3 3 0 0 0 8 5 z " />
</svg>
