<?xml version="1.0" encoding="UTF-8" standalone="no"?>
<svg
   width="16"
   height="16"
   version="1.1"
   id="svg28"
   sodipodi:docname="microsoft-edge-symbolic.svg"
   inkscape:version="1.1.1 (3bf5ae0d25, 2021-09-20)"
   xmlns:inkscape="http://www.inkscape.org/namespaces/inkscape"
   xmlns:sodipodi="http://sodipodi.sourceforge.net/DTD/sodipodi-0.dtd"
   xmlns="http://www.w3.org/2000/svg"
   xmlns:svg="http://www.w3.org/2000/svg">
  <defs
     id="defs32" />
  <sodipodi:namedview
     id="namedview30"
     pagecolor="#ffffff"
     bordercolor="#666666"
     borderopacity="1.0"
     inkscape:pageshadow="2"
     inkscape:pageopacity="0.0"
     inkscape:pagecheckerboard="0"
     showgrid="false"
     inkscape:zoom="32"
     inkscape:cx="2.921875"
     inkscape:cy="12.921875"
     inkscape:window-width="1853"
     inkscape:window-height="1012"
     inkscape:window-x="67"
     inkscape:window-y="32"
     inkscape:window-maximized="1"
     inkscape:current-layer="svg28" />
  <path
     style="fill:#dfdfdf;fill-opacity:1;stroke-width:0.285721"
     d="m 14.440162,11.906534 c -0.766633,0.754275 -1.955856,0.933316 -2.902318,0.937966 -2.957316,0 -5.5334054,-2.273951 -5.5334054,-4.8840578 0.0077,-0.712857 0.400553,-1.365754 1.0268114,-1.706536 -2.6748332,0.112478 -3.3622905,2.899424 -3.3622905,4.5322248 0,4.616584 4.2553595,5.084616 5.1721775,5.084616 0.494344,0 1.239923,-0.143722 1.687395,-0.284944 l 0.08187,-0.02749 c 1.72192,-0.595199 3.189868,-1.75882 4.16224,-3.299345 0.138876,-0.218773 -0.105946,-0.478285 -0.332479,-0.35243 z"
     id="path4" />
  <path
     id="path8"
     style="fill:#dfdfdf;stroke-width:0.285721;fill-opacity:1;opacity:0.6"
     d="M 8 0 C 3.6255593 -0.0004324 0.0615156 3.5133052 0 7.8867188 C 0.029998 5.6034221 2.3001684 3.484375 5 3.484375 C 5.2187354 3.484375 6.466323 3.505277 7.625 4.1132812 C 8.646186 4.6494241 9.1808834 5.5711433 9.5527344 6.2128906 C 10.093206 7.2325616 10.115763 8.1688336 9.5195312 8.9472656 C 9.4689112 9.0128756 9.3144531 9.1033193 9.3144531 9.3007812 C 9.3144531 9.4638733 9.420637 9.6220572 9.609375 9.7539062 C 10.508069 10.378782 12.202656 10.294922 12.207031 10.294922 C 12.872943 10.293322 13.525101 10.113425 14.097656 9.7734375 C 15.272937 9.0872885 15.997211 8.1849917 16 6.8242188 C 16.016249 5.4238715 15.499753 4.4924966 15.291016 4.0800781 C 13.966724 1.4899676 11.108556 0 8 0 z M 5.0410156 4.5527344 C 2.4056182 4.5527344 0.18146526 6.5709815 0.048828125 8.7910156 C 0.049025675 8.7929556 0.048629185 8.794935 0.048828125 8.796875 C 0.14084146 9.6941375 0.38183952 10.572723 0.76367188 11.394531 C 2.4859174 15.068686 6.6871487 16.871075 10.537109 15.587891 C 10.4154 15.62626 10.289222 15.657344 10.162109 15.685547 C 10.156436 15.686907 10.152192 15.6881 10.146484 15.689453 C 10.106722 15.698131 10.067541 15.707152 10.027344 15.714844 C 10.02095 15.716252 10.014235 15.717352 10.007812 15.71875 C 9.6155224 15.804133 9.1738678 15.871094 8.8417969 15.871094 C 7.9249789 15.871094 3.6699219 15.40174 3.6699219 10.785156 C 3.6699219 9.1523568 4.3564174 6.3663844 7.03125 6.2539062 C 7.226238 6.1620463 7.5608083 5.9957823 8.0039062 6.0039062 C 8.3167364 6.0061763 8.6200242 6.0806622 8.8925781 6.2167969 C 8.5815136 5.8301139 8.1880236 5.4557052 7.6660156 5.1816406 C 6.5073386 4.5736364 5.259751 4.5527344 5.0410156 4.5527344 z " />
</svg>
