<?xml version="1.0" encoding="UTF-8" standalone="no"?>
<!-- Created with Inkscape (http://www.inkscape.org/) -->

<svg
   width="16"
   height="16"
   viewBox="0 0 4.2333332 4.2333335"
   version="1.1"
   id="svg5"
   sodipodi:docname="preferences-desktop-apps-symbolic.svg"
   inkscape:version="1.1.1 (3bf5ae0d25, 2021-09-20)"
   xmlns:inkscape="http://www.inkscape.org/namespaces/inkscape"
   xmlns:sodipodi="http://sodipodi.sourceforge.net/DTD/sodipodi-0.dtd"
   xmlns="http://www.w3.org/2000/svg"
   xmlns:svg="http://www.w3.org/2000/svg">
  <sodipodi:namedview
     id="namedview7"
     pagecolor="#ffffff"
     bordercolor="#666666"
     borderopacity="1.0"
     inkscape:pageshadow="2"
     inkscape:pageopacity="0.0"
     inkscape:pagecheckerboard="0"
     inkscape:document-units="px"
     showgrid="false"
     units="px"
     height="16px"
     showguides="false"
     inkscape:zoom="22.627417"
     inkscape:cx="-0.77339804"
     inkscape:cy="9.8332037"
     inkscape:window-width="1853"
     inkscape:window-height="1012"
     inkscape:window-x="67"
     inkscape:window-y="32"
     inkscape:window-maximized="1"
     inkscape:current-layer="svg5" />
  <defs
     id="defs2" />
  <path
     id="path1653"
     style="fill:#dfdfdf;stroke-width:0.837335"
     d="M 1.9492188 0 C 0.86850678 0.027380222 1.8602361e-07 0.91268955 0 2 C -4.7244091e-08 3.1045692 0.89543054 3.9999996 2 4 C 3.1045697 4 4 3.1045697 4 2 C 4 0.89543047 3.1045694 2.9605947e-16 2 0 C 1.9827411 2.9527557e-09 1.9663729 -0.0004346067 1.9492188 0 z M 7.9492188 0 C 6.8685068 0.027380222 6 0.91268955 6 2 C 6 3.1045692 6.8954304 3.9999996 8 4 C 9.1045696 4 10 3.1045697 10 2 C 10 0.89543047 9.1045696 2.9605947e-16 8 0 C 7.9827411 2.9527559e-09 7.9663729 -0.0004346067 7.9492188 0 z M 13.949219 0 C 12.868506 0.027380042 12 0.91268933 12 2 C 12 3.1045696 12.89543 4 14 4 C 15.10457 3.9999996 16 3.1045692 16 2 C 16 0.89543062 15.104569 1.8897638e-07 14 0 C 13.982741 -2.3129646e-18 13.966373 -0.00043460384 13.949219 0 z M 1.9492188 6 C 0.86850664 6.02738 1.8602362e-07 6.9126897 0 8 C 0 9.1045692 0.89543039 9.9999996 2 10 C 3.1045696 10 4 9.1045699 4 8 C 4 6.8954304 3.1045692 6 2 6 C 1.9827411 6 1.9663729 5.9995654 1.9492188 6 z M 7.9492188 6 C 6.8685072 6.02738 6 6.9126897 6 8 C 6 9.1045692 6.8954308 9.9999996 8 10 C 9.1045696 10 10 9.1045699 10 8 C 10 6.8954304 9.1045699 6 8 6 C 7.9827411 6 7.9663729 5.9995654 7.9492188 6 z M 13.949219 6 C 12.868507 6.0273804 12 6.9126897 12 8 C 12 9.1045692 12.89543 9.9999996 14 10 C 15.10457 10 16 9.1045699 16 8 C 16 6.8954304 15.10457 6 14 6 C 13.982741 6 13.966373 5.9995654 13.949219 6 z M 1.9492188 12 C 0.86850613 12.02738 -3.7204713e-07 12.912689 0 14 C 0 15.10457 0.89543043 16 2 16 C 3.1045692 16 4 15.104569 4 14 C 4 12.895431 3.1045688 12 2 12 C 1.9827411 12 1.9663729 11.999565 1.9492188 12 z M 7.9492188 12 C 6.8685065 12.02738 6 12.91269 6 14 C 6 15.104569 6.8954301 16 8 16 C 9.1045696 16 10 15.10457 10 14 C 10 12.89543 9.1045692 12 8 12 C 7.9827411 12 7.9663729 11.999565 7.9492188 12 z M 13.949219 12 C 12.868507 12.02738 12 12.91269 12 14 C 12 15.104569 12.895431 16 14 16 C 15.10457 16 16 15.10457 16 14 C 16 12.89543 15.10457 12 14 12 C 13.982741 12 13.966373 11.999565 13.949219 12 z "
     transform="scale(0.26458333)" />
</svg>
