<?xml version="1.0" encoding="UTF-8" standalone="no"?>
<svg
   width="16"
   height="16"
   version="1.1"
   id="svg4"
   sodipodi:docname="preferences-system-search-symbolic.svg"
   inkscape:version="1.1.1 (3bf5ae0d25, 2021-09-20)"
   xmlns:inkscape="http://www.inkscape.org/namespaces/inkscape"
   xmlns:sodipodi="http://sodipodi.sourceforge.net/DTD/sodipodi-0.dtd"
   xmlns="http://www.w3.org/2000/svg"
   xmlns:svg="http://www.w3.org/2000/svg">
  <defs
     id="defs8" />
  <sodipodi:namedview
     id="namedview6"
     pagecolor="#ffffff"
     bordercolor="#666666"
     borderopacity="1.0"
     inkscape:pageshadow="2"
     inkscape:pageopacity="0.0"
     inkscape:pagecheckerboard="0"
     showgrid="false"
     inkscape:zoom="12.890625"
     inkscape:cx="-16.329697"
     inkscape:cy="12.06303"
     inkscape:window-width="1853"
     inkscape:window-height="1012"
     inkscape:window-x="67"
     inkscape:window-y="32"
     inkscape:window-maximized="1"
     inkscape:current-layer="svg4" />
  <path
     style="fill:#dfdfdf"
     d="M 6.5,1 C 3.47,1 1,3.47 1,6.5 1,9.53 3.47,12 6.5,12 7.65,12 8.7391,11.639 9.6191,11.029 l 4.3104,4.293 1.369,-1.42 -4.2695,-4.3122 c 0.61,-0.88 1,-1.9398 1,-3.0898 C 12.029,3.47 9.53,1 6.5,1 Z m 0,2 C 8.45,3 10,4.56 10,6.5 10,8.44 8.45,10 6.5,10 4.55,10 3,8.44 3,6.5 3,4.56 4.55,3 6.5,3 Z"
     id="path2"
     sodipodi:nodetypes="sssccccsssssss" />
</svg>
