<?xml version="1.0" encoding="UTF-8" standalone="no"?>
<svg
   width="16"
   height="16"
   version="1"
   id="svg4"
   sodipodi:docname="file-roller-symbolic.svg"
   inkscape:version="1.1.1 (3bf5ae0d25, 2021-09-20)"
   xmlns:inkscape="http://www.inkscape.org/namespaces/inkscape"
   xmlns:sodipodi="http://sodipodi.sourceforge.net/DTD/sodipodi-0.dtd"
   xmlns="http://www.w3.org/2000/svg"
   xmlns:svg="http://www.w3.org/2000/svg">
  <defs
     id="defs8" />
  <sodipodi:namedview
     id="namedview6"
     pagecolor="#ffffff"
     bordercolor="#666666"
     borderopacity="1.0"
     inkscape:pageshadow="2"
     inkscape:pageopacity="0.0"
     inkscape:pagecheckerboard="0"
     showgrid="false"
     inkscape:zoom="9.1150484"
     inkscape:cx="3.7849497"
     inkscape:cy="16.730575"
     inkscape:window-width="1853"
     inkscape:window-height="1012"
     inkscape:window-x="67"
     inkscape:window-y="32"
     inkscape:window-maximized="1"
     inkscape:current-layer="svg4" />
  <path
     id="rect1011"
     style="fill:#444444;stroke-width:0.762372;fill-opacity:1"
     d="M 1.3242188 0 C 0.59035887 0 1.4802974e-16 0.59035887 0 1.3242188 L 0 14.675781 C 0 15.409641 0.59035887 16 1.3242188 16 L 14.675781 16 C 15.409641 16 16 15.409641 16 14.675781 L 16 1.3242188 C 16 0.59035887 15.409641 1.4802974e-16 14.675781 0 L 8 0 L 7 0 L 1.3242188 0 z M 2.3554688 2 L 7 2 L 7 3 L 8 3 L 8 2 L 9 2 L 13.644531 2 C 13.841706 2 14 2.1582944 14 2.3554688 L 14 13.644531 C 14 13.841706 13.841706 14 13.644531 14 L 2.3554688 14 C 2.1582943 14 2 13.841706 2 13.644531 L 2 2.3554688 C 2 2.1582943 2.1582944 2 2.3554688 2 z M 8 3 L 8 4 L 9 4 L 9 3 L 8 3 z M 8 4 L 7 4 C 7 4.5 7.448 5 8 5 L 8 4 z M 8 5 C 6.895 5 6 5.9 6 7 L 6 11 C 6 12.1 6.895 13 8 13 C 9.105 13 10 12.1 10 11 L 10 7 C 10 5.9 9.105 5 8 5 z M 8 6 C 8.552 6 9 6.4 9 7 C 9 7.5 8.552 8 8 8 C 7.448 8 7 7.5 7 7 C 7 6.4 7.448 6 8 6 z M 8 9 C 8.552 9 9 9.4 9 10 L 9 11 C 9 11.5 8.552 12 8 12 C 7.448 12 7 11.5 7 11 L 7 10 C 7 9.4 7.448 9 8 9 z " />
</svg>
