<?xml version="1.0" encoding="UTF-8" standalone="no"?>
<!-- Created with Inkscape (http://www.inkscape.org/) -->

<svg
   width="22"
   height="22"
   viewBox="0 0 5.8208332 5.8208335"
   version="1.1"
   id="svg5"
   inkscape:version="1.1.1 (3bf5ae0d25, 2021-09-20, custom)"
   sodipodi:docname="preferences-system-locale.svg"
   xmlns:inkscape="http://www.inkscape.org/namespaces/inkscape"
   xmlns:sodipodi="http://sodipodi.sourceforge.net/DTD/sodipodi-0.dtd"
   xmlns="http://www.w3.org/2000/svg"
   xmlns:svg="http://www.w3.org/2000/svg">
  <sodipodi:namedview
     id="namedview7"
     pagecolor="#ffffff"
     bordercolor="#666666"
     borderopacity="1.0"
     inkscape:pageshadow="2"
     inkscape:pageopacity="0.0"
     inkscape:pagecheckerboard="0"
     inkscape:document-units="px"
     showgrid="false"
     units="px"
     height="24px"
     inkscape:zoom="16"
     inkscape:cx="5.5625"
     inkscape:cy="21.96875"
     inkscape:window-width="1920"
     inkscape:window-height="1019"
     inkscape:window-x="0"
     inkscape:window-y="0"
     inkscape:window-maximized="1"
     inkscape:current-layer="svg5" />
  <defs
     id="defs2" />
  <path
     id="path989"
     style="fill:#555555;fill-opacity:1;stroke-width:0.529167;stroke-linecap:round;stroke-linejoin:round"
     d="M 2.9104167,0.79375001 A 2.1166669,2.1166669 0 0 0 0.79375001,2.9104167 2.1166669,2.1166669 0 0 0 2.9104167,5.0270834 2.1166669,2.1166669 0 0 0 5.0270834,2.9104167 2.1166669,2.1166669 0 0 0 2.9104167,0.79375001 Z m 0.0031,0.52968339 C 3.03576,1.4926074 3.135745,1.6704052 3.2142733,1.8520833 H 2.5827882 C 2.661815,1.670292 2.7694581,1.4923517 2.9135167,1.3234334 Z m 0.6170172,0.1312582 a 1.5875001,1.5875001 0 0 1 0.563273,0.3973917 H 3.7465413 C 3.6861285,1.71407 3.6140509,1.5811087 3.5305339,1.4546916 Z m -1.2428182,0.00413 C 2.2054286,1.5839283 2.1340016,1.7156671 2.074292,1.8520833 H 1.7332275 A 1.5875001,1.5875001 0 0 1 2.2877157,1.4588257 Z M 1.416451,2.38125 h 0.4898926 c -0.035492,0.1730155 -0.054096,0.350203 -0.05426,0.5291667 1.64e-4,0.1789522 0.01929,0.3561617 0.054777,0.5291667 H 1.416451 A 1.5875001,1.5875001 0 0 1 1.3229166,2.9104167 1.5875001,1.5875001 0 0 1 1.416451,2.38125 Z m 1.0097575,0 h 0.9565307 c 0.037982,0.1799574 0.056659,0.3580135 0.056844,0.5291667 -1.852e-4,0.1711415 -0.018867,0.3492217 -0.056844,0.5291667 H 2.4267253 C 2.3950501,3.2598225 2.3820054,3.0815225 2.38125,2.9104167 2.3820173,2.739321 2.3945374,2.5610002 2.4262085,2.38125 Z m 1.4882813,0 h 0.4929931 a 1.5875001,1.5875001 0 0 1 0.090434,0.5291667 1.5875001,1.5875001 0 0 1 -0.090434,0.5291667 H 3.9139731 C 3.9494855,3.2665691 3.9685648,3.0893787 3.96875,2.9104167 3.9685651,2.7315356 3.9499699,2.5541899 3.9144898,2.38125 Z M 1.7332275,3.96875 H 2.074292 C 2.134001,4.1051555 2.2054325,4.2369148 2.2877157,4.3620077 A 1.5875001,1.5875001 0 0 1 1.7332275,3.96875 Z m 0.8495607,0 h 0.630969 C 3.135262,4.1502577 3.0356501,4.3283789 2.9135173,4.4974 2.7694594,4.3284826 2.6618147,4.1505402 2.5827882,3.96875 Z m 1.1637531,0 H 4.0938069 A 1.5875001,1.5875001 0 0 1 3.5300172,4.3661418 C 3.6135935,4.2396625 3.6860946,4.1068398 3.7465413,3.96875 Z" />
</svg>
