<?xml version="1.0" encoding="UTF-8" standalone="no"?>
<!-- Created with Inkscape (http://www.inkscape.org/) -->

<svg
   width="22"
   height="22"
   viewBox="0 0 5.8208332 5.8208335"
   version="1.1"
   id="svg5"
   inkscape:version="1.1.1 (3bf5ae0d25, 2021-09-20, custom)"
   sodipodi:docname="preferences-desktop-time.svg"
   xmlns:inkscape="http://www.inkscape.org/namespaces/inkscape"
   xmlns:sodipodi="http://sodipodi.sourceforge.net/DTD/sodipodi-0.dtd"
   xmlns="http://www.w3.org/2000/svg"
   xmlns:svg="http://www.w3.org/2000/svg">
  <sodipodi:namedview
     id="namedview7"
     pagecolor="#ffffff"
     bordercolor="#666666"
     borderopacity="1.0"
     inkscape:pageshadow="2"
     inkscape:pageopacity="0.0"
     inkscape:pagecheckerboard="0"
     inkscape:document-units="px"
     showgrid="false"
     units="px"
     height="24px"
     inkscape:zoom="35.863636"
     inkscape:cx="11.013942"
     inkscape:cy="11"
     inkscape:window-width="1920"
     inkscape:window-height="1019"
     inkscape:window-x="0"
     inkscape:window-y="0"
     inkscape:window-maximized="1"
     inkscape:current-layer="svg5" />
  <defs
     id="defs2" />
  <path
     id="path843"
     style="fill:#555555;stroke-width:2;stroke-linecap:round;stroke-linejoin:round"
     d="M 11 3 A 7.9999996 7.9999996 0 0 0 3 11 A 7.9999996 7.9999996 0 0 0 11 19 A 7.9999996 7.9999996 0 0 0 19 11 A 7.9999996 7.9999996 0 0 0 11 3 z M 11 5 A 5.9999999 5.9999999 0 0 1 17 11 A 5.9999999 5.9999999 0 0 1 11 17 A 5.9999999 5.9999999 0 0 1 5 11 A 5.9999999 5.9999999 0 0 1 11 5 z "
     transform="scale(0.26458333)" />
  <path
     id="rect1055"
     style="fill:#555555;stroke-width:0.529167;stroke-linecap:round;stroke-linejoin:round"
     d="M 2.778125,1.8520833 H 3.0427083 V 2.778125 L 3.7041667,3.3734375 3.5057292,3.571875 2.778125,2.9104167 Z"
     sodipodi:nodetypes="ccccccc" />
</svg>
