<?xml version="1.0" encoding="UTF-8" standalone="no"?>
<svg
   width="16"
   height="16"
   version="1.1"
   id="svg4"
   sodipodi:docname="display-brightness-high-symbolic.svg"
   inkscape:version="1.1.1 (3bf5ae0d25, 2021-09-20)"
   xmlns:inkscape="http://www.inkscape.org/namespaces/inkscape"
   xmlns:sodipodi="http://sodipodi.sourceforge.net/DTD/sodipodi-0.dtd"
   xmlns="http://www.w3.org/2000/svg"
   xmlns:svg="http://www.w3.org/2000/svg">
  <defs
     id="defs8" />
  <sodipodi:namedview
     id="namedview6"
     pagecolor="#ffffff"
     bordercolor="#666666"
     borderopacity="1.0"
     inkscape:pageshadow="2"
     inkscape:pageopacity="0.0"
     inkscape:pagecheckerboard="0"
     showgrid="false"
     inkscape:zoom="25.78125"
     inkscape:cx="6.5357576"
     inkscape:cy="9.5612121"
     inkscape:window-width="1853"
     inkscape:window-height="1012"
     inkscape:window-x="67"
     inkscape:window-y="32"
     inkscape:window-maximized="1"
     inkscape:current-layer="svg4" />
  <path
     id="path2"
     style="fill:#555555;"
     d="M 8 0.72070312 L 5.8105469 3 L 3 3 L 3 5.8105469 L 0.72070312 8 L 3 10.220703 L 3 13 L 5.8105469 13 L 8 15.279297 L 10.220703 13 L 13 13 L 13 10.220703 L 15.279297 8 L 13 6 L 13 3 L 10.220703 3 L 8 0.72070312 z M 8 2.34375 L 9.65625 4 L 12 4 L 12 6.34375 L 13.65625 8 L 12 9.65625 L 12 12 L 9.65625 12 L 8 13.65625 L 6.34375 12 L 4 12 L 4 9.65625 L 2.34375 8 L 4 6.34375 L 4 4 L 6.34375 4 L 8 2.34375 z M 8 5 C 4.0000017 5 4.0000017 11 8 11 C 11.999998 11 11.999998 5 8 5 z " />
</svg>
