<?xml version="1.0" encoding="UTF-8" standalone="no"?>
<svg
   width="16"
   height="16"
   version="1.1"
   id="svg6"
   sodipodi:docname="network-wireless-error-symbolic.svg"
   inkscape:version="1.1.1 (3bf5ae0d25, 2021-09-20, custom)"
   xmlns:inkscape="http://www.inkscape.org/namespaces/inkscape"
   xmlns:sodipodi="http://sodipodi.sourceforge.net/DTD/sodipodi-0.dtd"
   xmlns="http://www.w3.org/2000/svg"
   xmlns:svg="http://www.w3.org/2000/svg">
  <defs
     id="defs10" />
  <sodipodi:namedview
     id="namedview8"
     pagecolor="#ffffff"
     bordercolor="#666666"
     borderopacity="1.0"
     inkscape:pageshadow="2"
     inkscape:pageopacity="0.0"
     inkscape:pagecheckerboard="0"
     showgrid="false"
     inkscape:zoom="32"
     inkscape:cx="7.78125"
     inkscape:cy="12.765625"
     inkscape:window-width="1512"
     inkscape:window-height="937"
     inkscape:window-x="45"
     inkscape:window-y="29"
     inkscape:window-maximized="0"
     inkscape:current-layer="svg6" />
  <path
     id="path2"
     fill="#555555"
     d="m 8,1.0078125 c -2.8954625,0 -5.79085,1.10465 -8,3.3125 L 8,14.007812 11,10.375 V 7.9824219 L 8,11.5 2.1992188,4.6992188 C 3.5751633,3.3361826 5.679772,2.5697252 7.8378906,2.5273438 9.9960092,2.4849621 12.2092,3.1666565 13.800781,4.6992188 l -0.263672,0.3085937 v 0 h 1.894532 L 16,4.3203125 c -2.209,-2.20785 -5.104537,-3.3125 -8,-3.3125 z"
     sodipodi:nodetypes="sccccccscccccs" />
  <path
     class="error"
     d="M 12.00001,6 12,10 l 0.25,2 h 1.5 l 0.25,-2 10e-6,-4 z m 0,7 v 2 h 2 v -2 z"
     color="#555555444"
     fill="#f44336"
     id="path4" />
</svg>
