<?xml version="1.0" encoding="UTF-8" standalone="no"?>
<svg
   width="16"
   height="16"
   version="1.1"
   id="svg6"
   sodipodi:docname="network-wireless-disconnected-symbolic.svg"
   inkscape:version="1.1.1 (3bf5ae0d25, 2021-09-20, custom)"
   xmlns:inkscape="http://www.inkscape.org/namespaces/inkscape"
   xmlns:sodipodi="http://sodipodi.sourceforge.net/DTD/sodipodi-0.dtd"
   xmlns="http://www.w3.org/2000/svg"
   xmlns:svg="http://www.w3.org/2000/svg">
  <defs
     id="defs10" />
  <sodipodi:namedview
     id="namedview8"
     pagecolor="#ffffff"
     bordercolor="#666666"
     borderopacity="1.0"
     inkscape:pageshadow="2"
     inkscape:pageopacity="0.0"
     inkscape:pagecheckerboard="0"
     showgrid="false"
     inkscape:zoom="32"
     inkscape:cx="11.4375"
     inkscape:cy="13.609375"
     inkscape:window-width="1512"
     inkscape:window-height="937"
     inkscape:window-x="45"
     inkscape:window-y="29"
     inkscape:window-maximized="0"
     inkscape:current-layer="svg6" />
  <path
     id="path2"
     fill="#555555"
     d="M 8 1.0078125 C 5.1045375 1.0078125 2.20915 2.1124625 0 4.3203125 L 8 14.007812 L 10 11.585938 L 10 10.007812 L 11.302734 10.007812 L 16 4.3203125 C 13.791 2.1124625 10.895463 1.0078125 8 1.0078125 z M 7.8378906 2.5273438 C 9.9960092 2.4849621 12.2092 3.1666565 13.800781 4.6992188 L 8 11.5 L 2.1992188 4.6992188 C 3.5751633 3.3361826 5.679772 2.5697252 7.8378906 2.5273438 z M 11 11 L 11 12 C 11 12.27614 11.10029 12.53779 11.28125 12.71875 L 12.0625 13.5 L 11.28125 14.28125 C 11.10029 14.46221 11 14.72386 11 15 L 11 16 L 12 16 C 12.27614 16 12.53779 15.89971 12.71875 15.71875 L 13.5 14.9375 L 14.28125 15.71875 C 14.46221 15.89971 14.72386 16 15 16 L 16 16 L 16 15 C 16 14.72386 15.89971 14.46221 15.71875 14.28125 L 14.9375 13.5 L 15.71875 12.71875 C 15.89971 12.53779 16 12.27614 16 12 L 16 11 L 15 11 C 14.72386 11 14.46221 11.10029 14.28125 11.28125 L 13.5 12.0625 L 12.71875 11.28125 C 12.53779 11.10029 12.27614 11 12 11 L 11 11 z " />
</svg>
