<?xml version="1.0" encoding="UTF-8" standalone="no"?>
<svg
   width="16"
   height="16"
   version="1.1"
   xmlns="http://www.w3.org/2000/svg"
   >
  <path
     id="path2"
     style="opacity:0.3;fill:#dfdfdf"
     class="ColorScheme-Text"
     d="M 2.3789062 1 L 1.0195312 2.4335938 L 3.7890625 5 L 1 5 L 1 11 L 4 11 L 8 15 L 8 9.2792969 L 8 9.2109375 L 8 8.9003906 L 10 10.751953 L 10 11 C 10.05509 10.96986 10.10304 10.92952 10.15625 10.896484 L 11.859375 12.474609 C 11.314099 12.925281 10.689481 13.280079 10 13.5 L 10 15 C 11.105551 14.726245 12.105649 14.195784 12.941406 13.478516 L 14.621094 15 L 16 13.566406 L 14.269531 11.980469 L 13.166016 10.958984 L 11.484375 9.4003906 L 10 8.0273438 L 8 6.1738281 L 7.9394531 6.1171875 L 5.3144531 3.6855469 L 2.3789062 1 z M 8 1 L 6.7285156 2.2714844 L 8 3.4472656 L 8 1 z M 10 1 L 10 2.5 C 12.32 3.24 14 5.43 14 8 C 14 8.3186068 13.973488 8.6306592 13.923828 8.9355469 L 15.181641 10.101562 C 15.384715 9.4368702 15.5 8.7332996 15.5 8 C 15.5 4.6 13.15 1.78 10 1 z M 10 5 L 10 5.3007812 L 11.539062 6.7265625 C 11.241881 5.9888857 10.697769 5.3782301 10 5 z M 5.1035156 6.3144531 L 6.5 7.7109375 L 6.5 11.085938 L 4.9179688 9.5 L 2.5 9.5 L 2.5 6.5 L 4.9179688 6.5 L 5.1035156 6.3144531 z " />
</svg>
