<?xml version="1.0" encoding="UTF-8" standalone="no"?>
<svg
   width="16"
   height="16"
   version="1.1"
   id="svg4"
   sodipodi:docname="bluetooth-paired-symbolic.svg"
   inkscape:version="1.1.1 (3bf5ae0d25, 2021-09-20, custom)"
   xmlns:inkscape="http://www.inkscape.org/namespaces/inkscape"
   xmlns:sodipodi="http://sodipodi.sourceforge.net/DTD/sodipodi-0.dtd"
   xmlns="http://www.w3.org/2000/svg"
   xmlns:svg="http://www.w3.org/2000/svg">
  <defs
     id="defs8" />
  <sodipodi:namedview
     id="namedview6"
     pagecolor="#ffffff"
     bordercolor="#666666"
     borderopacity="1.0"
     inkscape:pageshadow="2"
     inkscape:pageopacity="0.0"
     inkscape:pagecheckerboard="0"
     showgrid="false"
     inkscape:zoom="32.129164"
     inkscape:cx="5.1666454"
     inkscape:cy="7.1586051"
     inkscape:window-width="1920"
     inkscape:window-height="1002"
     inkscape:window-x="0"
     inkscape:window-y="0"
     inkscape:window-maximized="1"
     inkscape:current-layer="svg4" />
  <path
     id="rect1031"
     style="opacity:1;fill:#dfdfdf;stroke-width:1.33333;stroke-linecap:round;stroke-linejoin:round;fill-opacity:1"
     d="M 7 0 L 7 5 L 5 3 L 3.5859375 4.4140625 L 7 7.828125 L 7 8.171875 L 3.5859375 11.585938 L 5 13 L 7 11 L 7 16 L 8 16 L 13 11 L 10 8 L 13 5 L 8 0 L 7 0 z M 9 3.828125 L 10.171875 5 L 9 6.171875 L 9 3.828125 z M 3 6 L 3 10 L 5 8 L 3 6 z M 14 6 L 12 8 L 14 10 L 14 6 z M 9 9.828125 L 10.171875 11 L 9 12.171875 L 9 9.828125 z " />
</svg>
