<?xml version="1.0" encoding="UTF-8" standalone="no"?>
<!-- Created with Inkscape (http://www.inkscape.org/) -->

<svg
   width="16"
   height="16"
   version="1.1"
   xmlns="http://www.w3.org/2000/svg">
  <path
     id="path928"
     style="fill:#dfdfdf;stroke-width:0.999999"
     d="M 7.9746094 0 C 7.4342534 0.013690061 7 0.45634479 7 1 L 6.859375 1.1308594 C 4.6430582 1.6446664 3 3.6230024 3 6 L 3 8 L 3 11 L 3 11.503906 L 1 11.503906 L 1 13 L 3 13 L 13 13 L 15 13 L 15 11.503906 L 13 11.503906 L 13 11 L 13 8 L 13 6 C 13 3.592277 11.314508 1.5932184 9.0546875 1.1113281 L 9 1 C 8.9476248 0.306752 8.552285 -1.6699007e-07 8 0 C 7.9913706 6.5230469e-10 7.9831865 -0.00021730255 7.9746094 0 z M 8 2.5 C 9.9390001 2.5 11.5 4.1725003 11.5 6.25 L 11.5 7.75 L 11.5 11.5 L 8 11.5 L 4.5 11.5 L 4.5 7.75 L 4.5 6.25 C 4.5 4.1725003 6.0609996 2.5 8 2.5 z M 6.2695312 14 C 6.6295312 14.62 7.2899999 15 8 15 C 8.7099997 15 9.3704688 14.62 9.7304688 14 L 6.2695312 14 z "/>
</svg>
