<?xml version="1.0" encoding="UTF-8" standalone="no"?>
<!-- Created with Inkscape (http://www.inkscape.org/) -->

<svg
   width="16"
   height="16"
   version="1.1"
   id="svg3"
   sodipodi:docname="notification-disabled-symbolic.svg"
   inkscape:version="1.1.1 (3bf5ae0d25, 2021-09-20)"
   xmlns:inkscape="http://www.inkscape.org/namespaces/inkscape"
   xmlns:sodipodi="http://sodipodi.sourceforge.net/DTD/sodipodi-0.dtd"
   xmlns="http://www.w3.org/2000/svg"
   xmlns:svg="http://www.w3.org/2000/svg">
  <defs
     id="defs7" />
  <sodipodi:namedview
     id="namedview5"
     pagecolor="#ffffff"
     bordercolor="#666666"
     borderopacity="1.0"
     inkscape:pageshadow="2"
     inkscape:pageopacity="0.0"
     inkscape:pagecheckerboard="0"
     showgrid="false"
     inkscape:zoom="36.371805"
     inkscape:cx="10.530135"
     inkscape:cy="8.5918199"
     inkscape:window-width="1920"
     inkscape:window-height="1016"
     inkscape:window-x="0"
     inkscape:window-y="34"
     inkscape:window-maximized="1"
     inkscape:current-layer="svg3" />
  <path
     id="path928"
     style="opacity:0.3;fill:#dfdfdf;stroke-width:0.999999"
     d="M 7.9746094,0 C 7.4342534,0.01369006 7,0.45634479 7,1 L 6.859375,1.1308594 C 6.3135001,1.2574091 5.8040899,1.4734093 5.34375,1.7617188 L 6.4628906,2.8808594 C 6.9266736,2.6385564 7.4474493,2.5 8,2.5 c 1.9390001,0 3.5,1.6725003 3.5,3.75 v 1.5 0.1679688 l 1.5,1.5 V 8 6 C 13,3.592277 11.314508,1.5932184 9.0546875,1.1113281 L 9,1 C 8.9476248,0.306752 8.552285,-1.6699007e-7 8,0 7.9913706,0 7.9831865,-2.1730255e-4 7.9746094,0 Z M 2.6601562,1.1992188 1.5996094,2.2597656 3.3964844,4.0566406 C 3.1438554,4.653876 3,5.3081851 3,6 v 2 3 0.503906 H 1 V 13 h 2 9.339844 l 1.759765,1.759766 1.060547,-1.060547 L 14.460938,13 11.5,10.039062 5.3085938,3.8476562 4.2050781,2.7441406 Z M 4.6191406,5.2792969 10.839844,11.5 H 8 4.5 V 7.75 6.25 C 4.5,5.9136084 4.5422657,5.5890768 4.6191406,5.2792969 Z M 6.2695312,14 c 0.36,0.62 1.0204687,1 1.7304688,1 0.7099997,0 1.3704686,-0.38 1.7304688,-1 z" />
</svg>
