<?xml version="1.0" encoding="UTF-8" standalone="no"?>
<svg
   width="16"
   height="16"
   version="1.1"
   id="svg4"
   sodipodi:docname="org.gnome.Shell.Extensions.GSConnect-symbolic.svg"
   inkscape:version="1.1.1 (3bf5ae0d25, 2021-09-20, custom)"
   xmlns:inkscape="http://www.inkscape.org/namespaces/inkscape"
   xmlns:sodipodi="http://sodipodi.sourceforge.net/DTD/sodipodi-0.dtd"
   xmlns="http://www.w3.org/2000/svg"
   xmlns:svg="http://www.w3.org/2000/svg">
  <defs
     id="defs8" />
  <sodipodi:namedview
     id="namedview6"
     pagecolor="#ffffff"
     bordercolor="#666666"
     borderopacity="1.0"
     inkscape:pageshadow="2"
     inkscape:pageopacity="0.0"
     inkscape:pagecheckerboard="0"
     showgrid="false"
     inkscape:zoom="1"
     inkscape:cx="-31"
     inkscape:cy="-41"
     inkscape:window-width="1920"
     inkscape:window-height="1002"
     inkscape:window-x="0"
     inkscape:window-y="0"
     inkscape:window-maximized="1"
     inkscape:current-layer="svg4" />
  <path
     id="path2"
     d="M 3 2 C 1.892 2 1 2.892 1 4 L 1 12 L 0 12 L 0 15 L 7 15 L 8 15 A 1 1 0 0 1 7 14 L 7 12 L 3 12 L 3 4 L 15 4 C 15 2.892 14.108 2 13 2 L 3 2 z M 10 5 C 9.446 5 9 5.446 9 6 L 9 6.28125 L 9 13.71875 L 9 14 C 9 14.554 9.446 15 10 15 L 10.28125 15 L 14.71875 15 L 15 15 C 15.554 15 16 14.554 16 14 L 16 13.71875 L 16 6.28125 L 16 6 C 16 5.446 15.554 5 15 5 L 14.71875 5 L 10.28125 5 L 10 5 z M 11 7 L 12 7 L 13 7 L 14 7 L 14 13 L 11 13 L 11 7 z "
     style="fill:#dfdfdf;fill-opacity:1" />
</svg>
