<?xml version="1.0" encoding="UTF-8" standalone="no"?>
<svg
   width="16"
   height="16"
   version="1.1"
   id="svg6"
   sodipodi:docname="rotation-locked-symbolic.svg"
   inkscape:version="1.1.1 (3bf5ae0d25, 2021-09-20)"
   xmlns:inkscape="http://www.inkscape.org/namespaces/inkscape"
   xmlns:sodipodi="http://sodipodi.sourceforge.net/DTD/sodipodi-0.dtd"
   xmlns="http://www.w3.org/2000/svg"
   xmlns:svg="http://www.w3.org/2000/svg">
  <defs
     id="defs10" />
  <sodipodi:namedview
     id="namedview8"
     pagecolor="#ffffff"
     bordercolor="#666666"
     borderopacity="1.0"
     inkscape:pageshadow="2"
     inkscape:pageopacity="0.0"
     inkscape:pagecheckerboard="0"
     showgrid="false"
     inkscape:zoom="25.78125"
     inkscape:cx="6.9624242"
     inkscape:cy="8.4751515"
     inkscape:window-width="1853"
     inkscape:window-height="1012"
     inkscape:window-x="67"
     inkscape:window-y="32"
     inkscape:window-maximized="1"
     inkscape:current-layer="svg6" />
  <path
     d="M13 9c-1.11 0-2 .91-2 2.03V12h-1v4h6v-4h-1v-.97C15 9.91 14.11 9 13 9zm0 1c.55 0 1 .44 1 1v1h-2v-1c0-.56.45-1 1-1z"
     fill="#dfdfdf"
     id="path2" />
  <path
     d="M 8,2 C 4.6862915,2 2,4.6862915 2,8 H 0 L 3,12 6,8 H 4 c 0,-5.333331 8,-5.333331 8,0 h 2 C 14,4.6862915 11.313708,2 8,2 Z m 1,9.857 C 8.6741994,11.947454 8.3380944,11.995517 8,12 v 2 c 0.032046,2.06e-4 0.064083,-0.0011 0.096,-0.004 0.308,-0.005 0.608,-0.04 0.904,-0.09 z"
     fill="#dfdfdf"
     opacity="0.3"
     id="path4"
     sodipodi:nodetypes="scccccccscccccc" />
</svg>
