<?xml version="1.0" encoding="UTF-8" standalone="no"?>
<svg
   width="16"
   height="16"
   version="1.1"
   id="svg4"
   sodipodi:docname="user-busy-symbolic.svg"
   inkscape:version="1.1.1 (3bf5ae0d25, 2021-09-20)"
   xmlns:inkscape="http://www.inkscape.org/namespaces/inkscape"
   xmlns:sodipodi="http://sodipodi.sourceforge.net/DTD/sodipodi-0.dtd"
   xmlns="http://www.w3.org/2000/svg"
   xmlns:svg="http://www.w3.org/2000/svg">
  <defs
     id="defs8" />
  <sodipodi:namedview
     id="namedview6"
     pagecolor="#ffffff"
     bordercolor="#666666"
     borderopacity="1.0"
     inkscape:pageshadow="2"
     inkscape:pageopacity="0.0"
     inkscape:pagecheckerboard="0"
     showgrid="false"
     inkscape:zoom="51.5625"
     inkscape:cx="8"
     inkscape:cy="11.10303"
     inkscape:window-width="1853"
     inkscape:window-height="1012"
     inkscape:window-x="67"
     inkscape:window-y="32"
     inkscape:window-maximized="1"
     inkscape:current-layer="svg4" />
  <path
     id="path2"
     style="fill:#dfdfdf"
     d="M 8 2 C 6.34 2 5 3.34 5 5 C 5 6.65 6.34 8 8 8 C 9.66 8 11 6.65 11 5 C 11 3.34 9.66 2 8 2 z M 8 3 C 9.1045695 3 10 3.8954305 10 5 C 10 6.1045695 9.1045695 7 8 7 C 6.8954305 7 6 6.1045695 6 5 C 6 3.8954305 6.8954305 3 8 3 z M 8 10 C 7.8125 10 7.6310425 10.00415 7.4550781 10.011719 C 7.2791138 10.019287 7.1081543 10.030273 6.9433594 10.044922 C 6.7785645 10.05957 6.6188354 10.078369 6.4648438 10.099609 C 6.3108521 10.12085 6.1630859 10.144531 6.0195312 10.171875 C 5.8759767 10.199219 5.7369995 10.22876 5.6035156 10.261719 C 5.4700317 10.294678 5.3425293 10.331055 5.21875 10.369141 C 5.0949707 10.407227 4.975769 10.44751 4.8613281 10.490234 C 4.7468872 10.532959 4.6367188 10.578125 4.53125 10.625 C 4.4257812 10.671875 4.3253784 10.720947 4.2285156 10.771484 C 4.1316528 10.822021 4.0378418 10.874023 3.9492188 10.927734 C 3.8605957 10.981445 3.776062 11.037354 3.6953125 11.09375 C 3.614563 11.150146 3.5380858 11.207031 3.4648438 11.265625 C 3.3916015 11.324219 3.3219604 11.383057 3.2558594 11.443359 C 3.2228088 11.473511 3.1914902 11.504669 3.1601562 11.535156 C 2.6281189 12.053167 2.339136 12.616008 2.1835938 13.072266 C 2.1469726 13.179688 2.1171875 13.28125 2.09375 13.375 C 2.0703125 13.46875 2.0522461 13.554688 2.0390625 13.630859 C 2.0258789 13.707031 2.0175781 13.773438 2.0117188 13.828125 C 1.9999999 13.9375 2 14 2 14 L 2 15 L 8.7597656 15 C 8.5505546 14.68733 8.3840961 14.350872 8.2597656 14 L 3 14 C 3 14 2.9907814 13.339609 3.5507812 12.599609 C 4.1107813 11.849609 5.22 11 8 11 C 8.0892469 11 8.1719708 11.004139 8.2578125 11.005859 C 8.3783434 10.66432 8.5391976 10.33504 8.7402344 10.029297 C 8.5002344 10.009297 8.26 10 8 10 z " />
  <path
     style="fill:#f44336"
     class="error"
     d="M 12.5,9 A 3.5,3.5 0 0 0 9,12.5 3.5,3.5 0 0 0 12.5,16 3.5,3.5 0 0 0 16,12.5 3.5,3.5 0 0 0 12.5,9 Z M 10,12 h 5 v 1 h -5 z"
     id="path4" />
</svg>
