<?xml version="1.0" encoding="UTF-8" standalone="no"?>
<svg
   width="64"
   height="64"
   enable-background="new"
   version="1.0"
   id="svg28"
   sodipodi:docname="applications-all.svg"
   inkscape:version="1.1.1 (3bf5ae0d25, 2021-09-20, custom)"
   xmlns:inkscape="http://www.inkscape.org/namespaces/inkscape"
   xmlns:sodipodi="http://sodipodi.sourceforge.net/DTD/sodipodi-0.dtd"
   xmlns="http://www.w3.org/2000/svg"
   xmlns:svg="http://www.w3.org/2000/svg">
  <sodipodi:namedview
     id="namedview30"
     pagecolor="#ffffff"
     bordercolor="#666666"
     borderopacity="1.0"
     inkscape:pageshadow="2"
     inkscape:pageopacity="0.0"
     inkscape:pagecheckerboard="0"
     showgrid="false"
     inkscape:zoom="5.6568542"
     inkscape:cx="0"
     inkscape:cy="22.715805"
     inkscape:window-width="1920"
     inkscape:window-height="1019"
     inkscape:window-x="0"
     inkscape:window-y="0"
     inkscape:window-maximized="1"
     inkscape:current-layer="svg28" />
  <defs
     id="defs8">
    <filter
       id="b"
       x="-0.032928571"
       y="-0.032928571"
       width="1.0658571"
       height="1.0658571"
       color-interpolation-filters="sRGB">
      <feGaussianBlur
         stdDeviation="4.48"
         id="feGaussianBlur2" />
    </filter>
    <filter
       id="a"
       x="-0.024"
       y="-0.024"
       width="1.048"
       height="1.048"
       color-interpolation-filters="sRGB">
      <feGaussianBlur
         stdDeviation="4.48"
         id="feGaussianBlur5" />
    </filter>
  </defs>
  <circle
     style="fill:#f26d00;fill-opacity:1;stroke-width:1.41633;stroke-linecap:round;stroke-linejoin:round;stroke-dasharray:16.996, 1.41633"
     id="path848"
     cx="32"
     cy="32"
     r="28" />
  <path
     id="path1550"
     style="fill:#ffffff;fill-opacity:1;stroke-width:2;stroke-linecap:round;stroke-linejoin:round"
     d="M 20 16 A 4 4 0 0 0 16 20 A 4 4 0 0 0 20 24 A 4 4 0 0 0 24 20 A 4 4 0 0 0 20 16 z M 32 16 A 4 4 0 0 0 28 20 A 4 4 0 0 0 32 24 A 4 4 0 0 0 36 20 A 4 4 0 0 0 32 16 z M 44 16 A 4 4 0 0 0 40 20 A 4 4 0 0 0 44 24 A 4 4 0 0 0 48 20 A 4 4 0 0 0 44 16 z M 20 28 A 4 4 0 0 0 16 32 A 4 4 0 0 0 20 36 A 4 4 0 0 0 24 32 A 4 4 0 0 0 20 28 z M 32 28 A 4 4 0 0 0 28 32 A 4 4 0 0 0 32 36 A 4 4 0 0 0 36 32 A 4 4 0 0 0 32 28 z M 44 28 A 4 4 0 0 0 40 32 A 4 4 0 0 0 44 36 A 4 4 0 0 0 48 32 A 4 4 0 0 0 44 28 z M 20 40 A 4 4 0 0 0 16 44 A 4 4 0 0 0 20 48 A 4 4 0 0 0 24 44 A 4 4 0 0 0 20 40 z M 32 40 A 4 4 0 0 0 28 44 A 4 4 0 0 0 32 48 A 4 4 0 0 0 36 44 A 4 4 0 0 0 32 40 z M 44 40 A 4 4 0 0 0 40 44 A 4 4 0 0 0 44 48 A 4 4 0 0 0 48 44 A 4 4 0 0 0 44 40 z " />
</svg>
