<?xml version="1.0" encoding="UTF-8" standalone="no"?>
<svg
   width="64"
   height="64"
   enable-background="new"
   version="1.0"
   id="svg28"
   sodipodi:docname="preferences-system-privacy.svg"
   inkscape:version="1.1.1 (3bf5ae0d25, 2021-09-20, custom)"
   xmlns:inkscape="http://www.inkscape.org/namespaces/inkscape"
   xmlns:sodipodi="http://sodipodi.sourceforge.net/DTD/sodipodi-0.dtd"
   xmlns="http://www.w3.org/2000/svg"
   xmlns:svg="http://www.w3.org/2000/svg">
  <sodipodi:namedview
     id="namedview30"
     pagecolor="#ffffff"
     bordercolor="#666666"
     borderopacity="1.0"
     inkscape:pageshadow="2"
     inkscape:pageopacity="0.0"
     inkscape:pagecheckerboard="0"
     showgrid="false"
     inkscape:zoom="4"
     inkscape:cx="14"
     inkscape:cy="20.375"
     inkscape:window-width="1920"
     inkscape:window-height="1019"
     inkscape:window-x="0"
     inkscape:window-y="0"
     inkscape:window-maximized="1"
     inkscape:current-layer="svg28" />
  <defs
     id="defs8" />
  <circle
     style="fill:#7986cb;fill-opacity:1;stroke-width:1.41633;stroke-linecap:round;stroke-linejoin:round;stroke-dasharray:16.996, 1.41633"
     id="path848"
     cx="32"
     cy="32"
     r="28" />
  <path
     id="path969"
     style="fill:#ffffff;stroke-width:1.83333;stroke-linecap:round;stroke-linejoin:round"
     d="M 32 19 A 22 22 0 0 0 12.013672 32 A 22 22 0 0 0 32 45 A 22 22 0 0 0 36 44.587891 L 36 41.53125 A 19 19 0 0 1 32 42 A 19 19 0 0 1 15.322266 32 A 19 19 0 0 1 32 22 A 19 19 0 0 1 48.732422 32 L 52.074219 32 A 22 22 0 0 0 32 19 z M 32 24 A 8 8 0 0 0 24 32 A 8 8 0 0 0 32 40 A 8 8 0 0 0 36.091797 38.839844 C 36.442488 36.411285 37.872178 34.34749 39.886719 33.140625 A 8 8 0 0 0 40 32 A 8 8 0 0 0 32 24 z M 32 27 A 5 5 0 0 1 37 32 A 5 5 0 0 1 32 37 A 5 5 0 0 1 27 32 A 5 5 0 0 1 32 27 z M 45 35 C 42.790861 35 41 36.790861 41 39 L 41 40 L 39 40 L 39 49 L 51 49 L 51 40 L 49 40 L 49 39 C 49 36.790861 47.209139 35 45 35 z M 45 38 C 45.552285 38 46 38.447715 46 39 L 46 40 L 44 40 L 44 39 C 44 38.447715 44.447715 38 45 38 z " />
</svg>
