<?xml version="1.0" encoding="UTF-8" standalone="no"?>
<svg
   width="64"
   height="64"
   enable-background="new"
   version="1.0"
   id="svg47"
   sodipodi:docname="preferences-desktop-plasma-theme.svg"
   inkscape:version="1.1.1 (3bf5ae0d25, 2021-09-20, custom)"
   xmlns:inkscape="http://www.inkscape.org/namespaces/inkscape"
   xmlns:sodipodi="http://sodipodi.sourceforge.net/DTD/sodipodi-0.dtd"
   xmlns="http://www.w3.org/2000/svg"
   xmlns:svg="http://www.w3.org/2000/svg">
  <sodipodi:namedview
     id="namedview49"
     pagecolor="#ffffff"
     bordercolor="#666666"
     borderopacity="1.0"
     inkscape:pageshadow="2"
     inkscape:pageopacity="0.0"
     inkscape:pagecheckerboard="0"
     showgrid="false"
     inkscape:zoom="8"
     inkscape:cx="37.375"
     inkscape:cy="35.875"
     inkscape:window-width="1920"
     inkscape:window-height="1002"
     inkscape:window-x="0"
     inkscape:window-y="0"
     inkscape:window-maximized="1"
     inkscape:current-layer="svg47" />
  <defs
     id="defs5">
    <filter
       id="a"
       x="-0.032333333"
       y="-0.032333333"
       width="1.0646667"
       height="1.0646667"
       color-interpolation-filters="sRGB">
      <feGaussianBlur
         stdDeviation="4.8"
         id="feGaussianBlur2" />
    </filter>
  </defs>
  <circle
     cx="32"
     cy="32"
     r="28"
     enable-background="new"
     id="circle37"
     style="stroke-width:0.116666;fill:#ff768b;fill-opacity:1" />
  <path
     id="path88"
     d="m 23.500389,15 c -1.177232,0 -2.124967,0.94774 -2.124967,2.124968 0,1.177229 0.947735,2.124969 2.124967,2.124969 1.177232,0 2.124967,-0.94774 2.124967,-2.124969 C 25.625356,15.94774 24.677621,15 23.500389,15 Z m 13.35731,0 -4.857441,4.856922 7.285901,7.285902 -7.285901,7.285381 4.857441,4.857432 L 49,27.142824 44.143081,22.285902 Z M 18.187451,27.749809 C 16.421604,27.749809 15,29.171412 15,30.937255 c 0,1.765855 1.421604,3.187458 3.187451,3.187458 1.765848,0 3.187451,-1.421603 3.187451,-3.187458 0,-1.765843 -1.421603,-3.187446 -3.187451,-3.187446 z m 9.562354,12.749798 c -2.354464,0 -4.249934,1.895478 -4.249934,4.249936 0,2.354469 1.89547,4.249937 4.249934,4.249937 2.354465,0 4.249936,-1.895468 4.249936,-4.249937 0,-2.354458 -1.895471,-4.249936 -4.249936,-4.249936 z"
     style="stroke-width:0.26562;fill:#ffffff" />
</svg>
