<?xml version="1.0" encoding="UTF-8" standalone="no"?>
<svg
   width="64"
   height="64"
   enable-background="new"
   version="1.0"
   id="svg28"
   sodipodi:docname="input-mouse.svg"
   inkscape:version="1.1.1 (3bf5ae0d25, 2021-09-20, custom)"
   xmlns:inkscape="http://www.inkscape.org/namespaces/inkscape"
   xmlns:sodipodi="http://sodipodi.sourceforge.net/DTD/sodipodi-0.dtd"
   xmlns="http://www.w3.org/2000/svg"
   xmlns:svg="http://www.w3.org/2000/svg">
  <sodipodi:namedview
     id="namedview30"
     pagecolor="#ffffff"
     bordercolor="#666666"
     borderopacity="1.0"
     inkscape:pageshadow="2"
     inkscape:pageopacity="0.0"
     inkscape:pagecheckerboard="true"
     showgrid="false"
     inkscape:zoom="8.639961"
     inkscape:cx="27.893644"
     inkscape:cy="35.648309"
     inkscape:window-width="1920"
     inkscape:window-height="1002"
     inkscape:window-x="0"
     inkscape:window-y="0"
     inkscape:window-maximized="1"
     inkscape:current-layer="svg28" />
  <defs
     id="defs8">
    <filter
       id="b"
       x="-0.032928571"
       y="-0.032928571"
       width="1.0658571"
       height="1.0658571"
       color-interpolation-filters="sRGB">
      <feGaussianBlur
         stdDeviation="4.48"
         id="feGaussianBlur2" />
    </filter>
    <filter
       id="a"
       x="-0.024"
       y="-0.024"
       width="1.048"
       height="1.048"
       color-interpolation-filters="sRGB">
      <feGaussianBlur
         stdDeviation="4.48"
         id="feGaussianBlur5" />
    </filter>
  </defs>
  <circle
     style="fill:#26a69a;fill-opacity:1;stroke-width:1.41633;stroke-linecap:round;stroke-linejoin:round;stroke-dasharray:16.996, 1.41633"
     id="path848"
     cx="32"
     cy="32"
     r="28" />
  <path
     id="rect848"
     style="fill:#ffffff;stroke-width:2.12132;stroke-linecap:round;stroke-linejoin:round"
     d="M 32 14 C 25.352 14 20 19.352 20 26 L 20 38 C 20 44.648 25.352 50 32 50 C 38.648 50 44 44.648 44 38 L 44 26 C 44 19.352 38.648 14 32 14 z M 32 17 C 36.986 17 41 21.014 41 26 L 41 38 C 41 42.986 36.986 47 32 47 C 27.014 47 23 42.986 23 38 L 23 26 C 23 21.014 27.014 17 32 17 z M 32 20 C 30.892 20 30 20.892 30 22 L 30 29 C 30 30.108 30.892 31 32 31 C 33.108 31 34 30.108 34 29 L 34 22 C 34 20.892 33.108 20 32 20 z " />
</svg>
