<?xml version="1.0" encoding="UTF-8" standalone="no"?>
<svg
   width="64"
   height="64"
   enable-background="new"
   version="1.0"
   id="svg47"
   sodipodi:docname="preferences-desktop-default-applications.svg"
   inkscape:version="1.1.1 (3bf5ae0d25, 2021-09-20, custom)"
   xmlns:inkscape="http://www.inkscape.org/namespaces/inkscape"
   xmlns:sodipodi="http://sodipodi.sourceforge.net/DTD/sodipodi-0.dtd"
   xmlns="http://www.w3.org/2000/svg"
   xmlns:svg="http://www.w3.org/2000/svg">
  <sodipodi:namedview
     id="namedview49"
     pagecolor="#ffffff"
     bordercolor="#666666"
     borderopacity="1.0"
     inkscape:pageshadow="2"
     inkscape:pageopacity="0.0"
     inkscape:pagecheckerboard="0"
     showgrid="false"
     inkscape:zoom="2.8284271"
     inkscape:cx="15.556349"
     inkscape:cy="39.421203"
     inkscape:window-width="1920"
     inkscape:window-height="1019"
     inkscape:window-x="0"
     inkscape:window-y="0"
     inkscape:window-maximized="1"
     inkscape:current-layer="svg47" />
  <defs
     id="defs5">
    <filter
       id="a"
       x="-0.032333333"
       y="-0.032333333"
       width="1.0646667"
       height="1.0646667"
       color-interpolation-filters="sRGB">
      <feGaussianBlur
         stdDeviation="4.8"
         id="feGaussianBlur2" />
    </filter>
  </defs>
  <circle
     cx="32"
     cy="32"
     r="28"
     enable-background="new"
     fill="#607d8b"
     id="circle37"
     style="stroke-width:0.116666" />
  <path
     d="M 32,4 A 28,28 0 0 0 4,32 28,28 0 0 0 4.0048276,32.136719 28,28 0 0 1 32,4.2333337 28,28 0 0 1 59.995214,32.096614 28,28 0 0 0 60,32 28,28 0 0 0 32,4 Z"
     enable-background="new"
     fill="#ffffff"
     opacity="0.2"
     id="path39"
     style="stroke-width:0.116666" />
  <path
     d="m 32,12.6135 -4.94375,12.821666 -13.722333,0.739819 10.666833,8.664717 -3.536867,13.279 11.5367,-7.467017 11.535417,7.467017 -3.535583,-13.279 10.666833,-8.664717 -13.722333,-0.739819 z"
     color="#000000"
     enable-background="accumulate"
     fill="#eceff1"
     style="text-indent:0;text-decoration-line:none;text-transform:none;stroke-width:0.116666"
     id="path41" />
</svg>
