<?xml version="1.0" encoding="UTF-8" standalone="no"?>
<!-- Created with Inkscape (http://www.inkscape.org/) -->

<svg
   width="64"
   height="64"
   viewBox="0 0 16.933333 16.933334"
   version="1.1"
   id="svg5"
   inkscape:version="1.1.1 (3bf5ae0d25, 2021-09-20, custom)"
   sodipodi:docname="preferences-language-locale.svg"
   xmlns:inkscape="http://www.inkscape.org/namespaces/inkscape"
   xmlns:sodipodi="http://sodipodi.sourceforge.net/DTD/sodipodi-0.dtd"
   xmlns="http://www.w3.org/2000/svg"
   xmlns:svg="http://www.w3.org/2000/svg">
  <sodipodi:namedview
     id="namedview7"
     pagecolor="#ffffff"
     bordercolor="#666666"
     borderopacity="1.0"
     inkscape:pageshadow="2"
     inkscape:pageopacity="0.0"
     inkscape:pagecheckerboard="0"
     inkscape:document-units="px"
     showgrid="false"
     units="px"
     height="64px"
     inkscape:zoom="8"
     inkscape:cx="54.25"
     inkscape:cy="40.9375"
     inkscape:window-width="1920"
     inkscape:window-height="996"
     inkscape:window-x="0"
     inkscape:window-y="0"
     inkscape:window-maximized="1"
     inkscape:current-layer="svg5" />
  <defs
     id="defs2" />
  <circle
     style="fill:#4db6ac;stroke-width:0.529167;stroke-linecap:round;stroke-linejoin:round;fill-opacity:1"
     id="path1168"
     cx="8.4666662"
     cy="8.4666662"
     r="7.4083333" />
  <path
     id="path11"
     style="fill:#ffffff;stroke-width:0.264583"
     d="m 7.0099082,4.2333334 v 0.79375 H 4.4979167 v 0.7942668 h 0.00103 v -0.00103 h 1.319303 C 5.9486716,6.6367878 6.5656278,7.5433541 7.1732059,8.2516929 6.7199077,8.7312335 6.1294336,9.3283039 5.2880496,10.080522 l 0.4842081,0.502811 C 6.5579737,9.8624556 7.1659505,9.2580673 7.6367434,8.7550214 8.1059463,9.2455303 8.4806196,9.5632409 8.4806196,9.5632409 L 8.7286665,8.7984295 c 0,2e-7 -0.2685328,-0.211654 -0.6232179,-0.5689574 0.821636,-0.948803 1.0438218,-1.4332427 1.1032919,-1.6148887 H 8.3994875 C 8.3516574,6.7555325 8.1922113,7.0866261 7.6413943,7.7292442 7.2024111,7.2105262 6.7520246,6.5286391 6.5484376,5.8218669 h 1.1038086 v -0.00103 h 2.3812508 v 0.00103 h 0.32246 V 5.0270834 H 7.8036582 v -0.79375 z M 9.9942223,7.2620893 7.9731569,12.553756 h 0.7198527 l 0.4976442,-1.380794 h 2.2169192 l 0.505396,1.380794 h 0.715718 L 10.604521,7.2620893 Z m 0.3048917,0.861446 0.901753,2.4747847 H 9.4014934 Z" />
</svg>
