<?xml version="1.0" encoding="UTF-8" standalone="no"?>
<!-- Created with Inkscape (http://www.inkscape.org/) -->

<svg
   width="64"
   height="64"
   viewBox="0 0 16.933333 16.933334"
   version="1.1"
   id="svg5"
   inkscape:version="1.1.1 (3bf5ae0d25, 2021-09-20, custom)"
   sodipodi:docname="preferences-desktop-user-password.svg"
   xmlns:inkscape="http://www.inkscape.org/namespaces/inkscape"
   xmlns:sodipodi="http://sodipodi.sourceforge.net/DTD/sodipodi-0.dtd"
   xmlns="http://www.w3.org/2000/svg"
   xmlns:svg="http://www.w3.org/2000/svg">
  <sodipodi:namedview
     id="namedview7"
     pagecolor="#ffffff"
     bordercolor="#666666"
     borderopacity="1.0"
     inkscape:pageshadow="2"
     inkscape:pageopacity="0.0"
     inkscape:pagecheckerboard="0"
     inkscape:document-units="px"
     showgrid="false"
     units="px"
     height="64px"
     inkscape:zoom="5.6568542"
     inkscape:cx="23.157747"
     inkscape:cy="31.02431"
     inkscape:window-width="1920"
     inkscape:window-height="996"
     inkscape:window-x="0"
     inkscape:window-y="0"
     inkscape:window-maximized="1"
     inkscape:current-layer="svg5"
     showguides="false" />
  <defs
     id="defs2" />
  <circle
     style="fill:#2e7d32;fill-opacity:1;stroke-width:0.566797;stroke-linecap:round;stroke-linejoin:round;stroke-dasharray:6.80157, 0.566797"
     id="path890"
     cx="8.4666662"
     cy="8.4666662"
     r="7.4083333" />
  <path
     id="rect1920"
     style="fill:#ffffff;fill-opacity:1;stroke-width:2.77746;stroke-linecap:round;stroke-linejoin:round"
     d="M 32 12 C 27.029438 12 23 16.029438 23 21 L 23 25 L 21 25 C 19.338 25 18 26.338 18 28 L 18 46 C 18 47.662 19.338 49 21 49 L 43 49 C 44.662 49 46 47.662 46 46 L 46 28 C 46 26.338 44.662 25 43 25 L 41 25 L 41 21 C 41 16.029437 36.970563 11.999998 32 12 z M 32 15 C 35.313709 14.999998 38 17.686291 38 21 L 38 25 L 26 25 L 26 21 C 26 17.686292 28.686292 15 32 15 z M 21 28 L 43 28 L 43 46 L 21 46 L 21 28 z M 32 33 A 4.0000002 4.0000002 0 0 0 28 37 A 4.0000002 4.0000002 0 0 0 32 41 A 4.0000002 4.0000002 0 0 0 36 37 A 4.0000002 4.0000002 0 0 0 32 33 z "
     transform="scale(0.26458334)" />
</svg>
