<?xml version="1.0" encoding="UTF-8" standalone="no"?>
<!-- Created with Inkscape (http://www.inkscape.org/) -->

<svg
   width="64"
   height="64"
   viewBox="0 0 16.933333 16.933334"
   version="1.1"
   id="svg5"
   inkscape:version="1.1.1 (3bf5ae0d25, 2021-09-20, custom)"
   sodipodi:docname="preferences-system-login.svg"
   xmlns:inkscape="http://www.inkscape.org/namespaces/inkscape"
   xmlns:sodipodi="http://sodipodi.sourceforge.net/DTD/sodipodi-0.dtd"
   xmlns="http://www.w3.org/2000/svg"
   xmlns:svg="http://www.w3.org/2000/svg">
  <sodipodi:namedview
     id="namedview7"
     pagecolor="#ffffff"
     bordercolor="#666666"
     borderopacity="1.0"
     inkscape:pageshadow="2"
     inkscape:pageopacity="0.0"
     inkscape:pagecheckerboard="0"
     inkscape:document-units="px"
     showgrid="false"
     units="px"
     height="64px"
     inkscape:zoom="16"
     inkscape:cx="21.5625"
     inkscape:cy="40.8125"
     inkscape:window-width="1920"
     inkscape:window-height="1002"
     inkscape:window-x="0"
     inkscape:window-y="0"
     inkscape:window-maximized="1"
     inkscape:current-layer="svg5" />
  <defs
     id="defs2" />
  <circle
     style="fill:#2196f3;stroke-width:0.529167;stroke-linecap:round;stroke-linejoin:round;fill-opacity:1"
     id="path1168"
     cx="8.4666662"
     cy="8.4666662"
     r="7.4083333" />
  <path
     id="rect1220"
     style="fill:#ffffff;fill-opacity:1;stroke-width:0.529167;stroke-linecap:round;stroke-linejoin:round"
     d="m 4.2333334,4.7625 c -0.2931583,0 -0.5291667,0.2360084 -0.5291667,0.5291667 v 6.3500003 c 0,0.293158 0.2360084,0.529166 0.5291667,0.529166 H 12.7 c 0.293158,0 0.529167,-0.236008 0.529167,-0.529166 V 5.2916667 C 13.229167,4.9985084 12.993158,4.7625 12.7,4.7625 Z M 4.4979168,5.5562501 H 12.435417 V 11.377083 H 4.4979168 Z"
     sodipodi:nodetypes="sssssssssccccc" />
  <rect
     style="fill:#ffffff;stroke-width:0.529167;stroke-linecap:round;stroke-linejoin:round"
     id="rect1130"
     width="5.8208332"
     height="0.79374999"
     x="5.5562501"
     y="9.5249996" />
  <path
     id="path1234"
     style="fill:#ffffff;stroke-width:2;stroke-linecap:round;stroke-linejoin:round"
     d="M 32 24 A 2.0000001 2.0000001 0 0 0 30 26 A 2.0000001 2.0000001 0 0 0 32 28 A 2.0000001 2.0000001 0 0 0 34 26 A 2.0000001 2.0000001 0 0 0 32 24 z M 32 29 A 4.0000003 4.0000003 0 0 0 28.128906 32 L 35.871094 32 A 4.0000003 4.0000003 0 0 0 32 29 z "
     transform="scale(0.26458334)" />
</svg>
