<?xml version="1.0" encoding="UTF-8" standalone="no"?>
<svg
   width="64"
   height="64"
   enable-background="new"
   version="1.0"
   id="svg28"
   sodipodi:docname="input-keyboard.svg"
   inkscape:version="1.1.1 (3bf5ae0d25, 2021-09-20, custom)"
   xmlns:inkscape="http://www.inkscape.org/namespaces/inkscape"
   xmlns:sodipodi="http://sodipodi.sourceforge.net/DTD/sodipodi-0.dtd"
   xmlns="http://www.w3.org/2000/svg"
   xmlns:svg="http://www.w3.org/2000/svg">
  <sodipodi:namedview
     id="namedview30"
     pagecolor="#ffffff"
     bordercolor="#666666"
     borderopacity="1.0"
     inkscape:pageshadow="2"
     inkscape:pageopacity="0.0"
     inkscape:pagecheckerboard="true"
     showgrid="false"
     inkscape:zoom="4.3199805"
     inkscape:cx="33.333484"
     inkscape:cy="25.231595"
     inkscape:window-width="1920"
     inkscape:window-height="1002"
     inkscape:window-x="0"
     inkscape:window-y="0"
     inkscape:window-maximized="1"
     inkscape:current-layer="svg28" />
  <defs
     id="defs8">
    <filter
       id="b"
       x="-0.032928571"
       y="-0.032928571"
       width="1.0658571"
       height="1.0658571"
       color-interpolation-filters="sRGB">
      <feGaussianBlur
         stdDeviation="4.48"
         id="feGaussianBlur2" />
    </filter>
    <filter
       id="a"
       x="-0.024"
       y="-0.024"
       width="1.048"
       height="1.048"
       color-interpolation-filters="sRGB">
      <feGaussianBlur
         stdDeviation="4.48"
         id="feGaussianBlur5" />
    </filter>
  </defs>
  <circle
     style="fill:#26a69a;fill-opacity:1;stroke-width:1.41633;stroke-linecap:round;stroke-linejoin:round;stroke-dasharray:16.996, 1.41633"
     id="path848"
     cx="32"
     cy="32"
     r="28" />
  <path
     id="path956"
     style="fill:#ffffff;fill-opacity:1;stroke-width:2;stroke-linecap:round;stroke-linejoin:round"
     d="M 18 23 A 2 2 0 0 0 16 25 A 2 2 0 0 0 18 27 A 2 2 0 0 0 20 25 A 2 2 0 0 0 18 23 z M 25 23 A 2 2 0 0 0 23 25 A 2 2 0 0 0 25 27 A 2 2 0 0 0 27 25 A 2 2 0 0 0 25 23 z M 32 23 A 2 2 0 0 0 30 25 A 2 2 0 0 0 32 27 A 2 2 0 0 0 34 25 A 2 2 0 0 0 32 23 z M 39 23 A 2 2 0 0 0 37 25 A 2 2 0 0 0 39 27 A 2 2 0 0 0 41 25 A 2 2 0 0 0 39 23 z M 46 23 A 2 2 0 0 0 44 25 A 2 2 0 0 0 46 27 A 2 2 0 0 0 48 25 A 2 2 0 0 0 46 23 z M 18 30 A 2 2 0 0 0 16 32 A 2 2 0 0 0 18 34 A 2 2 0 0 0 20 32 A 2 2 0 0 0 18 30 z M 25 30 A 2 2 0 0 0 23 32 A 2 2 0 0 0 25 34 A 2 2 0 0 0 27 32 A 2 2 0 0 0 25 30 z M 32 30 A 2 2 0 0 0 30 32 A 2 2 0 0 0 32 34 A 2 2 0 0 0 34 32 A 2 2 0 0 0 32 30 z M 39 30 A 2 2 0 0 0 37 32 A 2 2 0 0 0 39 34 A 2 2 0 0 0 41 32 A 2 2 0 0 0 39 30 z M 46 30 A 2 2 0 0 0 44 32 A 2 2 0 0 0 46 34 A 2 2 0 0 0 48 32 A 2 2 0 0 0 46 30 z M 22 37 C 20.892 37 20 37.892 20 39 C 20 40.108 20.892 41 22 41 L 42 41 C 43.108 41 44 40.108 44 39 C 44 37.892 43.108 37 42 37 L 22 37 z " />
</svg>
