<?xml version="1.0" encoding="UTF-8" standalone="no"?>
<!-- Created with Inkscape (http://www.inkscape.org/) -->

<svg
   width="64"
   height="64"
   viewBox="0 0 16.933333 16.933334"
   version="1.1"
   id="svg828"
   sodipodi:docname="cs-general.svg"
   inkscape:version="1.1.1 (3bf5ae0d25, 2021-09-20, custom)"
   xmlns:inkscape="http://www.inkscape.org/namespaces/inkscape"
   xmlns:sodipodi="http://sodipodi.sourceforge.net/DTD/sodipodi-0.dtd"
   xmlns="http://www.w3.org/2000/svg"
   xmlns:svg="http://www.w3.org/2000/svg">
  <sodipodi:namedview
     id="namedview830"
     pagecolor="#ffffff"
     bordercolor="#666666"
     borderopacity="1.0"
     inkscape:pageshadow="2"
     inkscape:pageopacity="0.0"
     inkscape:pagecheckerboard="0"
     inkscape:document-units="px"
     showgrid="false"
     units="px"
     height="64px"
     inkscape:zoom="1"
     inkscape:cx="-61"
     inkscape:cy="32"
     inkscape:window-width="1920"
     inkscape:window-height="1002"
     inkscape:window-x="0"
     inkscape:window-y="0"
     inkscape:window-maximized="1"
     inkscape:current-layer="svg828" />
  <defs
     id="defs825" />
  <circle
     style="fill:#a4a4a4;fill-opacity:1;stroke-width:0.576115;stroke-linecap:round;stroke-linejoin:round;stroke-dasharray:6.91338, 0.576115"
     id="path911"
     cx="8.4666662"
     cy="8.4666672"
     r="7.4083333" />
  <path
     id="path1087"
     style="fill:#ffffff;fill-opacity:1;stroke-width:2.10979;stroke-linecap:round;stroke-linejoin:round;stroke-dasharray:25.3175, 2.10979"
     d="M 29.425781 14 C 29.024792 14.000693 28.679051 14.280494 28.591797 14.671875 L 27.494141 19.054688 C 25.860859 19.623865 24.349784 20.49811 23.041016 21.628906 L 18.695312 20.384766 C 18.31274 20.264639 17.89836 20.426519 17.697266 20.773438 L 15.125 25.228516 C 14.925105 25.57613 14.991788 26.013904 15.287109 26.285156 L 18.539062 29.427734 C 18.374071 30.274972 18.288308 31.136852 18.285156 32 C 18.288307 32.863148 18.374071 33.723075 18.539062 34.570312 L 15.287109 37.714844 C 14.99177 37.9861 14.925093 38.42387 15.125 38.771484 L 17.697266 43.226562 C 17.898363 43.573487 18.312746 43.735386 18.695312 43.615234 L 23.041016 42.371094 C 24.349921 43.501297 25.860987 44.374684 27.494141 44.943359 L 28.591797 49.328125 C 28.679051 49.719506 29.024791 49.999305 29.425781 50 L 34.570312 50 C 34.971305 49.999305 35.318998 49.719537 35.40625 49.328125 L 36.501953 44.943359 C 38.135107 44.374684 39.646171 43.501297 40.955078 42.371094 L 45.302734 43.615234 C 45.685306 43.735386 46.099684 43.573518 46.300781 43.226562 L 48.873047 38.771484 C 49.072946 38.423881 49.004354 37.98611 48.708984 37.714844 L 45.460938 34.572266 C 45.626027 33.724479 45.709829 32.863708 45.712891 32 C 45.712361 31.134826 45.629959 30.271523 45.466797 29.421875 L 48.708984 26.285156 C 49.004317 26.013903 49.072946 25.576127 48.873047 25.228516 L 46.300781 20.773438 C 46.099688 20.426517 45.685313 20.26464 45.302734 20.384766 L 40.966797 21.625 C 39.654088 20.490178 38.139125 19.614397 36.5 19.044922 L 35.40625 14.671875 C 35.318997 14.280494 34.971303 14.000693 34.570312 14 L 29.425781 14 z M 30.5 17 L 33.5 17 L 34.654297 21.326172 A 11 11 0 0 1 39.917969 24.365234 L 44.240234 23.201172 L 45.740234 25.798828 L 42.572266 28.960938 A 11 11 0 0 1 43 32 A 11 11 0 0 1 42.542969 35.011719 L 45.740234 38.201172 L 44.240234 40.798828 L 39.876953 39.625 A 11 11 0 0 1 34.654297 42.669922 L 33.5 47 L 30.5 47 L 29.345703 42.669922 A 11 11 0 0 1 24.087891 39.634766 L 19.759766 40.798828 L 18.259766 38.201172 L 21.433594 35.035156 A 11 11 0 0 1 21 32 A 11 11 0 0 1 21.457031 28.988281 L 18.259766 25.798828 L 19.759766 23.201172 L 24.123047 24.375 A 11 11 0 0 1 29.345703 21.330078 L 30.5 17 z M 32 26 A 5.9999999 5.9999999 0 0 0 26 32 A 5.9999999 5.9999999 0 0 0 32 38 A 5.9999999 5.9999999 0 0 0 38 32 A 5.9999999 5.9999999 0 0 0 32 26 z "
     transform="scale(0.26458334)" />
</svg>
