<?xml version="1.0" encoding="UTF-8" standalone="no"?>
<svg
   width="64"
   height="64"
   enable-background="new"
   version="1.0"
   id="svg47"
   sodipodi:docname="preferences-desktop-display.svg"
   inkscape:version="1.1.1 (3bf5ae0d25, 2021-09-20, custom)"
   xmlns:inkscape="http://www.inkscape.org/namespaces/inkscape"
   xmlns:sodipodi="http://sodipodi.sourceforge.net/DTD/sodipodi-0.dtd"
   xmlns="http://www.w3.org/2000/svg"
   xmlns:svg="http://www.w3.org/2000/svg">
  <sodipodi:namedview
     id="namedview49"
     pagecolor="#ffffff"
     bordercolor="#666666"
     borderopacity="1.0"
     inkscape:pageshadow="2"
     inkscape:pageopacity="0.0"
     inkscape:pagecheckerboard="0"
     showgrid="false"
     inkscape:zoom="11.313708"
     inkscape:cx="35.620504"
     inkscape:cy="39.288621"
     inkscape:window-width="1920"
     inkscape:window-height="1019"
     inkscape:window-x="0"
     inkscape:window-y="0"
     inkscape:window-maximized="1"
     inkscape:current-layer="svg47" />
  <defs
     id="defs5">
    <filter
       id="a"
       x="-0.032333333"
       y="-0.032333333"
       width="1.0646667"
       height="1.0646667"
       color-interpolation-filters="sRGB">
      <feGaussianBlur
         stdDeviation="4.8"
         id="feGaussianBlur2" />
    </filter>
  </defs>
  <circle
     cx="32"
     cy="32"
     r="28"
     enable-background="new"
     id="circle37"
     style="stroke-width:0.116666;fill:#ffa42f;fill-opacity:1" />
  <path
     id="rect1701"
     style="opacity:1;fill:#ffffff;fill-opacity:1;stroke-width:2.15384;stroke-linecap:round;stroke-linejoin:round"
     d="M 32 12.201172 L 26.201172 18 L 18 18 L 18 26.201172 L 12.201172 32 L 18 37.798828 L 18 46 L 26.201172 46 L 32 51.798828 L 37.798828 46 L 46 46 L 46 37.798828 L 51.798828 32 L 46 26.201172 L 46 18 L 37.798828 18 L 32 12.201172 z M 32 16.443359 L 36.556641 21 L 43 21 L 43 27.443359 L 47.556641 32 L 43 36.556641 L 43 43 L 36.556641 43 L 32 47.556641 L 27.443359 43 L 21 43 L 21 36.556641 L 16.443359 32 L 21 27.443359 L 21 21 L 27.443359 21 L 32 16.443359 z M 32 22 L 32 42 C 37.522848 42 42 37.522848 42 32 C 42 26.477152 37.522848 22 32 22 z " />
</svg>
