<?xml version="1.0" encoding="UTF-8" standalone="no"?>
<svg
   width="64"
   height="64"
   enable-background="new"
   version="1.0"
   id="svg28"
   sodipodi:docname="preferences-devices-printer.svg"
   inkscape:version="1.1.1 (3bf5ae0d25, 2021-09-20, custom)"
   xmlns:inkscape="http://www.inkscape.org/namespaces/inkscape"
   xmlns:sodipodi="http://sodipodi.sourceforge.net/DTD/sodipodi-0.dtd"
   xmlns="http://www.w3.org/2000/svg"
   xmlns:svg="http://www.w3.org/2000/svg">
  <sodipodi:namedview
     id="namedview30"
     pagecolor="#ffffff"
     bordercolor="#666666"
     borderopacity="1.0"
     inkscape:pageshadow="2"
     inkscape:pageopacity="0.0"
     inkscape:pagecheckerboard="true"
     showgrid="false"
     inkscape:zoom="4.270262"
     inkscape:cx="54.563396"
     inkscape:cy="54.914663"
     inkscape:window-width="1920"
     inkscape:window-height="996"
     inkscape:window-x="0"
     inkscape:window-y="0"
     inkscape:window-maximized="1"
     inkscape:current-layer="svg28" />
  <defs
     id="defs8">
    <filter
       id="b"
       x="-0.032928571"
       y="-0.032928571"
       width="1.0658571"
       height="1.0658571"
       color-interpolation-filters="sRGB">
      <feGaussianBlur
         stdDeviation="4.48"
         id="feGaussianBlur2" />
    </filter>
    <filter
       id="a"
       x="-0.024"
       y="-0.024"
       width="1.048"
       height="1.048"
       color-interpolation-filters="sRGB">
      <feGaussianBlur
         stdDeviation="4.48"
         id="feGaussianBlur5" />
    </filter>
  </defs>
  <circle
     style="fill:#00bcd4;fill-opacity:1;stroke-width:1.41633;stroke-linecap:round;stroke-linejoin:round;stroke-dasharray:16.996, 1.41633"
     id="path848"
     cx="32"
     cy="32"
     r="28" />
  <path
     id="rect848"
     style="fill:#ffffff;stroke-width:2;stroke-linecap:round;stroke-linejoin:round"
     d="M 22 17 L 22 25 L 20 25 C 17.784 25 16 26.784 16 29 L 16 41 L 22 41 L 22 47 L 42 47 L 42 41 L 48 41 L 48 29 C 48 26.784 46.215997 25 44 25 L 42 25 L 42 17 L 22 17 z M 25 20 L 39 20 L 39 25 L 25 25 L 25 20 z M 19 28 L 45 28 L 45 38 L 42 38 L 42 35 L 22 35 L 22 38 L 19 38 L 19 28 z M 41.5 30 C 40.671573 30 40 30.671573 40 31.5 C 40 32.328427 40.671573 33 41.5 33 C 42.328427 33 43 32.328427 43 31.5 C 43 30.671573 42.328427 30 41.5 30 z M 25 38 L 39 38 L 39 44 L 25 44 L 25 38 z " />
</svg>
