<?xml version="1.0" encoding="UTF-8" standalone="no"?>
<svg
   width="64"
   height="64"
   enable-background="new"
   version="1.0"
   id="svg28"
   sodipodi:docname="preferences-system-network.svg"
   inkscape:version="1.1.1 (3bf5ae0d25, 2021-09-20, custom)"
   xmlns:inkscape="http://www.inkscape.org/namespaces/inkscape"
   xmlns:sodipodi="http://sodipodi.sourceforge.net/DTD/sodipodi-0.dtd"
   xmlns="http://www.w3.org/2000/svg"
   xmlns:svg="http://www.w3.org/2000/svg">
  <sodipodi:namedview
     id="namedview30"
     pagecolor="#ffffff"
     bordercolor="#666666"
     borderopacity="1.0"
     inkscape:pageshadow="2"
     inkscape:pageopacity="0.0"
     inkscape:pagecheckerboard="0"
     showgrid="false"
     inkscape:zoom="1"
     inkscape:cx="42"
     inkscape:cy="28.5"
     inkscape:window-width="1920"
     inkscape:window-height="1012"
     inkscape:window-x="0"
     inkscape:window-y="0"
     inkscape:window-maximized="1"
     inkscape:current-layer="svg28" />
  <defs
     id="defs8">
    <filter
       id="b"
       x="-0.032928571"
       y="-0.032928571"
       width="1.0658571"
       height="1.0658571"
       color-interpolation-filters="sRGB">
      <feGaussianBlur
         stdDeviation="4.48"
         id="feGaussianBlur2" />
    </filter>
    <filter
       id="a"
       x="-0.024"
       y="-0.024"
       width="1.048"
       height="1.048"
       color-interpolation-filters="sRGB">
      <feGaussianBlur
         stdDeviation="4.48"
         id="feGaussianBlur5" />
    </filter>
  </defs>
  <circle
     style="fill:#3f51b5;fill-opacity:1;stroke-width:1.41633;stroke-linecap:round;stroke-linejoin:round;stroke-dasharray:16.996, 1.41633"
     id="path848"
     cx="32"
     cy="32"
     r="28" />
  <path
     id="path850"
     style="opacity:1;fill:#ffffff;stroke-width:2.25;stroke-linecap:round;stroke-linejoin:round"
     d="M 32 14 A 18 18 0 0 0 14 32 A 18 18 0 0 0 32 50 A 18 18 0 0 0 50 32 A 18 18 0 0 0 32 14 z M 37.869141 18.201172 A 15 15 0 0 1 47 32 A 15 15 0 0 1 41.927734 43.185547 C 41.539902 40.806921 39.491612 39 37 39 L 36.957031 39 L 37 34 C 37 32.892 36.108 32 35 32 L 25 32 L 25 29 L 29 29 C 30.108 29 31 28.108 31 27 L 31 23 L 32 23 C 34.91093 23 37.315079 20.943911 37.869141 18.201172 z M 17.275391 29.275391 L 26.244141 38.244141 C 26.086292 38.644205 26.003529 39.069936 26 39.5 C 25.999631 41.24013 27.277717 42.716254 29 42.964844 L 29 44 L 29 46.658203 A 15 15 0 0 1 17 32 A 15 15 0 0 1 17.275391 29.275391 z " />
</svg>
