<?xml version="1.0" encoding="UTF-8" standalone="no"?>
<!-- Created with Inkscape (http://www.inkscape.org/) -->

<svg
   width="22"
   height="22"
   viewBox="0 0 5.8208332 5.8208335"
   version="1.1"
   id="svg5"
   inkscape:version="1.1.1 (3bf5ae0d25, 2021-09-20, custom)"
   sodipodi:docname="preferences-desktop-display.svg"
   xmlns:inkscape="http://www.inkscape.org/namespaces/inkscape"
   xmlns:sodipodi="http://sodipodi.sourceforge.net/DTD/sodipodi-0.dtd"
   xmlns="http://www.w3.org/2000/svg"
   xmlns:svg="http://www.w3.org/2000/svg">
  <sodipodi:namedview
     id="namedview7"
     pagecolor="#ffffff"
     bordercolor="#666666"
     borderopacity="1.0"
     inkscape:pageshadow="2"
     inkscape:pageopacity="0.0"
     inkscape:pagecheckerboard="0"
     inkscape:document-units="px"
     showgrid="false"
     units="px"
     height="24px"
     inkscape:zoom="16"
     inkscape:cx="12.875"
     inkscape:cy="18.03125"
     inkscape:window-width="1920"
     inkscape:window-height="1019"
     inkscape:window-x="0"
     inkscape:window-y="0"
     inkscape:window-maximized="1"
     inkscape:current-layer="svg5" />
  <defs
     id="defs2" />
  <path
     id="rect952"
     style="fill:#555555;stroke-width:2;stroke-linecap:round;stroke-linejoin:round"
     d="M 11 2.515625 L 8.515625 5 L 5 5 L 5 8.515625 L 2.515625 11 L 5 13.484375 L 5 17 L 8.515625 17 L 11 19.484375 L 13.484375 17 L 17 17 L 17 13.484375 L 19.484375 11 L 17 8.515625 L 17 5 L 13.484375 5 L 11 2.515625 z M 11 5.34375 L 12.65625 7 L 15 7 L 15 9.34375 L 16.65625 11 L 15 12.65625 L 15 15 L 12.65625 15 L 11 16.65625 L 9.34375 15 L 7 15 L 7 12.65625 L 5.34375 11 L 7 9.34375 L 7 7 L 9.34375 7 L 11 5.34375 z M 11 8 A 2.9999999 2.9999999 0 0 0 8 11 A 2.9999999 2.9999999 0 0 0 11 14 A 2.9999999 2.9999999 0 0 0 14 11 A 2.9999999 2.9999999 0 0 0 11 8 z "
     transform="scale(0.26458333)" />
</svg>
