<?xml version="1.0" encoding="UTF-8" standalone="no"?>
<svg
   width="16"
   height="16"
   version="1.1"
   id="svg6"
   sodipodi:docname="edit-delete-symbolic.svg"
   inkscape:version="1.1.1 (3bf5ae0d25, 2021-09-20)"
   xmlns:inkscape="http://www.inkscape.org/namespaces/inkscape"
   xmlns:sodipodi="http://sodipodi.sourceforge.net/DTD/sodipodi-0.dtd"
   xmlns="http://www.w3.org/2000/svg"
   xmlns:svg="http://www.w3.org/2000/svg">
  <defs
     id="defs10" />
  <sodipodi:namedview
     id="namedview8"
     pagecolor="#ffffff"
     bordercolor="#666666"
     borderopacity="1.0"
     inkscape:pageshadow="2"
     inkscape:pageopacity="0.0"
     inkscape:pagecheckerboard="0"
     showgrid="false"
     inkscape:zoom="6.4453125"
     inkscape:cx="-35.607273"
     inkscape:cy="0.69818182"
     inkscape:window-width="1853"
     inkscape:window-height="1012"
     inkscape:window-x="67"
     inkscape:window-y="32"
     inkscape:window-maximized="1"
     inkscape:current-layer="svg6" />
  <path
     id="path2"
     style="fill:#dfdfdf"
     d="M 2 5 L 2 14 C 2 14.52 2.48 15 3 15 L 12 15 C 12.52 15 13 14.52 13 14 L 13 5 L 2 5 z M 3.5 6.5 L 11.5 6.5 L 11.5 13.5 L 3.5 13.5 L 3.5 6.5 z " />
  <path
     style="fill:#dfdfdf"
     d="M 1,3 V 4 H 14 V 3 C 14,2 13,2 13,2 H 10 C 10,2 10,1 9,1 H 6 C 5,1 5,2 5,2 H 2 C 2,2 1,2 1,3 Z"
     id="path4" />
</svg>
