<?xml version="1.0" encoding="UTF-8" standalone="no"?>
<svg
   width="64"
   height="64"
   version="1"
   id="svg14"
   sodipodi:docname="folder-music.svg"
   inkscape:version="1.1.1 (3bf5ae0d25, 2021-09-20, custom)"
   xmlns:inkscape="http://www.inkscape.org/namespaces/inkscape"
   xmlns:sodipodi="http://sodipodi.sourceforge.net/DTD/sodipodi-0.dtd"
   xmlns="http://www.w3.org/2000/svg"
   xmlns:svg="http://www.w3.org/2000/svg">
  <defs
     id="defs18">
  </defs>
  <sodipodi:namedview
     id="namedview16"
     pagecolor="#ffffff"
     bordercolor="#666666"
     borderopacity="1.0"
     inkscape:pageshadow="2"
     inkscape:pageopacity="0.0"
     inkscape:pagecheckerboard="0"
     showgrid="false"
     inkscape:zoom="3.945"
     inkscape:cx="52.978454"
     inkscape:cy="57.667934"
     inkscape:window-width="1920"
     inkscape:window-height="1019"
     inkscape:window-x="0"
     inkscape:window-y="0"
     inkscape:window-maximized="1"
     inkscape:current-layer="svg14" />
  <path
     style="fill:#c25e00;fill-opacity:1"
     d="M 4,46.2 C 4,47.751 5.2488,49 6.8,49 H 57.2 C 58.751,49 60,47.751 60,46.2 V 15.8 C 60,14.249 58.751,13 57.2,13 H 32 C 27.8,13 26.4,7 22.2,7 H 6.8 C 5.2488,7 4,8.2488 4,9.8"
     id="path4" />
  <rect
     style="opacity:0.2"
     width="56"
     height="36"
     x="4"
     y="20"
     rx="2.8"
     ry="2.8"
     id="rect6" />
  <rect
     style="fill:#fb8c00;fill-opacity:1"
     width="56"
     height="36"
     x="4"
     y="21"
     rx="2.8"
     ry="2.8"
     id="rect10" />
  <path
     id="rect847"
     style="fill:#ffffff;stroke-width:2;stroke-linecap:round;stroke-linejoin:round"
     d="M 45 36 C 43.892 36 43 36.873198 43 38 L 43 46.337891 C 42.531227 46.115468 42.018865 46.000053 41.5 46 C 39.567003 46 38 47.567003 38 49.5 C 38 51.432997 39.567003 53 41.5 53 C 43.432997 53 45 51.432997 45 49.5 L 45 38 L 53 38 L 53 46.337891 C 52.531227 46.115468 52.018865 46.000053 51.5 46 C 49.567003 46 48 47.567003 48 49.5 C 48 51.432997 49.567003 53 51.5 53 C 53.432997 53 55 51.432997 55 49.5 L 55 38 C 55 36.892 54.108 36 53 36 L 45 36 z M 41.5 48 A 1.5 1.5 0 0 1 43 49.5 A 1.5 1.5 0 0 1 41.5 51 A 1.5 1.5 0 0 1 40 49.5 A 1.5 1.5 0 0 1 41.5 48 z M 51.5 48 A 1.5 1.5 0 0 1 53 49.5 A 1.5 1.5 0 0 1 51.5 51 A 1.5 1.5 0 0 1 50 49.5 A 1.5 1.5 0 0 1 51.5 48 z " />
</svg>
