<?xml version="1.0" encoding="UTF-8" standalone="no"?>
<svg
   width="64"
   height="64"
   version="1"
   id="svg14"
   sodipodi:docname="folder-publicshare.svg"
   inkscape:version="1.1.1 (3bf5ae0d25, 2021-09-20, custom)"
   xmlns:inkscape="http://www.inkscape.org/namespaces/inkscape"
   xmlns:sodipodi="http://sodipodi.sourceforge.net/DTD/sodipodi-0.dtd"
   xmlns="http://www.w3.org/2000/svg"
   xmlns:svg="http://www.w3.org/2000/svg">
  <defs
     id="defs18" />
  <sodipodi:namedview
     id="namedview16"
     pagecolor="#ffffff"
     bordercolor="#666666"
     borderopacity="1.0"
     inkscape:pageshadow="2"
     inkscape:pageopacity="0.0"
     inkscape:pagecheckerboard="0"
     showgrid="false"
     inkscape:zoom="11.046875"
     inkscape:cx="31.954738"
     inkscape:cy="32"
     inkscape:window-width="1920"
     inkscape:window-height="1019"
     inkscape:window-x="0"
     inkscape:window-y="0"
     inkscape:window-maximized="1"
     inkscape:current-layer="svg14" />
  <path
     style="fill:#a00037;fill-opacity:1"
     d="M 4,46.2 C 4,47.751 5.2488,49 6.8,49 H 57.2 C 58.751,49 60,47.751 60,46.2 V 15.8 C 60,14.249 58.751,13 57.2,13 H 32 C 27.8,13 26.4,7 22.2,7 H 6.8 C 5.2488,7 4,8.2488 4,9.8"
     id="path4" />
  <rect
     style="opacity:0.2"
     width="56"
     height="36"
     x="4"
     y="20"
     rx="2.8"
     ry="2.8"
     id="rect6" />
  <rect
     style="fill:#d81b60;fill-opacity:1"
     width="56"
     height="36"
     x="4"
     y="21"
     rx="2.8"
     ry="2.8"
     id="rect10" />
  <path
     id="path5"
     d="m 46,39 c -1.6569,0 -3,1.3432 -3,3 0,1.6568 1.3431,3 3,3 1.6569,0 3,-1.3432 3,-3 0,-1.6568 -1.3431,-3 -3,-3 z m 4.996094,1.945313 0.0039,0.0039 c -0.38828,0 -0.753274,0.0893 -1.083984,0.238281 0.0546,0.26205 0.08398,0.533087 0.08398,0.810547 0,1.1021 -0.454204,2.104178 -1.183594,2.830078 0.46,0.7 1.259688,1.169922 2.179688,1.169922 1.4327,0 2.59375,-1.130291 2.59375,-2.525391 0,-1.3951 -1.16095,-2.527343 -2.59375,-2.527343 z M 46,46.996094 C 39.9998,46.999494 40,51 40,51 v 1 h 12 v -1 c 0,0 0,-4.01 -6,-4 z m 5,0.002 v 0.0019 c -0.1961,0 -0.371714,0.01258 -0.552734,0.02148 0.69756,0.39966 1.229115,0.877023 1.603515,1.376954 0.94,1.26 0.949219,2.599609 0.949219,2.599609 h 3 v -1 c 0,0 0,-3 -5,-3 z"
     style="color:#727272;fill:#ffffff" />
</svg>
