<?xml version="1.0" encoding="UTF-8" standalone="no"?>
<svg
   width="16"
   height="16"
   version="1.1"
   id="svg4"
   sodipodi:docname="input-mouse-symbolic.svg"
   inkscape:version="1.1.1 (3bf5ae0d25, 2021-09-20)"
   xmlns:inkscape="http://www.inkscape.org/namespaces/inkscape"
   xmlns:sodipodi="http://sodipodi.sourceforge.net/DTD/sodipodi-0.dtd"
   xmlns="http://www.w3.org/2000/svg"
   xmlns:svg="http://www.w3.org/2000/svg">
  <defs
     id="defs8" />
  <sodipodi:namedview
     id="namedview6"
     pagecolor="#ffffff"
     bordercolor="#666666"
     borderopacity="1.0"
     inkscape:pageshadow="2"
     inkscape:pageopacity="0.0"
     inkscape:pagecheckerboard="0"
     showgrid="false"
     inkscape:zoom="18.230097"
     inkscape:cx="2.1667466"
     inkscape:cy="9.0235396"
     inkscape:window-width="1853"
     inkscape:window-height="1012"
     inkscape:window-x="67"
     inkscape:window-y="32"
     inkscape:window-maximized="1"
     inkscape:current-layer="svg4" />
  <path
     id="path2"
     style="fill:#dfdfdf"
     d="M 8 0 C 5.23 0 3 2.45 3 5.5 L 3 10.5 C 3 13.55 5.23 16 8 16 C 10.77 16 13 13.55 13 10.5 L 13 5.5 C 13 2.45 10.77 0 8 0 z M 7.7753906 1.5332031 C 9.4143257 1.459466 11.128532 2.5825011 11.5 5.125 L 11.5 11.162109 C 11.405794 14.989289 5.4050742 16.300908 4.5 11.162109 L 4.5 5.125 C 4.572791 2.8774497 6.1364555 1.6069403 7.7753906 1.5332031 z M 7.25 3 L 7.25 7 L 8.75 7 L 8.75 3 L 7.25 3 z " />
</svg>
