<?xml version="1.0" encoding="UTF-8" standalone="no"?>
<svg
   inkscape:version="1.1.1 (3bf5ae0d25, 2021-09-20, custom)"
   sodipodi:docname="1password.svg"
   id="svg18"
   version="1.1"
   height="64"
   width="64"
   xmlns:inkscape="http://www.inkscape.org/namespaces/inkscape"
   xmlns:sodipodi="http://sodipodi.sourceforge.net/DTD/sodipodi-0.dtd"
   xmlns:xlink="http://www.w3.org/1999/xlink"
   xmlns="http://www.w3.org/2000/svg"
   xmlns:svg="http://www.w3.org/2000/svg"
   xmlns:rdf="http://www.w3.org/1999/02/22-rdf-syntax-ns#"
   xmlns:cc="http://creativecommons.org/ns#"
   xmlns:dc="http://purl.org/dc/elements/1.1/">
  <metadata
     id="metadata24">
    <rdf:RDF>
      <cc:Work
         rdf:about="">
        <dc:format>image/svg+xml</dc:format>
        <dc:type
           rdf:resource="http://purl.org/dc/dcmitype/StillImage" />
      </cc:Work>
    </rdf:RDF>
  </metadata>
  <defs
     id="defs22">
    <linearGradient
       id="linearGradient1005"
       inkscape:collect="always">
      <stop
         id="stop1001"
         offset="0"
         style="stop-color:#515b63;stop-opacity:1" />
      <stop
         id="stop1003"
         offset="1"
         style="stop-color:#394045;stop-opacity:1" />
    </linearGradient>
    <linearGradient
       id="linearGradient861"
       inkscape:collect="always">
      <stop
         id="stop857"
         offset="0"
         style="stop-color:#0076e2;stop-opacity:1;" />
      <stop
         id="stop859"
         offset="1"
         style="stop-color:#22baff;stop-opacity:1" />
    </linearGradient>
    <linearGradient
       id="linearGradient853"
       inkscape:collect="always">
      <stop
         id="stop849"
         offset="0"
         style="stop-color:#000000;stop-opacity:1;" />
      <stop
         id="stop851"
         offset="1"
         style="stop-color:#000000;stop-opacity:0;" />
    </linearGradient>
    <linearGradient
       gradientUnits="userSpaceOnUse"
       y2="20"
       x2="16"
       y1="12"
       x1="16"
       id="linearGradient855"
       xlink:href="#linearGradient853"
       inkscape:collect="always"
       gradientTransform="scale(2)" />
    <linearGradient
       gradientTransform="matrix(1.8571429,0,0,1.8571429,47.598052,110.77016)"
       gradientUnits="userSpaceOnUse"
       y2="-28.4147"
       x2="-8.3989506"
       y1="-56.4147"
       x1="-8.3989506"
       id="linearGradient949"
       xlink:href="#linearGradient861"
       inkscape:collect="always" />
    <radialGradient
       gradientUnits="userSpaceOnUse"
       gradientTransform="matrix(2,0,0,6,0,-64)"
       r="2"
       fy="16"
       fx="16"
       cy="16"
       cx="16"
       id="radialGradient1007"
       xlink:href="#linearGradient1005"
       inkscape:collect="always" />
  </defs>
  <sodipodi:namedview
     inkscape:current-layer="svg18"
     inkscape:window-maximized="1"
     inkscape:window-y="0"
     inkscape:window-x="0"
     inkscape:cy="64.251969"
     inkscape:cx="29.396326"
     inkscape:zoom="5.9531249"
     showgrid="false"
     id="namedview20"
     inkscape:window-height="1019"
     inkscape:window-width="1920"
     inkscape:pageshadow="2"
     inkscape:pageopacity="0"
     guidetolerance="10"
     gridtolerance="10"
     objecttolerance="10"
     borderopacity="1"
     bordercolor="#666666"
     pagecolor="#ffffff"
     inkscape:document-rotation="0"
     inkscape:pagecheckerboard="0" />
  <circle
     id="circle4-6-9"
     r="26"
     cy="32"
     cx="32"
     style="fill:url(#linearGradient949);fill-opacity:1;stroke-width:1.85714" />
  <path
     d="m 32,16 c -2.217036,0 -4.326494,0.44673 -6.242188,1.253906 -1.915694,0.807178 -3.640196,1.976134 -5.085938,3.421876 -1.44574,1.44574 -2.610792,3.170244 -3.417968,5.085938 C 16.44673,27.677414 16,29.782966 16,32 c 0,2.217036 0.44673,4.326494 1.253906,6.242188 0.807176,1.915694 1.972228,3.640196 3.417968,5.085938 1.445742,1.44574 3.170244,2.614698 5.085938,3.421874 C 27.673506,47.557178 29.782966,48 32,48 c 2.217036,0 4.326494,-0.442822 6.242188,-1.25 1.915694,-0.807176 3.63629,-1.976134 5.08203,-3.421874 1.445742,-1.445742 2.6147,-3.170244 3.421876,-5.085938 C 47.55327,36.326494 48,34.217036 48,32 48,29.782966 47.55327,27.677414 46.746094,25.76172 45.938918,23.846026 44.76996,22.121522 43.324218,20.675782 41.878478,19.23004 40.157882,18.061084 38.242188,17.253906 36.326494,16.44673 34.217034,16 32,16 Z"
     style="fill:#e4e4e4;stroke-width:2"
     id="circle4-6" />
  <circle
     id="circle6"
     r="8"
     cy="32"
     cx="32"
     style="opacity:0.2;fill:url(#linearGradient855);fill-opacity:1;stroke-width:2" />
  <path
     id="path10"
     d="M 29.333334,20 C 28.594666,20 28,20.594666 28,21.333334 v 5.403646 c 0,0 1.445312,1.27024 1.445312,2.127604 C 29.445312,29.721944 28,30.992188 28,30.992188 V 42.666666 C 28,43.405334 28.594666,44 29.333334,44 h 5.333332 C 35.405334,44 36,43.405334 36,42.666666 v -5.38281 l -0.0132,-0.0182 c 0,0 -1.507568,-1.32455 -1.507812,-2.21875 -1.68e-4,-0.894862 1.507888,-2.221296 1.507888,-2.221296 L 36,32.807292 V 21.333334 C 36,20.594666 35.405334,20 34.666666,20 Z"
     style="fill:url(#radialGradient1007);fill-opacity:1;stroke-width:2" />
  <path
     d="M 32,4 A 28,28 0 0 0 4,32 28,28 0 0 0 32,60 28,28 0 0 0 60,32 28,28 0 0 0 32,4 Z m 0,6 c 3.029424,0 5.920264,0.61857 8.550782,1.734376 2.630516,1.115804 4.999542,2.730012 6.992186,4.722656 1.992644,1.992644 3.606852,4.365576 4.722658,6.996094 C 53.38143,26.083642 54,28.970578 54,32 c 0,3.029424 -0.61857,5.920264 -1.734374,8.550782 -1.115806,2.630516 -2.730014,5.00345 -4.722658,6.996094 -1.992644,1.992644 -4.36167,3.60685 -6.992186,4.722656 C 37.920264,53.385336 35.029424,54 32,54 28.970576,54 26.079736,53.385336 23.449218,52.269532 20.818702,51.153726 18.449676,49.53952 16.457032,47.546876 14.464388,45.554232 12.85018,43.181298 11.734374,40.550782 10.61857,37.920264 10,35.029424 10,32 c 0,-3.029422 0.61857,-5.916358 1.734374,-8.546874 1.115806,-2.630518 2.730014,-5.00345 4.722658,-6.996094 1.992644,-1.992644 4.36167,-3.606852 6.992186,-4.722656 C 26.079736,10.61857 28.970576,10 32,10 Z"
     style="fill:#e4e4e4;stroke-width:2"
     id="path938" />
</svg>
