<?xml version="1.0" encoding="UTF-8" standalone="no"?>
<!-- Created with Inkscape (http://www.inkscape.org/) -->

<svg
   width="64"
   height="64"
   viewBox="0 0 16.933333 16.933334"
   version="1.1"
   id="svg5"
   inkscape:version="1.1.1 (3bf5ae0d25, 2021-09-20, custom)"
   sodipodi:docname="accessories-character-map.svg"
   xmlns:inkscape="http://www.inkscape.org/namespaces/inkscape"
   xmlns:sodipodi="http://sodipodi.sourceforge.net/DTD/sodipodi-0.dtd"
   xmlns:xlink="http://www.w3.org/1999/xlink"
   xmlns="http://www.w3.org/2000/svg"
   xmlns:svg="http://www.w3.org/2000/svg">
  <sodipodi:namedview
     id="namedview7"
     pagecolor="#ffffff"
     bordercolor="#666666"
     borderopacity="1.0"
     inkscape:pageshadow="2"
     inkscape:pageopacity="0.0"
     inkscape:pagecheckerboard="0"
     inkscape:document-units="px"
     showgrid="false"
     units="px"
     height="64px"
     inkscape:zoom="11.313708"
     inkscape:cx="25.013903"
     inkscape:cy="28.770407"
     inkscape:window-width="1920"
     inkscape:window-height="996"
     inkscape:window-x="0"
     inkscape:window-y="0"
     inkscape:window-maximized="1"
     inkscape:current-layer="svg5" />
  <defs
     id="defs2">
    <linearGradient
       inkscape:collect="always"
       id="linearGradient7315">
      <stop
         style="stop-color:#000000;stop-opacity:1;"
         offset="0"
         id="stop7311" />
      <stop
         style="stop-color:#000000;stop-opacity:0;"
         offset="1"
         id="stop7313" />
    </linearGradient>
    <linearGradient
       inkscape:collect="always"
       xlink:href="#linearGradient7315"
       id="linearGradient7317"
       x1="14"
       y1="12.043945"
       x2="52"
       y2="34.043945"
       gradientUnits="userSpaceOnUse" />
  </defs>
  <circle
     style="fill:#808080;stroke-width:0.529167;stroke-linecap:round;stroke-linejoin:round;fill-opacity:1"
     id="path1039"
     cx="8.4666662"
     cy="8.4666662"
     r="7.4083333" />
  <path
     id="rect1434"
     style="opacity:1;fill:#ececec;fill-opacity:1;stroke-width:0.333334;stroke-linecap:round;stroke-linejoin:round"
     d="M 14 32 L 14 36 L 18 36 L 18 32 L 14 32 z M 22 32 L 22 36 L 26 36 L 26 32 L 22 32 z M 30 32 L 30 36 L 34 36 L 34 32 L 30 32 z M 38 32 L 38 36 L 42 36 L 42 32 L 38 32 z M 46 32 L 46 36 L 50 36 L 50 32 L 46 32 z M 14 40 L 14 44 L 18 44 L 18 40 L 14 40 z M 22 40 L 22 44 L 26 44 L 26 40 L 22 40 z M 30 40 L 30 44 L 34 44 L 34 40 L 30 40 z M 38 40 L 38 44 L 42 44 L 42 40 L 38 40 z M 46 40 L 46 44 L 50 44 L 50 40 L 46 40 z M 18 48 L 18 52 L 46 52 L 46 48 L 18 48 z "
     transform="scale(0.26458334)" />
  <path
     id="path6978"
     style="fill:url(#linearGradient7317);fill-opacity:1;stroke-width:1.92725;stroke-linecap:round;stroke-linejoin:round;opacity:0.3"
     d="M 43.046875 11.28125 C 43.661001 11.63047 44.081116 12.269957 44 13 L 34 26 L 32 42 L 50.716797 52.806641 A 28 28 0 0 0 60 32 A 28 28 0 0 0 56.957031 19.310547 L 43.060547 11.287109 C 43.056247 11.284609 43.051145 11.28375 43.046875 11.28125 z "
     transform="scale(0.26458334)" />
  <path
     id="rect2110"
     style="fill:#8eacbb;fill-opacity:1;stroke-width:0.509918;stroke-linecap:round;stroke-linejoin:round"
     d="M 5.8208335,2.9104167 H 11.1125 c 0.293159,0 0.561541,0.2378014 0.529167,0.5291667 v 5.55625 L 8.4666655,11.1125 5.2916675,8.9958334 v -5.55625 c 0,-0.2931583 0.236008,-0.5291667 0.529166,-0.5291667 z"
     sodipodi:nodetypes="ssscccss" />
  <path
     d="M 9.2832025,8.4054777 Q 9.2342308,8.3075343 9.203623,8.0565542 8.8087884,8.4666924 8.2609174,8.4666924 q -0.4897171,0 -0.8049725,-0.275466 -0.3121948,-0.2785267 -0.3121948,-0.7039685 0,-0.5172638 0.3917738,-0.801912 Q 7.9303584,6.3976371 8.6435094,6.3976371 H 9.1944408 V 6.1374748 q 0,-0.2968911 -0.1775223,-0.4713528 -0.1775223,-0.1775226 -0.5233852,-0.1775226 -0.3030125,0 -0.5080817,0.1530366 Q 7.7803825,5.7946727 7.7803825,6.0119847 H 7.2110862 q 0,-0.2479193 0.1744618,-0.4774743 0.1775225,-0.2326156 0.4774743,-0.3672879 0.3030126,-0.1346722 0.6641791,-0.1346722 0.5723569,0 0.8967943,0.2877088 0.324438,0.2846482 0.3366807,0.7866083 v 1.5242449 q 0,0.4560492 0.1163079,0.7253937 V 8.405478 Z M 8.3435572,7.9739143 q 0.2662841,0 0.5050213,-0.1377329 0.2387366,-0.137733 0.3458623,-0.3581057 V 6.798593 H 8.7506351 q -1.0406494,0 -1.0406494,0.6090858 0,0.2662838 0.1775224,0.4162596 0.1775225,0.1499759 0.4560491,0.1499759 z M 8.8669424,3.7041923 H 9.5525469 L 8.7322705,4.6040477 H 8.276221 Z"
     style="font-size:10.5833px;line-height:1.25;font-family:Roboto;-inkscape-font-specification:Roboto;fill:#ffffff;stroke-width:0.15671"
     id="path13346" />
</svg>
