<?xml version="1.0" encoding="UTF-8" standalone="no"?>
<!-- Created with Inkscape (http://www.inkscape.org/) -->

<svg
   width="64"
   height="64"
   viewBox="0 0 16.933333 16.933334"
   version="1.1"
   id="svg5"
   inkscape:version="1.1.1 (3bf5ae0d25, 2021-09-20, custom)"
   sodipodi:docname="aisleriot.svg"
   xmlns:inkscape="http://www.inkscape.org/namespaces/inkscape"
   xmlns:sodipodi="http://sodipodi.sourceforge.net/DTD/sodipodi-0.dtd"
   xmlns:xlink="http://www.w3.org/1999/xlink"
   xmlns="http://www.w3.org/2000/svg"
   xmlns:svg="http://www.w3.org/2000/svg">
  <sodipodi:namedview
     id="namedview7"
     pagecolor="#ffffff"
     bordercolor="#666666"
     borderopacity="1.0"
     inkscape:pageshadow="2"
     inkscape:pageopacity="0.0"
     inkscape:pagecheckerboard="0"
     inkscape:document-units="px"
     showgrid="false"
     units="px"
     height="64px"
     inkscape:zoom="1"
     inkscape:cx="15"
     inkscape:cy="37.5"
     inkscape:window-width="1920"
     inkscape:window-height="1012"
     inkscape:window-x="0"
     inkscape:window-y="0"
     inkscape:window-maximized="1"
     inkscape:current-layer="svg5" />
  <defs
     id="defs2">
    <linearGradient
       inkscape:collect="always"
       id="linearGradient2440">
      <stop
         style="stop-color:#000000;stop-opacity:1;"
         offset="0"
         id="stop2436" />
      <stop
         style="stop-color:#000000;stop-opacity:0;"
         offset="1"
         id="stop2438" />
    </linearGradient>
    <linearGradient
       inkscape:collect="always"
       xlink:href="#linearGradient2440"
       id="linearGradient2442"
       x1="19.603516"
       y1="21.291992"
       x2="52"
       y2="49.291992"
       gradientUnits="userSpaceOnUse" />
  </defs>
  <circle
     style="fill:#666666;stroke-width:0.529167;stroke-linecap:round;stroke-linejoin:round;fill-opacity:1"
     id="path1039"
     cx="8.4666662"
     cy="8.4666662"
     r="7.4083333" />
  <path
     id="path1977"
     style="opacity:0.2;fill:url(#linearGradient2442);stroke-width:2;stroke-linecap:round;stroke-linejoin:round;fill-opacity:1"
     d="m 44.416016,14.583984 -24.8125,34.84961 c 0.0017,0.0016 0.0022,0.0042 0.0039,0.0059 l 10.49024,10.490194 C 30.73079,59.974681 31.365272,59.998132 32,60 47.463973,60 60,47.463973 60,32 59.999343,31.366618 59.9772,30.733441 59.93359,30.101562 Z"
     transform="scale(0.26458334)"
     sodipodi:nodetypes="cccccccc" />
  <path
     id="rect1797"
     style="fill:#ffffff;stroke-width:0.529167;stroke-linecap:round;stroke-linejoin:round"
     d="m 5.5562501,3.7041667 h 5.8208329 c 0.293159,0 0.529167,0.2360084 0.529167,0.5291667 v 8.4666656 c 0,0.293158 -0.236008,0.529167 -0.529167,0.529167 H 5.5562501 c -0.2931583,0 -0.5291667,-0.236009 -0.5291667,-0.529167 V 4.2333334 c 0,-0.2931583 0.2360084,-0.5291667 0.5291667,-0.5291667 z" />
  <path
     id="path3024"
     style="fill:#d32f2f;fill-opacity:1;stroke-width:2;stroke-linecap:round;stroke-linejoin:round"
     d="m 29,25 c -2.209139,0 -4,1.790861 -4,4 0.009,3.476192 5.1337,10.322223 7,10.999999 C 33.737184,39.222333 39.021872,32.652674 39,29 39,26.790861 37.209139,25 35,25 33.852179,25.0014 32.426743,25.697177 32.001953,27 31.515798,25.727007 30.149184,25.000242 29,25 Z"
     transform="scale(0.26458334)"
     sodipodi:nodetypes="ccccccc" />
</svg>
