<?xml version="1.0" encoding="UTF-8" standalone="no"?>
<!-- Created with Inkscape (http://www.inkscape.org/) -->

<svg
   width="64"
   height="64"
   viewBox="0 0 16.933333 16.933334"
   version="1.1"
   id="svg5"
   inkscape:version="1.1.1 (3bf5ae0d25, 2021-09-20, custom)"
   sodipodi:docname="application-fonts.svg"
   xmlns:inkscape="http://www.inkscape.org/namespaces/inkscape"
   xmlns:sodipodi="http://sodipodi.sourceforge.net/DTD/sodipodi-0.dtd"
   xmlns:xlink="http://www.w3.org/1999/xlink"
   xmlns="http://www.w3.org/2000/svg"
   xmlns:svg="http://www.w3.org/2000/svg">
  <sodipodi:namedview
     id="namedview7"
     pagecolor="#ffffff"
     bordercolor="#666666"
     borderopacity="1.0"
     inkscape:pageshadow="2"
     inkscape:pageopacity="0.0"
     inkscape:pagecheckerboard="0"
     inkscape:document-units="px"
     showgrid="false"
     units="px"
     height="64px"
     inkscape:zoom="5.6568542"
     inkscape:cx="54.977553"
     inkscape:cy="17.589281"
     inkscape:window-width="1920"
     inkscape:window-height="1019"
     inkscape:window-x="0"
     inkscape:window-y="0"
     inkscape:window-maximized="1"
     inkscape:current-layer="svg5" />
  <defs
     id="defs2">
    <linearGradient
       inkscape:collect="always"
       id="linearGradient16602">
      <stop
         style="stop-color:#000000;stop-opacity:1;"
         offset="0"
         id="stop16598" />
      <stop
         style="stop-color:#000000;stop-opacity:0;"
         offset="1"
         id="stop16600" />
    </linearGradient>
    <linearGradient
       inkscape:collect="always"
       xlink:href="#linearGradient16602"
       id="linearGradient16700"
       x1="22.015625"
       y1="25.474609"
       x2="47.259766"
       y2="47.474609"
       gradientUnits="userSpaceOnUse" />
  </defs>
  <circle
     style="fill:#e6e6e6;fill-opacity:1;stroke-width:0.529167;stroke-linecap:round;stroke-linejoin:round"
     id="path1039"
     cx="8.4666662"
     cy="8.4666662"
     r="7.4083333" />
  <path
     id="path16053"
     style="font-size:7.48821px;line-height:1.25;font-family:'Noto Sans CJK KR';-inkscape-font-specification:'Noto Sans CJK KR';opacity:0.2;fill:url(#linearGradient16700);fill-opacity:1;stroke-width:0.707546"
     d="m 25.1875,15.017578 c 0.04557,0.0029 0.09186,0.006 0.136719,0.0098 -0.04491,-0.0037 -0.09109,-0.0068 -0.136719,-0.0098 z m 0.599609,0.06445 c 0.03472,0.0053 0.06927,0.01173 0.103516,0.01758 -0.03435,-0.0059 -0.06869,-0.01223 -0.103516,-0.01758 z m 0.53711,0.105469 c 0.03375,0.0085 0.06636,0.01833 0.09961,0.02734 -0.03325,-0.009 -0.06585,-0.01889 -0.09961,-0.02734 z m 1.324219,0.548828 c 0.03427,0.02108 0.0681,0.04252 0.101562,0.06445 -0.03348,-0.02194 -0.06728,-0.04336 -0.101562,-0.06445 z m 0.757812,0.595703 C 29.507018,17.432708 30,19.161374 30,21.310547 v 9.453125 h -2.123047 l -0.226562,-1.839844 h -0.08398 c -1.471697,1.21698 -3.197525,2.208984 -5.09375,2.208984 -1.287734,0 -2.406896,-0.395527 -3.203125,-1.138671 l 5.06836,5.070312 c 0.07613,-0.04905 0.15244,-0.09771 0.230468,-0.144531 1.00901,-0.594591 2.171016,-0.892578 3.486329,-0.892578 1.35135,0 2.342026,0.270007 2.972656,0.810547 C 31.675993,35.360412 32,35.956382 32,36.623047 c 0,0.504503 -0.206679,0.945843 -0.621094,1.324219 -0.414414,0.378376 -1.010384,0.566406 -1.785156,0.566406 0,-0.864863 -0.169373,-1.611556 -0.511719,-2.242188 -0.324323,-0.630626 -0.84764,-0.947265 -1.568359,-0.947265 -0.576576,0 -1.109219,0.199306 -1.595703,0.595703 -0.486487,0.378376 -0.927824,0.883041 -1.324219,1.513672 -0.378378,0.612614 -0.702387,1.295978 -0.972656,2.052734 -0.25225,0.738735 -0.449607,1.478058 -0.59375,2.216797 -0.144148,0.738739 -0.216797,1.396082 -0.216797,1.972656 0,1.153153 0.253308,2.054479 0.757812,2.703125 0.504505,0.648635 1.241872,0.972656 2.214844,0.972656 0.954955,0 1.748278,-0.206683 2.378906,-0.621093 0.630632,-0.414414 1.135297,-0.855754 1.513672,-1.324219 0.180182,0.126134 0.269532,0.35146 0.269531,0.675781 10e-7,0.396397 -0.171329,0.82841 -0.513671,1.296875 -0.324324,0.450452 -0.828989,0.847104 -1.513672,1.189453 -0.684684,0.324341 -1.567354,0.486325 -2.648438,0.486329 -0.954953,-10e-7 -1.837628,-0.20668 -2.648437,-0.621094 -0.396396,-0.207207 -0.754637,-0.463212 -1.074219,-0.769532 L 33.8125,59.931641 C 46.115255,59.132623 56.447751,50.380652 59.259766,38.376953 L 47.929688,27.048828 c 0.460755,0.474304 0.853402,1.02592 1.177734,1.654297 C 49.702021,29.802223 50,31.053581 50,32.458984 c 0,1.405403 -0.297987,2.66804 -0.892578,3.785157 -0.576575,1.099096 -1.367948,1.963117 -2.376953,2.59375 -1.009009,0.630625 -2.135665,0.945312 -3.378907,0.945312 -0.972967,0 -1.84632,-0.216007 -2.621093,-0.648437 -0.774777,-0.432431 -1.361416,-0.953795 -1.757813,-1.566407 h -0.134765 v 1.783203 H 36 V 24 l -7.03125,-7.105469 z m 19.523438,10.716797 -0.06445,-0.06641 c -0.0092,-0.0092 -0.02007,-0.01628 -0.0293,-0.02539 0.03119,0.03081 0.06316,0.06031 0.09375,0.0918 z M 21.546875,47.664062 c -0.03896,-0.03734 -0.07546,-0.07837 -0.113281,-0.117187 0.01437,0.01476 0.02648,0.03234 0.04102,0.04687 z m 2.707031,-30.513671 c -1.783016,0 -3.396301,0.821824 -4.613281,1.642578 l 3.099609,3.099609 c 1.28153,-0.37379 2.836157,-0.657298 4.683594,-0.865234 0,-1.981131 -0.651055,-3.876953 -3.169922,-3.876953 z M 38.972656,20 v 5.431641 l -0.134765,1.947265 h 0.134765 c 0.396397,-0.630629 0.983036,-1.163271 1.757813,-1.595703 0.774773,-0.432432 1.648126,-0.648437 2.621093,-0.648437 0.273344,0 0.540675,0.01629 0.802735,0.04687 z m -11.548828,2.753906 c -5.179243,0.59434 -6.933594,1.868479 -6.933594,3.84961 0,1.754714 1.188497,2.433593 2.716797,2.433593 1.471697,0 2.716797,-0.679578 4.216797,-2.009765 z m -9.402344,3.546875 c -0.0019,0.02081 -0.0043,0.04154 -0.0059,0.0625 0.0016,-0.02094 0.004,-0.0417 0.0059,-0.0625 z m 24.896485,1.591797 c -0.720722,0 -1.394762,0.188029 -2.025391,0.566406 -0.612608,0.378379 -1.107952,0.920346 -1.486328,1.623047 -0.378399,0.684684 -0.568359,1.476053 -0.568359,2.376953 0,0.9009 0.189979,1.703549 0.568359,2.40625 0.378376,0.702703 0.87372,1.242717 1.486328,1.621094 0.630629,0.378378 1.304669,0.56836 2.025391,0.56836 0.720718,-10e-7 1.396718,-0.189981 2.027343,-0.56836 0.630634,-0.378377 1.135296,-0.918391 1.513672,-1.621094 0.378365,-0.702701 0.56836,-1.50535 0.56836,-2.40625 0,-0.9009 -0.18998,-1.692269 -0.56836,-2.376953 -0.378376,-0.702701 -0.883038,-1.244668 -1.513672,-1.623047 -0.630625,-0.378377 -1.306625,-0.566406 -2.027343,-0.566406 z m -24.621094,0.626953 c 0.0078,0.02083 0.01536,0.0419 0.02344,0.0625 -0.0081,-0.02053 -0.01567,-0.04174 -0.02344,-0.0625 z m 0.166016,0.382813 c 0.01072,0.02164 0.02214,0.04311 0.0332,0.06445 -0.01105,-0.0213 -0.0225,-0.04285 -0.0332,-0.06445 z m 0.201171,0.357422 c 0.0139,0.02192 0.02867,0.0429 0.04297,0.06445 -0.01432,-0.02157 -0.02905,-0.04252 -0.04297,-0.06445 z m 5.066407,6.238281 c -0.02274,0.0177 -0.04581,0.03481 -0.06836,0.05273 0.02256,-0.01795 0.04561,-0.03502 0.06836,-0.05273 z m -0.603516,0.517578 c -0.0204,0.0193 -0.04033,0.03908 -0.06055,0.05859 0.02015,-0.01946 0.04022,-0.03935 0.06055,-0.05859 z m -0.554687,0.578125 c -0.01788,0.02048 -0.03503,0.04181 -0.05273,0.0625 0.01768,-0.02067 0.03488,-0.04203 0.05273,-0.0625 z m -1.53711,10.490234 c 0.01511,0.01997 0.02958,0.04088 0.04492,0.06055 -0.01542,-0.01971 -0.02974,-0.04054 -0.04492,-0.06055 z"
     sodipodi:nodetypes="cccccccccccccsccccscccscssccscccssssscsccsccccccscssscccccccccccccccscccsccccsscccsscccccsccsscsssscssccccccccccccccccccccc"
     transform="scale(0.26458334)" />
  <path
     d="m 5.9456375,8.2370295 c 0.5017101,0 0.9584909,-0.2620874 1.3478778,-0.5840804 H 7.31598 L 7.375886,8.1396828 H 7.9375014 V 5.6386206 c 0,-1.0109084 -0.4118516,-1.6698709 -1.4077835,-1.6698709 -0.6589625,0 -1.2280665,0.2920402 -1.5949888,0.5316629 l 0.2620874,0.4717573 c 0.321993,-0.2171581 0.748821,-0.4343162 1.2205782,-0.4343162 0.6664507,0 0.8386796,0.50171 0.8386796,1.0258848 -1.7297766,0.1946934 -2.493574,0.6364978 -2.493574,1.5201066 0,0.7338446 0.5017101,1.1531844 1.1831372,1.1531844 z M 6.140331,7.6829019 c -0.4043634,0 -0.7188682,-0.179717 -0.7188682,-0.643986 0,-0.5241747 0.464269,-0.8611442 1.8346115,-1.0183966 V 7.151239 C 6.8591991,7.5031849 6.5297179,7.6829019 6.140331,7.6829019 Z"
     id="path15852"
     style="font-size:7.48821px;line-height:1.25;font-family:'Noto Sans CJK KR';-inkscape-font-specification:'Noto Sans CJK KR';stroke-width:0.187205;fill:#333333" />
  <path
     d="m 11.470045,10.526127 q -0.386148,0 -0.693637,-0.171622 -0.307489,-0.171621 -0.464809,-0.4147517 h -0.03575 V 10.411713 H 9.5250004 V 5.2916683 h 0.7865986 v 1.4373309 l -0.03575,0.5148648 h 0.03575 q 0.15732,-0.2502815 0.464809,-0.4219031 0.307489,-0.1716216 0.693637,-0.1716216 0.493412,0 0.893863,0.2502815 0.40045,0.2502815 0.629279,0.6936373 0.235979,0.4362049 0.235979,0.9939751 0,0.5577702 -0.235979,1.001126 -0.228829,0.4362048 -0.629279,0.6864868 -0.400451,0.250281 -0.893863,0.250281 z M 11.355631,9.8038862 q 0.286036,0 0.536317,-0.1501689 0.250282,-0.1501689 0.400451,-0.429054 0.150169,-0.2788851 0.150169,-0.6364301 0,-0.357545 -0.150169,-0.6292792 Q 12.14223,7.6800689 11.891948,7.5299 11.641667,7.3797311 11.355631,7.3797311 q -0.286036,0 -0.536318,0.1501689 -0.24313,0.1501689 -0.393299,0.429054 -0.150169,0.2717342 -0.150169,0.6292792 0,0.357545 0.150169,0.6364301 0.150169,0.2788851 0.393299,0.429054 0.250282,0.1501689 0.536318,0.1501689 z"
     style="font-weight:500;font-size:7.1509px;line-height:1.25;font-family:'Google Sans';-inkscape-font-specification:'Google Sans Medium';stroke-width:0.178773;fill:#333333"
     id="path15855" />
  <path
     d="m 6.6860922,12.979074 q -0.3789977,0 -0.7007881,-0.164471 -0.3146396,-0.16447 -0.5077139,-0.486261 -0.1859234,-0.328941 -0.1859234,-0.829504 0,-0.400451 0.1358671,-0.829505 Q 5.563401,10.233129 5.8351352,9.8541309 6.1068693,9.4751332 6.5001688,9.2391535 6.9006192,9.0031738 7.4226349,9.0031738 q 0.5363175,0 0.786599,0.214527 0.2574324,0.2073761 0.2574324,0.4719594 0,0.2002252 -0.1644707,0.3503938 -0.1644707,0.150169 -0.4719594,0.150169 0,-0.343243 -0.1358671,-0.5935245 Q 7.5656529,9.346417 7.2796169,9.346417 q -0.2288288,0 -0.4219031,0.1573198 -0.1930743,0.1501689 -0.3503941,0.4004504 -0.1501689,0.2431308 -0.2574324,0.5434688 -0.1001126,0.293186 -0.1573198,0.586373 -0.057207,0.293187 -0.057207,0.522016 0,0.457658 0.2002252,0.71509 0.2002252,0.257432 0.5863738,0.257432 0.3789977,0 0.6292792,-0.16447 0.2502815,-0.164471 0.4004504,-0.350394 0.071509,0.05006 0.071509,0.178772 0,0.15732 -0.1358671,0.343243 -0.1287162,0.178773 -0.4004504,0.31464 -0.2717342,0.128716 -0.7007884,0.128716 z"
     style="font-style:italic;font-size:7.1509px;line-height:1.25;font-family:'Noto Serif';-inkscape-font-specification:'Noto Serif Italic';stroke-width:0.178773;fill:#333333"
     id="path15858" />
</svg>
