<?xml version="1.0" encoding="UTF-8" standalone="no"?>
<!-- Created with Inkscape (http://www.inkscape.org/) -->

<svg
   sodipodi:docname="application-games.svg"
   inkscape:version="1.1.1 (3bf5ae0d25, 2021-09-20, custom)"
   id="svg5"
   version="1.1"
   viewBox="0 0 16.933333 16.933334"
   height="64"
   width="64"
   xmlns:inkscape="http://www.inkscape.org/namespaces/inkscape"
   xmlns:sodipodi="http://sodipodi.sourceforge.net/DTD/sodipodi-0.dtd"
   xmlns:xlink="http://www.w3.org/1999/xlink"
   xmlns="http://www.w3.org/2000/svg"
   xmlns:svg="http://www.w3.org/2000/svg">
  <sodipodi:namedview
     id="namedview7"
     pagecolor="#ffffff"
     bordercolor="#666666"
     borderopacity="1.0"
     inkscape:pageshadow="2"
     inkscape:pageopacity="0.0"
     inkscape:pagecheckerboard="0"
     inkscape:document-units="px"
     showgrid="false"
     units="px"
     height="64px"
     inkscape:zoom="1"
     inkscape:cx="31"
     inkscape:cy="40.5"
     inkscape:window-width="1920"
     inkscape:window-height="1019"
     inkscape:window-x="0"
     inkscape:window-y="0"
     inkscape:window-maximized="1"
     inkscape:current-layer="svg5" />
  <defs
     id="defs2">
    <linearGradient
       inkscape:collect="always"
       id="linearGradient1583">
      <stop
         style="stop-color:#000000;stop-opacity:1;"
         offset="0"
         id="stop1579" />
      <stop
         style="stop-color:#000000;stop-opacity:0;"
         offset="1"
         id="stop1581" />
    </linearGradient>
    <linearGradient
       inkscape:collect="always"
       xlink:href="#linearGradient1583"
       id="linearGradient1585"
       x1="5.2942576"
       y1="5.4893293"
       x2="10.054167"
       y2="11.839329"
       gradientUnits="userSpaceOnUse" />
  </defs>
  <circle
     style="fill:#8cd869;stroke-width:0.529167;stroke-linecap:round;stroke-linejoin:round;fill-opacity:1"
     id="path1039"
     cx="8.4666662"
     cy="8.4666662"
     r="7.4083333" />
  <path
     id="path1005"
     style="opacity:0.2;fill:url(#linearGradient1585);stroke-width:0.023624;fill-opacity:1"
     d="m 12.408545,4.6286583 c 0.0074,0.00495 0.01488,0.00995 0.02222,0.014986 -0.0074,-0.00506 -0.01478,-0.010007 -0.02222,-0.014986 z m 0.185002,0.1374592 c 0.0058,0.00474 0.01182,0.00916 0.01757,0.013952 -0.0057,-0.00479 -0.01178,-0.00921 -0.01757,-0.013952 z m 0.165881,0.1488281 c 0.0112,0.01103 0.02261,0.021823 0.03359,0.033073 l -0.02067,-0.021188 c -0.0041,-0.00414 -0.0088,-0.00778 -0.01292,-0.011885 z m 0.03359,0.033073 L 6.9175995,7.6385922 3.42098,12.553238 c 0.00185,0.0019 0.00329,0.0043 0.00517,0.0062 l 3.0339238,3.033924 C 7.1128822,15.778701 7.7880603,15.873466 8.4666669,15.875 12.558176,15.875 15.875,12.558176 15.875,8.4666669 15.874771,8.3160041 15.869945,8.1653834 15.860531,8.0150149 Z M 3.1796509,11.786878 c -7.408e-4,0.0095 -0.00153,0.01898 -0.00206,0.02842 5.291e-4,-0.0094 0.00132,-0.0189 0.00206,-0.02842 z m 0.00672,0.256315 c 0.0014,0.0102 0.00249,0.02044 0.00414,0.03049 -0.00167,-0.01008 -0.00274,-0.02025 -0.00414,-0.03049 z m 0.025839,0.131775 c 0.0014,0.0053 0.00316,0.01028 0.00465,0.0155 -0.00148,-0.0052 -0.00323,-0.01022 -0.00465,-0.0155 z m 0.08475,0.21084 c 0.00222,0.004 0.00443,0.0079 0.00672,0.01188 -0.00228,-0.004 -0.00448,-0.0079 -0.00672,-0.01188 z"
     sodipodi:nodetypes="ccccccccccccccccccccccccccccccc" />
  <path
     id="path20"
     style="fill:#ffffff;stroke-width:0.0892876"
     d="M 15.064453 25.130859 L 15.197266 31.060547 C 15.330853 32.002976 16.110968 33.708768 17.294922 35.054688 C 18.937635 36.922232 21.346855 38.144531 24.041016 38.144531 L 39.857422 38.144531 L 45.986328 46.078125 C 48.978709 50.067942 52.351071 46.784249 51.970703 44.083984 L 50.972656 25.130859 L 15.064453 25.130859 z "
     transform="scale(0.26458334)" />
  <path
     id="path24"
     style="fill:#5ea83d;stroke-width:0.0892876;fill-opacity:1"
     d="M 22.050781 16 C 17.077195 16 13.331688 20.164421 13.070312 25.130859 L 12.072266 44.082031 C 11.442878 47.78782 15.036491 50.12883 18.056641 46.078125 L 26.037109 33.857422 L 41.996094 33.857422 C 46.509844 33.798045 50.803636 30.346058 50.972656 25.130859 C 50.972656 20.157903 46.973318 16 42 16 L 22.050781 16 z "
     transform="scale(0.26458334)" />
  <path
     id="rect4641"
     style="fill:#ffffff;fill-opacity:1;stroke-width:0.529167;stroke-linecap:round;stroke-linejoin:round"
     d="m 5.2916667,5.2916668 v 0.79375 h -0.79375 v 0.79375 h 0.79375 v 0.7937501 h 0.79375 V 6.8791668 h 0.79375 v -0.79375 h -0.79375 v -0.79375 z" />
  <circle
     style="fill:#ffffff;fill-opacity:1;stroke-width:0.529167;stroke-linecap:round;stroke-linejoin:round"
     id="path4801"
     cx="11.244789"
     cy="5.6885419"
     r="0.39687502" />
  <circle
     style="fill:#ffffff;fill-opacity:1;stroke-width:0.529167;stroke-linecap:round;stroke-linejoin:round"
     id="path4803"
     cx="12.038538"
     cy="6.4822922"
     r="0.39687502" />
  <circle
     style="fill:#ffffff;fill-opacity:1;stroke-width:0.529167;stroke-linecap:round;stroke-linejoin:round"
     id="path4805"
     cx="10.45104"
     cy="6.4822922"
     r="0.39687502" />
  <ellipse
     style="fill:#ffffff;fill-opacity:1;stroke-width:0.529167;stroke-linecap:round;stroke-linejoin:round"
     id="path4807"
     cx="11.244789"
     cy="7.276042"
     rx="0.39687502"
     ry="0.39687505" />
</svg>
