<?xml version="1.0" encoding="UTF-8" standalone="no"?>
<!-- Created with Inkscape (http://www.inkscape.org/) -->

<svg
   width="64"
   height="64"
   viewBox="0 0 16.933333 16.933333"
   version="1.1"
   id="svg5"
   inkscape:version="1.1.1 (3bf5ae0d25, 2021-09-20, custom)"
   sodipodi:docname="desktop-environment-mate.svg"
   xmlns:inkscape="http://www.inkscape.org/namespaces/inkscape"
   xmlns:sodipodi="http://sodipodi.sourceforge.net/DTD/sodipodi-0.dtd"
   xmlns="http://www.w3.org/2000/svg"
   xmlns:svg="http://www.w3.org/2000/svg">
  <sodipodi:namedview
     id="namedview7"
     pagecolor="#ffffff"
     bordercolor="#666666"
     borderopacity="1.0"
     inkscape:pageshadow="2"
     inkscape:pageopacity="0.0"
     inkscape:pagecheckerboard="0"
     inkscape:document-units="px"
     showgrid="false"
     units="px"
     height="48px"
     inkscape:zoom="8.7173008"
     inkscape:cx="20.075021"
     inkscape:cy="38.027826"
     inkscape:window-width="1920"
     inkscape:window-height="1019"
     inkscape:window-x="0"
     inkscape:window-y="0"
     inkscape:window-maximized="1"
     inkscape:current-layer="svg5"
     inkscape:lockguides="true" />
  <defs
     id="defs2" />
  <circle
     style="fill:#87a556;fill-opacity:1;stroke-width:0.507621;stroke-linecap:round;stroke-linejoin:round;stroke-dasharray:6.09145, 0.507621"
     id="path1361"
     cx="8.4666662"
     cy="8.4666662"
     r="7.4083333" />
  <path
     id="path2562"
     style="opacity:1;fill:#ffffff;fill-opacity:1;stroke-width:2.38125;stroke-linecap:round;stroke-linejoin:round"
     d="M 8.4666665,3.4395833 A 5.0270835,5.0270835 0 0 0 3.9237914,6.3189939 L 4.3837116,6.5820271 A 4.4979166,4.4979166 0 0 1 8.4666665,3.9687499 4.4979166,4.4979166 0 0 1 12.964583,8.4666666 4.4979166,4.4979166 0 0 1 8.4666665,12.964583 4.4979166,4.4979166 0 0 1 4.3837116,10.351306 L 3.9237914,10.614339 A 5.0270835,5.0270835 0 0 0 8.4666665,13.49375 5.0270835,5.0270835 0 0 0 13.49375,8.4666666 5.0270835,5.0270835 0 0 0 8.4666665,3.4395833 Z m 0,1.5875 A 3.4395833,3.4395833 0 0 0 5.3066528,7.1091268 L 5.7701904,7.3737101 A 2.9104166,2.9104166 0 0 1 8.4666665,5.5562499 2.9104166,2.9104166 0 0 1 11.377083,8.4666666 2.9104166,2.9104166 0 0 1 8.4666665,11.377083 2.9104166,2.9104166 0 0 1 5.7701904,9.559623 L 5.3066528,9.8242063 A 3.4395833,3.4395833 0 0 0 8.4666665,11.90625 3.4395833,3.4395833 0 0 0 11.90625,8.4666666 3.4395833,3.4395833 0 0 0 8.4666665,5.0270833 Z M 2.9104166,6.3499999 V 10.583333 L 3.7212198,10.120312 4.0328288,9.9420287 4.1888915,9.8526284 5.1345702,9.3126098 5.6146442,9.0382078 6.6145832,8.4666666 5.6146442,7.8951253 5.1345702,7.6207233 4.1888915,7.0807047 4.0328288,6.9913044 3.7212198,6.8130207 Z" />
</svg>
