<?xml version="1.0" encoding="UTF-8" standalone="no"?>
<!-- Created with Inkscape (http://www.inkscape.org/) -->

<svg
   width="64"
   height="64"
   viewBox="0 0 16.933333 16.933333"
   version="1.1"
   id="svg5"
   inkscape:version="1.1.1 (3bf5ae0d25, 2021-09-20, custom)"
   sodipodi:docname="dolphin-emu.svg"
   xmlns:inkscape="http://www.inkscape.org/namespaces/inkscape"
   xmlns:sodipodi="http://sodipodi.sourceforge.net/DTD/sodipodi-0.dtd"
   xmlns:xlink="http://www.w3.org/1999/xlink"
   xmlns="http://www.w3.org/2000/svg"
   xmlns:svg="http://www.w3.org/2000/svg">
  <sodipodi:namedview
     id="namedview7"
     pagecolor="#ffffff"
     bordercolor="#666666"
     borderopacity="1.0"
     inkscape:pageshadow="2"
     inkscape:pageopacity="0.0"
     inkscape:pagecheckerboard="0"
     inkscape:document-units="px"
     showgrid="false"
     units="px"
     height="48px"
     inkscape:zoom="6.1640625"
     inkscape:cx="-2.5956907"
     inkscape:cy="24.577947"
     inkscape:window-width="1920"
     inkscape:window-height="1012"
     inkscape:window-x="0"
     inkscape:window-y="0"
     inkscape:window-maximized="1"
     inkscape:current-layer="svg5"
     inkscape:lockguides="true" />
  <defs
     id="defs2">
    <linearGradient
       inkscape:collect="always"
       id="linearGradient3103">
      <stop
         style="stop-color:#46d4ff;stop-opacity:1;"
         offset="0"
         id="stop3099" />
      <stop
         style="stop-color:#1792ff;stop-opacity:1"
         offset="1"
         id="stop3101" />
    </linearGradient>
    <linearGradient
       inkscape:collect="always"
       xlink:href="#linearGradient3103"
       id="linearGradient4500"
       x1="2.6458333"
       y1="3.8541489"
       x2="2.6458335"
       y2="12.849982"
       gradientUnits="userSpaceOnUse" />
  </defs>
  <circle
     style="opacity:1;fill:#ffffff;fill-opacity:1;stroke-width:0.529167;stroke-linecap:round;stroke-linejoin:round"
     id="path961"
     cx="8.4666662"
     cy="8.4666662"
     r="7.4083333" />
  <path
     id="path9-7"
     style="fill:url(#linearGradient4500);fill-opacity:1.0;stroke-width:0.00516807"
     d="m 10.644385,5.8209407 c -0.07316,5.473e-4 -0.150891,0.00316 -0.233026,0.00842 C 9.7946676,5.8689395 9.2405547,6.2295311 9.1369782,6.2802247 8.8048491,6.1851743 8.4259001,6.1013131 7.982721,6.0261148 6.44982,5.7660472 5.152482,6.180627 4.5014867,6.6324691 3.6482224,7.2246868 3.6718324,7.776516 3.6014867,8.0525306 3.5508563,8.251147 3.036163,8.6456851 3.2111274,8.8606485 3.3202827,8.9947612 3.6835374,8.8126496 3.9765831,8.6921156 4.2846707,8.5653817 4.308428,8.496457 5.1504294,8.3708179 5.5378098,8.3130297 5.945495,8.2963985 6.2490247,8.2938723 c 0.1181236,0.2494152 0.4118009,0.7620874 0.9206101,1.0079869 0.6870155,0.3320344 1.5452796,0.3278555 1.5452796,0.3278555 0,0 -0.4932095,-0.2049005 -0.796634,-0.5083144 C 7.71178,8.9149209 7.6623601,8.6012861 7.6518445,8.421943 l 0.00211,1.789e-4 c 0.4971358,0.094419 0.9313677,0.1626173 1.9698487,0.5603343 0.9086208,0.3479918 1.5292808,0.8540747 1.5292808,0.8540747 0,0 -0.638143,-0.7957919 -1.715108,-1.3269689 C 8.5537076,8.0734248 7.8276825,7.8579456 6.8217482,7.8091573 5.7222055,7.7557901 4.9120244,7.89705 4.9120244,7.89705 c 0,0 0.022631,-0.488578 0.8527485,-0.8779584 0.7218042,-0.3385816 1.857346,-0.3952539 3.1605892,-0.062841 1.8411779,0.4697048 2.4691209,1.2695281 3.2611129,2.0960351 0.842949,0.8797163 1.571858,2.3601763 1.571858,2.3601763 0,0 -0.224763,-0.782224 -0.629532,-1.5291641 v 0 C 12.641654,8.9843509 12.222685,8.3417659 11.524617,7.689118 11.300086,7.4791966 11.087396,7.2916115 10.865948,7.123226 l 2.53e-4,5.26e-5 c 0,0 -0.0021,-0.00105 -0.0053,-0.00316 -0.0042,-0.00316 -0.0084,-0.00632 -0.012,-0.00947 -0.08221,-0.063472 -0.431084,-0.3570337 -0.307119,-0.681163 0.136018,-0.3556759 0.902105,-0.5146511 0.902105,-0.5146511 0,0 -0.287498,-0.097682 -0.799581,-0.093892 z" />
  <path
     id="path9-7-3"
     style="opacity:0.3;fill:#000000;fill-opacity:1;stroke-width:0.0195329"
     d="M 40.230469 22 C 39.953959 22.002069 39.660041 22.013323 39.349609 22.033203 C 37.018809 22.182793 34.924675 23.54473 34.533203 23.736328 C 33.277912 23.377083 31.846882 23.059605 30.171875 22.775391 C 24.378234 21.792458 19.474127 23.36061 17.013672 25.068359 C 13.788736 27.306663 13.877202 29.392342 13.611328 30.435547 C 13.419969 31.186223 11.475436 32.675821 12.136719 33.488281 C 12.147857 33.501966 12.159361 33.515373 12.171875 33.527344 C 12.559296 32.783156 13.482355 31.941492 13.611328 31.435547 C 13.877202 30.392342 13.788734 28.306663 17.013672 26.068359 C 19.474125 24.36061 24.37628 22.792458 30.169922 23.775391 C 31.844925 24.059605 33.277916 24.377083 34.533203 24.736328 C 34.924679 24.54473 37.018812 23.18084 39.349609 23.03125 C 39.660041 23.01137 39.953959 23.002069 40.230469 23 C 40.613657 22.997164 40.962546 23.009861 41.277344 23.03125 C 42.219338 22.571554 43.251953 22.355469 43.251953 22.355469 C 43.251953 22.355469 42.165901 21.985676 40.230469 22 z M 39.826172 25.345703 C 39.407057 26.552526 40.697065 27.638096 41.003906 27.875 C 41.017513 27.886906 41.032954 27.898213 41.048828 27.910156 C 41.060923 27.918131 41.068359 27.921875 41.068359 27.921875 C 41.905328 28.558293 42.70802 29.267143 43.556641 30.060547 C 46.195008 32.527247 47.779908 34.955933 49.621094 38.353516 C 50.132382 39.29702 50.564979 40.253376 50.917969 41.111328 C 51.595035 42.31001 52 43.132812 52 43.132812 C 52 43.132812 51.150929 40.176596 49.621094 37.353516 C 47.779908 33.955921 46.195008 31.527248 43.556641 29.060547 C 42.70802 28.267143 41.905328 27.558293 41.068359 26.921875 C 41.068359 26.921875 41.060923 26.918131 41.048828 26.910156 C 41.032954 26.898213 41.017513 26.886906 41.003906 26.875 C 40.785877 26.706666 40.071031 26.109878 39.826172 25.345703 z M 23.574219 29.470703 C 21.350763 29.488554 19.690629 29.686096 18.972656 29.787109 C 18.588501 30.407282 18.564453 30.847656 18.564453 30.847656 C 18.564453 30.847656 21.62745 30.313923 25.783203 30.515625 C 29.585162 30.700022 32.327848 31.513718 35.669922 33.162109 C 36.788899 33.714007 37.778213 34.34114 38.630859 34.960938 C 40.792659 36.069764 42.154297 37.177734 42.154297 37.177734 C 42.154297 37.177734 39.742293 34.169708 35.671875 32.162109 C 32.329797 30.513717 29.58516 29.700022 25.783203 29.515625 C 25.004 29.477806 24.263549 29.465169 23.574219 29.470703 z M 28.919922 32.830078 C 28.959664 33.50791 29.147258 34.694216 29.927734 35.474609 C 30.200427 35.747293 30.51293 35.997484 30.832031 36.222656 C 32.048799 36.397731 32.9375 36.396484 32.9375 36.396484 C 32.9375 36.396484 31.074534 35.621371 29.927734 34.474609 C 29.46752 34.014444 29.213156 33.414079 29.074219 32.859375 C 29.0253 32.850142 28.976934 32.841376 28.927734 32.832031 L 28.919922 32.830078 z "
     transform="scale(0.26458333)" />
</svg>
