<?xml version="1.0" encoding="UTF-8" standalone="no"?>
<!-- Created with Inkscape (http://www.inkscape.org/) -->

<svg
   width="64"
   height="64"
   viewBox="0 0 16.933333 16.933334"
   version="1.1"
   id="svg5"
   inkscape:version="1.1.1 (3bf5ae0d25, 2021-09-20, custom)"
   sodipodi:docname="elisa.svg"
   xmlns:inkscape="http://www.inkscape.org/namespaces/inkscape"
   xmlns:sodipodi="http://sodipodi.sourceforge.net/DTD/sodipodi-0.dtd"
   xmlns="http://www.w3.org/2000/svg"
   xmlns:svg="http://www.w3.org/2000/svg">
  <sodipodi:namedview
     id="namedview7"
     pagecolor="#ffffff"
     bordercolor="#666666"
     borderopacity="1.0"
     inkscape:pageshadow="2"
     inkscape:pageopacity="0.0"
     inkscape:pagecheckerboard="0"
     inkscape:document-units="px"
     showgrid="false"
     units="px"
     height="64px"
     inkscape:zoom="8.7173008"
     inkscape:cx="19.845593"
     inkscape:cy="48.237409"
     inkscape:window-width="1920"
     inkscape:window-height="1019"
     inkscape:window-x="0"
     inkscape:window-y="0"
     inkscape:window-maximized="1"
     inkscape:current-layer="svg5" />
  <defs
     id="defs2" />
  <circle
     style="fill:#23da9b;stroke-width:0.529167;stroke-linecap:round;stroke-linejoin:round;fill-opacity:1"
     id="path1039"
     cx="8.4666662"
     cy="8.4666662"
     r="7.4083333" />
  <circle
     style="fill:#23b0c4;fill-opacity:1;stroke-width:0.684141;stroke-linecap:round;stroke-linejoin:round"
     id="path1200"
     cx="8.4666672"
     cy="8.4666672"
     r="6.6145835" />
  <circle
     style="fill:#ffffff;fill-opacity:1;stroke-width:0.892473;stroke-linecap:round;stroke-linejoin:round"
     id="path1414"
     cx="8.4666672"
     cy="8.4666672"
     r="4.7624998" />
  <path
     id="path4473-6"
     style="opacity:0.2;fill:#000000;fill-opacity:1;stroke-width:0.661458;stroke-linecap:round;stroke-linejoin:round"
     d="M 8.7312501,5.5562501 V 8.9953168 A 1.3229166,1.3229166 0 0 0 7.9375001,8.7312502 1.3229166,1.3229166 0 0 0 6.6145834,10.054167 1.3229166,1.3229166 0 0 0 7.9375001,11.377084 1.3229166,1.3229166 0 0 0 9.2604168,10.054167 V 6.6145835 H 10.583334 V 5.5562501 Z" />
  <path
     id="path4473"
     style="fill:#4d4d4d;fill-opacity:1;stroke-width:2.5;stroke-linecap:round;stroke-linejoin:round"
     d="M 32 20 L 32 32.998047 A 4.9999998 4.9999998 0 0 0 29 32 A 4.9999998 4.9999998 0 0 0 24 37 A 4.9999998 4.9999998 0 0 0 29 42 A 4.9999998 4.9999998 0 0 0 34 37 L 34 24 L 39 24 L 39 20 L 32 20 z "
     transform="scale(0.26458334)" />
</svg>
