<?xml version="1.0" encoding="UTF-8" standalone="no"?>
<svg
   width="64"
   height="64"
   version="1.1"
   id="svg18"
   sodipodi:docname="eog.svg"
   inkscape:version="1.1.1 (3bf5ae0d25, 2021-09-20, custom)"
   xmlns:inkscape="http://www.inkscape.org/namespaces/inkscape"
   xmlns:sodipodi="http://sodipodi.sourceforge.net/DTD/sodipodi-0.dtd"
   xmlns:xlink="http://www.w3.org/1999/xlink"
   xmlns="http://www.w3.org/2000/svg"
   xmlns:svg="http://www.w3.org/2000/svg">
  <defs
     id="defs22">
    <linearGradient
       inkscape:collect="always"
       id="linearGradient6938">
      <stop
         style="stop-color:#ffffff;stop-opacity:1;"
         offset="0"
         id="stop6934" />
      <stop
         style="stop-color:#ffffff;stop-opacity:0.09411765"
         offset="1"
         id="stop6936" />
    </linearGradient>
    <linearGradient
       inkscape:collect="always"
       id="linearGradient5865">
      <stop
         style="stop-color:#ffffff;stop-opacity:1;"
         offset="0"
         id="stop5861" />
      <stop
         style="stop-color:#fafafa;stop-opacity:1"
         offset="0.78754216"
         id="stop6125" />
      <stop
         style="stop-color:#dedede;stop-opacity:1"
         offset="1"
         id="stop5863" />
    </linearGradient>
    <linearGradient
       inkscape:collect="always"
       id="linearGradient4945">
      <stop
         style="stop-color:#94918f;stop-opacity:1;"
         offset="0"
         id="stop4941" />
      <stop
         style="stop-color:#dedcd9;stop-opacity:1"
         offset="0.10327258"
         id="stop5343" />
      <stop
         style="stop-color:#999994;stop-opacity:1"
         offset="0.21926996"
         id="stop5537" />
      <stop
         style="stop-color:#c2bfb8;stop-opacity:1"
         offset="0.86186033"
         id="stop5667" />
      <stop
         style="stop-color:#dedcd9;stop-opacity:1"
         offset="0.91096574"
         id="stop5141" />
      <stop
         style="stop-color:#bfbdba;stop-opacity:1"
         offset="1"
         id="stop4943" />
    </linearGradient>
    <linearGradient
       inkscape:collect="always"
       id="linearGradient2772">
      <stop
         style="stop-color:#1970d7;stop-opacity:1;"
         offset="0"
         id="stop2768" />
      <stop
         style="stop-color:#3382e3;stop-opacity:0.01"
         offset="1"
         id="stop2770" />
    </linearGradient>
    <linearGradient
       inkscape:collect="always"
       id="linearGradient1694">
      <stop
         style="stop-color:#eb333a;stop-opacity:1;"
         offset="0"
         id="stop1690" />
      <stop
         style="stop-color:#a145b8;stop-opacity:1"
         offset="1"
         id="stop1692" />
    </linearGradient>
    <radialGradient
       inkscape:collect="always"
       xlink:href="#linearGradient1694"
       id="radialGradient1696"
       cx="9.7711535"
       cy="19.377983"
       fx="9.7711535"
       fy="19.377983"
       r="24"
       gradientTransform="matrix(1.1514598,0.41816192,-0.47347105,1.3037603,12.999612,-13.501297)"
       gradientUnits="userSpaceOnUse" />
    <radialGradient
       inkscape:collect="always"
       xlink:href="#linearGradient2772"
       id="radialGradient2774"
       cx="33.118084"
       cy="77.770691"
       fx="33.118084"
       fy="77.770691"
       r="24"
       gradientTransform="matrix(0.85210919,-1.3248656,0.86255021,0.55476336,-44.234743,37.995971)"
       gradientUnits="userSpaceOnUse" />
    <linearGradient
       inkscape:collect="always"
       xlink:href="#linearGradient4945"
       id="linearGradient4947"
       x1="6"
       y1="39"
       x2="34"
       y2="39"
       gradientUnits="userSpaceOnUse" />
    <radialGradient
       inkscape:collect="always"
       xlink:href="#linearGradient5865"
       id="radialGradient5867"
       cx="19.983389"
       cy="41.296329"
       fx="19.983389"
       fy="41.296329"
       r="9.7998045"
       gradientTransform="matrix(1.3779336,8.9558511e-4,-0.00120876,1.8597734,-7.5024763,-39.93134)"
       gradientUnits="userSpaceOnUse" />
    <radialGradient
       inkscape:collect="always"
       xlink:href="#linearGradient6938"
       id="radialGradient6940"
       cx="21.145472"
       cy="29.98914"
       fx="21.145472"
       fy="29.98914"
       r="9.7871569"
       gradientTransform="matrix(2.5910017,0.00164637,-6.0377862e-4,0.95020651,-33.624375,1.882226)"
       gradientUnits="userSpaceOnUse" />
  </defs>
  <sodipodi:namedview
     id="namedview20"
     pagecolor="#ffffff"
     bordercolor="#666666"
     borderopacity="1.0"
     inkscape:pageshadow="2"
     inkscape:pageopacity="0.0"
     inkscape:pagecheckerboard="0"
     showgrid="false"
     inkscape:zoom="8.4410872"
     inkscape:cx="20.613458"
     inkscape:cy="32.164103"
     inkscape:window-width="1920"
     inkscape:window-height="1019"
     inkscape:window-x="0"
     inkscape:window-y="0"
     inkscape:window-maximized="1"
     inkscape:current-layer="svg18"
     inkscape:lockguides="true" />
  <circle
     style="fill:#f5f5f3;fill-opacity:1"
     cx="32"
     cy="32"
     r="28"
     id="circle4" />
  <path
     style="fill:#ffffff;opacity:0.2"
     d="M 32 4 A 28 28 0 0 0 4 32 A 28 28 0 0 0 4.0214844 32.585938 A 28 28 0 0 1 32 5 A 28 28 0 0 1 59.978516 32.414062 A 28 28 0 0 0 60 32 A 28 28 0 0 0 32 4 z"
     id="path16" />
  <path
     id="path1035"
     style="opacity:1;fill:url(#radialGradient1696);fill-opacity:1;stroke-width:1.3836"
     d="M 32 8 A 24 24 0 0 0 8 32 A 24 24 0 0 0 8.8066406 38 L 9 38 A 11 11 0 0 0 20 49 A 11 11 0 0 0 31 38 L 55.193359 38 A 24 24 0 0 0 56 32 A 24 24 0 0 0 32 8 z " />
  <path
     id="path1035-3"
     style="fill:url(#radialGradient2774);fill-opacity:1;stroke-width:1.3836"
     d="M 32 8 A 24 24 0 0 0 8 32 A 24 24 0 0 0 8.8066406 38 L 10.251953 38 C 10.751163 33.049985 14.916029 29.199219 20 29.199219 C 25.083971 29.199219 29.248838 33.049985 29.748047 38 L 55.193359 38 A 24 24 0 0 0 56 32 A 24 24 0 0 0 32 8 z " />
  <path
     style="opacity:1;fill:url(#linearGradient4947);fill-opacity:1"
     d="m 20,25 c -7.720703,0 -14,6.28125 -14,14 0,7.720704 6.279297,14 14,14 7.720704,0 14,-6.279296 14,-14 V 27.99961 C 34,26.343358 32.656642,25 31.00039,25 Z m 0,4.2 c 5.421583,0 9.8,4.378418 9.8,9.8 0,5.423176 -4.378417,9.8 -9.8,9.8 -5.421581,0 -9.8,-4.376824 -9.8,-9.8 0,-5.421582 4.378418,-9.8 9.8,-9.8 z"
     id="path16-6" />
  <path
     style="fill:#dedcd9;fill-opacity:1"
     d="m 20,24 c -7.720703,0 -14,6.28125 -14,14 0,7.720704 6.279297,14 14,14 7.720704,0 14,-6.279296 14,-14 V 26.99961 C 34,25.343358 32.656642,24 31.00039,24 Z m 0,4.2 c 5.421583,0 9.8,4.378418 9.8,9.8 0,5.423176 -4.378417,9.8 -9.8,9.8 -5.421581,0 -9.8,-4.376824 -9.8,-9.8 0,-5.421582 4.378418,-9.8 9.8,-9.8 z"
     id="path18" />
  <path
     id="circle14-9"
     style="opacity:0.094;fill:url(#radialGradient6940);fill-opacity:1"
     d="m 20,29.2 c -5.252158,0 -9.525165,4.10908 -9.78711,9.294922 1.6e-4,0.0032 -1.63e-4,0.0065 0,0.0098 0.261945,5.187198 4.534953,9.294922 9.78711,9.294922 5.252158,0 9.525165,-4.107724 9.787109,-9.294922 1.63e-4,-0.0032 -1.6e-4,-0.0065 0,-0.0098 C 29.525165,33.30908 25.252158,29.2 20,29.2 Z" />
  <path
     id="path16-6-7"
     style="fill:url(#radialGradient5867);fill-opacity:1"
     d="M 20 28 C 14.747842 28 10.474835 32.10908 10.212891 37.294922 C 10.206529 37.166317 10.20438 37.036272 10.203125 36.90625 C 10.202842 36.937041 10.201172 36.967188 10.201172 36.998047 C 10.201172 37.164251 10.204771 37.329998 10.212891 37.494141 C 10.474835 32.308299 14.747842 28.199219 20 28.199219 C 25.252158 28.199219 29.527119 32.308299 29.789062 37.494141 C 29.797162 37.329998 29.800781 37.164251 29.800781 36.998047 C 29.800781 36.967188 29.799111 36.937041 29.798828 36.90625 C 29.797568 37.036272 29.795409 37.166317 29.789062 37.294922 C 29.527119 32.10908 25.252158 28 20 28 z " />
  <path
     style="fill:#97948f;fill-opacity:1"
     d="M 32,27.500001 C 32,28.329102 31.329102,29 30.5,29 29.670897,29 29,28.329102 29,27.500001 c 0,-0.82617 0.670897,-1.5 1.5,-1.5 0.829102,0 1.5,0.67383 1.5,1.5 z m 0,0"
     id="path20" />
</svg>
