<?xml version="1.0" encoding="UTF-8" standalone="no"?>
<svg
   width="64"
   height="64"
   version="1.1"
   id="svg20"
   sodipodi:docname="org.gnome.Fileroller.svg"
   inkscape:version="1.1.1 (3bf5ae0d25, 2021-09-20, custom)"
   xmlns:inkscape="http://www.inkscape.org/namespaces/inkscape"
   xmlns:sodipodi="http://sodipodi.sourceforge.net/DTD/sodipodi-0.dtd"
   xmlns="http://www.w3.org/2000/svg"
   xmlns:svg="http://www.w3.org/2000/svg">
  <defs
     id="defs24" />
  <sodipodi:namedview
     id="namedview22"
     pagecolor="#ffffff"
     bordercolor="#666666"
     borderopacity="1.0"
     inkscape:pageshadow="2"
     inkscape:pageopacity="0.0"
     inkscape:pagecheckerboard="0"
     showgrid="false"
     inkscape:zoom="12.859375"
     inkscape:cx="32.038882"
     inkscape:cy="32"
     inkscape:window-width="1920"
     inkscape:window-height="1019"
     inkscape:window-x="0"
     inkscape:window-y="0"
     inkscape:window-maximized="1"
     inkscape:current-layer="svg20" />
  <circle
     style="fill:#c1aa7f;fill-opacity:1"
     cx="32"
     cy="32"
     r="28"
     id="circle4" />
  <g
     transform="matrix(3.779602,0,0,3.779602,-55.61116,-0.57520822)"
     id="g25">
    <path
       d="m 22.651,6.8328 v 1.7198 c 0,0.073288 0.059,0.13229 0.13229,0.13229 h 0.79374 c 0.07329,0 0.13229,-0.059001 0.13229,-0.13229 V 6.8328 Z m 0.26458,1.0583 h 0.52916 v 0.52916 h -0.52916 z"
       color="#000000"
       opacity="0.2"
       id="path15" />
    <path
       d="M 23.18,1.2767 H 22.65084 V 1.80586 H 23.18 Z m 0,0.52916 v 0.52916 h 0.52916 V 1.80586 Z m 0,0.52916 H 22.65084 V 2.86418 H 23.18 Z m 0,0.52916 v 0.52916 h 0.52916 V 2.86418 Z m 0,0.52916 H 22.65084 V 3.9225 H 23.18 Z m 0,0.52916 v 0.52916 h 0.52916 V 3.9225 Z m 0,0.52916 H 22.65084 V 4.98082 H 23.18 Z m 0,0.52916 v 0.52916 h 0.52916 V 4.98082 Z m 0,0.52916 H 22.65084 V 6.03914 H 23.18 Z m 0,0.52916 V 6.5683 h 0.52916 V 6.03914 Z"
       color="#000000"
       opacity="0.2"
       id="path17" />
    <path
       d="m 22.651,6.7667 v 1.7198 c 0,0.073288 0.059,0.13229 0.13229,0.13229 h 0.79374 c 0.07329,0 0.13229,-0.059001 0.13229,-0.13229 V 6.7667 Z m 0.26458,1.0583 h 0.52916 v 0.52916 h -0.52916 z"
       color="#000000"
       fill="#ffffff"
       id="path19" />
    <path
       d="M 23.18,1.2105 H 22.65084 V 1.73966 H 23.18 Z m 0,0.52916 v 0.52916 h 0.52916 V 1.73966 Z m 0,0.52916 H 22.65084 V 2.79798 H 23.18 Z m 0,0.52916 v 0.52916 h 0.52916 V 2.79798 Z m 0,0.52916 H 22.65084 V 3.8563 H 23.18 Z m 0,0.52916 v 0.52916 h 0.52916 V 3.8563 Z m 0,0.52916 H 22.65084 V 4.91462 H 23.18 Z m 0,0.52916 v 0.52916 h 0.52916 V 4.91462 Z m 0,0.52916 H 22.65084 V 5.97294 H 23.18 Z m 0,0.52916 V 6.5021 h 0.52916 V 5.97294 Z"
       color="#000000"
       fill="#ffffff"
       id="path21" />
  </g>
</svg>
