<?xml version="1.0" encoding="UTF-8" standalone="no"?>
<!-- Created with Inkscape (http://www.inkscape.org/) -->

<svg
   width="64"
   height="64"
   viewBox="0 0 16.933333 16.933334"
   version="1.1"
   id="svg5"
   inkscape:version="1.1.1 (3bf5ae0d25, 2021-09-20, custom)"
   sodipodi:docname="fractal.svg"
   xmlns:inkscape="http://www.inkscape.org/namespaces/inkscape"
   xmlns:sodipodi="http://sodipodi.sourceforge.net/DTD/sodipodi-0.dtd"
   xmlns="http://www.w3.org/2000/svg"
   xmlns:svg="http://www.w3.org/2000/svg">
  <sodipodi:namedview
     id="namedview7"
     pagecolor="#ffffff"
     bordercolor="#666666"
     borderopacity="1.0"
     inkscape:pageshadow="2"
     inkscape:pageopacity="0.0"
     inkscape:pagecheckerboard="0"
     inkscape:document-units="px"
     showgrid="false"
     units="px"
     height="64px"
     inkscape:zoom="6.1640625"
     inkscape:cx="21.576679"
     inkscape:cy="23.036755"
     inkscape:window-width="1920"
     inkscape:window-height="1002"
     inkscape:window-x="0"
     inkscape:window-y="0"
     inkscape:window-maximized="1"
     inkscape:current-layer="svg5" />
  <defs
     id="defs2" />
  <circle
     style="fill:#6ae5e8;stroke-width:0.529167;stroke-linecap:round;stroke-linejoin:round;fill-opacity:1"
     id="path1039"
     cx="8.4666662"
     cy="8.4666662"
     r="7.4083333" />
  <path
     style="opacity:0.2;stroke-width:0.264583"
     d="M 3.9091994,5.5562508 A 0.46873045,0.41362978 0 0 0 3.5030224,6.176368 l 0.9952882,1.5213542 v 2.7140458 c 0,0.827743 0.6744573,1.494484 1.5120525,1.494484 h 4.9133949 c 0.837595,0 1.512052,-0.666741 1.512052,-1.494484 V 7.0507334 c 0,-0.8277415 -0.674457,-1.4944826 -1.512052,-1.4944826 H 8.1580358 6.0331009 6.0103626 Z"
     id="path6" />
  <path
     id="rect8"
     style="fill:#ffffff;stroke-width:0.264583"
     d="M 3.9091994,5.2916675 A 0.46873045,0.41362978 0 0 0 3.5025057,5.9123014 l 0.9958049,1.5203208 v 2.7150798 c 0,0.827733 0.6744991,1.493966 1.5120525,1.493966 h 4.9133949 c 0.837553,0 1.512052,-0.666233 1.512052,-1.493966 V 6.7856331 c 0,-0.8277326 -0.674499,-1.4939656 -1.512052,-1.4939656 H 8.1575188 6.0331006 6.0103623 Z" />
  <path
     id="path19"
     style="stroke-width:2.32582;fill:#2c77f2;fill-opacity:1"
     d="M 28.271484 20 L 28.265625 20.001953 L 29.029297 20.001953 C 25.745292 21.629762 23.228017 24.649918 23.011719 28.480469 C 22.774553 32.667025 26.004797 36.958473 30.423828 37.144531 C 33.368326 37.267744 36.374042 35.155271 36.453125 32.041016 C 36.504262 30.033916 35.047562 27.980383 32.910156 27.96875 C 31.579766 27.961569 30.220881 28.940639 30.244141 30.359375 C 30.26266 31.205955 30.896858 32.07505 31.808594 32.033203 C 32.32027 32.012416 32.852776 31.612875 32.808594 31.054688 C 32.787806 30.759317 32.550212 30.453006 32.224609 30.490234 C 32.066436 30.511022 31.899804 30.640028 31.927734 30.814453 C 31.948522 30.893521 32.011244 30.97758 32.099609 30.958984 C 32.134381 30.952181 32.169064 30.918478 32.162109 30.878906 C 32.162109 30.86719 32.142576 30.852194 32.130859 30.859375 C 32.130859 30.859375 32.110072 30.864291 32.130859 30.871094 L 32.130859 30.882812 C 32.130859 30.899064 32.103715 30.897806 32.089844 30.890625 C 32.055072 30.872105 32.056328 30.820899 32.070312 30.792969 C 32.116838 30.716244 32.223941 30.724845 32.289062 30.771484 C 32.437938 30.876139 32.410276 31.087289 32.3125 31.212891 C 32.110182 31.468727 31.723654 31.419583 31.498047 31.226562 C 31.074728 30.861422 31.168728 29.975176 31.517578 29.59375 C 32.131593 28.923927 33.199611 29.087358 33.806641 29.675781 C 34.83002 30.664222 34.559546 32.545861 33.615234 33.478516 C 32.094201 34.98098 29.726019 34.557508 28.339844 33.101562 C 26.193133 30.845321 26.836283 27.238932 29.003906 25.248047 C 32.26184 22.254722 37.262622 23.194488 40.060547 26.320312 C 44.149285 30.895374 42.806229 37.971448 38.396484 41.806641 C 37.455422 42.587393 36.474924 43.31953 35.458984 44 L 41.287109 44 C 44.428099 44 46.960857 41.52043 47 38.425781 L 47 25.574219 C 46.961094 22.498294 44.458371 20.031701 41.34375 20.001953 L 30.832031 20 L 28.271484 20 z "
     transform="scale(0.26458334)" />
</svg>
