<?xml version="1.0" encoding="UTF-8" standalone="no"?>
<svg
   width="64"
   height="64"
   enable-background="new"
   version="1.0"
   id="svg61"
   sodipodi:docname="gnome-characters.svg"
   inkscape:version="1.1.1 (3bf5ae0d25, 2021-09-20, custom)"
   xmlns:inkscape="http://www.inkscape.org/namespaces/inkscape"
   xmlns:sodipodi="http://sodipodi.sourceforge.net/DTD/sodipodi-0.dtd"
   xmlns:xlink="http://www.w3.org/1999/xlink"
   xmlns="http://www.w3.org/2000/svg"
   xmlns:svg="http://www.w3.org/2000/svg">
  <sodipodi:namedview
     id="namedview63"
     pagecolor="#ffffff"
     bordercolor="#666666"
     borderopacity="1.0"
     inkscape:pageshadow="2"
     inkscape:pageopacity="0.0"
     inkscape:pagecheckerboard="0"
     showgrid="false"
     showguides="false"
     inkscape:zoom="12.390625"
     inkscape:cx="27.520807"
     inkscape:cy="30.95082"
     inkscape:window-width="1920"
     inkscape:window-height="1019"
     inkscape:window-x="0"
     inkscape:window-y="0"
     inkscape:window-maximized="1"
     inkscape:current-layer="svg61" />
  <defs
     id="defs5">
    <linearGradient
       inkscape:collect="always"
       id="linearGradient4770">
      <stop
         style="stop-color:#d5d3cf;stop-opacity:1;"
         offset="0"
         id="stop4766" />
      <stop
         style="stop-color:#e3e2df;stop-opacity:1"
         offset="0.05263826"
         id="stop5032" />
      <stop
         style="stop-color:#c0bfbc;stop-opacity:1"
         offset="0.09691959"
         id="stop5484" />
      <stop
         style="stop-color:#c0bfbc;stop-opacity:1"
         offset="0.89602876"
         id="stop5418" />
      <stop
         style="stop-color:#e3e2df;stop-opacity:1"
         offset="0.94713408"
         id="stop4902" />
      <stop
         style="stop-color:#d5d3cf;stop-opacity:1"
         offset="1"
         id="stop4768" />
    </linearGradient>
    <filter
       id="a"
       x="-0.032928571"
       y="-0.032928571"
       width="1.0658571"
       height="1.0658571"
       color-interpolation-filters="sRGB">
      <feGaussianBlur
         stdDeviation="4.48"
         id="feGaussianBlur2" />
    </filter>
    <linearGradient
       inkscape:collect="always"
       xlink:href="#linearGradient4770"
       id="linearGradient4772"
       x1="4"
       y1="45.707031"
       x2="60.103516"
       y2="45.707031"
       gradientUnits="userSpaceOnUse" />
    <linearGradient
       x2="1"
       gradientTransform="matrix(0,6,-12,0,-264,209.99687)"
       gradientUnits="userSpaceOnUse"
       id="linearGradient1383"
       xlink:href="#paint3_linear-2-6-5" />
    <linearGradient
       gradientTransform="matrix(0,6,-12,0,-64,209.99687)"
       gradientUnits="userSpaceOnUse"
       x2="1"
       id="paint3_linear-2-6-5">
      <stop
         id="stop91-0-7-4"
         stop-color="#C01C27" />
      <stop
         id="stop93-2-5-7"
         stop-color="#E01B24"
         offset="1" />
    </linearGradient>
  </defs>
  <circle
     style="fill:#deddda;fill-opacity:1"
     cx="32"
     cy="32.000004"
     r="28"
     id="circle4" />
  <circle
     style="fill:#f6f5f4;fill-opacity:1"
     cx="32"
     cy="32"
     r="28"
     id="circle4-3" />
  <path
     id="path23"
     style="color:#000000;fill:#deddda;stroke-width:0.51921;-inkscape-stroke:none"
     d="M 4.2050765,29.90625 A 28.000001,28.000001 0 0 0 3.9999984,31.998047 H 59.999998 a 28.000001,28.000001 0 0 0 -0.08398,-2.091797 z" />
  <path
     id="path25"
     style="color:#000000;fill:#c0bfbc;stroke-width:0.51921;-inkscape-stroke:none"
     d="M 4.2050765,29.921875 A 28.000001,28.000001 0 0 0 4.1015609,30.966797 H 59.964842 a 28.000001,28.000001 0 0 0 -0.04687,-1.044922 z" />
  <path
     id="path15588"
     style="color:#000000;fill:#deddda;stroke-width:0.51921;-inkscape-stroke:none"
     d="M 31.999998,4 A 28.000001,28.000001 0 0 0 30.921873,4.1054688 V 59.894531 A 28.000001,28.000001 0 0 0 31.999998,60 28.000001,28.000001 0 0 0 33.078123,59.894531 V 4.0371094 A 28.000001,28.000001 0 0 0 31.999998,4 Z" />
  <path
     style="opacity:0.2;fill:#ffffff"
     d="M 32,4 A 28,28 0 0 0 4,32 28,28 0 0 0 4.0215,32.58594 28,28 0 0 1 32.00002,5 28,28 0 0 1 59.97853,32.41406 28,28 0 0 0 60.00003,32 a 28,28 0 0 0 -28,-28 z"
     id="path16-3" />
  <path
     id="circle4-5-0"
     style="fill:url(#linearGradient4772);fill-opacity:1"
     d="M 4.0214844 31.414062 A 28 28 0 0 0 4 31.998047 L 4 32 C 4 33.214962 4.0862014 34.409939 4.2363281 35.583984 A 28 28 0 0 0 4.2519531 35.710938 C 4.4115603 36.915404 4.6453951 38.095116 4.953125 39.246094 C 5.5889554 41.624239 6.5303968 43.877153 7.7324219 45.960938 A 28 28 0 0 0 7.7695312 46.025391 C 8.3548645 47.033897 9.0024513 48.00024 9.7050781 48.923828 A 28 28 0 0 0 9.8808594 49.154297 C 10.5728 50.044629 11.314945 50.891525 12.107422 51.691406 A 28 28 0 0 0 12.339844 51.919922 C 13.145095 52.714106 13.994281 53.465593 14.890625 54.158203 A 28 28 0 0 0 15.082031 54.298828 C 15.986056 54.985245 16.930723 55.619026 17.916016 56.193359 A 28 28 0 0 0 18.050781 56.273438 C 19.047917 56.847205 20.086619 57.355029 21.15625 57.804688 A 28 28 0 0 0 21.398438 57.908203 C 22.443945 58.336118 23.520683 58.703219 24.625 59.003906 A 28 28 0 0 0 24.929688 59.082031 C 26.002164 59.361079 27.096408 59.583256 28.214844 59.734375 A 28 28 0 0 0 28.509766 59.771484 C 29.363115 59.877594 30.228126 59.948973 31.103516 59.976562 C 31.069076 59.972662 31.034426 59.970897 31 59.966797 L 31 59.933594 A 28 28 0 0 0 32 60 A 28 28 0 0 0 33.103516 59.927734 L 33.103516 59.96875 C 33.06909 59.97285 33.03444 59.974616 33 59.978516 C 48.04825 59.504242 60.103516 47.165366 60.103516 32.001953 L 60.103516 32 L 60.025391 32 C 60.004516 32.295635 59.971385 32.587836 59.941406 32.880859 A 28 28 0 0 0 60 32 A 28 28 0 0 0 59.978516 31.585938 A 28 28 0 0 1 59.722656 34.574219 C 57.592149 47.539973 46.558604 57.499256 33.103516 57.972656 L 33.103516 58.927734 A 28 28 0 0 1 32 59 A 28 28 0 0 1 31 58.935547 L 31 57.970703 C 16.667232 57.466423 5.0807791 46.19795 4.078125 31.998047 L 4.0683594 31.998047 A 28 28 0 0 1 4.0214844 31.414062 z " />
  <g
     transform="matrix(0.46428571,0,0,0.46428803,169.82363,-77.070426)"
     style="display:inline;enable-background:new"
     id="g1381">
    <rect
       ry="13.072174"
       id="rect1371"
       rx="13.072174"
       height="28"
       width="28"
       style="display:inline;fill:#f5c211;enable-background:new"
       x="-283.92783"
       y="193.99687" />
    <path
       id="path1373"
       d="m -276,211 h 12 v 0.99687 c 0,2.20914 -1.7909,4 -4,4 h -4 c -2.20914,0 -4,-1.79086 -4,-4 z"
       style="display:inline;fill:url(#linearGradient1383);enable-background:new" />
    <rect
       id="rect1375"
       height="2"
       width="12"
       style="display:inline;fill:#ffffff;enable-background:new"
       x="-276"
       y="209.99687" />
    <path
       id="path1377"
       d="m -276,204.99687 c 0,-0.55229 0.44772,-1 1,-1 0.55228,0 1,0.44771 1,1 v 3 h -2 z"
       style="display:inline;fill:#b45600;enable-background:new" />
    <path
       id="path1379"
       d="m -266,204.99687 c 0,-0.55229 0.44772,-1 1,-1 0.55228,0 1,0.44771 1,1 v 3 h -2 z"
       style="display:inline;fill:#b45600;enable-background:new" />
  </g>
  <g
     transform="matrix(0.49999751,0,0,0.5,182.44643,-85)"
     style="display:inline;enable-background:new"
     id="g1387">
    <path
       style="color:#000000;font-style:normal;font-variant:normal;font-weight:normal;font-stretch:normal;font-size:medium;line-height:normal;font-family:sans-serif;font-variant-ligatures:normal;font-variant-position:normal;font-variant-caps:normal;font-variant-numeric:normal;font-variant-alternates:normal;font-feature-settings:normal;text-indent:0;text-align:start;text-decoration:none;text-decoration-line:none;text-decoration-style:solid;text-decoration-color:#000000;letter-spacing:normal;word-spacing:normal;text-transform:none;writing-mode:lr-tb;direction:ltr;text-orientation:mixed;dominant-baseline:auto;baseline-shift:baseline;text-anchor:start;white-space:normal;shape-padding:0;clip-rule:nonzero;display:inline;overflow:visible;visibility:visible;opacity:1;isolation:auto;mix-blend-mode:normal;color-interpolation:sRGB;color-interpolation-filters:linearRGB;solid-color:#000000;solid-opacity:1;vector-effect:none;fill:#62a0ea;fill-opacity:1;fill-rule:nonzero;stroke:none;stroke-width:4;stroke-linecap:butt;stroke-linejoin:round;stroke-miterlimit:4;stroke-dasharray:none;stroke-dashoffset:0;stroke-opacity:1;color-rendering:auto;image-rendering:auto;shape-rendering:auto;text-rendering:auto;enable-background:new"
       d="m 26,20 v 17 c 0,0 0.123719,2.819005 -2.894531,4.328125 l 1.789062,3.576172 C 29.876281,42.413417 30,37 30,37 v -1 h 12 v 2 c 0,0 -0.0278,1.167429 -0.470703,2.230469 C 41.086357,41.293509 40.7,42 39,42 h -1 l -2,4 h 2 1 c 3.3,0 5.413643,-2.293509 6.220703,-4.230469 C 46.027773,39.832571 46,38 46,38 V 20 Z m 4,4 h 12 v 2 H 30 Z m 0,6 h 12 v 2 H 30 Z"
       transform="translate(-358,176)"
       id="path1385" />
  </g>
  <path
     id="path1389"
     style="color:#000000;font-style:normal;font-variant:normal;font-weight:normal;font-stretch:normal;font-size:medium;line-height:normal;font-family:sans-serif;font-variant-ligatures:normal;font-variant-position:normal;font-variant-caps:normal;font-variant-numeric:normal;font-variant-alternates:normal;font-feature-settings:normal;text-indent:0;text-align:start;text-decoration:none;text-decoration-line:none;text-decoration-style:solid;text-decoration-color:#000000;letter-spacing:normal;word-spacing:normal;text-transform:none;writing-mode:lr-tb;direction:ltr;text-orientation:mixed;dominant-baseline:auto;baseline-shift:baseline;text-anchor:start;white-space:normal;shape-padding:0;clip-rule:nonzero;display:inline;overflow:visible;visibility:visible;isolation:auto;mix-blend-mode:normal;color-interpolation:sRGB;color-interpolation-filters:linearRGB;solid-color:#000000;solid-opacity:1;vector-effect:none;fill:#26a269;fill-opacity:1;fill-rule:nonzero;stroke:none;stroke-width:1.86195;stroke-linecap:butt;stroke-linejoin:miter;stroke-miterlimit:4;stroke-dasharray:none;stroke-dashoffset:0;stroke-opacity:1;color-rendering:auto;image-rendering:auto;shape-rendering:auto;text-rendering:auto;enable-background:new"
     d="m 46.345128,36 a 0.93097407,0.93097871 0 0 0 -0.930974,0.930979 0.93097407,0.93097871 0 0 0 0.930974,0.930978 0.93097407,0.93097871 0 0 0 0.930974,-0.930978 A 0.93097407,0.93097871 0 0 0 46.345128,36 Z m -1.861948,2.792936 a 0.93097407,0.93097871 0 0 0 -0.930974,0.930979 0.93097407,0.93097871 0 0 0 0.930974,0.930979 0.93097407,0.93097871 0 0 0 0.930974,-0.930979 0.93097407,0.93097871 0 0 0 -0.930974,-0.930979 z m 3.723896,0 a 0.93097407,0.93097871 0 0 0 -0.930974,0.930979 0.93097407,0.93097871 0 0 0 0.930974,0.930979 0.93097407,0.93097871 0 0 0 0.930974,-0.930979 0.93097407,0.93097871 0 0 0 -0.930974,-0.930979 z m 2.792923,2.792937 -1.861949,0.930978 v 1.861957 H 47.276102 V 43.44783 42.516851 l -1.861948,0.930979 v 0.930978 l -3.723897,-9.28e-4 0.03364,1.862889 c -4.66e-4,0.524739 -0.406096,0.93007 -0.930974,0.93007 -0.525196,0 -0.930974,-0.405784 -0.930974,-0.930979 h -1.861948 c 0,1.531474 1.26146,2.792936 2.792922,2.792936 1.531457,0 2.792922,-1.261462 2.792922,-2.792936 L 51,46.240769 Z m -7.414154,1.860142 -1.861948,0.930978 h 1.861948 z M 39.861948,45.307972 38,46.23895 h 1.861948 z" />
  <path
     d="m 20.080645,42.072292 q 0,-0.561946 -0.184516,-0.972911 -0.184515,-0.419361 -0.486452,-0.704532 -0.117424,-0.117436 -0.251613,-0.218057 -0.201291,-0.150968 -0.285161,-0.234835 -0.335483,-0.318716 -0.503226,-0.738076 -0.167742,-0.419361 -0.167742,-0.889032 0,-0.486462 0.17613,-0.897428 0.176128,-0.410965 0.494838,-0.72968 0.268386,-0.26838 0.754839,-0.503228 Q 20.013548,36 20.491613,36 q 0.478064,0 0.880644,0.184513 0.452904,0.201291 0.75484,0.503228 0.318709,0.318715 0.494838,0.72968 0.176129,0.410966 0.176129,0.897428 0,0.511611 -0.176129,0.914193 -0.176129,0.394199 -0.494838,0.712915 -0.08387,0.08383 -0.301936,0.234835 -0.0671,0.05035 -0.234838,0.218057 -0.343872,0.335494 -0.511613,0.746472 -0.159355,0.402582 -0.159355,0.930971 0.570323,0 0.989676,-0.19292 0.427742,-0.201279 0.704516,-0.478067 0.109029,-0.109066 0.209678,-0.243218 0.150969,-0.209674 0.23484,-0.293554 0.327097,-0.327086 0.746451,-0.494833 0.419355,-0.176129 0.889032,-0.176129 0.486451,0 0.89742,0.176129 0.410968,0.17613 0.729677,0.494833 0.301937,0.301937 0.503225,0.754854 Q 27,42.013574 27,42.491641 q 0,0.478079 -0.17613,0.872266 -0.201288,0.452905 -0.503225,0.754842 -0.318709,0.318715 -0.729677,0.494832 -0.410969,0.176142 -0.89742,0.176142 -0.469677,0 -0.889032,-0.167759 -0.419354,-0.176117 -0.746451,-0.503215 -0.08387,-0.08383 -0.23484,-0.293554 -0.100645,-0.13419 -0.209678,-0.243231 -0.34387,-0.327098 -0.754838,-0.494833 -0.402581,-0.176129 -0.939354,-0.176129 0,0.570316 0.192903,0.998073 0.20129,0.419348 0.478065,0.696123 0.109029,0.109066 0.243225,0.209687 0.209678,0.150968 0.293549,0.234835 0.327097,0.327099 0.494838,0.746447 0.176129,0.419361 0.176129,0.889044 0,0.48645 -0.176129,0.897428 -0.176129,0.410965 -0.494838,0.729668 -0.301936,0.301949 -0.75484,0.50324 -0.394193,0.17613 -0.872257,0.17613 -0.478064,0 -0.872258,-0.17613 -0.452903,-0.201291 -0.754839,-0.50324 -0.31871,-0.318703 -0.494838,-0.729668 -0.17613,-0.410978 -0.17613,-0.897428 0,-0.469683 0.167742,-0.889044 0.176129,-0.419348 0.503226,-0.746447 0.08387,-0.08383 0.293548,-0.234835 0.134194,-0.100696 0.243226,-0.209687 0.327097,-0.343876 0.494839,-0.746446 0.176129,-0.410978 0.176129,-0.94775 -0.528386,0 -0.947741,0.176129 -0.410969,0.167735 -0.738066,0.494833 -0.117424,0.117436 -0.218063,0.251614 -0.150969,0.201304 -0.23484,0.285171 -0.31871,0.335481 -0.738064,0.503215 -0.419355,0.167759 -0.889032,0.167759 -0.486452,0 -0.89742,-0.176142 Q 15.006452,44.437464 14.687742,44.118749 14.410967,43.850356 14.184515,43.363907 14,42.978103 14,42.500024 q 0,-0.478067 0.184515,-0.880637 0.201291,-0.452917 0.503227,-0.754854 0.31871,-0.318703 0.729677,-0.494833 0.410968,-0.176129 0.89742,-0.176129 0.511612,0 0.905806,0.176129 0.40258,0.17613 0.72129,0.494833 0.08387,0.08383 0.23484,0.301937 0.05032,0.06709 0.218063,0.234835 0.335485,0.335494 0.746451,0.503241 0.41097,0.167746 0.939356,0.167746 z"
     style="font-style:normal;font-weight:normal;font-size:medium;line-height:1000%;font-family:sans-serif;letter-spacing:0px;word-spacing:0px;display:inline;fill:#a347ba;fill-opacity:1;stroke:none;stroke-width:0.42942px;stroke-linecap:butt;stroke-linejoin:miter;stroke-opacity:1;enable-background:new"
     id="path1476" />
</svg>
