<?xml version="1.0" encoding="UTF-8" standalone="no"?>
<svg
   width="64"
   height="64"
   version="1.1"
   id="svg18"
   sodipodi:docname="gnome-boxes.svg"
   inkscape:version="1.1.1 (3bf5ae0d25, 2021-09-20, custom)"
   xmlns:inkscape="http://www.inkscape.org/namespaces/inkscape"
   xmlns:sodipodi="http://sodipodi.sourceforge.net/DTD/sodipodi-0.dtd"
   xmlns="http://www.w3.org/2000/svg"
   xmlns:svg="http://www.w3.org/2000/svg">
  <defs
     id="defs22" />
  <sodipodi:namedview
     id="namedview20"
     pagecolor="#ffffff"
     bordercolor="#666666"
     borderopacity="1.0"
     inkscape:pageshadow="2"
     inkscape:pageopacity="0.0"
     inkscape:pagecheckerboard="0"
     showgrid="false"
     inkscape:zoom="12.25"
     inkscape:cx="32.081633"
     inkscape:cy="32.040816"
     inkscape:window-width="1920"
     inkscape:window-height="1019"
     inkscape:window-x="0"
     inkscape:window-y="0"
     inkscape:window-maximized="1"
     inkscape:current-layer="svg18" />
  <circle
     style="fill:#4d4d4d;fill-opacity:1"
     cx="32"
     cy="32"
     r="28"
     id="circle4" />
  <g
     id="g18"
     transform="matrix(1.6363636,0,0,1.6363636,-73.44016,-412.31178)"
     style="enable-background:new">
    <g
       id="g16"
       transform="translate(0.43621586,-0.4759781)">
      <path
         id="path10"
         d="m 8.4355469,4.5234375 a 3,3 0 0 0 -3,3 3,3 0 0 0 2,2.8281245 v 10.34375 a 3,3 0 0 0 -2,2.828126 3,3 0 0 0 3,3 3,3 0 0 0 2.8281251,-2 h 10.34375 a 3,3 0 0 0 2.828125,2 3,3 0 0 0 3,-3 3,3 0 0 0 -2,-2.828126 v -10.34375 a 3,3 0 0 0 2,-2.8281245 3,3 0 0 0 -3,-3 3,3 0 0 0 -2.826172,2 H 11.263672 a 3,3 0 0 0 -2.8281251,-2 z m 2.8281251,4 h 10.34375 a 3,3 0 0 0 0.382812,0.7382813 l -1.408203,1.4082032 a 1.5,1.5 0 0 0 -0.646484,-0.146484 1.5,1.5 0 0 0 -1.412109,1 h -4.171876 a 1.5,1.5 0 0 0 -1.416015,-1 1.5,1.5 0 0 0 -0.644531,0.148437 L 10.880859,9.2617188 a 3,3 0 0 0 0.382813,-0.7382813 z m -1.091797,1.4472656 1.410156,1.4101559 a 1.5,1.5 0 0 0 -0.146484,0.642579 1.5,1.5 0 0 0 1,1.414062 v 4.171875 a 1.5,1.5 0 0 0 -1,1.414063 1.5,1.5 0 0 0 0.148437,0.648437 l -1.408203,1.408203 A 3,3 0 0 0 9.4355469,20.695312 V 10.351562 A 3,3 0 0 0 10.171875,9.9707031 Z m 12.527344,0 a 3,3 0 0 0 0.736328,0.3808589 v 10.34375 a 3,3 0 0 0 -0.740235,0.384766 l -1.408203,-1.408203 a 1.5,1.5 0 0 0 0.148438,-0.648437 1.5,1.5 0 0 0 -1,-1.414063 V 13.4375 a 1.5,1.5 0 0 0 1,-1.414062 1.5,1.5 0 0 0 -0.146485,-0.642579 z m -8.347657,2.5527349 h 4.169922 a 1.5,1.5 0 0 0 0.914063,0.914062 v 4.171875 a 1.5,1.5 0 0 0 -0.912109,0.914063 H 14.351562 A 1.5,1.5 0 0 0 13.435547,17.609375 V 13.4375 a 1.5,1.5 0 0 0 0.916015,-0.914062 z m 0,7 h 4.169922 a 1.5,1.5 0 0 0 1.414063,1 1.5,1.5 0 0 0 0.646484,-0.146485 l 1.410157,1.408203 a 3,3 0 0 0 -0.382813,0.738282 H 11.263672 a 3,3 0 0 0 -0.382813,-0.738282 l 1.408203,-1.408203 a 1.5,1.5 0 0 0 0.646485,0.146485 1.5,1.5 0 0 0 1.416015,-1 z"
         transform="translate(47.563784,256.47598)"
         style="fill:#ffffff;fill-opacity:1" />
    </g>
  </g>
</svg>
