<?xml version="1.0" encoding="UTF-8" standalone="no"?>
<svg
   width="64"
   height="64"
   version="1"
   id="svg16"
   sodipodi:docname="gnome-mahjongg.svg"
   inkscape:version="1.1.1 (3bf5ae0d25, 2021-09-20)"
   xmlns:inkscape="http://www.inkscape.org/namespaces/inkscape"
   xmlns:sodipodi="http://sodipodi.sourceforge.net/DTD/sodipodi-0.dtd"
   xmlns="http://www.w3.org/2000/svg"
   xmlns:svg="http://www.w3.org/2000/svg">
  <defs
     id="defs20" />
  <sodipodi:namedview
     id="namedview18"
     pagecolor="#ffffff"
     bordercolor="#666666"
     borderopacity="1.0"
     inkscape:pageshadow="2"
     inkscape:pageopacity="0.0"
     inkscape:pagecheckerboard="0"
     showgrid="false"
     inkscape:zoom="6.4296875"
     inkscape:cx="-10.109356"
     inkscape:cy="61.978129"
     inkscape:window-width="1920"
     inkscape:window-height="1016"
     inkscape:window-x="0"
     inkscape:window-y="34"
     inkscape:window-maximized="1"
     inkscape:current-layer="svg16" />
  <circle
     style="opacity:0.2;stroke-width:0.999999"
     cx="32"
     cy="33"
     r="28"
     id="circle2" />
  <circle
     style="opacity:1;fill:#f9f06b;fill-opacity:1"
     id="path2390"
     cx="32"
     cy="32"
     r="28" />
  <path
     style="fill:#e5a50a;fill-opacity:1;stroke-width:0.860587"
     d="m 18.555854,21.476 -1.049513,0.938914 0.02353,2.836782 L 10,25.035205 11.110694,26.19196 h 6.428592 l 0.01647,2.517317 H 13.91401 l -1.437785,-0.687123 0.06118,7.071262 1.574267,-0.811843 V 32.9986 h 3.479375 l 0.01882,3.437018 -7.456924,-0.05883 1.943715,1.971952 0.833021,-1.064652 h 4.689601 l 0.01181,2.003565 c 0,0.595848 0.555347,1.18835 0.555347,1.18835 l 1.541324,-1.127167 c 0,0 -0.738895,-0.464332 -0.738895,-1.000096 l -0.01883,-1.064652 h 7.65746 l -2.176678,-1.862686 -1.04716,1.063632 -4.466566,-0.03764 -0.06353,-3.448783 h 2.132013 l 0.656534,1.3771 1.48769,-1.160111 -0.463574,-0.531817 v -3.53681 l 1.016567,-0.623585 -2.779576,-1.315423 0.01411,1.501323 H 18.74885 l -0.04943,-2.517319 h 6.60089 l -2.174327,-2.204917 -1.049511,1.408194 -3.412349,-0.108244 z m -4.444172,8.016882 h 3.448782 l 0.0094,0.993516 h -3.458193 z m 4.658309,0 h 2.176724 l 0.01188,0.993516 H 18.80298 Z m -4.658309,1.774766 h 3.465255 l 0.0072,0.947348 h -3.472313 z m 4.712432,0 h 2.141428 l 0.01188,0.947346 h -2.125027 z"
     id="path10" />
  <path
     style="fill:#e5a50a;fill-opacity:1;stroke-width:0.816326"
     d="m 45.299107,21.976 c 0,2.228675 -0.04413,4.648577 -0.352679,6.601165 L 38,28.545916 l 0.756695,0.845261 h 5.970983 c -0.74856,3.341195 -2.472769,6.235137 -6.464285,8.622769 l 0.265626,1.627231 c 4.254346,-2.019239 6.97215,-5.169482 7.834819,-10.25 h 7.56027 l -2.667413,-2.667411 -1.171874,1.877952 -3.562499,-0.01567 c 0.09221,-0.834848 0.1384,-2.044127 0.1384,-2.978398 l 1.325893,-0.301341 z m 3.479912,1.930804 -0.754465,0.377231 c 0.788591,0.727465 1.854311,1.317967 1.890625,2.421873 l 1.513393,-1.13616 c -0.608239,-0.897529 -1.652164,-1.252006 -2.649553,-1.662944 z m -2.042412,6.165176 c 0,5.161251 5.787947,9.607144 5.787947,9.607144 L 54,37.333143 c 0,0 -6.430804,-3.099838 -6.430804,-7.073662 z"
     id="path12" />
  <path
     id="rect859"
     style="opacity:1;fill:#f7d782;fill-opacity:0.94901961;stroke-width:0.96502"
     d="M 32 4 A 28 28 0 0 0 30 4.1425781 L 30 59.857422 A 28 28 0 0 0 32 60 L 32 4 z " />
  <path
     id="rect859-3"
     style="fill:#fbf5a1;fill-opacity:1;stroke-width:0.96502"
     d="M 32 4 L 32 60 A 28 28 0 0 0 34 59.857422 L 34 4.0800781 A 28 28 0 0 0 32 4 z " />
  <path
     id="path866-6"
     style="opacity:0.2;fill:#ffffff;fill-opacity:1;stroke-width:0.873441"
     d="M 32,4 A 27.999999,27.999999 0 0 0 4,32 27.999999,27.999999 0 0 0 4.035156,32.5 27.999999,27.999999 0 0 1 32,5 27.999999,27.999999 0 0 1 59.982422,32.251953 27.999999,27.999999 0 0 0 60.000002,32 a 27.999999,27.999999 0 0 0 -28,-28 z" />
</svg>
