<?xml version="1.0" encoding="UTF-8" standalone="no"?>
<!-- Created with Inkscape (http://www.inkscape.org/) -->

<svg
   width="64"
   height="64"
   viewBox="0 0 16.933333 16.933333"
   version="1.1"
   id="svg5"
   inkscape:version="1.1.1 (3bf5ae0d25, 2021-09-20, custom)"
   sodipodi:docname="google-chrome-beta.svg"
   xmlns:inkscape="http://www.inkscape.org/namespaces/inkscape"
   xmlns:sodipodi="http://sodipodi.sourceforge.net/DTD/sodipodi-0.dtd"
   xmlns:xlink="http://www.w3.org/1999/xlink"
   xmlns="http://www.w3.org/2000/svg"
   xmlns:svg="http://www.w3.org/2000/svg">
  <sodipodi:namedview
     id="namedview7"
     pagecolor="#ffffff"
     bordercolor="#666666"
     borderopacity="1.0"
     inkscape:pageshadow="2"
     inkscape:pageopacity="0.0"
     inkscape:pagecheckerboard="0"
     inkscape:document-units="px"
     showgrid="true"
     units="px"
     height="48px"
     inkscape:zoom="5.656854"
     inkscape:cx="51.176856"
     inkscape:cy="58.071147"
     inkscape:window-width="1541"
     inkscape:window-height="947"
     inkscape:window-x="45"
     inkscape:window-y="29"
     inkscape:window-maximized="0"
     inkscape:current-layer="svg5"
     inkscape:lockguides="true" />
  <defs
     id="defs2">
    <linearGradient
       inkscape:collect="always"
       xlink:href="#linearGradient8986"
       id="linearGradient8988"
       x1="343.89917"
       y1="131.7724"
       x2="288.6394"
       y2="105.74506"
       gradientUnits="userSpaceOnUse"
       gradientTransform="translate(27.10082,13.354545)" />
    <linearGradient
       inkscape:collect="always"
       id="linearGradient8986">
      <stop
         style="stop-color:#055524;stop-opacity:0.40000001"
         offset="0"
         id="stop8982" />
      <stop
         style="stop-color:#055524;stop-opacity:0.00243676"
         offset="0.33000001"
         id="stop9592" />
      <stop
         style="stop-color:#055524;stop-opacity:0;"
         offset="1"
         id="stop8984" />
    </linearGradient>
    <linearGradient
       inkscape:collect="always"
       xlink:href="#linearGradient5320"
       id="linearGradient5322"
       x1="339.97534"
       y1="29.645454"
       x2="359.89917"
       y2="91.645454"
       gradientUnits="userSpaceOnUse"
       gradientTransform="translate(27.100816,13.354545)" />
    <linearGradient
       inkscape:collect="always"
       id="linearGradient5320">
      <stop
         style="stop-color:#ea6100;stop-opacity:0.3019608"
         offset="0"
         id="stop5316" />
      <stop
         style="stop-color:#ea6100;stop-opacity:0.00289255"
         offset="0.66000003"
         id="stop5388" />
      <stop
         style="stop-color:#ea6100;stop-opacity:0;"
         offset="1"
         id="stop5318" />
    </linearGradient>
    <linearGradient
       inkscape:collect="always"
       xlink:href="#linearGradient7553"
       id="linearGradient7555"
       x1="257.79175"
       y1="63.645454"
       x2="308.25464"
       y2="33.645454"
       gradientUnits="userSpaceOnUse"
       gradientTransform="translate(27.190663,13.454155)" />
    <linearGradient
       inkscape:collect="always"
       id="linearGradient7553">
      <stop
         style="stop-color:#a52714;stop-opacity:0.99215686"
         offset="0"
         id="stop7549" />
      <stop
         style="stop-color:#a52714;stop-opacity:0"
         offset="0.66000003"
         id="stop7777" />
      <stop
         style="stop-color:#a52714;stop-opacity:0;"
         offset="1"
         id="stop7551" />
    </linearGradient>
    <radialGradient
       inkscape:collect="always"
       xlink:href="#linearGradient29324"
       id="radialGradient29326"
       cx="359.70151"
       cy="117.08517"
       fx="359.70151"
       fy="117.08517"
       r="19.409994"
       gradientTransform="matrix(3.4729536,0,0,3.5600214,-905.19043,-322.30696)"
       gradientUnits="userSpaceOnUse" />
    <linearGradient
       inkscape:collect="always"
       id="linearGradient29324">
      <stop
         style="stop-color:#263238;stop-opacity:0.2"
         offset="0"
         id="stop29320" />
      <stop
         style="stop-color:#263238;stop-opacity:0;"
         offset="1"
         id="stop29322" />
    </linearGradient>
    <radialGradient
       inkscape:collect="always"
       xlink:href="#linearGradient27513"
       id="radialGradient27515"
       cx="349"
       cy="20.275003"
       fx="349"
       fy="20.275003"
       r="39.200001"
       gradientTransform="matrix(2.020408,0,0,1.8998723,-356.12236,10.480081)"
       gradientUnits="userSpaceOnUse" />
    <linearGradient
       inkscape:collect="always"
       id="linearGradient27513">
      <stop
         style="stop-color:#3e2723;stop-opacity:0.2"
         offset="0"
         id="stop27509" />
      <stop
         style="stop-color:#3e2723;stop-opacity:0"
         offset="1"
         id="stop27511" />
    </linearGradient>
    <radialGradient
       inkscape:collect="always"
       xlink:href="#linearGradient27513"
       id="radialGradient35106"
       cx="274.87961"
       cy="46.549999"
       fx="274.87961"
       fy="46.549999"
       r="28.625"
       gradientTransform="matrix(2.3973753,0,0,2.4393014,-384.09686,-71.986974)"
       gradientUnits="userSpaceOnUse" />
  </defs>
  <g
     id="g38077"
     transform="matrix(0.0841856,0,0,0.0841856,-20.914108,0.97414771)">
    <path
       id="path2795"
       style="fill:#db4437;fill-opacity:1;stroke-width:0.951353"
       d="M 349,1 A 88,88 0 0 0 274.89258,41.562503 L 314.34961,109 C 315.29922,108.6 349,49.000003 349,49.000003 h 78.35547 A 88,88 0 0 0 349,1 Z" />
    <path
       id="path2999"
       style="fill:#0f9d58;fill-opacity:1;stroke-width:1.04222"
       d="M 274.9082,41.535153 A 88,88 0 0 0 261,89.000003 88,88 0 0 0 345.07617,176.71875 l 38.66406,-67.61914 h -69.30078 z" />
    <path
       id="path2999-9"
       style="fill:url(#linearGradient8988);fill-opacity:1;stroke-width:1.04222"
       d="M 274.9082,41.535153 A 88,88 0 0 0 261,89.000003 88,88 0 0 0 345.07617,176.71875 l 38.66406,-67.61914 h -69.30078 z" />
    <path
       id="path4009"
       style="fill:#ffcd40;fill-opacity:1;stroke-width:0.940164"
       d="m 349,49.000003 34.74023,60.099607 -38.66406,67.61914 c 1.30568,0.12298 2.61395,0.21675 3.92383,0.28125 48.60106,0 88,-39.39894 88,-87.999997 -0.009,-13.90814 -3.31392,-27.61616 -9.64453,-40 z"
       sodipodi:nodetypes="ccccccc" />
    <path
       id="path4009-7"
       style="fill:url(#linearGradient5322);fill-opacity:1;stroke-width:0.940164"
       d="m 349,49.000003 34.74023,60.099617 -38.66406,67.61913 c 1.30568,0.12298 2.61395,0.21675 3.92383,0.28125 48.60106,0 88,-39.39894 88,-87.999995 -0.009,-13.908142 -3.31392,-27.616162 -9.64453,-40.000002 z"
       sodipodi:nodetypes="ccccccc" />
    <path
       id="rect37027"
       style="fill:#3e2723;fill-opacity:0.14902"
       d="m 274.55273,39.644531 a 88,88 0 0 0 -0.5664,0.75586 l -0.0781,0.134765 39.53907,67.800784 0.86132,-0.5 z"
       transform="translate(1,1)" />
    <path
       id="path2795-2"
       style="fill:url(#linearGradient7555);fill-opacity:1;stroke-width:0.951353"
       d="m 349.08984,1.09961 a 88,88 0 0 0 -74.10742,40.562503 l 39.45703,67.437497 c 0.94961,-0.4 34.65039,-59.999997 34.65039,-59.999997 h 78.35547 A 88,88 0 0 0 349.08984,1.09961 Z" />
    <path
       id="path10302"
       style="fill:#3e2723;fill-opacity:0.2;stroke-width:0.860913"
       d="m 348,47 c -22.09139,0 -40,17.90861 -40,40 0.012,0.166747 0.025,0.333417 0.0391,0.5 C 308.31254,65.619325 326.11762,48.019659 348,48 h 78.35547 a 88,88 0 0 0 -0.58985,-1 z"
       transform="translate(1,1)" />
    <path
       id="rect11816"
       style="fill:url(#radialGradient29326);fill-opacity:1"
       d="m 383.89616,108.81875 -17.86,-10.3 -20.95999,78.2 z"
       sodipodi:nodetypes="cccc" />
    <path
       id="rect12627"
       style="fill:#ffffff;fill-opacity:0.2"
       d="M 376.80664,60.263672 C 383.98405,67.713816 387.99593,77.654963 388,88 l -5.25977,20.09961 -38.66406,67.61914 c 0.26779,0.0252 0.53669,0.0358 0.80469,0.0586 l 37.48047,-64.76562 c 0.48828,-0.78008 0.94949,-1.57678 1.38281,-2.38867 l 0.98047,-1.69532 -0.0762,0.0371 C 387.48169,101.39845 388.97197,95.245896 389,89 388.99522,78.165136 384.59528,67.795701 376.80664,60.263672 Z"
       transform="translate(1,1)" />
    <path
       id="path13191"
       style="fill:#3e2723;fill-opacity:0.1;stroke-width:0.986001"
       d="M 349,48 A 40,40 0 0 0 348.74219,48.01758 40,40 0 0 1 388,88 40,40 0 0 1 348.5,127.96484 40,40 0 0 0 349,128 40,40 0 0 0 389,88 40,40 0 0 0 349,48 Z"
       transform="translate(1,1)" />
    <path
       id="path13191-8"
       style="fill:#3e2723;fill-opacity:0.1;stroke-width:0.986001"
       d="m 350,48.999956 a 40,40 0 0 0 -0.25781,0.01758 A 40,40 0 0 1 389,88.999956 40,40 0 0 1 349.5,128.9648 40,40 0 0 0 350,129 a 40,40 0 0 0 40,-40.000004 40,40 0 0 0 -40,-40 z" />
    <path
       id="rect14116"
       style="fill:url(#radialGradient27515);fill-opacity:1"
       d="m 349,49.000004 h 78.4 L 349,69.950005 Z"
       sodipodi:nodetypes="cccc" />
    <path
       id="path111-3"
       d="m 273.9082,40.535156 a 88,88 0 0 0 -0.17773,0.316406 l 39.82031,68.248048 c 6.92,11.94 19.79961,20 34.59961,20 12.63154,0 23.8492,-5.87576 31.17188,-15.02344 l 3.30859,-5.78515 c -6.94681,11.83259 -19.76124,19.80859 -34.48047,19.80859 -14.8,0 -27.69961,-8.06 -34.59961,-20 h -0.041 -0.0703 z"
       style="fill:#ffffff;fill-opacity:0.1"
       transform="translate(1,1)" />
    <path
       id="path33289"
       style="fill:#ffffff;fill-opacity:0.2;stroke-width:0.905648"
       d="m 348,0 a 88,88 0 0 0 -88,88 88,88 0 0 0 0.0352,0.5 A 88,88 0 0 1 348,1 88,88 0 0 1 435.98242,88.253906 88,88 0 0 0 436,88 88,88 0 0 0 348,0 Z"
       transform="translate(1,1)" />
    <path
       id="rect34189"
       style="fill:url(#radialGradient35106);fill-opacity:1"
       d="m 274.89258,41.562503 57.25,57.239999 -17.78,10.409998 z"
       sodipodi:nodetypes="cccc" />
    <path
       id="path35564"
       style="fill:#3e2723;fill-opacity:0.14902;stroke-width:0.98282"
       d="M 435.98242,87.253906 A 88,88 0 0 1 348,175 88,88 0 0 1 260.03516,87.5 88,88 0 0 0 260,88 a 88,88 0 0 0 88,88 88,88 0 0 0 88,-88 88,88 0 0 0 -0.0176,-0.746094 z"
       transform="translate(1,1)" />
    <path
       id="rect35898"
       style="fill:#263238;fill-opacity:0.14902"
       d="m 382.63086,108.29102 -1.66016,0.88086 -38.01172,66.46679 a 88,88 0 0 0 1.10547,0.0801 z"
       transform="translate(1,1)" />
    <circle
       style="fill:#f1f1f1;fill-opacity:1;stroke-width:1.07656"
       id="path10697"
       cx="349"
       cy="89"
       r="40" />
    <circle
       style="fill:#4285f4;fill-opacity:1;stroke-width:1.34765"
       id="path11362"
       cx="349"
       cy="89"
       r="32" />
  </g>
  <path
     id="path898"
     style="fill:#414242;fill-opacity:1;stroke-width:3.99999;stroke-linecap:round;stroke-linejoin:round"
     d="M 5.1757812 40 A 28 28 0 0 0 32 60 A 28 28 0 0 0 58.824219 40 L 5.1757812 40 z "
     transform="scale(0.26458333)" />
  <path
     id="path59350"
     style="font-size:33.394px;line-height:1.25;font-family:'Google Sans';-inkscape-font-specification:'Google Sans';fill:#ffffff;stroke-width:0.0694067"
     d="m 5.8208332,11.641666 v 1.987799 H 6.573384 c 0.1054971,0 0.2038212,-0.02412 0.2945112,-0.07224 0.092541,-0.04812 0.1654231,-0.114117 0.219097,-0.199257 0.055524,-0.08699 0.083353,-0.184786 0.083353,-0.292135 0,-0.109202 -0.031535,-0.204349 -0.094465,-0.285786 -0.062928,-0.08145 -0.1445559,-0.138953 -0.2445006,-0.172267 v -0.01111 c 0.083287,-0.03887 0.1487489,-0.09453 0.19687,-0.16671 0.049972,-0.07219 0.075414,-0.156201 0.075414,-0.252445 0,-0.101797 -0.025972,-0.193234 -0.077795,-0.274672 -0.051823,-0.08145 -0.1223196,-0.145046 -0.2111591,-0.191317 -0.086988,-0.04626 -0.1802773,-0.06986 -0.2802221,-0.06986 z m 3.3063028,0.172266 v 0.400101 H 8.8802548 v 0.213545 H 9.127136 v 0.830365 c 0,0.06663 0.00927,0.122819 0.027785,0.169092 0.018509,0.04627 0.046335,0.08708 0.083352,0.122252 0.033316,0.03146 0.074128,0.05611 0.1222498,0.07462 0.049973,0.01851 0.1037725,0.02779 0.1611478,0.02779 0.04442,0 0.080198,-0.0024 0.1079608,-0.0079 0.029613,-0.0055 0.058765,-0.01483 0.086527,-0.02778 v -0.230216 c -0.049972,0.03146 -0.1019167,0.04684 -0.1555902,0.04684 -0.066629,0 -0.11725,-0.02041 -0.1524153,-0.06113 -0.029613,-0.03701 -0.044454,-0.09453 -0.044454,-0.172266 V 12.427578 H 9.7074263 V 12.214033 H 9.3636977 v -0.4001 z m -3.0729167,0.05319 h 0.4913808 c 0.064779,0 0.1209645,0.01536 0.169086,0.04684 0.049972,0.03146 0.088399,0.07228 0.1143116,0.122253 0.027764,0.04812 0.041278,0.09689 0.041278,0.146861 0,0.05183 -0.013518,0.103241 -0.041278,0.153213 -0.027765,0.04813 -0.068046,0.08762 -0.1198685,0.119079 -0.049972,0.03146 -0.1080129,0.04684 -0.1746429,0.04684 h -0.480267 z m 2.0123596,0.302457 c -0.1369605,0 -0.256753,0.03392 -0.360399,0.102406 -0.1036457,0.06848 -0.1839487,0.159918 -0.2413244,0.274672 -0.055524,0.114754 -0.083353,0.240909 -0.083353,0.377872 0,0.142517 0.029682,0.271058 0.088909,0.385812 0.061076,0.112902 0.1450897,0.201953 0.2524381,0.266732 0.1073471,0.06478 0.2284642,0.09685 0.3635742,0.09685 0.1480656,0 0.2742171,-0.0334 0.3778629,-0.100026 0.1054971,-0.06663 0.1881859,-0.156743 0.249263,-0.271497 L 8.5135048,13.20476 c -0.098094,0.170279 -0.237762,0.25562 -0.4191425,0.25562 -0.077735,0 -0.1524722,-0.01854 -0.2246537,-0.05557 -0.070332,-0.03701 -0.1283723,-0.09267 -0.1746428,-0.166709 -0.046271,-0.07404 -0.072243,-0.164944 -0.077796,-0.272294 h 1.1185068 c 0.00555,-0.02036 0.00873,-0.04448 0.00873,-0.07224 0,-0.140666 -0.027828,-0.265497 -0.083353,-0.374698 -0.053673,-0.109199 -0.1315893,-0.193744 -0.233385,-0.254824 -0.1017952,-0.06293 -0.2223809,-0.09447 -0.3611923,-0.09447 z m 2.4267381,0 c -0.118453,0 -0.226583,0.02412 -0.324676,0.07224 -0.09624,0.04813 -0.1723051,0.114117 -0.2278287,0.199256 l 0.1778177,0.133368 c 0.03887,-0.06108 0.09135,-0.10799 0.157971,-0.141305 0.06663,-0.03516 0.140306,-0.05319 0.219891,-0.05319 0.1129,0 0.206189,0.03286 0.280222,0.09764 0.07404,0.06293 0.111136,0.146945 0.111136,0.252446 v 0.08653 c -0.03887,-0.02406 -0.09585,-0.04579 -0.16988,-0.0643 -0.07218,-0.01851 -0.150629,-0.02779 -0.235767,-0.02779 -0.172126,0 -0.314973,0.04267 -0.427873,0.127811 -0.1129005,0.08329 -0.1690868,0.200167 -0.1690868,0.350086 0,0.09069 0.022264,0.171529 0.066682,0.243713 0.044418,0.07034 0.1074958,0.12599 0.1889318,0.166708 0.08143,0.04072 0.174193,0.06113 0.277841,0.06113 0.101795,1e-6 0.193229,-0.02412 0.274664,-0.07224 0.08143,-0.04812 0.142657,-0.106165 0.183375,-0.174646 h 0.01111 V 13.62947 H 11.1125 v -0.896255 c 0,-0.173982 -0.05565,-0.311267 -0.166703,-0.411214 -0.109199,-0.101797 -0.259998,-0.152419 -0.452484,-0.152419 z m -2.4291199,0.213542 c 0.096242,0 0.1760154,0.0204 0.2389431,0.06113 0.064779,0.04072 0.1116883,0.0908 0.1413017,0.150035 0.029613,0.05923 0.046309,0.118596 0.050012,0.177824 h -0.863688 c 0.024061,-0.116604 0.074151,-0.21069 0.1500341,-0.281023 0.077735,-0.07218 0.1723481,-0.107964 0.2833971,-0.107964 z m -2.0099778,0.341357 h 0.5215464 c 0.070331,0 0.1328762,0.0167 0.18655,0.05001 0.053674,0.03146 0.095019,0.07414 0.1246314,0.127809 0.029613,0.05183 0.044455,0.105625 0.044455,0.161151 0,0.05553 -0.014844,0.109857 -0.044455,0.163533 -0.027764,0.05183 -0.068575,0.09449 -0.1222497,0.12781 -0.051823,0.03332 -0.1111888,0.05001 -0.177818,0.05001 H 6.0542193 Z m 4.4637067,0.191317 c 0.07218,0 0.140822,0.0093 0.205602,0.02779 0.06478,0.01851 0.119903,0.04262 0.164322,0.07224 0,0.08143 -0.02041,0.156971 -0.06113,0.225453 -0.04072,0.06848 -0.09584,0.122815 -0.164323,0.163534 -0.06847,0.04072 -0.141892,0.06113 -0.221477,0.06113 -0.09069,0 -0.166223,-0.02412 -0.225449,-0.07224 -0.05922,-0.04812 -0.08891,-0.111201 -0.08891,-0.188937 0,-0.08514 0.03286,-0.154314 0.09764,-0.207989 0.06663,-0.05367 0.16416,-0.08096 0.293717,-0.08096 z" />
</svg>
