<?xml version="1.0" encoding="UTF-8" standalone="no"?>
<!-- Created with Inkscape (http://www.inkscape.org/) -->

<svg
   width="64"
   height="64"
   viewBox="0 0 16.933333 16.933333"
   version="1.1"
   id="svg5"
   inkscape:version="1.1.1 (3bf5ae0d25, 2021-09-20, custom)"
   sodipodi:docname="internet-news-reader.svg"
   xmlns:inkscape="http://www.inkscape.org/namespaces/inkscape"
   xmlns:sodipodi="http://sodipodi.sourceforge.net/DTD/sodipodi-0.dtd"
   xmlns="http://www.w3.org/2000/svg"
   xmlns:svg="http://www.w3.org/2000/svg">
  <sodipodi:namedview
     id="namedview7"
     pagecolor="#ffffff"
     bordercolor="#666666"
     borderopacity="1.0"
     inkscape:pageshadow="2"
     inkscape:pageopacity="0.0"
     inkscape:pagecheckerboard="0"
     inkscape:document-units="px"
     showgrid="false"
     units="px"
     height="48px"
     inkscape:zoom="4"
     inkscape:cx="104.5"
     inkscape:cy="81.875"
     inkscape:window-width="1920"
     inkscape:window-height="1012"
     inkscape:window-x="0"
     inkscape:window-y="0"
     inkscape:window-maximized="1"
     inkscape:current-layer="svg5"
     inkscape:lockguides="true"
     showguides="false" />
  <defs
     id="defs2" />
  <circle
     style="fill:#ffffff;fill-opacity:1;stroke-width:0.529167;stroke-linecap:round;stroke-linejoin:round"
     id="path851"
     cx="8.4666662"
     cy="8.4666662"
     r="7.4083333" />
  <path
     id="rect997"
     style="fill:#3f51b5;fill-opacity:1;stroke-width:0.529167;stroke-linecap:round;stroke-linejoin:round"
     d="m 5.8208332,4.2333332 h 5.2916678 c 0.293158,0 0.529166,0.2360083 0.529166,0.5291666 v 7.4083332 c 0,0.293158 -0.236008,0.529166 -0.529166,0.529166 H 5.8208332 c -0.2931583,0 -0.5291666,-0.236008 -0.5291666,-0.529166 V 4.7624998 c 0,-0.2931583 0.2360083,-0.5291666 0.5291666,-0.5291666 z" />
  <path
     id="rect997-2"
     style="opacity:0.2;fill:#ffffff;fill-opacity:1;stroke-width:2;stroke-linecap:round;stroke-linejoin:round"
     d="M 22 16 C 20.892 16 20 16.892 20 18 L 20 18.5 C 20 17.392 20.892 16.5 22 16.5 L 42 16.5 C 43.107999 16.5 44 17.392 44 18.5 L 44 18 C 44 16.892 43.107999 16 42 16 L 22 16 z "
     transform="scale(0.26458333)" />
  <path
     id="rect1195"
     style="fill:#90caf9;stroke-width:0.451862;stroke-linecap:round;stroke-linejoin:round;fill-opacity:1"
     d="m 7.8341055,5.0469642 5.6392955,1.6528377 c 0.27352,0.07329 0.434717,0.3524905 0.361428,0.626011 l -1.105001,4.1239191 c -0.07329,0.27352 -0.352491,0.434717 -0.626011,0.361427 L 6.4645215,10.158325 C 6.191001,10.085035 6.0298046,9.805834 6.103094,9.532314 L 7.2080947,5.4083918 C 7.2813842,5.1348714 7.5623675,4.9673197 7.8341055,5.0469642 Z"
     sodipodi:nodetypes="scccccsss" />
  <path
     id="rect1195-7"
     style="opacity:0.2;fill:#ffffff;fill-opacity:1;stroke-width:1.70782;stroke-linecap:round;stroke-linejoin:round"
     d="M 29.033203 19 C 28.211506 19.02484 27.469204 19.601462 27.244141 20.441406 L 23.066406 36.027344 C 23.03562 36.14224 23.017338 36.256765 23.007812 36.371094 L 27.142578 20.941406 C 27.41958 19.907628 28.482724 19.2732 29.509766 19.574219 L 50.822266 25.822266 C 51.741146 26.068481 52.324225 26.929407 52.248047 27.84375 L 52.289062 27.6875 C 52.56606 26.653722 51.957605 25.599267 50.923828 25.322266 L 29.609375 19.074219 C 29.416805 19.017778 29.222825 18.994268 29.033203 19 z "
     transform="scale(0.26458333)" />
  <path
     id="rect1299"
     style="stroke-width:0.529167;stroke-linecap:round;stroke-linejoin:round;fill:#80deea;fill-opacity:1"
     d="M 3.5877201,6.4922236 8.6202363,4.6605375 c 0.2588653,-0.094219 0.5431176,0.03833 0.6373368,0.297195 l 1.4697149,4.038008 c 0.09422,0.2588656 -0.03833,0.5431174 -0.297195,0.6373364 L 5.3975766,11.464764 C 5.1387113,11.558983 4.8544592,11.426434 4.7602398,11.167568 L 3.2905251,7.1295604 c -0.094219,-0.2588653 0.03833,-0.5431176 0.297195,-0.6373368 z" />
  <path
     id="rect1299-1"
     style="opacity:0.2;fill:#ffffff;fill-opacity:1;stroke-width:2;stroke-linecap:round;stroke-linejoin:round"
     d="M 33.134766 17.501953 C 32.949938 17.510962 32.763526 17.548465 32.580078 17.615234 L 13.560547 24.537109 C 12.582159 24.893213 12.081397 25.968877 12.4375 26.947266 L 17.992188 42.208984 C 18.020215 42.285989 18.053315 42.358783 18.089844 42.429688 L 12.636719 27.447266 C 12.280615 26.468877 12.781378 25.393213 13.759766 25.037109 L 32.78125 18.115234 C 33.679899 17.788154 34.658245 18.18491 35.087891 19.009766 L 34.988281 18.738281 C 34.698947 17.943341 33.935685 17.462915 33.134766 17.501953 z "
     transform="scale(0.26458333)" />
  <path
     id="rect866"
     style="fill:#2196f3;fill-opacity:1;stroke-width:0.540613;stroke-linecap:round;stroke-linejoin:round"
     d="m 4.7624998,6.6145831 h 7.4083342 c 0.293157,0 0.529165,0.2360083 0.529165,0.5291667 v 5.2916662 c 0,0.293159 -0.236008,0.529167 -0.529165,0.529167 H 4.7624998 c -0.2931583,0 -0.5291666,-0.236008 -0.5291666,-0.529167 V 7.1437498 c 0,-0.2931584 0.2360083,-0.5291667 0.5291666,-0.5291667 z" />
  <path
     id="rect1299-9"
     style="fill:#000000;fill-opacity:1;stroke-width:2;stroke-linecap:round;stroke-linejoin:round;opacity:0.2"
     d="M 32.033203 16.857422 C 31.997242 16.857289 31.961874 16.857394 31.925781 16.859375 C 31.681975 16.872755 31.437076 16.934725 31.203125 17.048828 L 22.578125 21.255859 L 32.580078 17.615234 C 32.869237 17.50999 33.16627 17.480945 33.451172 17.515625 C 33.093101 17.096527 32.572616 16.85941 32.033203 16.857422 z M 35.769531 20.880859 L 37.269531 25 L 36.785156 21.177734 L 44 23.292969 L 44 21.880859 L 35.769531 20.880859 z M 48 33 L 48 43.582031 C 48.044998 43.483848 48.08435 43.383361 48.113281 43.275391 L 49.181641 39.285156 L 48 33 z "
     transform="scale(0.26458333)" />
  <path
     id="rect866-2"
     style="fill:#ffffff;fill-opacity:1;stroke-width:2.04326;stroke-linecap:round;stroke-linejoin:round;opacity:0.2"
     d="M 18 25 C 16.892001 25 16 25.892 16 27 L 16 27.5 C 16 26.392 16.892 25.5 18 25.5 L 46 25.5 C 47.107995 25.5 48 26.392 48 27.5 L 48 27 C 48 25.892 47.107995 25 46 25 L 18 25 z "
     transform="scale(0.26458333)" />
  <path
     id="rect10277"
     style="opacity:1;fill:#ffffff;stroke-width:2.4;stroke-linecap:round;stroke-linejoin:round"
     d="M 21 29 C 20.446 29 20 29.446 20 30 L 20 39 C 20 39.553999 20.446 40 21 40 L 30 40 C 30.554 40 31 39.553999 31 39 L 31 30 C 31 29.446 30.554 29 30 29 L 21 29 z M 35 30 C 34.446 30 34 30.446 34 31 L 34 32 C 34 32.554 34.446 33 35 33 L 43 33 C 43.554 33 44 32.554 44 32 L 44 31 C 44 30.446 43.554 30 43 30 L 35 30 z M 35 36 C 34.446 36 34 36.446 34 37 L 34 38 C 34 38.554 34.446 39 35 39 L 43 39 C 43.554 39 44 38.554 44 38 L 44 37 C 44 36.446 43.554 36 43 36 L 35 36 z M 21 43 C 20.446 43 20 43.446 20 44 L 20 45 C 20 45.554 20.446 46 21 46 L 43 46 C 43.554 46 44 45.554 44 45 L 44 44 C 44 43.446 43.554 43 43 43 L 21 43 z "
     transform="scale(0.26458333)" />
  <path
     id="rect10277-7"
     style="opacity:0.2;fill:#000000;stroke-width:2.4;stroke-linecap:round;stroke-linejoin:round"
     d="M 34 32 L 34 32.5 C 34 33.054 34.446001 33.5 35 33.5 L 43 33.5 C 43.553999 33.5 44 33.054 44 32.5 L 44 32 C 44 32.553999 43.553999 33 43 33 L 35 33 C 34.446001 33 34 32.553999 34 32 z M 34 38 L 34 38.5 C 34 39.054003 34.446001 39.5 35 39.5 L 43 39.5 C 43.553999 39.5 44 39.054003 44 38.5 L 44 38 C 44 38.553999 43.553999 39 43 39 L 35 39 C 34.446001 39 34 38.553999 34 38 z M 20 39 L 20 39.5 C 20 40.053999 20.446 40.5 21 40.5 L 30 40.5 C 30.554 40.5 31 40.053999 31 39.5 L 31 39 C 31 39.553999 30.554003 40 30 40 L 21 40 C 20.446001 40 20 39.553999 20 39 z M 20 45 L 20 45.5 C 20 46.053999 20.446 46.5 21 46.5 L 43 46.5 C 43.553999 46.5 44 46.053999 44 45.5 L 44 45 C 44 45.553999 43.553999 46 43 46 L 21 46 C 20.446001 46 20 45.553999 20 45 z "
     transform="scale(0.26458333)" />
</svg>
