<?xml version="1.0" encoding="UTF-8" standalone="no"?>
<svg
   width="64"
   height="64"
   version="1.1"
   id="svg50"
   sodipodi:docname="juk.svg"
   inkscape:version="1.1.1 (3bf5ae0d25, 2021-09-20, custom)"
   xmlns:inkscape="http://www.inkscape.org/namespaces/inkscape"
   xmlns:sodipodi="http://sodipodi.sourceforge.net/DTD/sodipodi-0.dtd"
   xmlns:xlink="http://www.w3.org/1999/xlink"
   xmlns="http://www.w3.org/2000/svg"
   xmlns:svg="http://www.w3.org/2000/svg">
  <sodipodi:namedview
     id="namedview52"
     pagecolor="#ffffff"
     bordercolor="#666666"
     borderopacity="1.0"
     inkscape:pageshadow="2"
     inkscape:pageopacity="0.0"
     inkscape:pagecheckerboard="0"
     showgrid="false"
     inkscape:zoom="12.703125"
     inkscape:cx="31.96064"
     inkscape:cy="32"
     inkscape:window-width="1920"
     inkscape:window-height="1019"
     inkscape:window-x="0"
     inkscape:window-y="0"
     inkscape:window-maximized="1"
     inkscape:current-layer="g48" />
  <defs
     id="defs18">
    <linearGradient
       id="a"
       y1="543.79999"
       y2="503.79999"
       x2="0"
       gradientUnits="userSpaceOnUse">
      <stop
         stop-color="#2a2c2f"
         id="stop2" />
      <stop
         offset="1"
         stop-color="#424649"
         id="stop4" />
    </linearGradient>
    <linearGradient
       id="b"
       y1="530.79999"
       y2="516.79999"
       gradientUnits="userSpaceOnUse"
       x2="0"
       gradientTransform="matrix(1.75,0,0,1.75,-296.42625,-382.84999)">
      <stop
         stop-color="#ee643a"
         id="stop7" />
      <stop
         offset="1"
         stop-color="#fe9473"
         id="stop9" />
    </linearGradient>
    <linearGradient
       xlink:href="#a"
       id="c"
       y1="-521.79999"
       y2="-525.79999"
       gradientUnits="userSpaceOnUse"
       x2="0"
       gradientTransform="matrix(1.75,0,0,1.75,-296.42625,382.84999)" />
    <linearGradient
       id="d"
       y1="523.79999"
       x1="408.57001"
       y2="537.79999"
       x2="422.57001"
       gradientUnits="userSpaceOnUse"
       gradientTransform="matrix(1.75,0,0,1.75,-296.42625,-382.84999)">
      <stop
         stop-color="#292c2f"
         id="stop13" />
      <stop
         offset="1"
         stop-opacity="0"
         id="stop15" />
    </linearGradient>
    <linearGradient
       inkscape:collect="always"
       xlink:href="#a"
       id="linearGradient1139"
       gradientUnits="userSpaceOnUse"
       y1="543.79999"
       x2="0"
       y2="503.79999"
       gradientTransform="matrix(1.75,0,0,1.75,-296.42625,-382.84999)" />
  </defs>
  <g
     transform="matrix(0.79995986,0,0,0.79999976,-302.8388,-395.03987)"
     id="g48">
    <rect
       width="70"
       x="383.57126"
       y="498.79999"
       fill="url(#a)"
       rx="35"
       height="70"
       id="rect20"
       style="fill:url(#linearGradient1139);stroke-width:1.75" />
    <path
       opacity="0.4"
       fill="url(#d)"
       fill-rule="evenodd"
       d="m 429.07125,526.80001 -19.25,15.75 23.15075,23.15075 c 7.76825,-3.4965 14,-9.73175 17.5,-17.5 z"
       id="path22"
       style="fill:url(#d);stroke-width:1.75" />
    <rect
       width="24.5"
       x="406.32126"
       y="521.54999"
       fill="url(#b)"
       rx="12.25"
       height="24.5"
       id="rect24"
       style="fill:url(#b);stroke-width:1.75" />
    <rect
       width="7"
       x="415.07126"
       y="-537.29999"
       fill="url(#c)"
       rx="3.5"
       height="7"
       transform="scale(1,-1)"
       id="rect26"
       style="fill:url(#c);stroke-width:1.75" />
    <path
       fill="#ffffff"
       fill-opacity="0.275"
       d="m 418.57125,523.30001 c -5.817,0 -10.5,4.683 -10.5,10.5 0,5.817 4.683,10.5 10.5,10.5 5.817,0 10.5,-4.683 10.5,-10.5 0,-5.817 -4.683,-10.5 -10.5,-10.5 m 0,1.75 c 4.8475,0 8.75,3.9025 8.75,8.75 0,4.8475 -3.9025,8.75 -8.75,8.75 -4.8475,0 -8.75,-3.9025 -8.75,-8.75 0,-4.8475 3.9025,-8.75 8.75,-8.75"
       id="path28"
       style="stroke-width:1.75" />
    <g
       fill="#4c5053"
       id="g44"
       transform="matrix(1.75,0,0,1.75,-296.42625,-382.84999)">
      <path
         d="m 418.07,507.34 c -0.971,-0.56 -1.973,-1 -2.99,-1.377 l -3.465,9.368 c 0.495,0.179 0.982,0.396 1.454,0.668 0.472,0.273 0.903,0.587 1.306,0.925 l 6.381,-7.685 c -0.83,-0.694 -1.716,-1.34 -2.687,-1.901"
         id="path30" />
      <path
         d="m 399.07,540.25 c -0.971,-0.56 -1.857,-1.207 -2.687,-1.901 l 6.381,-7.685 c 0.403,0.339 0.834,0.653 1.306,0.925 0.472,0.273 0.96,0.489 1.454,0.668 l -3.465,9.368 c -1.016,-0.372 -2.02,-0.816 -2.99,-1.376"
         id="path32" />
      <g
         fill-opacity="0.198"
         id="g42">
        <path
           d="m 422.01,510.36 c -0.793,-0.793 -1.646,-1.481 -2.531,-2.103 l -5.771,8.152 c 0.431,0.301 0.846,0.636 1.232,1.022 0.386,0.386 0.721,0.801 1.022,1.232 l 8.152,-5.771 c -0.622,-0.885 -1.311,-1.739 -2.103,-2.531"
           id="path34" />
        <path
           d="m 395.14,537.23 c -0.793,-0.793 -1.481,-1.646 -2.103,-2.532 l 8.152,-5.771 c 0.301,0.431 0.636,0.846 1.022,1.232 0.386,0.386 0.801,0.721 1.232,1.022 l -5.771,8.152 c -0.885,-0.622 -1.739,-1.311 -2.531,-2.103"
           id="path36" />
        <path
           d="m 425.03,514.3 c -0.56,-0.971 -1.207,-1.857 -1.901,-2.687 l -7.685,6.381 c 0.339,0.403 0.653,0.834 0.925,1.306 0.273,0.472 0.489,0.96 0.668,1.454 l 9.368,-3.465 c -0.372,-1.016 -0.816,-2.02 -1.377,-2.99"
           id="path38" />
        <path
           d="m 392.12,533.3 c -0.56,-0.971 -1,-1.973 -1.377,-2.99 l 9.368,-3.465 c 0.179,0.495 0.396,0.982 0.668,1.454 0.273,0.472 0.587,0.903 0.925,1.306 l -7.685,6.381 c -0.694,-0.83 -1.34,-1.716 -1.901,-2.687"
           id="path40" />
      </g>
    </g>
    <path
       fill="#2d2f33"
       d="m 383.58875,532.92501 c -0.007,0.29225 -0.021,0.581 -0.021,0.875 0,19.39 15.61,35 35,35 19.39,0 35,-15.61 35,-35 0,-0.294 -0.014,-0.58275 -0.021,-0.875 -0.46375,18.9805 -15.89,34.125 -34.979,34.125 -19.096,0 -34.517,-15.1445 -34.979,-34.125"
       id="path46"
       style="stroke-width:1.75" />
  </g>
</svg>
