<?xml version="1.0" encoding="UTF-8" standalone="no"?>
<!-- Created with Inkscape (http://www.inkscape.org/) -->

<svg
   width="64"
   height="64"
   viewBox="0 0 16.933333 16.933334"
   version="1.1"
   id="svg828"
   sodipodi:docname="kolourpaint.svg"
   inkscape:version="1.1.1 (3bf5ae0d25, 2021-09-20, custom)"
   xmlns:inkscape="http://www.inkscape.org/namespaces/inkscape"
   xmlns:sodipodi="http://sodipodi.sourceforge.net/DTD/sodipodi-0.dtd"
   xmlns:xlink="http://www.w3.org/1999/xlink"
   xmlns="http://www.w3.org/2000/svg"
   xmlns:svg="http://www.w3.org/2000/svg">
  <sodipodi:namedview
     id="namedview830"
     pagecolor="#ffffff"
     bordercolor="#666666"
     borderopacity="1.0"
     inkscape:pageshadow="2"
     inkscape:pageopacity="0.0"
     inkscape:pagecheckerboard="0"
     inkscape:document-units="px"
     showgrid="false"
     units="px"
     height="64px"
     inkscape:zoom="14.089286"
     inkscape:cx="32.010139"
     inkscape:cy="31.974651"
     inkscape:window-width="1920"
     inkscape:window-height="1019"
     inkscape:window-x="0"
     inkscape:window-y="0"
     inkscape:window-maximized="1"
     inkscape:current-layer="svg828" />
  <defs
     id="defs825">
    <linearGradient
       inkscape:collect="always"
       id="linearGradient6432">
      <stop
         style="stop-color:#000000;stop-opacity:1;"
         offset="0"
         id="stop6428" />
      <stop
         style="stop-color:#000000;stop-opacity:0;"
         offset="1"
         id="stop6430" />
    </linearGradient>
    <linearGradient
       inkscape:collect="always"
       xlink:href="#linearGradient6432"
       id="linearGradient6434"
       x1="3.4395852"
       y1="5.1345725"
       x2="13.709241"
       y2="14.659573"
       gradientUnits="userSpaceOnUse" />
  </defs>
  <circle
     style="fill:#ececec;fill-opacity:1;stroke-width:0.576115;stroke-linecap:round;stroke-linejoin:round;stroke-dasharray:6.91338, 0.576115"
     id="path911"
     cx="8.4666662"
     cy="8.4666672"
     r="7.4083333" />
  <path
     id="path3492"
     style="opacity:1;fill:#ecddbb;fill-opacity:1;stroke-width:6.99715;stroke-linecap:round;stroke-linejoin:round"
     d="m 32,15 c -9.941125,10e-7 -18,7.611159 -18,17 0,9.388841 8.058875,17.000001 18,17 0.857941,-6.83e-4 1.708043,-0.05834 2.544922,-0.171875 C 41.895004,47.515065 40.047154,41.965323 37,42 c -1.662,0 -3,-1.338 -3,-3 0,-1.662 1.338,-3 3,-3 h 4.445312 C 46.745841,35.97135 50.655121,30.055377 48.390625,24.962891 45.557246,19.085533 39.283756,14.999999 32,15 Z"
     transform="scale(0.26458334)"
     sodipodi:nodetypes="sscccssccs" />
  <path
     id="path3492-3"
     style="fill:#000000;fill-opacity:1;stroke-width:6.99715;stroke-linecap:round;stroke-linejoin:round;opacity:0.3"
     d="M 49.029297 27.552734 C 48.768219 31.481504 45.517664 34.977931 41.445312 35 L 37 35 C 35.338 35 34 36.338 34 38 C 34 38.170397 34.015933 38.337507 34.042969 38.5 C 34.279632 37.077589 35.508395 36 37 36 L 41.445312 36 C 45.860663 35.976073 49.309034 31.867889 49.029297 27.552734 z M 14.007812 31.5 C 14.002743 31.665928 14 31.832913 14 32 C 14 41.388841 22.058875 49 32 49 C 32.857941 48.999316 33.708044 48.941662 34.544922 48.828125 C 38.732709 48.079995 39.933514 45.955522 39.628906 44.273438 C 39.366119 45.716971 37.932849 47.222886 34.544922 47.828125 C 33.708044 47.941662 32.857941 47.999316 32 48 C 22.235791 48 14.287624 40.657794 14.007812 31.5 z "
     transform="scale(0.26458334)" />
  <path
     id="path5509"
     style="opacity:0.2;fill:url(#linearGradient6434);fill-opacity:1;stroke-width:1.85133;stroke-linecap:round;stroke-linejoin:round"
     d="m 7.1437502,5.0270835 c -0.438376,0 -0.79375,0.355374 -0.79375,0.79375 0,0.4383759 0.355374,0.79375 0.79375,0.79375 0.4383759,0 0.79375,-0.3553741 0.79375,-0.79375 0,-0.438376 -0.3553741,-0.79375 -0.79375,-0.79375 z m 2.38125,0 c -0.4383759,0 -0.79375,0.355374 -0.79375,0.79375 0,0.4383759 0.3553741,0.79375 0.79375,0.79375 0.438376,0 0.7937498,-0.3553741 0.7937498,-0.79375 0,-0.438376 -0.3553738,-0.79375 -0.7937498,-0.79375 z m 2.3817668,0.3296946 c 0.02086,0.020574 0.04208,0.041067 0.06253,0.062012 l -0.03927,-0.039791 c -0.0076,-0.00757 -0.01563,-0.014703 -0.02325,-0.02222 z m 0.06253,0.062012 c 0.340537,0.3488548 0.623215,0.7486161 0.834058,1.1859742 0.599148,1.347388 -0.435182,2.9126363 -1.837614,2.9202362 H 9.7895836 c -0.4397381,0 -0.79375,0.3540128 -0.79375,0.7937495 0,0.439738 0.3540119,0.79375 0.79375,0.79375 0.8062264,-0.0092 1.2951364,1.459195 -0.6495728,1.806608 -0.2214239,0.03004 -0.446347,0.0453 -0.6733439,0.04548 -1.3562259,0 -2.5799561,-0.535529 -3.4473349,-1.394747 l 4.2555544,4.255554 C 12.722866,15.444918 15.445163,12.722836 15.825908,9.2748864 Z m -6.6776282,1.460377 c -0.438376,0 -0.79375,0.3553741 -0.79375,0.7937501 0,0.4383759 0.355374,0.79375 0.79375,0.79375 0.438376,0 0.79375,-0.3553741 0.79375,-0.79375 0,-0.438376 -0.355374,-0.7937501 -0.79375,-0.7937501 z m 6.0854172,0 c -0.438376,0 -0.79375,0.3553741 -0.79375,0.7937501 0,0.4383759 0.355374,0.79375 0.79375,0.79375 0.438376,0 0.79375,-0.3553741 0.79375,-0.79375 0,-0.438376 -0.355374,-0.7937501 -0.79375,-0.7937501 z"
     sodipodi:nodetypes="sssssssssssccsscccsscccccccssssssssss" />
  <circle
     style="opacity:1;fill:#ef5350;fill-opacity:1;stroke-width:0.529167;stroke-linecap:round;stroke-linejoin:round"
     id="path7685"
     cx="5.2916665"
     cy="7.6729169"
     r="0.79374999" />
  <circle
     style="opacity:1;fill:#ffd65b;fill-opacity:1;stroke-width:0.536918;stroke-linecap:round;stroke-linejoin:round"
     id="path7969"
     cx="7.1437502"
     cy="5.8208332"
     r="0.79374999" />
  <circle
     style="opacity:1;fill:#1e88e5;fill-opacity:1;stroke-width:0.529167;stroke-linecap:round;stroke-linejoin:round"
     id="path8399"
     cx="9.5249996"
     cy="5.8208332"
     r="0.79374999" />
  <circle
     style="opacity:1;fill:#4caf50;fill-opacity:1;stroke-width:0.529167;stroke-linecap:round;stroke-linejoin:round"
     id="path8611"
     cx="11.377084"
     cy="7.6729169"
     r="0.79374999" />
</svg>
