<?xml version="1.0" encoding="UTF-8" standalone="no"?>
<svg
   width="64"
   version="1.1"
   height="64"
   id="svg14"
   sodipodi:docname="kvantum.svg"
   inkscape:version="1.1.1 (3bf5ae0d25, 2021-09-20, custom)"
   xmlns:inkscape="http://www.inkscape.org/namespaces/inkscape"
   xmlns:sodipodi="http://sodipodi.sourceforge.net/DTD/sodipodi-0.dtd"
   xmlns:xlink="http://www.w3.org/1999/xlink"
   xmlns="http://www.w3.org/2000/svg"
   xmlns:svg="http://www.w3.org/2000/svg">
  <sodipodi:namedview
     id="namedview16"
     pagecolor="#ffffff"
     bordercolor="#666666"
     borderopacity="1.0"
     inkscape:pageshadow="2"
     inkscape:pageopacity="0.0"
     inkscape:pagecheckerboard="0"
     showgrid="false"
     inkscape:zoom="8.5729167"
     inkscape:cx="11.081409"
     inkscape:cy="43.567436"
     inkscape:window-width="1920"
     inkscape:window-height="1019"
     inkscape:window-x="0"
     inkscape:window-y="0"
     inkscape:window-maximized="1"
     inkscape:current-layer="g13" />
  <defs
     id="defs7">
    <linearGradient
       id="linearGradient4143">
      <stop
         offset="0"
         style="stop-color:#9c0008"
         id="stop4145" />
      <stop
         offset="0.41728804"
         style="stop-color:#e35e00"
         id="stop4151" />
      <stop
         offset="0.59519094"
         style="stop-color:#797d00"
         id="stop4169" />
      <stop
         offset="0.75742298"
         style="stop-color:#00a535"
         id="stop4157" />
      <stop
         offset="0.86629128"
         style="stop-color:#008ec8"
         id="stop4153" />
      <stop
         offset="1"
         style="stop-color:#8500db"
         id="stop4147" />
    </linearGradient>
    <radialGradient
       fx="3.4194869e-14"
       fy="-8.0830308e-14"
       cx="3.4194869e-14"
       cy="-8.0830308e-14"
       gradientTransform="matrix(-0.00525332,1.8434421,-2.0546808,-0.0058553,0,4)"
       xlink:href="#linearGradient4143"
       id="radialGradient4171"
       r="24"
       gradientUnits="userSpaceOnUse" />
    <radialGradient
       inkscape:collect="always"
       xlink:href="#linearGradient4143"
       id="radialGradient1045"
       cx="0.40568164"
       cy="0.19131964"
       fx="0.40568164"
       fy="0.19131964"
       r="24"
       gradientUnits="userSpaceOnUse"
       gradientTransform="matrix(-0.01658606,2.3708048,-2.4174883,-0.01691264,4.942537,3.26465)" />
  </defs>
  <g
     id="g13">
    <circle
       style="fill:url(#radialGradient1045);fill-opacity:1;stroke-width:1.15176"
       id="path957"
       cx="32"
       cy="32"
       r="28" />
    <path
       style="line-height:125%;letter-spacing:0;word-spacing:0;fill:#ffffff"
       id="path2987"
       d="m 15.0239,16.0971 v 2.2049 l 2.9302,0.2233 c 0.544801,0.04152 0.545623,0.291039 0.4745,0.6698 l -4.7167,25.1185 c -0.09578,0.51005 -0.200337,0.658641 -0.7256,0.6979 L 10,45.2347 v 2.2884 h 13.0617 v -2.2882 l -2.903,-0.1958 C 19.722059,45.0147 19.544925,44.921939 19.6563,44.3134 L 21.582,33.7916 h 2.9584 l 4.2422,8.931 c 1.73387,3.56142 2.95022,5.08832 6.69828,5.13562 1.07772,0.01399 1.51127,0.093 4.41875,0 10.0277,-8.37214 15.1465,-14.7538 15.9552,-17.6391 0.489802,-1.74751 -0.28784,-2.81931 -1.95414,-2.81931 -0.81283,0 -1.74339,0.342303 -2.79048,1.0332 l -0.7536,6 c -2.05232,2.68221 -4.78822,5.60383 -8.12167,8.65194 l 2.2048,-11.5268 c 0.597296,-3.12269 0.252417,-4.39192 -1.77741,-3.93674 l -5.9814,1.3413 -0.3624,1.2836 2.392,0.3709 c 1.18904,0.229744 1.04059,1.1281 0.258903,5.43448 l -1.535,8.4564 c -0.02413,0.08701 -0.0394,0.182402 -0.05583,0.279102 -0.99534,-0.534801 -1.62279,-1.48711 -2.3444,-2.93031 l -6,-12.0013 10.7519,-10.8934 c 0.179099,-0.181456 0.292747,-0.238714 0.470353,-0.255124 l 3.4861,-0.3221 v -2.2887 h -11.7216 v 2.2889 l 2.9021,0.223 c 0.586106,0.04504 0.805628,0.210819 0.2791,0.7536 l -11.75,12.1127 h -1.39548 l 2.3165,-12.2802 c 0.05614,-0.445985 0.24397,-0.64314 0.614,-0.6698 l 3.0979,-0.2232 v -2.2051 z" />
  </g>
</svg>
