<?xml version="1.0" encoding="UTF-8" standalone="no"?>
<!-- Created with Inkscape (http://www.inkscape.org/) -->

<svg
   width="64"
   height="64"
   viewBox="0 0 16.933333 16.933333"
   version="1.1"
   id="svg5"
   inkscape:version="1.1.1 (3bf5ae0d25, 2021-09-20, custom)"
   sodipodi:docname="lastfm.svg"
   xmlns:inkscape="http://www.inkscape.org/namespaces/inkscape"
   xmlns:sodipodi="http://sodipodi.sourceforge.net/DTD/sodipodi-0.dtd"
   xmlns="http://www.w3.org/2000/svg"
   xmlns:svg="http://www.w3.org/2000/svg">
  <sodipodi:namedview
     id="namedview7"
     pagecolor="#ffffff"
     bordercolor="#666666"
     borderopacity="1.0"
     inkscape:pageshadow="2"
     inkscape:pageopacity="0.0"
     inkscape:pagecheckerboard="0"
     inkscape:document-units="px"
     showgrid="false"
     units="px"
     height="48px"
     inkscape:zoom="3.9999998"
     inkscape:cx="6.0000003"
     inkscape:cy="46.875002"
     inkscape:window-width="1920"
     inkscape:window-height="1019"
     inkscape:window-x="0"
     inkscape:window-y="0"
     inkscape:window-maximized="1"
     inkscape:current-layer="svg5"
     inkscape:lockguides="true" />
  <defs
     id="defs2" />
  <circle
     style="fill:#c0342a;fill-opacity:1;stroke-width:3.5097;stroke-linecap:round;stroke-linejoin:round"
     id="path850"
     cx="8.4666662"
     cy="8.4666662"
     r="7.4083333" />
  <path
     id="path10"
     d="m 5.5917773,11.874946 c -0.211748,-0.0291 -0.588412,-0.15346 -0.83966,-0.276292 -1.63697,-0.796661 -2.306418,-2.8031248 -1.500148,-4.4932168 0.9211,-1.932445 3.434378,-2.425033 4.946743,-0.969495 0.43734,0.420223 0.631576,0.778799 1.29003,2.368809 0.6873637,1.6627718 0.8144117,1.9241798 1.0371557,2.1458358 0.238623,0.235808 0.459737,0.315184 0.882823,0.315184 0.695102,0 1.191486,-0.436364 1.191486,-1.0452358 0,-0.515342 -0.17836,-0.680374 -1.088056,-1.008392 -1.385317,-0.507536 -1.8340567,-0.96619 -1.8356867,-1.887336 0,-0.491397 0.12256,-0.819017 0.4340817,-1.158541 0.447113,-0.484784 1.218363,-0.644856 1.900841,-0.404152 0.291154,0.1051 0.900334,0.652726 0.900334,0.809492 0,0.07606 -0.353048,0.308569 -0.548916,0.363537 -0.10342,0.02712 -0.1926,-0.008 -0.311918,-0.124479 -0.241882,-0.235744 -0.405578,-0.30857 -0.695102,-0.30857 -0.499644,0 -0.809526,0.305264 -0.809526,0.798313 0,0.491396 0.19708,0.65762 1.181712,0.995162 1.356811,0.465336 1.757503,0.88556 1.765647,1.857968 0.0082,0.8401178 -0.36445,1.4460808 -1.105565,1.8046568 -0.337166,0.16172 -0.451592,0.18244 -1.002136,0.18244 -0.785908,0 -1.138957,-0.1485 -1.5795547,-0.652728 -0.296038,-0.339129 -0.596556,-0.975715 -1.558786,-3.2994828 -0.399062,-0.962884 -0.911327,-1.434833 -1.765645,-1.620569 -0.432862,-0.09386 -1.035528,-0.0066 -1.42848,0.20353 -0.383182,0.203529 -0.811156,0.662647 -1.013132,1.082475 -0.16696,0.340782 -0.18284,0.436364 -0.18284,1.029094 0,0.565414 0.0224,0.699426 0.16206,1.00965 0.211746,0.4736038 0.62832,0.9111578 1.086426,1.1469658 0.33106,0.1696 0.434082,0.1907 0.96223,0.1907 0.507378,0 0.637686,-0.02448 0.940238,-0.17126 0.345311,-0.17126 0.809527,-0.591476 0.998877,-0.9062638 l 0.09854,-0.16338 0.19424,0.4508478 c 0.10832,0.248972 0.19546,0.48313 0.19546,0.525264 0,0.12456 -0.43897,0.531547 -0.84129,0.785085 -0.610807,0.38305 -1.312425,0.52652 -2.061685,0.423134 m -0.0016,0"
     style="fill:#ffffff;stroke-width:0.661458"
     inkscape:connector-curvature="0" />
</svg>
