<?xml version="1.0" encoding="UTF-8" standalone="no"?>
<!-- Generator: Adobe Illustrator 25.0.0, SVG Export Plug-In . SVG Version: 6.00 Build 0)  -->

<svg
   version="1.1"
   id="Layer_1"
   x="0px"
   y="0px"
   viewBox="0 0 64 64"
   xml:space="preserve"
   sodipodi:docname="libreoffice-calc.svg"
   width="64"
   height="64"
   inkscape:version="1.1.1 (3bf5ae0d25, 2021-09-20, custom)"
   xmlns:inkscape="http://www.inkscape.org/namespaces/inkscape"
   xmlns:sodipodi="http://sodipodi.sourceforge.net/DTD/sodipodi-0.dtd"
   xmlns="http://www.w3.org/2000/svg"
   xmlns:svg="http://www.w3.org/2000/svg"><defs
   id="defs14">
	
	
	
</defs><sodipodi:namedview
   id="namedview12"
   pagecolor="#ffffff"
   bordercolor="#666666"
   borderopacity="1.0"
   inkscape:pageshadow="2"
   inkscape:pageopacity="0.0"
   inkscape:pagecheckerboard="0"
   showgrid="false"
   inkscape:zoom="4.6761363"
   inkscape:cx="-5.5601459"
   inkscape:cy="26.838397"
   inkscape:window-width="1920"
   inkscape:window-height="1019"
   inkscape:window-x="0"
   inkscape:window-y="0"
   inkscape:window-maximized="1"
   inkscape:current-layer="Layer_1"
   showguides="false" />
<style
   type="text/css"
   id="style2">
	.st0{fill:#0DC54C;}
	.st1{fill:#08962D;}
	.st2{fill:#FDFFFF;}
</style>
<path
   id="path866"
   style="fill:#71c837;fill-opacity:1;stroke-width:0.873441"
   d="M 60.000007,32 A 27.999999,27.999999 0 0 1 32.000003,59.999999 27.999999,27.999999 0 0 1 4.0000039,32 27.999999,27.999999 0 0 1 32.000003,4 27.999999,27.999999 0 0 1 60.000007,32 Z" />
<path
   id="rect902"
   style="fill:#ffffff;stroke-width:1.33426"
   d="M 20.513672,13 C 19.120837,13 18,14.120837 18,15.513672 V 48.986328 C 18,50.379163 19.120837,51.5 20.513672,51.5 H 43.486328 C 44.879163,51.5 46,50.379163 46,48.986328 V 25 L 34,13 Z"
   sodipodi:nodetypes="ssssssccs" /><path
   id="rect929"
   style="fill:#457922;stroke-width:2;stroke-linecap:round;stroke-linejoin:round;fill-opacity:1"
   d="m 36,13 h 7 c 1.662,0 3,1.338 3,3 v 7 z"
   sodipodi:nodetypes="csscc" /><path
   id="rect4010"
   style="fill:#aade87;fill-opacity:1"
   d="M 23,28 V 40.25 H 40.5 V 28 Z m 2.1875,2.1875 h 5.46875 v 2.84375 H 25.1875 Z m 7.65625,0 h 5.46875 v 2.84375 h -5.46875 z m -7.65625,5.03125 h 5.46875 V 38.0625 H 25.1875 Z m 7.65625,0 h 5.46875 v 2.84375 h -5.46875 z" /></svg>
