<?xml version="1.0" encoding="UTF-8" standalone="no"?>
<!-- Created with Inkscape (http://www.inkscape.org/) -->

<svg
   width="64"
   height="64"
   viewBox="0 0 16.933333 16.933334"
   version="1.1"
   id="svg5"
   inkscape:version="1.1.1 (3bf5ae0d25, 2021-09-20, custom)"
   sodipodi:docname="lightsoff.svg"
   xmlns:inkscape="http://www.inkscape.org/namespaces/inkscape"
   xmlns:sodipodi="http://sodipodi.sourceforge.net/DTD/sodipodi-0.dtd"
   xmlns:xlink="http://www.w3.org/1999/xlink"
   xmlns="http://www.w3.org/2000/svg"
   xmlns:svg="http://www.w3.org/2000/svg">
  <sodipodi:namedview
     id="namedview7"
     pagecolor="#ffffff"
     bordercolor="#666666"
     borderopacity="1.0"
     inkscape:pageshadow="2"
     inkscape:pageopacity="0.0"
     inkscape:pagecheckerboard="0"
     inkscape:document-units="px"
     showgrid="false"
     units="px"
     height="64px"
     inkscape:zoom="12.328125"
     inkscape:cx="31.959442"
     inkscape:cy="32"
     inkscape:window-width="1920"
     inkscape:window-height="1012"
     inkscape:window-x="0"
     inkscape:window-y="0"
     inkscape:window-maximized="1"
     inkscape:current-layer="svg5" />
  <defs
     id="defs2">
    <linearGradient
       inkscape:collect="always"
       id="linearGradient2279">
      <stop
         style="stop-color:#ffffff;stop-opacity:1;"
         offset="0"
         id="stop2275" />
      <stop
         style="stop-color:#ffffff;stop-opacity:0;"
         offset="1"
         id="stop2277" />
    </linearGradient>
    <radialGradient
       inkscape:collect="always"
       xlink:href="#linearGradient2279"
       id="radialGradient2281"
       cx="1.0906093"
       cy="15.886149"
       fx="1.0906093"
       fy="15.886149"
       r="7.4083333"
       gradientUnits="userSpaceOnUse"
       gradientTransform="matrix(-2.0000006,0,0,-1.9999999,18.023948,32.819482)" />
  </defs>
  <circle
     style="fill:#616161;fill-opacity:1;stroke-width:0.529167;stroke-linecap:round;stroke-linejoin:round"
     id="path1039"
     cx="8.4666662"
     cy="8.4666662"
     r="7.4083333" />
  <path
     id="rect1161"
     style="opacity:1;fill:#1976d2;fill-opacity:1;stroke-width:2;stroke-linecap:round;stroke-linejoin:round"
     d="M 32 4 L 32 32 L 60 32 A 28 28 0 0 0 32 4 z M 32 32 L 4 32 A 28 28 0 0 0 32 60 L 32 32 z "
     transform="scale(0.26458334)" />
  <circle
     style="opacity:0.2;fill:url(#radialGradient2281);fill-opacity:1;stroke-width:0.529167;stroke-linecap:round;stroke-linejoin:round"
     id="path2157"
     cx="8.4666662"
     cy="8.4666662"
     r="7.4083333" />
  <path
     id="rect3001"
     style="opacity:0.2;fill:#ffffff;fill-opacity:1;stroke-width:2;stroke-linecap:round;stroke-linejoin:round"
     d="M 32 4 A 28 28 0 0 0 30 4.0742188 L 30 30 L 4.0742188 30 A 28 28 0 0 0 4 32 A 28 28 0 0 0 4.0742188 34 L 30 34 L 30 59.925781 A 28 28 0 0 0 32 60 A 28 28 0 0 0 34 59.925781 L 34 34 L 59.925781 34 A 28 28 0 0 0 60 32 A 28 28 0 0 0 59.925781 30 L 34 30 L 34 4.0742188 A 28 28 0 0 0 32 4 z "
     transform="scale(0.26458334)" />
</svg>
