<?xml version="1.0" encoding="UTF-8" standalone="no"?>
<svg
   version="1.1"
   id="Layer_1"
   width="64"
   height="64"
   viewBox="0 0 64 64"
   sodipodi:docname="microsoft-edge.svg"
   inkscape:version="1.1.1 (3bf5ae0d25, 2021-09-20, custom)"
   xmlns:inkscape="http://www.inkscape.org/namespaces/inkscape"
   xmlns:sodipodi="http://sodipodi.sourceforge.net/DTD/sodipodi-0.dtd"
   xmlns="http://www.w3.org/2000/svg"
   xmlns:svg="http://www.w3.org/2000/svg"
   xmlns:rdf="http://www.w3.org/1999/02/22-rdf-syntax-ns#"
   xmlns:cc="http://creativecommons.org/ns#"
   xmlns:dc="http://purl.org/dc/elements/1.1/">
  <sodipodi:namedview
     id="namedview65"
     pagecolor="#ffffff"
     bordercolor="#666666"
     borderopacity="1.0"
     inkscape:pageshadow="2"
     inkscape:pageopacity="0.0"
     inkscape:pagecheckerboard="0"
     showgrid="false"
     inkscape:zoom="4.921875"
     inkscape:cx="4.4698413"
     inkscape:cy="61.663492"
     inkscape:window-width="1920"
     inkscape:window-height="1019"
     inkscape:window-x="0"
     inkscape:window-y="0"
     inkscape:window-maximized="1"
     inkscape:current-layer="Layer_1" />
  <defs
     id="defs48">
    <style
       id="style2">.cls-1{fill:url(#linear-gradient);}.cls-2{opacity:0.35;fill:url(#radial-gradient);}.cls-2,.cls-4{isolation:isolate;}.cls-3{fill:url(#linear-gradient-2);}.cls-4{opacity:0.41;fill:url(#radial-gradient-2);}.cls-5{fill:url(#radial-gradient-3);}.cls-6{fill:url(#radial-gradient-4);}</style>
    <linearGradient
       id="linear-gradient"
       x1="63.330002"
       y1="84.029999"
       x2="241.67"
       y2="84.029999"
       gradientTransform="matrix(0.15624023,0,0,-0.15624023,11.279732,52.7912)"
       gradientUnits="userSpaceOnUse">
      <stop
         offset="0"
         stop-color="#0c59a4"
         id="stop4" />
      <stop
         offset="1"
         stop-color="#114a8b"
         id="stop6" />
    </linearGradient>
    <radialGradient
       id="radial-gradient"
       cx="161.83"
       cy="68.910004"
       r="95.379997"
       gradientTransform="matrix(0.15624023,0,0,-0.14842822,11.279732,50.110117)"
       gradientUnits="userSpaceOnUse">
      <stop
         offset="0.72"
         stop-opacity="0"
         id="stop9" />
      <stop
         offset="0.95"
         stop-opacity="0.53"
         id="stop11" />
      <stop
         offset="1"
         id="stop13" />
    </radialGradient>
    <linearGradient
       id="linear-gradient-2"
       x1="157.35001"
       y1="161.39"
       x2="45.959999"
       y2="40.060001"
       gradientTransform="matrix(0.15624023,0,0,-0.15624023,11.279732,52.7912)"
       gradientUnits="userSpaceOnUse">
      <stop
         offset="0"
         stop-color="#1b9de2"
         id="stop16" />
      <stop
         offset="0.16"
         stop-color="#1595df"
         id="stop18" />
      <stop
         offset="0.67"
         stop-color="#0680d7"
         id="stop20" />
      <stop
         offset="1"
         stop-color="#0078d4"
         id="stop22" />
    </linearGradient>
    <radialGradient
       id="radial-gradient-2"
       cx="-340.29001"
       cy="62.990002"
       r="143.24001"
       gradientTransform="matrix(0.02343603,-0.15467783,-0.12499219,-0.01874883,38.878007,-8.3612272)"
       gradientUnits="userSpaceOnUse">
      <stop
         offset="0.76"
         stop-opacity="0"
         id="stop25" />
      <stop
         offset="0.95"
         stop-opacity="0.5"
         id="stop27" />
      <stop
         offset="1"
         id="stop29" />
    </radialGradient>
    <radialGradient
       id="radial-gradient-3"
       cx="113.37"
       cy="570.21002"
       r="202.42999"
       gradientTransform="matrix(-0.00624961,0.15624023,0.3327917,0.01249922,-173.01188,-5.4379728)"
       gradientUnits="userSpaceOnUse">
      <stop
         offset="0"
         stop-color="#35c1f1"
         id="stop32" />
      <stop
         offset="0.11"
         stop-color="#34c1ed"
         id="stop34" />
      <stop
         offset="0.23"
         stop-color="#2fc2df"
         id="stop36" />
      <stop
         offset="0.31"
         stop-color="#2bc3d2"
         id="stop38" />
      <stop
         offset="0.67"
         stop-color="#36c752"
         id="stop40" />
    </radialGradient>
    <radialGradient
       id="radial-gradient-4"
       cx="376.51999"
       cy="567.96997"
       r="97.339996"
       gradientTransform="matrix(0.04374727,0.14999062,0.12186738,-0.03593526,-36.179801,-11.970376)"
       gradientUnits="userSpaceOnUse">
      <stop
         offset="0"
         stop-color="#66eb6e"
         id="stop43" />
      <stop
         offset="1"
         stop-color="#66eb6e"
         stop-opacity="0"
         id="stop45" />
    </radialGradient>
  </defs>
  <title
     id="title50">Edge_Logo_265x265</title>
  <circle
     style="fill:#ffffff;stroke-width:2;stroke-linecap:round;stroke-linejoin:round;stroke-dasharray:24, 2"
     id="path921"
     cx="32"
     cy="32"
     r="28" />
  <path
     class="cls-1"
     d="m 48.102431,41.770015 a 14.644398,14.644398 0 0 1 -1.646772,0.735892 15.916193,15.916193 0 0 1 -5.609024,1.009312 c -7.393288,0 -13.83351,-5.08562 -13.83351,-11.611774 a 4.9184426,4.9184426 0 0 1 2.567026,-4.266922 c -6.687082,0.281233 -8.405724,7.249547 -8.405724,11.332105 0,11.543029 10.638398,12.713268 12.930442,12.713268 1.23586,0 3.099806,-0.359352 4.218486,-0.712456 L 38.52803,50.9007 a 20.051872,20.051872 0 0 0 10.405599,-8.249485 0.62496095,0.62496095 0 0 0 -0.831198,-0.881196 z"
     id="path52"
     style="fill:url(#linear-gradient);stroke-width:0.15624" />
  <path
     class="cls-2"
     d="m 48.102431,41.770015 a 14.644398,14.644398 0 0 1 -1.646772,0.735892 15.916193,15.916193 0 0 1 -5.609024,1.009312 c -7.393288,0 -13.83351,-5.08562 -13.83351,-11.611774 a 4.9184426,4.9184426 0 0 1 2.567026,-4.266922 c -6.687082,0.281233 -8.405724,7.249547 -8.405724,11.332105 0,11.543029 10.638398,12.713268 12.930442,12.713268 1.23586,0 3.099806,-0.359352 4.218486,-0.712456 L 38.52803,50.9007 a 20.051872,20.051872 0 0 0 10.405599,-8.249485 0.62496095,0.62496095 0 0 0 -0.831198,-0.881196 z"
     id="path54"
     style="fill:url(#radial-gradient);stroke-width:0.15624" />
  <path
     class="cls-3"
     d="m 28.51928,49.719518 a 12.374227,12.374227 0 0 1 -3.552903,-3.334167 12.611712,12.611712 0 0 1 4.613774,-18.748828 c 0.48747,-0.229673 1.32023,-0.645272 2.427974,-0.624961 a 5.0543717,5.0543717 0 0 1 4.013812,2.031124 4.9809387,4.9809387 0 0 1 0.993688,2.915442 c 0,-0.03281 3.821635,-12.436722 -12.499219,-12.436722 -6.858947,0 -12.499219,6.508967 -12.499219,12.219549 a 20.334667,20.334667 0 0 0 1.892069,8.749453 19.99875,19.99875 0 0 0 24.432848,10.485282 11.80395,11.80395 0 0 1 -9.808762,-1.249922 z"
     id="path56"
     style="fill:url(#linear-gradient-2);stroke-width:0.15624" />
  <path
     class="cls-4"
     d="m 28.51928,49.719518 a 12.374227,12.374227 0 0 1 -3.552903,-3.334167 12.611712,12.611712 0 0 1 4.613774,-18.748828 c 0.48747,-0.229673 1.32023,-0.645272 2.427974,-0.624961 a 5.0543717,5.0543717 0 0 1 4.013812,2.031124 4.9809387,4.9809387 0 0 1 0.993688,2.915442 c 0,-0.03281 3.821635,-12.436722 -12.499219,-12.436722 -6.858947,0 -12.499219,6.508967 -12.499219,12.219549 a 20.334667,20.334667 0 0 0 1.892069,8.749453 19.99875,19.99875 0 0 0 24.432848,10.485282 11.80395,11.80395 0 0 1 -9.808762,-1.249922 z"
     id="path58"
     style="fill:url(#radial-gradient-2);stroke-width:0.15624" />
  <path
     class="cls-5"
     d="m 35.800076,35.257922 c -0.126556,0.164053 -0.515594,0.3906 -0.515594,0.88432 0,0.407787 0.265609,0.79995 0.737455,1.129617 2.246734,1.562402 6.482407,1.356165 6.493343,1.356165 a 9.3056685,9.3056685 0 0 0 4.729393,-1.304606 9.5900258,9.5900258 0 0 0 4.75439,-8.261983 C 52.039686,25.56009 50.749141,23.232111 50.227299,22.200926 46.916568,15.724768 39.770139,12 31.99875,12 A 19.99875,19.99875 0 0 0 12,31.717518 C 12.075,26.0085 17.749641,21.39785 24.499219,21.39785 c 0.546841,0 3.665396,0.05312 6.56209,1.57334 2.552966,1.340541 3.890382,2.95919 4.820011,4.563777 0.965565,1.667083 1.137429,3.773202 1.137429,4.612212 0,0.83901 -0.428098,2.082682 -1.218673,3.110743 z"
     id="path60"
     style="fill:url(#radial-gradient-3);stroke-width:0.15624" />
  <path
     class="cls-6"
     d="m 35.800076,35.257922 c -0.126556,0.164053 -0.515594,0.3906 -0.515594,0.88432 0,0.407787 0.265609,0.79995 0.737455,1.129617 2.246734,1.562402 6.482407,1.356165 6.493343,1.356165 a 9.3056685,9.3056685 0 0 0 4.729393,-1.304606 9.5900258,9.5900258 0 0 0 4.75439,-8.261983 C 52.039686,25.56009 50.749141,23.232111 50.227299,22.200926 46.916568,15.724768 39.770139,12 31.99875,12 A 19.99875,19.99875 0 0 0 12,31.717518 C 12.075,26.0085 17.749641,21.39785 24.499219,21.39785 c 0.546841,0 3.665396,0.05312 6.56209,1.57334 2.552966,1.340541 3.890382,2.95919 4.820011,4.563777 0.965565,1.667083 1.137429,3.773202 1.137429,4.612212 0,0.83901 -0.428098,2.082682 -1.218673,3.110743 z"
     id="path62"
     style="fill:url(#radial-gradient-4);stroke-width:0.15624" />
  <metadata
     id="metadata882">
    <rdf:RDF>
      <cc:Work
         rdf:about="">
        <dc:title>Edge_Logo_265x265</dc:title>
      </cc:Work>
    </rdf:RDF>
  </metadata>
</svg>
