<?xml version="1.0" encoding="UTF-8" standalone="no"?>
<!-- Created with Inkscape (http://www.inkscape.org/) -->

<svg
   width="64"
   height="64"
   viewBox="0 0 16.933333 16.933334"
   version="1.1"
   id="svg5"
   inkscape:version="1.1.1 (3bf5ae0d25, 2021-09-20, custom)"
   sodipodi:docname="mines.svg"
   xmlns:inkscape="http://www.inkscape.org/namespaces/inkscape"
   xmlns:sodipodi="http://sodipodi.sourceforge.net/DTD/sodipodi-0.dtd"
   xmlns:xlink="http://www.w3.org/1999/xlink"
   xmlns="http://www.w3.org/2000/svg"
   xmlns:svg="http://www.w3.org/2000/svg">
  <sodipodi:namedview
     id="namedview7"
     pagecolor="#ffffff"
     bordercolor="#666666"
     borderopacity="1.0"
     inkscape:pageshadow="2"
     inkscape:pageopacity="0.0"
     inkscape:pagecheckerboard="0"
     inkscape:document-units="px"
     showgrid="false"
     units="px"
     height="64px"
     inkscape:zoom="11.313708"
     inkscape:cx="40.923805"
     inkscape:cy="31.422058"
     inkscape:window-width="1920"
     inkscape:window-height="1019"
     inkscape:window-x="0"
     inkscape:window-y="0"
     inkscape:window-maximized="1"
     inkscape:current-layer="svg5" />
  <defs
     id="defs2">
    <linearGradient
       inkscape:collect="always"
       id="linearGradient2123">
      <stop
         style="stop-color:#000000;stop-opacity:1;"
         offset="0"
         id="stop2119" />
      <stop
         style="stop-color:#000000;stop-opacity:0;"
         offset="1"
         id="stop2121" />
    </linearGradient>
    <linearGradient
       inkscape:collect="always"
       xlink:href="#linearGradient2123"
       id="linearGradient2125"
       x1="16.041016"
       y1="20.291992"
       x2="47.998047"
       y2="54.291992"
       gradientUnits="userSpaceOnUse" />
  </defs>
  <ellipse
     style="fill:#cccccc;stroke-width:0.529167;stroke-linecap:round;stroke-linejoin:round"
     id="path1039"
     cx="8.4666662"
     cy="8.4666662"
     rx="7.408"
     ry="7.4083333" />
  <path
     id="path1687"
     style="fill:url(#linearGradient2125);stroke-width:2.13334;stroke-linecap:round;stroke-linejoin:round;opacity:0.3;fill-opacity:1"
     d="M 33.416016 12.583984 C 33.777515 12.945484 34 13.446001 34 14 L 34 16.126953 A 15.999981 15.999981 0 0 1 38.314453 17.310547 C 38.21036 17.265835 38.10892 17.214381 38.003906 17.171875 L 33.416016 12.583984 z M 30 16.134766 C 29.617164 16.182931 29.238099 16.246933 28.861328 16.322266 A 15.999981 15.999981 0 0 1 30 16.134766 z M 28.523438 16.400391 C 28.259084 16.459235 27.994919 16.519756 27.734375 16.591797 A 15.999981 15.999981 0 0 1 28.523438 16.400391 z M 27.306641 16.722656 C 27.090568 16.788957 26.875019 16.856307 26.662109 16.931641 A 15.999981 15.999981 0 0 1 27.306641 16.722656 z M 26.195312 17.107422 C 25.983306 17.189961 25.772747 17.275684 25.564453 17.367188 A 15.999981 15.999981 0 0 1 26.195312 17.107422 z M 38.875 17.560547 A 15.999981 15.999981 0 0 1 39.378906 17.816406 C 39.211536 17.729463 39.045234 17.641492 38.875 17.560547 z M 25.132812 17.564453 C 24.921313 17.664946 24.712904 17.771092 24.505859 17.880859 A 15.999981 15.999981 0 0 1 25.132812 17.564453 z M 46.142578 17.857422 C 46.926052 18.640895 46.926052 19.902074 46.142578 20.685547 L 44.638672 22.189453 A 15.999981 15.999981 0 0 1 47.873047 30 L 50 30 C 51.107999 30 52 30.892001 52 32 C 52 33.107999 51.107999 34 50 34 L 47.865234 34 A 15.999981 15.999981 0 0 1 44.634766 41.806641 L 46.142578 43.314453 C 46.926052 44.097927 46.926052 45.359105 46.142578 46.142578 C 45.359105 46.926052 44.097927 46.926052 43.314453 46.142578 L 41.806641 44.634766 A 15.999981 15.999981 0 0 1 34 47.865234 L 34 50 C 34 51.107999 33.107999 52 32 52 C 30.892001 52 30 51.107999 30 50 L 30 47.865234 A 15.999981 15.999981 0 0 1 22.193359 44.634766 L 20.685547 46.142578 C 19.902073 46.926052 18.640895 46.926052 17.857422 46.142578 L 31.703125 59.988281 A 27.99874 28 0 0 0 31.998047 60 A 27.99874 28 0 0 0 59.998047 32 A 27.99874 28 0 0 0 59.994141 31.708984 L 46.142578 17.857422 z M 39.882812 18.082031 A 15.999981 15.999981 0 0 1 40.542969 18.484375 C 40.324841 18.346679 40.106955 18.208797 39.882812 18.082031 z M 24.113281 18.091797 C 23.888129 18.219331 23.6683 18.355583 23.449219 18.494141 A 15.999981 15.999981 0 0 1 24.113281 18.091797 z M 40.855469 18.679688 A 15.999981 15.999981 0 0 1 41.810547 19.361328 C 41.500649 19.120837 41.180815 18.895743 40.855469 18.679688 z M 23.128906 18.695312 C 22.810199 18.907603 22.497256 19.129597 22.193359 19.365234 A 15.999981 15.999981 0 0 1 23.128906 18.695312 z M 19.365234 22.193359 C 19.129597 22.497256 18.907603 22.810199 18.695312 23.128906 A 15.999981 15.999981 0 0 1 19.365234 22.193359 z M 18.494141 23.449219 C 18.355583 23.6683 18.219331 23.888129 18.091797 24.113281 A 15.999981 15.999981 0 0 1 18.494141 23.449219 z M 17.880859 24.505859 C 17.771092 24.712904 17.664946 24.921313 17.564453 25.132812 A 15.999981 15.999981 0 0 1 17.880859 24.505859 z M 17.367188 25.564453 C 17.275684 25.772747 17.189961 25.983306 17.107422 26.195312 A 15.999981 15.999981 0 0 1 17.367188 25.564453 z M 16.931641 26.662109 C 16.856307 26.875019 16.788957 27.090568 16.722656 27.306641 A 15.999981 15.999981 0 0 1 16.931641 26.662109 z M 16.591797 27.734375 C 16.519756 27.994919 16.459235 28.259084 16.400391 28.523438 A 15.999981 15.999981 0 0 1 16.591797 27.734375 z M 16.322266 28.861328 C 16.246933 29.238099 16.182931 29.617164 16.134766 30 A 15.999981 15.999981 0 0 1 16.322266 28.861328 z M 12.041016 32.404297 C 12.043197 32.415006 12.046477 32.424902 12.048828 32.435547 C 12.046496 32.424976 12.043181 32.414931 12.041016 32.404297 z M 12.603516 33.433594 L 17.181641 38.011719 C 17.228724 38.127908 17.284191 38.240415 17.333984 38.355469 A 15.999981 15.999981 0 0 1 16.134766 34 L 14 34 C 13.455468 34 12.963466 33.784239 12.603516 33.433594 z M 17.552734 38.847656 C 17.649607 39.05234 17.755788 39.252593 17.861328 39.453125 A 15.999981 15.999981 0 0 1 17.552734 38.847656 z M 18.080078 39.867188 C 18.198637 40.077302 18.32692 40.281469 18.455078 40.486328 A 15.999981 15.999981 0 0 1 18.080078 39.867188 z M 18.697266 40.875 C 18.908713 41.192352 19.13056 41.503987 19.365234 41.806641 A 15.999981 15.999981 0 0 1 18.697266 40.875 z "
     transform="scale(0.26458334)" />
  <path
     id="path1020"
     style="fill:#4d4d4d;stroke-width:0.564445;stroke-linecap:round;stroke-linejoin:round"
     d="m 8.466656,3.174996 c -0.293158,0 -0.529166,0.236008 -0.529166,0.529166 V 4.2689848 A 4.2333283,4.2333283 0 0 0 5.8719855,5.1237117 L 5.4730441,4.7247703 c -0.2072939,-0.2072939 -0.5409799,-0.2072939 -0.7482738,0 -0.2072939,0.2072939 -0.2072939,0.5409799 0,0.7482738 L 5.1237117,5.8719855 A 4.2333283,4.2333283 0 0 0 4.2689848,7.93749 H 3.704162 c -0.293158,0 -0.529166,0.236008 -0.529166,0.529166 0,0.293158 0.236008,0.529166 0.529166,0.529166 h 0.5648228 a 4.2333283,4.2333283 0 0 0 0.8547269,2.065504 l -0.3989414,0.398942 c -0.2072939,0.207294 -0.2072939,0.54098 0,0.748274 0.2072939,0.207294 0.5409799,0.207294 0.7482738,0 L 5.8719855,11.8096 A 4.2333283,4.2333283 0 0 0 7.93749,12.664327 v 0.564823 c 0,0.293158 0.236008,0.529166 0.529166,0.529166 0.293158,0 0.529166,-0.236008 0.529166,-0.529166 V 12.664327 A 4.2333283,4.2333283 0 0 0 11.061326,11.8096 l 0.398942,0.398942 c 0.207294,0.207294 0.54098,0.207294 0.748274,0 0.207294,-0.207294 0.207294,-0.54098 0,-0.748274 L 11.8096,11.061326 a 4.2333283,4.2333283 0 0 0 0.854727,-2.065504 h 0.564823 c 0.293158,0 0.529166,-0.236008 0.529166,-0.529166 0,-0.293158 -0.236008,-0.529166 -0.529166,-0.529166 h -0.562756 a 4.2333283,4.2333283 0 0 0 -0.85576,-2.066538 l 0.397908,-0.3979079 c 0.207294,-0.2072939 0.207294,-0.5409799 0,-0.7482738 -0.207294,-0.2072939 -0.54098,-0.2072939 -0.748274,0 L 11.06236,5.1226782 A 4.2333283,4.2333283 0 0 0 8.995822,4.2669176 V 3.704162 c 0,-0.293158 -0.236008,-0.529166 -0.529166,-0.529166 z" />
  <path
     id="path1020-5"
     style="opacity:0.2;fill:#ffffff;stroke-width:2.13334;stroke-linecap:round;stroke-linejoin:round"
     d="M 17.335938 18.771484 C 17.164303 19.433852 17.336592 20.164719 17.857422 20.685547 L 18.947266 21.775391 A 15.999981 15.999981 0 0 1 19.365234 21.193359 L 17.857422 19.685547 C 17.594778 19.422905 17.422489 19.105502 17.335938 18.771484 z M 46.664062 18.771484 C 46.577511 19.105502 46.405222 19.422905 46.142578 19.685547 L 44.638672 21.189453 A 15.999981 15.999981 0 0 1 45.054688 21.773438 L 46.142578 20.685547 C 46.663408 20.164719 46.835697 19.433852 46.664062 18.771484 z M 12.066406 31.5 C 12.025392 31.66007 12 31.826791 12 32 C 12 33.107999 12.892001 34 14 34 L 16.134766 34 A 15.999981 15.999981 0 0 0 18.947266 41.224609 L 19.365234 40.806641 A 15.999981 15.999981 0 0 1 16.134766 33 L 14 33 C 13.065211 33 12.287757 32.363876 12.066406 31.5 z M 51.933594 31.5 C 51.712243 32.363876 50.934789 33 50 33 L 47.865234 33 A 15.999981 15.999981 0 0 1 44.634766 40.806641 L 45.052734 41.224609 A 15.999981 15.999981 0 0 0 47.865234 34 L 50 34 C 51.107999 34 52 33.107999 52 32 C 52 31.826791 51.974608 31.66007 51.933594 31.5 z M 22.193359 43.634766 L 20.685547 45.142578 C 19.902073 45.926052 18.640895 45.926052 17.857422 45.142578 C 17.594778 44.879935 17.422489 44.562534 17.335938 44.228516 C 17.164303 44.890883 17.336592 45.621748 17.857422 46.142578 C 18.640895 46.926052 19.902073 46.926052 20.685547 46.142578 L 22.193359 44.634766 A 15.999981 15.999981 0 0 0 30 47.865234 L 30 46.865234 A 15.999981 15.999981 0 0 1 22.193359 43.634766 z M 41.806641 43.634766 A 15.999981 15.999981 0 0 1 34 46.865234 L 34 47.865234 A 15.999981 15.999981 0 0 0 41.806641 44.634766 L 43.314453 46.142578 C 44.097927 46.926052 45.359105 46.926052 46.142578 46.142578 C 46.663408 45.621748 46.835697 44.890883 46.664062 44.228516 C 46.577511 44.562534 46.405222 44.879935 46.142578 45.142578 C 45.359105 45.926052 44.097927 45.926052 43.314453 45.142578 L 41.806641 43.634766 z M 30 49 L 30 50 C 30 51.107999 30.892001 52 32 52 C 33.107999 52 34 51.107999 34 50 L 34 49 C 34 50.107999 33.107999 51 32 51 C 30.892001 51 30 50.107999 30 49 z "
     transform="scale(0.26458334)" />
</svg>
