<?xml version="1.0" encoding="UTF-8" standalone="no"?>
<!-- Created with Inkscape (http://www.inkscape.org/) -->

<svg
   width="64"
   height="64"
   viewBox="0 0 16.933333 16.933334"
   version="1.1"
   id="svg5"
   inkscape:version="1.1.1 (3bf5ae0d25, 2021-09-20, custom)"
   sodipodi:docname="multimedia-audio-player.svg"
   xmlns:inkscape="http://www.inkscape.org/namespaces/inkscape"
   xmlns:sodipodi="http://sodipodi.sourceforge.net/DTD/sodipodi-0.dtd"
   xmlns="http://www.w3.org/2000/svg"
   xmlns:svg="http://www.w3.org/2000/svg">
  <sodipodi:namedview
     id="namedview7"
     pagecolor="#ffffff"
     bordercolor="#666666"
     borderopacity="1.0"
     inkscape:pageshadow="2"
     inkscape:pageopacity="0.0"
     inkscape:pagecheckerboard="0"
     inkscape:document-units="px"
     showgrid="false"
     units="px"
     height="64px"
     inkscape:zoom="4"
     inkscape:cx="-11"
     inkscape:cy="74"
     inkscape:window-width="1920"
     inkscape:window-height="1002"
     inkscape:window-x="0"
     inkscape:window-y="0"
     inkscape:window-maximized="1"
     inkscape:current-layer="svg5" />
  <defs
     id="defs2" />
  <circle
     style="fill:#ffaa42;stroke-width:0.529167;stroke-linecap:round;stroke-linejoin:round;fill-opacity:1"
     id="path1039"
     cx="8.4666662"
     cy="8.4666662"
     r="7.4083333" />
  <path
     id="rect973-3"
     style="opacity:0.2;fill:#000000;fill-opacity:1;stroke-width:0.497702;stroke-linecap:round;stroke-linejoin:round"
     d="m 8.9958335,4.4979167 c -0.2931584,0 -0.5291667,0.2360083 -0.5291667,0.5291667 V 6.0854167 9.4392172 A 1.8520834,1.8520834 0 0 0 7.6729168,9.2604168 1.8520834,1.8520834 0 0 0 5.8208334,11.1125 1.8520834,1.8520834 0 0 0 7.6729168,12.964583 1.8520834,1.8520834 0 0 0 9.5250002,11.1125 V 6.0854167 H 11.641667 V 5.0270834 c 0,-0.2931584 -0.236008,-0.5291667 -0.529167,-0.5291667 z" />
  <rect
     style="fill:#ffdf6e;fill-opacity:1;stroke-width:0.497703;stroke-linecap:round;stroke-linejoin:round"
     id="rect973"
     width="1.0583334"
     height="6.0854168"
     x="8.2020836"
     y="4.7625003" />
  <path
     id="rect847"
     style="fill:#f4431e;stroke-width:0.529167;stroke-linecap:round;stroke-linejoin:round"
     d="m 8.7312504,4.2333336 h 2.1166656 c 0.293159,0 0.529167,0.2360083 0.529167,0.5291667 V 5.8208337 H 8.2020837 V 4.7625003 c 0,-0.2931584 0.2360083,-0.5291667 0.5291667,-0.5291667 z"
     sodipodi:nodetypes="sssccss" />
  <circle
     style="fill:#f9f9f9;fill-opacity:1;stroke-width:0.529167;stroke-linecap:round;stroke-linejoin:round"
     id="path5984"
     cx="7.4083333"
     cy="10.847917"
     r="1.8520833" />
</svg>
