<?xml version="1.0" encoding="UTF-8" standalone="no"?>
<!-- Created with Inkscape (http://www.inkscape.org/) -->

<svg
   width="64"
   height="64"
   viewBox="0 0 16.933333 16.933333"
   version="1.1"
   id="svg5"
   inkscape:version="1.1.1 (3bf5ae0d25, 2021-09-20, custom)"
   sodipodi:docname="nextcloud.svg"
   xmlns:inkscape="http://www.inkscape.org/namespaces/inkscape"
   xmlns:sodipodi="http://sodipodi.sourceforge.net/DTD/sodipodi-0.dtd"
   xmlns="http://www.w3.org/2000/svg"
   xmlns:svg="http://www.w3.org/2000/svg">
  <sodipodi:namedview
     id="namedview7"
     pagecolor="#ffffff"
     bordercolor="#666666"
     borderopacity="1.0"
     inkscape:pageshadow="2"
     inkscape:pageopacity="0.0"
     inkscape:pagecheckerboard="0"
     inkscape:document-units="px"
     showgrid="false"
     units="px"
     height="48px"
     inkscape:zoom="2.828427"
     inkscape:cx="-96.52008"
     inkscape:cy="80.079847"
     inkscape:window-width="1920"
     inkscape:window-height="1019"
     inkscape:window-x="0"
     inkscape:window-y="0"
     inkscape:window-maximized="1"
     inkscape:current-layer="svg5"
     inkscape:lockguides="true" />
  <defs
     id="defs2" />
  <circle
     style="fill:#177ab3;fill-opacity:1;stroke-width:1.52016;stroke-linecap:round;stroke-linejoin:round"
     id="path852"
     cx="8.4666662"
     cy="8.4666662"
     r="7.4083333" />
  <path
     id="path8"
     d="M 8.4666665,6.3499999 A 2.1166666,2.1166666 0 0 0 6.3499998,8.4666662 2.1166666,2.1166666 0 0 0 8.4666665,10.583333 2.1166666,2.1166666 0 0 0 10.583334,8.4666662 2.1166666,2.1166666 0 0 0 8.4666665,6.3499999 Z m 0,1.0583333 a 1.0583333,1.0583333 0 0 1 1.0583333,1.058333 1.0583333,1.0583333 0 0 1 -1.0583333,1.058334 1.0583333,1.0583333 0 0 1 -1.0583333,-1.058334 1.0583333,1.0583333 0 0 1 1.0583333,-1.058333 z"
     style="fill:#ffffff;stroke-width:0.529167" />
  <path
     id="path12"
     d="m 4.7624999,6.8791665 a 1.5875,1.5875 0 0 0 -1.5875,1.5874997 1.5875,1.5875 0 0 0 1.5875,1.5874998 A 1.5875,1.5875 0 0 0 6.3499998,8.4666662 1.5875,1.5875 0 0 0 4.7624999,6.8791665 Z m 0,1.0583337 a 0.52916666,0.52916666 0 0 1 0.5291666,0.529166 0.52916666,0.52916666 0 0 1 -0.5291666,0.529167 0.52916666,0.52916666 0 0 1 -0.5291667,-0.529167 0.52916666,0.52916666 0 0 1 0.5291667,-0.529166 z"
     style="fill:#ffffff;stroke-width:0.529167" />
  <path
     id="path16"
     d="m 12.170834,6.8791665 a 1.5875,1.5875 0 0 0 -1.5875,1.5874997 1.5875,1.5875 0 0 0 1.5875,1.5874998 1.5875,1.5875 0 0 0 1.5875,-1.5874998 1.5875,1.5875 0 0 0 -1.5875,-1.5874997 z m 0,1.0583337 a 0.52916666,0.52916666 0 0 1 0.529167,0.529166 0.52916666,0.52916666 0 0 1 -0.529167,0.529167 0.52916666,0.52916666 0 0 1 -0.529166,-0.529167 0.52916666,0.52916666 0 0 1 0.529166,-0.529166 z"
     style="fill:#ffffff;stroke-width:0.529167" />
</svg>
