<?xml version="1.0" encoding="UTF-8" standalone="no"?>
<svg
   version="1.1"
   id="logo_x5F_calendar_x5F_192px_x5F_clr"
   x="0px"
   y="0px"
   viewBox="0 0 63.999997 64.000002"
   xml:space="preserve"
   sodipodi:docname="gnome-calendar.svg"
   width="64"
   height="64"
   inkscape:version="1.1.1 (3bf5ae0d25, 2021-09-20, custom)"
   xmlns:inkscape="http://www.inkscape.org/namespaces/inkscape"
   xmlns:sodipodi="http://sodipodi.sourceforge.net/DTD/sodipodi-0.dtd"
   xmlns:xlink="http://www.w3.org/1999/xlink"
   xmlns="http://www.w3.org/2000/svg"
   xmlns:svg="http://www.w3.org/2000/svg"><sodipodi:namedview
   id="namedview119"
   pagecolor="#ffffff"
   bordercolor="#666666"
   borderopacity="1.0"
   inkscape:pageshadow="2"
   inkscape:pageopacity="0.0"
   inkscape:pagecheckerboard="0"
   showgrid="false"
   inkscape:zoom="12.390625"
   inkscape:cx="32.040353"
   inkscape:cy="32"
   inkscape:window-width="1920"
   inkscape:window-height="1019"
   inkscape:window-x="0"
   inkscape:window-y="0"
   inkscape:window-maximized="1"
   inkscape:current-layer="logo_x5F_calendar_x5F_192px_x5F_clr" /><defs
   id="defs207">
	
	
		<radialGradient
   id="SVGID_32_"
   cx="3285.2671"
   cy="-843.73138"
   r="2682.4927"
   gradientTransform="matrix(0.01866209,0,0,-0.01866209,-46.132252,-1.9061437)"
   gradientUnits="userSpaceOnUse">
		<stop
   offset="0.33"
   style="stop-color:#FFFFFF"
   id="stop195" />
		<stop
   offset="1"
   style="stop-color:#FFFFFF;stop-opacity:0"
   id="stop197" />
	</radialGradient>
	
</defs>
<rect
   style="fill:#ffffff"
   width="56"
   height="56"
   x="4"
   y="4"
   rx="27.999001"
   ry="27.999001"
   id="rect4" /><g
   id="g193"
   clip-path="none"
   transform="matrix(0.05599187,0,0,0.05599187,12.5,13)">
		<g
   id="g12">
			<defs
   id="defs5">
				<path
   id="SVGID_1_"
   d="m 696.53,160.738 c 0,-23.307 -14.913,-43.087 -35.719,-50.454 V 53.579 C 660.811,23.977 636.834,0 607.231,0 H 89.299 C 59.696,0 35.719,23.977 35.719,53.579 l 0.134,56.615 C 15.002,117.517 0,137.341 0,160.738 c 0,2.5 0.179,4.956 0.491,7.322 l 35.228,224.854 v 0 L 17.994,621.385 c -0.089,1.25 -0.134,2.456 -0.134,3.706 0,29.603 23.977,53.579 53.579,53.579 h 553.652 c 29.603,0 53.579,-23.977 53.579,-53.579 0,-1.25 -0.045,-2.456 -0.134,-3.706 L 660.81,392.914 696.038,168.06 c 0.314,-2.366 0.492,-4.822 0.492,-7.322 z" />
			</defs>
			<clipPath
   id="SVGID_2_">
				<use
   xlink:href="#SVGID_1_"
   overflow="visible"
   id="use7"
   x="0"
   y="0"
   width="100%"
   height="100%" />
			</clipPath>
			<path
   clip-path="url(#SVGID_2_)"
   fill="#c2c2c2"
   d="M 607.231,0 H 89.299 C 59.696,0 35.719,23.977 35.719,53.579 l 1.027,339.335 H 660.81 V 53.579 C 660.811,23.977 636.834,0 607.231,0 Z"
   id="path10" />
		</g>
		<g
   id="g30">
			<defs
   id="defs15">
				<path
   id="SVGID_3_"
   d="m 696.53,160.738 c 0,-23.307 -14.913,-43.087 -35.719,-50.454 V 53.579 C 660.811,23.977 636.834,0 607.231,0 H 89.299 C 59.696,0 35.719,23.977 35.719,53.579 l 0.134,56.615 C 15.002,117.517 0,137.341 0,160.738 c 0,2.5 0.179,4.956 0.491,7.322 l 35.228,224.854 v 0 L 17.994,621.385 c -0.089,1.25 -0.134,2.456 -0.134,3.706 0,29.603 23.977,53.579 53.579,53.579 h 553.652 c 29.603,0 53.579,-23.977 53.579,-53.579 0,-1.25 -0.045,-2.456 -0.134,-3.706 L 660.81,392.914 696.038,168.06 c 0.314,-2.366 0.492,-4.822 0.492,-7.322 z" />
			</defs>
			<clipPath
   id="SVGID_4_">
				<use
   xlink:href="#SVGID_3_"
   overflow="visible"
   id="use17"
   x="0"
   y="0"
   width="100%"
   height="100%" />
			</clipPath>
			<g
   clip-path="url(#SVGID_4_)"
   id="g28">
				<g
   id="g24">
					
						
					<path
   fill="#3367d6"
   d="M 642.951,107.158 H 53.579 C 23.977,107.158 0,131.135 0,160.738 c 0,2.5 0.179,4.956 0.491,7.322 L 35.719,392.914 H 660.81 L 696.038,168.06 c 0.313,-2.411 0.491,-4.867 0.491,-7.322 10e-4,-29.603 -23.976,-53.58 -53.578,-53.58 z"
   id="path22" />
				</g>
				<path
   opacity="0.5"
   fill="#2a56c6"
   d="M 642.951,107.158 H 53.579 C 23.977,107.158 0,131.135 0,160.738 c 0,2.5 0.179,4.956 0.491,7.322 L 35.719,392.914 H 660.81 L 696.038,168.06 c 0.313,-2.411 0.491,-4.867 0.491,-7.322 10e-4,-29.603 -23.976,-53.58 -53.578,-53.58 z"
   id="path26" />
			</g>
		</g>
		<g
   id="g40">
			<defs
   id="defs33">
				<path
   id="SVGID_5_"
   d="m 696.53,160.738 c 0,-23.307 -14.913,-43.087 -35.719,-50.454 V 53.579 C 660.811,23.977 636.834,0 607.231,0 H 89.299 C 59.696,0 35.719,23.977 35.719,53.579 l 0.134,56.615 C 15.002,117.517 0,137.341 0,160.738 c 0,2.5 0.179,4.956 0.491,7.322 l 35.228,224.854 v 0 L 17.994,621.385 c -0.089,1.25 -0.134,2.456 -0.134,3.706 0,29.603 23.977,53.579 53.579,53.579 h 553.652 c 29.603,0 53.579,-23.977 53.579,-53.579 0,-1.25 -0.045,-2.456 -0.134,-3.706 L 660.81,392.914 696.038,168.06 c 0.314,-2.366 0.492,-4.822 0.492,-7.322 z" />
			</defs>
			<clipPath
   id="SVGID_6_">
				<use
   xlink:href="#SVGID_5_"
   overflow="visible"
   id="use35"
   x="0"
   y="0"
   width="100%"
   height="100%" />
			</clipPath>
			<path
   clip-path="url(#SVGID_6_)"
   fill="#4285f4"
   d="M 678.536,621.385 660.81,392.914 H 35.719 L 17.994,621.385 c -0.089,1.25 -0.134,2.456 -0.134,3.706 0,29.603 23.977,53.579 53.579,53.579 h 553.652 c 29.603,0 53.579,-23.977 53.579,-53.579 0,-1.25 -0.044,-2.456 -0.134,-3.706 z"
   id="path38" />
		</g>
		<g
   id="g55">
			<defs
   id="defs43">
				<path
   id="SVGID_7_"
   d="m 696.53,160.738 c 0,-23.307 -14.913,-43.087 -35.719,-50.454 V 53.579 C 660.811,23.977 636.834,0 607.231,0 H 89.299 C 59.696,0 35.719,23.977 35.719,53.579 l 0.134,56.615 C 15.002,117.517 0,137.341 0,160.738 c 0,2.5 0.179,4.956 0.491,7.322 l 35.228,224.854 v 0 L 17.994,621.385 c -0.089,1.25 -0.134,2.456 -0.134,3.706 0,29.603 23.977,53.579 53.579,53.579 h 553.652 c 29.603,0 53.579,-23.977 53.579,-53.579 0,-1.25 -0.045,-2.456 -0.134,-3.706 L 660.81,392.914 696.038,168.06 c 0.314,-2.366 0.492,-4.822 0.492,-7.322 z" />
			</defs>
			<clipPath
   id="SVGID_8_">
				<use
   xlink:href="#SVGID_7_"
   overflow="visible"
   id="use45"
   x="0"
   y="0"
   width="100%"
   height="100%" />
			</clipPath>
			
				<linearGradient
   id="SVGID_9_"
   gradientUnits="userSpaceOnUse"
   x1="3735.4238"
   y1="-1499.7716"
   x2="4613.7563"
   y2="-2378.1042"
   gradientTransform="matrix(0.3333,0,0,-0.3333,-1047.1566,-266.2198)">
				<stop
   offset="0"
   style="stop-color:#1A237E;stop-opacity:0.2"
   id="stop48" />
				<stop
   offset="1"
   style="stop-color:#1A237E;stop-opacity:0.02"
   id="stop50" />
			</linearGradient>
			<polygon
   clip-path="url(#SVGID_8_)"
   fill="url(#SVGID_9_)"
   points="678.67,678.67 678.67,392.914 35.719,392.914 321.475,678.67 "
   id="polygon53"
   style="fill:url(#SVGID_9_)" />
		</g>
		<g
   id="g65">
			<defs
   id="defs58">
				<path
   id="SVGID_10_"
   d="m 696.53,160.738 c 0,-23.307 -14.913,-43.087 -35.719,-50.454 V 53.579 C 660.811,23.977 636.834,0 607.231,0 H 89.299 C 59.696,0 35.719,23.977 35.719,53.579 l 0.134,56.615 C 15.002,117.517 0,137.341 0,160.738 c 0,2.5 0.179,4.956 0.491,7.322 l 35.228,224.854 v 0 L 17.994,621.385 c -0.089,1.25 -0.134,2.456 -0.134,3.706 0,29.603 23.977,53.579 53.579,53.579 h 553.652 c 29.603,0 53.579,-23.977 53.579,-53.579 0,-1.25 -0.045,-2.456 -0.134,-3.706 L 660.81,392.914 696.038,168.06 c 0.314,-2.366 0.492,-4.822 0.492,-7.322 z" />
			</defs>
			<clipPath
   id="SVGID_11_">
				<use
   xlink:href="#SVGID_10_"
   overflow="visible"
   id="use60"
   x="0"
   y="0"
   width="100%"
   height="100%" />
			</clipPath>
			<path
   clip-path="url(#SVGID_11_)"
   fill="#ffffff"
   fill-opacity="0.2"
   d="m 53.579,111.623 h 589.372 c 28.977,0 52.552,23.039 53.49,51.793 0.045,-0.893 0.089,-1.786 0.089,-2.679 0,-29.603 -23.977,-53.579 -53.579,-53.579 H 53.579 C 23.977,107.158 0,131.135 0,160.738 c 0,0.893 0.045,1.786 0.089,2.679 0.938,-28.755 24.513,-51.794 53.49,-51.794 z"
   id="path63" />
		</g>
		<g
   id="g75">
			<defs
   id="defs68">
				<path
   id="SVGID_12_"
   d="m 696.53,160.738 c 0,-23.307 -14.913,-43.087 -35.719,-50.454 V 53.579 C 660.811,23.977 636.834,0 607.231,0 H 89.299 C 59.696,0 35.719,23.977 35.719,53.579 l 0.134,56.615 C 15.002,117.517 0,137.341 0,160.738 c 0,2.5 0.179,4.956 0.491,7.322 l 35.228,224.854 v 0 L 17.994,621.385 c -0.089,1.25 -0.134,2.456 -0.134,3.706 0,29.603 23.977,53.579 53.579,53.579 h 553.652 c 29.603,0 53.579,-23.977 53.579,-53.579 0,-1.25 -0.045,-2.456 -0.134,-3.706 L 660.81,392.914 696.038,168.06 c 0.314,-2.366 0.492,-4.822 0.492,-7.322 z" />
			</defs>
			<clipPath
   id="SVGID_13_">
				<use
   xlink:href="#SVGID_12_"
   overflow="visible"
   id="use70"
   x="0"
   y="0"
   width="100%"
   height="100%" />
			</clipPath>
			<path
   clip-path="url(#SVGID_13_)"
   fill="#1a237e"
   fill-opacity="0.2"
   d="M 625.091,674.205 H 71.439 c -28.977,0 -52.552,-23.039 -53.49,-51.793 -0.045,0.893 -0.089,1.786 -0.089,2.679 0,29.603 23.977,53.579 53.579,53.579 h 553.652 c 29.603,0 53.579,-23.977 53.579,-53.579 0,-0.893 -0.045,-1.786 -0.089,-2.679 -0.938,28.754 -24.512,51.793 -53.49,51.793 z"
   id="path73" />
		</g>
		<g
   id="g85">
			<defs
   id="defs78">
				<path
   id="SVGID_14_"
   d="m 696.53,160.738 c 0,-23.307 -14.913,-43.087 -35.719,-50.454 V 53.579 C 660.811,23.977 636.834,0 607.231,0 H 89.299 C 59.696,0 35.719,23.977 35.719,53.579 l 0.134,56.615 C 15.002,117.517 0,137.341 0,160.738 c 0,2.5 0.179,4.956 0.491,7.322 l 35.228,224.854 v 0 L 17.994,621.385 c -0.089,1.25 -0.134,2.456 -0.134,3.706 0,29.603 23.977,53.579 53.579,53.579 h 553.652 c 29.603,0 53.579,-23.977 53.579,-53.579 0,-1.25 -0.045,-2.456 -0.134,-3.706 L 660.81,392.914 696.038,168.06 c 0.314,-2.366 0.492,-4.822 0.492,-7.322 z" />
			</defs>
			<clipPath
   id="SVGID_15_">
				<use
   xlink:href="#SVGID_14_"
   overflow="visible"
   id="use80"
   x="0"
   y="0"
   width="100%"
   height="100%" />
			</clipPath>
			<path
   clip-path="url(#SVGID_15_)"
   fill="#ffffff"
   fill-opacity="0.2"
   d="M 607.231,0 H 89.299 C 59.696,0 35.719,23.977 35.719,53.579 v 4.242 C 35.853,28.352 59.785,4.465 89.299,4.465 h 517.933 c 29.603,0 53.579,23.977 53.579,53.579 V 53.579 C 660.811,23.977 636.834,0 607.231,0 Z"
   id="path83" />
		</g>
		<g
   id="g111">
			<defs
   id="defs88">
				<path
   id="SVGID_16_"
   d="m 696.53,160.738 c 0,-23.307 -14.913,-43.087 -35.719,-50.454 V 53.579 C 660.811,23.977 636.834,0 607.231,0 H 89.299 C 59.696,0 35.719,23.977 35.719,53.579 l 0.134,56.615 C 15.002,117.517 0,137.341 0,160.738 c 0,2.5 0.179,4.956 0.491,7.322 l 35.228,224.854 v 0 L 17.994,621.385 c -0.089,1.25 -0.134,2.456 -0.134,3.706 0,29.603 23.977,53.579 53.579,53.579 h 553.652 c 29.603,0 53.579,-23.977 53.579,-53.579 0,-1.25 -0.045,-2.456 -0.134,-3.706 L 660.81,392.914 696.038,168.06 c 0.314,-2.366 0.492,-4.822 0.492,-7.322 z" />
			</defs>
			<clipPath
   id="SVGID_17_">
				<use
   xlink:href="#SVGID_16_"
   overflow="visible"
   id="use90"
   x="0"
   y="0"
   width="100%"
   height="100%" />
			</clipPath>
			<g
   clip-path="url(#SVGID_17_)"
   id="g109">
				<g
   id="g107">
					<defs
   id="defs94">
						<path
   id="SVGID_18_"
   d="M 642.951,107.158 H 53.579 C 23.977,107.158 0,131.135 0,160.738 c 0,2.5 0.179,4.956 0.491,7.322 L 35.719,392.914 H 660.81 L 696.038,168.06 c 0.313,-2.411 0.491,-4.867 0.491,-7.322 10e-4,-29.603 -23.976,-53.58 -53.578,-53.58 z" />
					</defs>
					<clipPath
   id="SVGID_19_">
						<use
   xlink:href="#SVGID_18_"
   overflow="visible"
   id="use96"
   x="0"
   y="0"
   width="100%"
   height="100%" />
					</clipPath>
					<g
   clip-path="url(#SVGID_19_)"
   id="g105">
						<path
   fill="#e1e1e1"
   d="m 295.847,389.075 c 20.315,-8.394 46.48,-30.719 46.48,-64.34 0,-51.793 -33.264,-83.628 -89.299,-83.628 -49.918,0 -90.147,32.683 -90.861,80.369 h 36.255 c 0.536,-27.861 19.378,-50.766 54.562,-50.766 33.889,0 52.999,17.636 52.999,53.222 0,35.586 -27.236,52.017 -60.455,52.017 -13.038,0 -25.316,0 -25.316,0 v 28.397 c 0,0 14.02,0 25.316,0 48.846,0 64.92,25.361 64.92,54.785 0,38.488 -23.396,56.258 -57.285,56.258 -29.513,0 -56.392,-15.761 -57.196,-50.99 h -36.523 c 1.563,56.749 49.338,80.369 93.719,80.369 51.257,0 93.54,-29.87 93.54,-86.441 0.089,-45.633 -32.416,-63.85 -50.856,-69.252 z m 207.262,-147.968 -105.73,37.952 v 34.112 l 75.904,-25.361 v 256.912 h 35.72 V 241.107 Z"
   id="path99" />
						<g
   opacity="0.5"
   id="g103">
							<path
   fill="#c2c2c2"
   d="m 295.847,389.075 c 20.315,-8.394 46.48,-30.719 46.48,-64.34 0,-51.793 -33.264,-83.628 -89.299,-83.628 -49.918,0 -90.147,32.683 -90.861,80.369 h 36.255 c 0.536,-27.861 19.378,-50.766 54.562,-50.766 33.889,0 52.999,17.636 52.999,53.222 0,35.586 -27.236,52.017 -60.455,52.017 -13.038,0 -25.316,0 -25.316,0 v 28.397 c 0,0 14.02,0 25.316,0 48.846,0 64.92,25.361 64.92,54.785 0,38.488 -23.396,56.258 -57.285,56.258 -29.513,0 -56.392,-15.761 -57.196,-50.99 h -36.523 c 1.563,56.749 49.338,80.369 93.719,80.369 51.257,0 93.54,-29.87 93.54,-86.441 0.089,-45.633 -32.416,-63.85 -50.856,-69.252 z m 207.262,-147.968 -105.73,37.952 v 34.112 l 75.904,-25.361 v 256.912 h 35.72 V 241.107 Z"
   id="path101" />
						</g>
					</g>
				</g>
			</g>
		</g>
		<g
   id="g131">
			<defs
   id="defs114">
				<path
   id="SVGID_20_"
   d="m 696.53,160.738 c 0,-23.307 -14.913,-43.087 -35.719,-50.454 V 53.579 C 660.811,23.977 636.834,0 607.231,0 H 89.299 C 59.696,0 35.719,23.977 35.719,53.579 l 0.134,56.615 C 15.002,117.517 0,137.341 0,160.738 c 0,2.5 0.179,4.956 0.491,7.322 l 35.228,224.854 v 0 L 17.994,621.385 c -0.089,1.25 -0.134,2.456 -0.134,3.706 0,29.603 23.977,53.579 53.579,53.579 h 553.652 c 29.603,0 53.579,-23.977 53.579,-53.579 0,-1.25 -0.045,-2.456 -0.134,-3.706 L 660.81,392.914 696.038,168.06 c 0.314,-2.366 0.492,-4.822 0.492,-7.322 z" />
			</defs>
			<clipPath
   id="SVGID_21_">
				<use
   xlink:href="#SVGID_20_"
   overflow="visible"
   id="use116"
   x="0"
   y="0"
   width="100%"
   height="100%" />
			</clipPath>
			<g
   clip-path="url(#SVGID_21_)"
   id="g129">
				<g
   id="g127">
					<defs
   id="defs120">
						<path
   id="SVGID_22_"
   d="M 678.536,621.385 660.81,392.914 H 35.719 L 17.994,621.385 c -0.089,1.25 -0.134,2.456 -0.134,3.706 0,29.603 23.977,53.579 53.579,53.579 h 553.652 c 29.603,0 53.579,-23.977 53.579,-53.579 0,-1.25 -0.044,-2.456 -0.134,-3.706 z" />
					</defs>
					<clipPath
   id="SVGID_23_">
						<use
   xlink:href="#SVGID_22_"
   overflow="visible"
   id="use122"
   x="0"
   y="0"
   width="100%"
   height="100%" />
					</clipPath>
					<path
   clip-path="url(#SVGID_23_)"
   fill="#eeeeee"
   d="m 295.847,389.075 c 20.315,-8.394 46.48,-30.719 46.48,-64.34 0,-51.793 -33.264,-83.628 -89.299,-83.628 -49.918,0 -90.147,32.683 -90.861,80.369 h 36.255 c 0.536,-27.861 19.378,-50.766 54.562,-50.766 33.889,0 52.999,17.636 52.999,53.222 0,35.586 -27.236,52.017 -60.455,52.017 -13.038,0 -25.316,0 -25.316,0 v 28.397 c 0,0 14.02,0 25.316,0 48.846,0 64.92,25.361 64.92,54.785 0,38.488 -23.396,56.258 -57.285,56.258 -29.513,0 -56.392,-15.761 -57.196,-50.99 h -36.523 c 1.563,56.749 49.338,80.369 93.719,80.369 51.257,0 93.54,-29.87 93.54,-86.441 0.089,-45.633 -32.416,-63.85 -50.856,-69.252 z m 207.262,-147.968 -105.73,37.952 v 34.112 l 75.904,-25.361 v 256.912 h 35.72 V 241.107 Z"
   id="path125" />
				</g>
			</g>
		</g>
		<g
   id="g154">
			<defs
   id="defs134">
				<path
   id="SVGID_24_"
   d="m 696.53,160.738 c 0,-23.307 -14.913,-43.087 -35.719,-50.454 V 53.579 C 660.811,23.977 636.834,0 607.231,0 H 89.299 C 59.696,0 35.719,23.977 35.719,53.579 l 0.134,56.615 C 15.002,117.517 0,137.341 0,160.738 c 0,2.5 0.179,4.956 0.491,7.322 l 35.228,224.854 v 0 L 17.994,621.385 c -0.089,1.25 -0.134,2.456 -0.134,3.706 0,29.603 23.977,53.579 53.579,53.579 h 553.652 c 29.603,0 53.579,-23.977 53.579,-53.579 0,-1.25 -0.045,-2.456 -0.134,-3.706 L 660.81,392.914 696.038,168.06 c 0.314,-2.366 0.492,-4.822 0.492,-7.322 z" />
			</defs>
			<clipPath
   id="SVGID_25_">
				<use
   xlink:href="#SVGID_24_"
   overflow="visible"
   id="use136"
   x="0"
   y="0"
   width="100%"
   height="100%" />
			</clipPath>
			<g
   clip-path="url(#SVGID_25_)"
   id="g152">
				
					<linearGradient
   id="SVGID_26_"
   gradientUnits="userSpaceOnUse"
   x1="3676.2822"
   y1="-958.41711"
   x2="3780.4939"
   y2="-1062.6288"
   gradientTransform="matrix(0.3333,0,0,-0.3333,-1047.1566,-266.2198)">
					<stop
   offset="0"
   style="stop-color:#212121;stop-opacity:0.2"
   id="stop139" />
					<stop
   offset="1"
   style="stop-color:#212121;stop-opacity:0.02"
   id="stop141" />
				</linearGradient>
				<polygon
   fill="url(#SVGID_26_)"
   points="159.666,72.511 197.529,34.648 270.084,107.158 194.269,107.158 "
   id="polygon144"
   style="fill:url(#SVGID_26_)" />
				<circle
   fill="#eeeeee"
   cx="178.597"
   cy="53.578999"
   r="26.790001"
   id="circle146" />
				<path
   fill="#ffffff"
   fill-opacity="0.4"
   d="m 178.597,31.255 c 14.065,0 25.539,10.805 26.656,24.557 0.089,-0.759 0.134,-1.473 0.134,-2.232 0,-14.779 -12.011,-26.79 -26.79,-26.79 -14.779,0 -26.79,12.011 -26.79,26.79 0,0.759 0.045,1.473 0.134,2.232 1.117,-13.752 12.592,-24.557 26.656,-24.557 z"
   id="path148" />
				<path
   fill="#212121"
   fill-opacity="0.1"
   d="m 205.253,55.812 c -1.116,13.752 -12.636,24.557 -26.656,24.557 -14.02,0 -25.539,-10.805 -26.656,-24.557 -0.089,0.759 -0.134,1.473 -0.134,2.232 0,14.779 12.011,26.79 26.79,26.79 14.779,0 26.79,-12.011 26.79,-26.79 0,-0.759 -0.045,-1.473 -0.134,-2.232 z"
   id="path150" />
			</g>
		</g>
		<g
   id="g168">
			<defs
   id="defs157">
				<path
   id="SVGID_27_"
   d="m 696.53,160.738 c 0,-23.307 -14.913,-43.087 -35.719,-50.454 V 53.579 C 660.811,23.977 636.834,0 607.231,0 H 89.299 C 59.696,0 35.719,23.977 35.719,53.579 l 0.134,56.615 C 15.002,117.517 0,137.341 0,160.738 c 0,2.5 0.179,4.956 0.491,7.322 l 35.228,224.854 v 0 L 17.994,621.385 c -0.089,1.25 -0.134,2.456 -0.134,3.706 0,29.603 23.977,53.579 53.579,53.579 h 553.652 c 29.603,0 53.579,-23.977 53.579,-53.579 0,-1.25 -0.045,-2.456 -0.134,-3.706 L 660.81,392.914 696.038,168.06 c 0.314,-2.366 0.492,-4.822 0.492,-7.322 z" />
			</defs>
			<clipPath
   id="SVGID_28_">
				<use
   xlink:href="#SVGID_27_"
   overflow="visible"
   id="use159"
   x="0"
   y="0"
   width="100%"
   height="100%" />
			</clipPath>
			<g
   clip-path="url(#SVGID_28_)"
   id="g166">
				<rect
   x="31.254999"
   y="392.914"
   fill="#ffffff"
   fill-opacity="0.05"
   width="634.021"
   height="4.4650002"
   id="rect162" />
				<rect
   x="31.254999"
   y="388.44901"
   fill="#1a237e"
   fill-opacity="0.05"
   width="634.021"
   height="4.4650002"
   id="rect164" />
			</g>
		</g>
		<g
   id="g191">
			<defs
   id="defs171">
				<path
   id="SVGID_29_"
   d="m 696.53,160.738 c 0,-23.307 -14.913,-43.087 -35.719,-50.454 V 53.579 C 660.811,23.977 636.834,0 607.231,0 H 89.299 C 59.696,0 35.719,23.977 35.719,53.579 l 0.134,56.615 C 15.002,117.517 0,137.341 0,160.738 c 0,2.5 0.179,4.956 0.491,7.322 l 35.228,224.854 v 0 L 17.994,621.385 c -0.089,1.25 -0.134,2.456 -0.134,3.706 0,29.603 23.977,53.579 53.579,53.579 h 553.652 c 29.603,0 53.579,-23.977 53.579,-53.579 0,-1.25 -0.045,-2.456 -0.134,-3.706 L 660.81,392.914 696.038,168.06 c 0.314,-2.366 0.492,-4.822 0.492,-7.322 z" />
			</defs>
			<clipPath
   id="SVGID_30_">
				<use
   xlink:href="#SVGID_29_"
   overflow="visible"
   id="use173"
   x="0"
   y="0"
   width="100%"
   height="100%" />
			</clipPath>
			<g
   clip-path="url(#SVGID_30_)"
   id="g189">
				
					<linearGradient
   id="SVGID_31_"
   gradientUnits="userSpaceOnUse"
   x1="4694.375"
   y1="-958.57123"
   x2="4785.7544"
   y2="-1049.9506"
   gradientTransform="matrix(0.3333,0,0,-0.3333,-1047.1566,-266.2198)">
					<stop
   offset="0"
   style="stop-color:#212121;stop-opacity:0.2"
   id="stop176" />
					<stop
   offset="1"
   style="stop-color:#212121;stop-opacity:0.02"
   id="stop178" />
				</linearGradient>
				<polygon
   fill="url(#SVGID_31_)"
   points="499.001,72.511 536.864,34.648 591.559,107.158 533.605,107.158 "
   id="polygon181"
   style="fill:url(#SVGID_31_)" />
				<circle
   fill="#eeeeee"
   cx="517.93298"
   cy="53.578999"
   r="26.790001"
   id="circle183" />
				<path
   fill="#ffffff"
   fill-opacity="0.4"
   d="m 517.933,31.255 c 14.065,0 25.539,10.805 26.656,24.557 0.045,-0.759 0.134,-1.473 0.134,-2.232 0,-14.779 -12.011,-26.79 -26.79,-26.79 -14.779,0 -26.79,12.011 -26.79,26.79 0,0.759 0.045,1.473 0.134,2.232 1.116,-13.752 12.591,-24.557 26.656,-24.557 z"
   id="path185" />
				<path
   fill="#212121"
   fill-opacity="0.1"
   d="m 544.588,55.812 c -1.116,13.752 -12.636,24.557 -26.656,24.557 -14.02,0 -25.539,-10.805 -26.656,-24.557 -0.045,0.759 -0.134,1.473 -0.134,2.232 0,14.779 12.011,26.79 26.79,26.79 14.779,0 26.79,-12.011 26.79,-26.79 0,-0.759 -0.044,-1.473 -0.134,-2.232 z"
   id="path187" />
			</g>
		</g>
	</g><path
   fill="url(#SVGID_32_)"
   fill-opacity="0.05"
   d="m 51.500013,22.000021 c 0,-1.305003 -0.835006,-2.412522 -1.999973,-2.825014 V 15.999988 C 49.50004,14.342517 48.157523,13 46.499996,13 H 17.500017 c -1.657527,0 -3.000043,1.342517 -3.000043,2.999988 l 0.0075,3.169979 C 13.33999,19.579996 12.5,20.689979 12.5,22.000021 c 0,0.139979 0.01002,0.277495 0.02749,0.409971 l 1.972482,12.589996 v 0 l -0.992457,12.792516 c -0.005,0.06999 -0.0075,0.137517 -0.0075,0.207506 1.1e-5,1.657527 1.342527,2.999989 2.999998,2.999989 H 47.50001 c 1.657527,0 2.999989,-1.342517 2.999989,-2.999989 0,-0.06999 -0.0025,-0.137516 -0.0075,-0.207506 L 49.499973,34.999988 51.472455,22.409992 c 0.01758,-0.132476 0.02755,-0.269992 0.02755,-0.409971 z"
   id="path200"
   style="fill:url(#SVGID_32_);stroke-width:0.0559919" />
</svg>
