<?xml version="1.0" encoding="UTF-8" standalone="no"?>
<svg
   version="1.1"
   id="logo_x5F_calendar_x5F_192px_x5F_clr"
   x="0px"
   y="0px"
   viewBox="0 0 63.999997 64.000002"
   xml:space="preserve"
   sodipodi:docname="dates.svg"
   width="64"
   height="64"
   inkscape:version="1.1.1 (3bf5ae0d25, 2021-09-20, custom)"
   xmlns:inkscape="http://www.inkscape.org/namespaces/inkscape"
   xmlns:sodipodi="http://sodipodi.sourceforge.net/DTD/sodipodi-0.dtd"
   xmlns:xlink="http://www.w3.org/1999/xlink"
   xmlns="http://www.w3.org/2000/svg"
   xmlns:svg="http://www.w3.org/2000/svg"><sodipodi:namedview
   id="namedview119"
   pagecolor="#ffffff"
   bordercolor="#666666"
   borderopacity="1.0"
   inkscape:pageshadow="2"
   inkscape:pageopacity="0.0"
   inkscape:pagecheckerboard="0"
   showgrid="false"
   inkscape:zoom="6.1953125"
   inkscape:cx="25.018915"
   inkscape:cy="33.815889"
   inkscape:window-width="1920"
   inkscape:window-height="1022"
   inkscape:window-x="0"
   inkscape:window-y="24"
   inkscape:window-maximized="1"
   inkscape:current-layer="logo_x5F_calendar_x5F_192px_x5F_clr" /><defs
   id="defs207">
	
	
		<radialGradient
   id="SVGID_32_"
   cx="3285.2671"
   cy="-843.73138"
   r="2682.4927"
   gradientTransform="matrix(0.01866209,0,0,-0.01866209,-46.074748,-1.906141)"
   gradientUnits="userSpaceOnUse">
		<stop
   offset="0.33"
   style="stop-color:#FFFFFF"
   id="stop195" />
		<stop
   offset="1"
   style="stop-color:#FFFFFF;stop-opacity:0"
   id="stop197" />
	</radialGradient>
	

		
		
		
		
		
		
		
		
		
		
		
		
	
			<defs
   id="defs78">
				<path
   id="SVGID_14_"
   d="m 696.53,160.738 c 0,-23.307 -14.913,-43.087 -35.719,-50.454 V 53.579 C 660.811,23.977 636.834,0 607.231,0 H 89.299 C 59.696,0 35.719,23.977 35.719,53.579 l 0.134,56.615 C 15.002,117.517 0,137.341 0,160.738 c 0,2.5 0.179,4.956 0.491,7.322 l 35.228,224.854 v 0 L 17.994,621.385 c -0.089,1.25 -0.134,2.456 -0.134,3.706 0,29.603 23.977,53.579 53.579,53.579 h 553.652 c 29.603,0 53.579,-23.977 53.579,-53.579 0,-1.25 -0.045,-2.456 -0.134,-3.706 L 660.81,392.914 696.038,168.06 c 0.314,-2.366 0.492,-4.822 0.492,-7.322 z" />
			</defs>
			<clipPath
   id="SVGID_15_">
				<use
   xlink:href="#SVGID_14_"
   overflow="visible"
   id="use80"
   x="0"
   y="0"
   width="100%"
   height="100%" />
			</clipPath>
			
		
			<defs
   id="defs5">
				<path
   id="SVGID_1_"
   d="m 696.53,160.738 c 0,-23.307 -14.913,-43.087 -35.719,-50.454 V 53.579 C 660.811,23.977 636.834,0 607.231,0 H 89.299 C 59.696,0 35.719,23.977 35.719,53.579 l 0.134,56.615 C 15.002,117.517 0,137.341 0,160.738 c 0,2.5 0.179,4.956 0.491,7.322 l 35.228,224.854 v 0 L 17.994,621.385 c -0.089,1.25 -0.134,2.456 -0.134,3.706 0,29.603 23.977,53.579 53.579,53.579 h 553.652 c 29.603,0 53.579,-23.977 53.579,-53.579 0,-1.25 -0.045,-2.456 -0.134,-3.706 L 660.81,392.914 696.038,168.06 c 0.314,-2.366 0.492,-4.822 0.492,-7.322 z" />
			</defs>
			<clipPath
   id="SVGID_2_">
				<use
   xlink:href="#SVGID_1_"
   overflow="visible"
   id="use7"
   x="0"
   y="0"
   width="100%"
   height="100%" />
			</clipPath>
			
		
			<defs
   id="defs114">
				<path
   id="SVGID_20_"
   d="m 696.53,160.738 c 0,-23.307 -14.913,-43.087 -35.719,-50.454 V 53.579 C 660.811,23.977 636.834,0 607.231,0 H 89.299 C 59.696,0 35.719,23.977 35.719,53.579 l 0.134,56.615 C 15.002,117.517 0,137.341 0,160.738 c 0,2.5 0.179,4.956 0.491,7.322 l 35.228,224.854 v 0 L 17.994,621.385 c -0.089,1.25 -0.134,2.456 -0.134,3.706 0,29.603 23.977,53.579 53.579,53.579 h 553.652 c 29.603,0 53.579,-23.977 53.579,-53.579 0,-1.25 -0.045,-2.456 -0.134,-3.706 L 660.81,392.914 696.038,168.06 c 0.314,-2.366 0.492,-4.822 0.492,-7.322 z" />
			</defs>
			<clipPath
   id="SVGID_21_">
				<use
   xlink:href="#SVGID_20_"
   overflow="visible"
   id="use116"
   x="0"
   y="0"
   width="100%"
   height="100%" />
			</clipPath>
			
		
			<defs
   id="defs157">
				<path
   id="SVGID_27_"
   d="m 696.53,160.738 c 0,-23.307 -14.913,-43.087 -35.719,-50.454 V 53.579 C 660.811,23.977 636.834,0 607.231,0 H 89.299 C 59.696,0 35.719,23.977 35.719,53.579 l 0.134,56.615 C 15.002,117.517 0,137.341 0,160.738 c 0,2.5 0.179,4.956 0.491,7.322 l 35.228,224.854 v 0 L 17.994,621.385 c -0.089,1.25 -0.134,2.456 -0.134,3.706 0,29.603 23.977,53.579 53.579,53.579 h 553.652 c 29.603,0 53.579,-23.977 53.579,-53.579 0,-1.25 -0.045,-2.456 -0.134,-3.706 L 660.81,392.914 696.038,168.06 c 0.314,-2.366 0.492,-4.822 0.492,-7.322 z" />
			</defs>
			<clipPath
   id="SVGID_28_">
				<use
   xlink:href="#SVGID_27_"
   overflow="visible"
   id="use159"
   x="0"
   y="0"
   width="100%"
   height="100%" />
			</clipPath>
			
		
			<defs
   id="defs58">
				<path
   id="SVGID_10_"
   d="m 696.53,160.738 c 0,-23.307 -14.913,-43.087 -35.719,-50.454 V 53.579 C 660.811,23.977 636.834,0 607.231,0 H 89.299 C 59.696,0 35.719,23.977 35.719,53.579 l 0.134,56.615 C 15.002,117.517 0,137.341 0,160.738 c 0,2.5 0.179,4.956 0.491,7.322 l 35.228,224.854 v 0 L 17.994,621.385 c -0.089,1.25 -0.134,2.456 -0.134,3.706 0,29.603 23.977,53.579 53.579,53.579 h 553.652 c 29.603,0 53.579,-23.977 53.579,-53.579 0,-1.25 -0.045,-2.456 -0.134,-3.706 L 660.81,392.914 696.038,168.06 c 0.314,-2.366 0.492,-4.822 0.492,-7.322 z" />
			</defs>
			<clipPath
   id="SVGID_11_">
				<use
   xlink:href="#SVGID_10_"
   overflow="visible"
   id="use60"
   x="0"
   y="0"
   width="100%"
   height="100%" />
			</clipPath>
			
		
			<defs
   id="defs43">
				<path
   id="SVGID_7_"
   d="m 696.53,160.738 c 0,-23.307 -14.913,-43.087 -35.719,-50.454 V 53.579 C 660.811,23.977 636.834,0 607.231,0 H 89.299 C 59.696,0 35.719,23.977 35.719,53.579 l 0.134,56.615 C 15.002,117.517 0,137.341 0,160.738 c 0,2.5 0.179,4.956 0.491,7.322 l 35.228,224.854 v 0 L 17.994,621.385 c -0.089,1.25 -0.134,2.456 -0.134,3.706 0,29.603 23.977,53.579 53.579,53.579 h 553.652 c 29.603,0 53.579,-23.977 53.579,-53.579 0,-1.25 -0.045,-2.456 -0.134,-3.706 L 660.81,392.914 696.038,168.06 c 0.314,-2.366 0.492,-4.822 0.492,-7.322 z" />
			</defs>
			<clipPath
   id="SVGID_8_">
				<use
   xlink:href="#SVGID_7_"
   overflow="visible"
   id="use45"
   x="0"
   y="0"
   width="100%"
   height="100%" />
			</clipPath>
			
				<linearGradient
   id="SVGID_9_"
   gradientUnits="userSpaceOnUse"
   x1="3735.4238"
   y1="-1499.7716"
   x2="4613.7563"
   y2="-2378.1042"
   gradientTransform="matrix(0.3333,0,0,-0.3333,-1047.1566,-266.2198)">
				<stop
   offset="0"
   style="stop-color:#1A237E;stop-opacity:0.2"
   id="stop48" />
				<stop
   offset="1"
   style="stop-color:#1A237E;stop-opacity:0.02"
   id="stop50" />
			</linearGradient>
			
		
			<defs
   id="defs134">
				<path
   id="SVGID_24_"
   d="m 696.53,160.738 c 0,-23.307 -14.913,-43.087 -35.719,-50.454 V 53.579 C 660.811,23.977 636.834,0 607.231,0 H 89.299 C 59.696,0 35.719,23.977 35.719,53.579 l 0.134,56.615 C 15.002,117.517 0,137.341 0,160.738 c 0,2.5 0.179,4.956 0.491,7.322 l 35.228,224.854 v 0 L 17.994,621.385 c -0.089,1.25 -0.134,2.456 -0.134,3.706 0,29.603 23.977,53.579 53.579,53.579 h 553.652 c 29.603,0 53.579,-23.977 53.579,-53.579 0,-1.25 -0.045,-2.456 -0.134,-3.706 L 660.81,392.914 696.038,168.06 c 0.314,-2.366 0.492,-4.822 0.492,-7.322 z" />
			</defs>
			<clipPath
   id="SVGID_25_">
				<use
   xlink:href="#SVGID_24_"
   overflow="visible"
   id="use136"
   x="0"
   y="0"
   width="100%"
   height="100%" />
			</clipPath>
			
		
			<defs
   id="defs171">
				<path
   id="SVGID_29_"
   d="m 696.53,160.738 c 0,-23.307 -14.913,-43.087 -35.719,-50.454 V 53.579 C 660.811,23.977 636.834,0 607.231,0 H 89.299 C 59.696,0 35.719,23.977 35.719,53.579 l 0.134,56.615 C 15.002,117.517 0,137.341 0,160.738 c 0,2.5 0.179,4.956 0.491,7.322 l 35.228,224.854 v 0 L 17.994,621.385 c -0.089,1.25 -0.134,2.456 -0.134,3.706 0,29.603 23.977,53.579 53.579,53.579 h 553.652 c 29.603,0 53.579,-23.977 53.579,-53.579 0,-1.25 -0.045,-2.456 -0.134,-3.706 L 660.81,392.914 696.038,168.06 c 0.314,-2.366 0.492,-4.822 0.492,-7.322 z" />
			</defs>
			<clipPath
   id="SVGID_30_">
				<use
   xlink:href="#SVGID_29_"
   overflow="visible"
   id="use173"
   x="0"
   y="0"
   width="100%"
   height="100%" />
			</clipPath>
			
		
			<defs
   id="defs68">
				<path
   id="SVGID_12_"
   d="m 696.53,160.738 c 0,-23.307 -14.913,-43.087 -35.719,-50.454 V 53.579 C 660.811,23.977 636.834,0 607.231,0 H 89.299 C 59.696,0 35.719,23.977 35.719,53.579 l 0.134,56.615 C 15.002,117.517 0,137.341 0,160.738 c 0,2.5 0.179,4.956 0.491,7.322 l 35.228,224.854 v 0 L 17.994,621.385 c -0.089,1.25 -0.134,2.456 -0.134,3.706 0,29.603 23.977,53.579 53.579,53.579 h 553.652 c 29.603,0 53.579,-23.977 53.579,-53.579 0,-1.25 -0.045,-2.456 -0.134,-3.706 L 660.81,392.914 696.038,168.06 c 0.314,-2.366 0.492,-4.822 0.492,-7.322 z" />
			</defs>
			<clipPath
   id="SVGID_13_">
				<use
   xlink:href="#SVGID_12_"
   overflow="visible"
   id="use70"
   x="0"
   y="0"
   width="100%"
   height="100%" />
			</clipPath>
			
		
			<defs
   id="defs88">
				<path
   id="SVGID_16_"
   d="m 696.53,160.738 c 0,-23.307 -14.913,-43.087 -35.719,-50.454 V 53.579 C 660.811,23.977 636.834,0 607.231,0 H 89.299 C 59.696,0 35.719,23.977 35.719,53.579 l 0.134,56.615 C 15.002,117.517 0,137.341 0,160.738 c 0,2.5 0.179,4.956 0.491,7.322 l 35.228,224.854 v 0 L 17.994,621.385 c -0.089,1.25 -0.134,2.456 -0.134,3.706 0,29.603 23.977,53.579 53.579,53.579 h 553.652 c 29.603,0 53.579,-23.977 53.579,-53.579 0,-1.25 -0.045,-2.456 -0.134,-3.706 L 660.81,392.914 696.038,168.06 c 0.314,-2.366 0.492,-4.822 0.492,-7.322 z" />
			</defs>
			<clipPath
   id="SVGID_17_">
				<use
   xlink:href="#SVGID_16_"
   overflow="visible"
   id="use90"
   x="0"
   y="0"
   width="100%"
   height="100%" />
			</clipPath>
			
		
			<defs
   id="defs33">
				<path
   id="SVGID_5_"
   d="m 696.53,160.738 c 0,-23.307 -14.913,-43.087 -35.719,-50.454 V 53.579 C 660.811,23.977 636.834,0 607.231,0 H 89.299 C 59.696,0 35.719,23.977 35.719,53.579 l 0.134,56.615 C 15.002,117.517 0,137.341 0,160.738 c 0,2.5 0.179,4.956 0.491,7.322 l 35.228,224.854 v 0 L 17.994,621.385 c -0.089,1.25 -0.134,2.456 -0.134,3.706 0,29.603 23.977,53.579 53.579,53.579 h 553.652 c 29.603,0 53.579,-23.977 53.579,-53.579 0,-1.25 -0.045,-2.456 -0.134,-3.706 L 660.81,392.914 696.038,168.06 c 0.314,-2.366 0.492,-4.822 0.492,-7.322 z" />
			</defs>
			<clipPath
   id="SVGID_6_">
				<use
   xlink:href="#SVGID_5_"
   overflow="visible"
   id="use35"
   x="0"
   y="0"
   width="100%"
   height="100%" />
			</clipPath>
			
		
			<defs
   id="defs15">
				<path
   id="SVGID_3_"
   d="m 696.53,160.738 c 0,-23.307 -14.913,-43.087 -35.719,-50.454 V 53.579 C 660.811,23.977 636.834,0 607.231,0 H 89.299 C 59.696,0 35.719,23.977 35.719,53.579 l 0.134,56.615 C 15.002,117.517 0,137.341 0,160.738 c 0,2.5 0.179,4.956 0.491,7.322 l 35.228,224.854 v 0 L 17.994,621.385 c -0.089,1.25 -0.134,2.456 -0.134,3.706 0,29.603 23.977,53.579 53.579,53.579 h 553.652 c 29.603,0 53.579,-23.977 53.579,-53.579 0,-1.25 -0.045,-2.456 -0.134,-3.706 L 660.81,392.914 696.038,168.06 c 0.314,-2.366 0.492,-4.822 0.492,-7.322 z" />
			</defs>
			<clipPath
   id="SVGID_4_">
				<use
   xlink:href="#SVGID_3_"
   overflow="visible"
   id="use17"
   x="0"
   y="0"
   width="100%"
   height="100%" />
			</clipPath>
			
		
				
				
			
					
						
					
				
				
					<linearGradient
   id="SVGID_31_"
   gradientUnits="userSpaceOnUse"
   x1="4694.375"
   y1="-958.57123"
   x2="4785.7544"
   y2="-1049.9506"
   gradientTransform="matrix(0.3333,0,0,-0.3333,-1047.1566,-266.2198)">
					<stop
   offset="0"
   style="stop-color:#212121;stop-opacity:0.2"
   id="stop176" />
					<stop
   offset="1"
   style="stop-color:#212121;stop-opacity:0.02"
   id="stop178" />
				</linearGradient>
				
				
				
				
			
				
					<linearGradient
   id="SVGID_26_"
   gradientUnits="userSpaceOnUse"
   x1="3676.2822"
   y1="-958.41711"
   x2="3780.4939"
   y2="-1062.6288"
   gradientTransform="matrix(0.3333,0,0,-0.3333,-1047.1566,-266.2198)">
					<stop
   offset="0"
   style="stop-color:#212121;stop-opacity:0.2"
   id="stop139" />
					<stop
   offset="1"
   style="stop-color:#212121;stop-opacity:0.02"
   id="stop141" />
				</linearGradient>
				
				
				
				
			
				
				
			
				
			
				
			
					<defs
   id="defs94">
						<path
   id="SVGID_18_"
   d="M 642.951,107.158 H 53.579 C 23.977,107.158 0,131.135 0,160.738 c 0,2.5 0.179,4.956 0.491,7.322 L 35.719,392.914 H 660.81 L 696.038,168.06 c 0.313,-2.411 0.491,-4.867 0.491,-7.322 10e-4,-29.603 -23.976,-53.58 -53.578,-53.58 z" />
					</defs>
					<clipPath
   id="SVGID_19_">
						<use
   xlink:href="#SVGID_18_"
   overflow="visible"
   id="use96"
   x="0"
   y="0"
   width="100%"
   height="100%" />
					</clipPath>
					
				
					<defs
   id="defs120">
						<path
   id="SVGID_22_"
   d="M 678.536,621.385 660.81,392.914 H 35.719 L 17.994,621.385 c -0.089,1.25 -0.134,2.456 -0.134,3.706 0,29.603 23.977,53.579 53.579,53.579 h 553.652 c 29.603,0 53.579,-23.977 53.579,-53.579 0,-1.25 -0.044,-2.456 -0.134,-3.706 z" />
					</defs>
					<clipPath
   id="SVGID_23_">
						<use
   xlink:href="#SVGID_22_"
   overflow="visible"
   id="use122"
   x="0"
   y="0"
   width="100%"
   height="100%" />
					</clipPath>
					
				
						
						
					
							
						</defs>
<rect
   style="fill:#ffffff"
   width="56"
   height="56"
   x="4"
   y="4"
   rx="27.999001"
   ry="27.999001"
   id="rect4" /><path
   clip-path="url(#SVGID_2_)"
   fill="#c2c2c2"
   d="M 607.231,0 H 89.299 C 59.696,0 35.719,23.977 35.719,53.579 l 1.027,339.335 H 660.81 V 53.579 C 660.811,23.977 636.834,0 607.231,0 Z"
   id="path10"
   transform="matrix(0.05599187,0,0,0.05599187,12.5,13)" /><path
   fill="#3367d6"
   d="M 48.500029,18.999977 H 15.499988 c -1.657471,0 -2.999988,1.342517 -2.999988,3.000044 0,0.13998 0.01002,0.277496 0.02749,0.409973 l 1.972482,12.589996 h 35.000014 l 1.972481,-12.589996 c 0.01753,-0.134997 0.02749,-0.272513 0.02749,-0.409973 5.6e-5,-1.657527 -1.342461,-3.000044 -2.999932,-3.000044 z"
   id="path22"
   style="stroke-width:0.0559919" /><path
   opacity="0.5"
   fill="#2a56c6"
   d="M 48.500029,18.999977 H 15.499988 c -1.657471,0 -2.999988,1.342517 -2.999988,3.000044 0,0.13998 0.01002,0.277496 0.02749,0.409973 l 1.972482,12.589996 h 35.000014 l 1.972481,-12.589996 c 0.01753,-0.134997 0.02749,-0.272513 0.02749,-0.409973 5.6e-5,-1.657527 -1.342461,-3.000044 -2.999932,-3.000044 z"
   id="path26"
   style="stroke-width:0.0559919" /><path
   clip-path="url(#SVGID_6_)"
   fill="#4285f4"
   d="M 678.536,621.385 660.81,392.914 H 35.719 L 17.994,621.385 c -0.089,1.25 -0.134,2.456 -0.134,3.706 0,29.603 23.977,53.579 53.579,53.579 h 553.652 c 29.603,0 53.579,-23.977 53.579,-53.579 0,-1.25 -0.044,-2.456 -0.134,-3.706 z"
   id="path38"
   transform="matrix(0.05599187,0,0,0.05599187,12.5,13)" /><polygon
   clip-path="url(#SVGID_8_)"
   fill="url(#SVGID_9_)"
   points="678.67,392.914 35.719,392.914 321.475,678.67 678.67,678.67 "
   id="polygon53"
   style="fill:url(#SVGID_9_)"
   transform="matrix(0.05599187,0,0,0.05599187,12.5,13)" /><path
   clip-path="url(#SVGID_11_)"
   fill="#ffffff"
   fill-opacity="0.2"
   d="m 53.579,111.623 h 589.372 c 28.977,0 52.552,23.039 53.49,51.793 0.045,-0.893 0.089,-1.786 0.089,-2.679 0,-29.603 -23.977,-53.579 -53.579,-53.579 H 53.579 C 23.977,107.158 0,131.135 0,160.738 c 0,0.893 0.045,1.786 0.089,2.679 0.938,-28.755 24.513,-51.794 53.49,-51.794 z"
   id="path63"
   transform="matrix(0.05599187,0,0,0.05599187,12.5,13)" /><path
   clip-path="url(#SVGID_13_)"
   fill="#1a237e"
   fill-opacity="0.2"
   d="M 625.091,674.205 H 71.439 c -28.977,0 -52.552,-23.039 -53.49,-51.793 -0.045,0.893 -0.089,1.786 -0.089,2.679 0,29.603 23.977,53.579 53.579,53.579 h 553.652 c 29.603,0 53.579,-23.977 53.579,-53.579 0,-0.893 -0.045,-1.786 -0.089,-2.679 -0.938,28.754 -24.512,51.793 -53.49,51.793 z"
   id="path73"
   transform="matrix(0.05599187,0,0,0.05599187,12.5,13)" /><path
   clip-path="url(#SVGID_15_)"
   fill="#ffffff"
   fill-opacity="0.2"
   d="M 607.231,0 H 89.299 C 59.696,0 35.719,23.977 35.719,53.579 v 4.242 C 35.853,28.352 59.785,4.465 89.299,4.465 h 517.933 c 29.603,0 53.579,23.977 53.579,53.579 V 53.579 C 660.811,23.977 636.834,0 607.231,0 Z"
   id="path83"
   transform="matrix(0.05599187,0,0,0.05599187,12.5,13)" /><path
   fill="#e1e1e1"
   d="m 29.065027,34.785037 c 1.137475,-0.469996 2.602502,-1.720014 2.602502,-3.602517 0,-2.899987 -1.862514,-4.682488 -5.000018,-4.682488 -2.795002,0 -5.047499,1.829982 -5.087477,4.50001 h 2.029985 c 0.03001,-1.559989 1.08501,-2.842483 3.055028,-2.842483 1.897509,0 2.967513,0.987473 2.967513,2.979999 0,1.992527 -1.524994,2.91253 -3.384988,2.91253 -0.730022,0 -1.41749,0 -1.41749,0 v 1.590001 c 0,0 0.785006,0 1.41749,0 2.734979,0 3.634992,1.420009 3.634992,3.067514 0,2.155015 -1.309986,3.149991 -3.207494,3.149991 -1.652488,0 -3.157494,-0.882488 -3.202511,-2.855026 h -2.044991 c 0.08751,3.177483 2.762527,4.500011 5.247502,4.500011 2.869975,0 5.237479,-1.672477 5.237479,-4.839993 0.005,-2.555077 -1.815032,-3.575081 -2.847522,-3.877549 z m 11.604987,-8.285005 -5.920021,2.125003 V 30.53503 L 39,29.11502 v 14.384983 h 2.00003 V 26.500032 Z"
   id="path99"
   style="stroke-width:0.0559919" /><path
   fill="#c2c2c2"
   d="m 29.065027,34.785037 c 1.137475,-0.469996 2.602502,-1.720014 2.602502,-3.602517 0,-2.899987 -1.862514,-4.682488 -5.000018,-4.682488 -2.795002,0 -5.047499,1.829982 -5.087477,4.50001 h 2.029985 c 0.03001,-1.559989 1.08501,-2.842483 3.055028,-2.842483 1.897509,0 2.967513,0.987473 2.967513,2.979999 0,1.992527 -1.524994,2.91253 -3.384988,2.91253 -0.730022,0 -1.41749,0 -1.41749,0 v 1.590001 c 0,0 0.785006,0 1.41749,0 2.734979,0 3.634992,1.420009 3.634992,3.067514 0,2.155015 -1.309986,3.149991 -3.207494,3.149991 -1.652488,0 -3.157494,-0.882488 -3.202511,-2.855026 h -2.044991 c 0.08751,3.177483 2.762527,4.500011 5.247502,4.500011 2.869975,0 5.237479,-1.672477 5.237479,-4.839993 0.005,-2.555077 -1.815032,-3.575081 -2.847522,-3.877549 z m 11.604987,-8.285005 -5.920021,2.125003 V 30.53503 L 39,29.11502 v 14.384983 h 2.00003 V 26.500032 Z"
   id="path101"
   style="opacity:0.5;stroke-width:0.0559919" /><path
   clip-path="url(#SVGID_23_)"
   fill="#eeeeee"
   d="m 295.847,389.075 c 20.315,-8.394 46.48,-30.719 46.48,-64.34 0,-51.793 -33.264,-83.628 -89.299,-83.628 -49.918,0 -90.147,32.683 -90.861,80.369 h 36.255 c 0.536,-27.861 19.378,-50.766 54.562,-50.766 33.889,0 52.999,17.636 52.999,53.222 0,35.586 -27.236,52.017 -60.455,52.017 -13.038,0 -25.316,0 -25.316,0 v 28.397 c 0,0 14.02,0 25.316,0 48.846,0 64.92,25.361 64.92,54.785 0,38.488 -23.396,56.258 -57.285,56.258 -29.513,0 -56.392,-15.761 -57.196,-50.99 h -36.523 c 1.563,56.749 49.338,80.369 93.719,80.369 51.257,0 93.54,-29.87 93.54,-86.441 0.089,-45.633 -32.416,-63.85 -50.856,-69.252 z m 207.262,-147.968 -105.73,37.952 v 34.112 l 75.904,-25.361 v 256.912 h 35.72 V 241.107 Z"
   id="path125"
   transform="matrix(0.05599187,0,0,0.05599187,12.5,13)" /><polygon
   fill="url(#SVGID_26_)"
   points="197.529,34.648 270.084,107.158 194.269,107.158 159.666,72.511 "
   id="polygon144"
   style="fill:url(#SVGID_26_)"
   transform="matrix(0.05599187,0,0,0.05599187,12.5,13)" /><circle
   fill="#eeeeee"
   cx="22.499981"
   cy="15.999989"
   r="1.5000223"
   id="circle146"
   style="stroke-width:0.0559919" /><path
   fill="#ffffff"
   fill-opacity="0.4"
   d="m 22.49998,14.750026 c 0.787526,0 1.429976,0.604992 1.492519,1.374992 0.005,-0.0425 0.0075,-0.08248 0.0075,-0.124974 0,-0.827503 -0.672518,-1.500022 -1.500022,-1.500022 -0.827504,0 -1.500022,0.672519 -1.500022,1.500022 0,0.0425 0.0025,0.08248 0.0075,0.124974 0.06254,-0.77 0.705049,-1.374992 1.492519,-1.374992 z"
   id="path148"
   style="stroke-width:0.0559919" /><path
   fill="#212121"
   fill-opacity="0.1"
   d="m 23.992499,16.125018 c -0.06249,0.77 -0.707513,1.374993 -1.492519,1.374993 -0.785006,0 -1.429976,-0.604993 -1.492519,-1.374993 -0.005,0.0425 -0.0075,0.08248 -0.0075,0.124974 0,0.827504 0.672518,1.500022 1.500022,1.500022 0.827504,0 1.500022,-0.672518 1.500022,-1.500022 0,-0.0425 -0.0025,-0.08248 -0.0075,-0.124974 z"
   id="path150"
   style="stroke-width:0.0559919" /><rect
   x="14.250026"
   y="34.999989"
   fill="#ffffff"
   fill-opacity="0.05"
   width="35.500023"
   height="0.2500037"
   id="rect162"
   style="stroke-width:0.0559919" /><rect
   x="14.250026"
   y="34.749985"
   fill="#1a237e"
   fill-opacity="0.05"
   width="35.500023"
   height="0.2500037"
   id="rect164"
   style="stroke-width:0.0559919" /><polygon
   fill="url(#SVGID_31_)"
   points="533.605,107.158 499.001,72.511 536.864,34.648 591.559,107.158 "
   id="polygon181"
   style="fill:url(#SVGID_31_)"
   transform="matrix(0.05599187,0,0,0.05599187,12.5,13)" /><circle
   fill="#eeeeee"
   cx="41.500038"
   cy="15.999989"
   r="1.5000223"
   id="circle183"
   style="stroke-width:0.0559919" /><path
   fill="#ffffff"
   fill-opacity="0.4"
   d="m 41.500037,14.750026 c 0.787526,0 1.429977,0.604992 1.492519,1.374992 0.0025,-0.0425 0.0075,-0.08248 0.0075,-0.124974 0,-0.827503 -0.672518,-1.500022 -1.500022,-1.500022 -0.827504,0 -1.500022,0.672519 -1.500022,1.500022 0,0.0425 0.0025,0.08248 0.0075,0.124974 0.06249,-0.77 0.704994,-1.374992 1.492519,-1.374992 z"
   id="path185"
   style="stroke-width:0.0559919" /><path
   fill="#212121"
   fill-opacity="0.1"
   d="m 42.9925,16.125018 c -0.06249,0.77 -0.707513,1.374993 -1.492519,1.374993 -0.785006,0 -1.429976,-0.604993 -1.492519,-1.374993 -0.0025,0.0425 -0.0075,0.08248 -0.0075,0.124974 0,0.827504 0.672518,1.500022 1.500022,1.500022 0.827504,0 1.500022,-0.672518 1.500022,-1.500022 0,-0.0425 -0.0025,-0.08248 -0.0075,-0.124974 z"
   id="path187"
   style="stroke-width:0.0559919" /><path
   fill="url(#SVGID_32_)"
   fill-opacity="0.05"
   d="m 51.557518,22.000023 c 0,-1.305003 -0.835006,-2.412522 -1.999973,-2.825014 V 15.99999 c 0,-1.657471 -1.342517,-2.999988 -3.000044,-2.999988 H 17.557522 c -1.657527,0 -3.000043,1.342517 -3.000043,2.999988 l 0.0075,3.169979 c -1.167484,0.410029 -2.007474,1.520012 -2.007474,2.830054 0,0.139979 0.01002,0.277495 0.02749,0.409971 l 1.972482,12.589996 v 0 L 13.56502,47.792506 c -0.005,0.06999 -0.0075,0.137517 -0.0075,0.207506 1.1e-5,1.657527 1.342527,2.999989 2.999998,2.999989 h 30.999997 c 1.657527,0 2.999989,-1.342517 2.999989,-2.999989 0,-0.06999 -0.0025,-0.137516 -0.0075,-0.207506 L 49.557478,34.99999 51.52996,22.409994 c 0.01758,-0.132476 0.02755,-0.269992 0.02755,-0.409971 z"
   id="path200"
   style="fill:url(#SVGID_32_);stroke-width:0.0559919" />
</svg>
