<?xml version="1.0" encoding="UTF-8" standalone="no"?>
<!-- Created with Inkscape (http://www.inkscape.org/) -->

<svg
   width="64"
   height="64"
   viewBox="0 0 16.933333 16.933334"
   version="1.1"
   id="svg5"
   inkscape:version="1.1.1 (3bf5ae0d25, 2021-09-20, custom)"
   sodipodi:docname="password-manager.svg"
   xmlns:inkscape="http://www.inkscape.org/namespaces/inkscape"
   xmlns:sodipodi="http://sodipodi.sourceforge.net/DTD/sodipodi-0.dtd"
   xmlns="http://www.w3.org/2000/svg"
   xmlns:svg="http://www.w3.org/2000/svg">
  <sodipodi:namedview
     id="namedview7"
     pagecolor="#ffffff"
     bordercolor="#666666"
     borderopacity="1.0"
     inkscape:pageshadow="2"
     inkscape:pageopacity="0.0"
     inkscape:pagecheckerboard="0"
     inkscape:document-units="px"
     showgrid="false"
     units="px"
     height="64px"
     inkscape:zoom="1"
     inkscape:cx="34"
     inkscape:cy="37.5"
     inkscape:window-width="1920"
     inkscape:window-height="1019"
     inkscape:window-x="0"
     inkscape:window-y="0"
     inkscape:window-maximized="1"
     inkscape:current-layer="svg5" />
  <defs
     id="defs2" />
  <circle
     style="fill:#6a6a6a;fill-opacity:1;stroke-width:0.510268;stroke-linecap:round;stroke-linejoin:round"
     id="path1039"
     cx="8.4666672"
     cy="8.4666672"
     r="7.1437502" />
  <circle
     style="opacity:1;fill:#4d4d4d;fill-opacity:1;stroke-width:0.529167;stroke-linecap:round;stroke-linejoin:round"
     id="path34165"
     cx="8.4666662"
     cy="8.4666662"
     r="2.3812499" />
  <path
     id="path31210"
     style="fill:#a2a2a2;fill-opacity:1;stroke-width:2;stroke-linecap:round;stroke-linejoin:round"
     d="M 32 4 C 16.536027 4 4 16.536027 4 32 C 4 47.463973 16.536027 60 32 60 C 47.463973 60 60 47.463973 60 32 C 60 16.536027 47.463973 4 32 4 z M 32 14 A 17.999999 17.999999 0 0 1 50 32 A 17.999999 17.999999 0 0 1 32 50 A 17.999999 17.999999 0 0 1 14 32 A 17.999999 17.999999 0 0 1 32 14 z "
     transform="scale(0.26458334)" />
  <path
     id="path31827"
     style="fill:#ffffff;fill-opacity:1;stroke-width:2;stroke-linecap:round;stroke-linejoin:round;opacity:0.3"
     d="M 32 7 A 2.0000001 2.0000001 0 0 0 30 9 A 2.0000001 2.0000001 0 0 0 32 11 A 2.0000001 2.0000001 0 0 0 34 9 A 2.0000001 2.0000001 0 0 0 32 7 z M 15.511719 13.75 A 2.0000001 2.0000001 0 0 0 14.322266 14.322266 A 2.0000001 2.0000001 0 0 0 14.322266 17.150391 A 2.0000001 2.0000001 0 0 0 17.150391 17.150391 A 2.0000001 2.0000001 0 0 0 17.150391 14.322266 A 2.0000001 2.0000001 0 0 0 15.511719 13.75 z M 48.039062 13.75 A 2.0000001 2.0000001 0 0 0 46.849609 14.322266 A 2.0000001 2.0000001 0 0 0 46.849609 17.150391 A 2.0000001 2.0000001 0 0 0 49.677734 17.150391 A 2.0000001 2.0000001 0 0 0 49.677734 14.322266 A 2.0000001 2.0000001 0 0 0 48.039062 13.75 z M 9 30 A 2.0000001 2.0000001 0 0 0 7 32 A 2.0000001 2.0000001 0 0 0 9 34 A 2.0000001 2.0000001 0 0 0 11 32 A 2.0000001 2.0000001 0 0 0 9 30 z M 55 30 A 2.0000001 2.0000001 0 0 0 53 32 A 2.0000001 2.0000001 0 0 0 55 34 A 2.0000001 2.0000001 0 0 0 57 32 A 2.0000001 2.0000001 0 0 0 55 30 z M 15.511719 46.275391 A 2.0000001 2.0000001 0 0 0 14.322266 46.849609 A 2.0000001 2.0000001 0 0 0 14.322266 49.677734 A 2.0000001 2.0000001 0 0 0 17.150391 49.677734 A 2.0000001 2.0000001 0 0 0 17.150391 46.849609 A 2.0000001 2.0000001 0 0 0 15.511719 46.275391 z M 48.039062 46.275391 A 2.0000001 2.0000001 0 0 0 46.849609 46.849609 A 2.0000001 2.0000001 0 0 0 46.849609 49.677734 A 2.0000001 2.0000001 0 0 0 49.677734 49.677734 A 2.0000001 2.0000001 0 0 0 49.677734 46.849609 A 2.0000001 2.0000001 0 0 0 48.039062 46.275391 z M 32 53 A 2.0000001 2.0000001 0 0 0 30 55 A 2.0000001 2.0000001 0 0 0 32 57 A 2.0000001 2.0000001 0 0 0 34 55 A 2.0000001 2.0000001 0 0 0 32 53 z "
     transform="scale(0.26458334)" />
  <path
     id="path32463"
     style="opacity:0.3;fill:#000000;fill-opacity:1;stroke-width:2.25;stroke-linecap:round;stroke-linejoin:round"
     d="M 32 23 A 8.9999996 8.9999996 0 0 0 23 32 A 8.9999996 8.9999996 0 0 0 25.640625 38.359375 L 25.636719 38.363281 L 25.777344 38.496094 A 8.9999996 8.9999996 0 0 0 25.947266 38.658203 L 45.087891 56.730469 A 28 28 0 0 0 59.992188 32.212891 L 59.994141 31.535156 A 28 28 0 0 0 59.837891 29 L 48.410156 29 L 48.410156 32 L 41 32 A 8.9999996 8.9999996 0 0 0 32 23 z "
     transform="scale(0.26458334)" />
  <path
     id="rect32585"
     style="opacity:1;stroke-width:0.529167;stroke-linecap:round;stroke-linejoin:round;fill:#b1b1b1;fill-opacity:1"
     d="m 8.7312495,7.6729169 h 5.8208335 c 0.439738,0 0.79375,0.3540125 0.79375,0.79375 0,0.4397375 -0.354012,0.79375 -0.79375,0.79375 H 8.7312495 c -0.4397375,0 -0.79375,-0.3540125 -0.79375,-0.79375 0,-0.4397375 0.3540125,-0.79375 0.79375,-0.79375 z"
     sodipodi:nodetypes="sssssss" />
  <path
     id="rect32585-5"
     style="opacity:0.2;fill:#ffffff;fill-opacity:1;stroke-width:2;stroke-linecap:round;stroke-linejoin:round"
     d="M 33 29 C 31.338002 29 30 30.338 30 32 C 30 32.170397 30.015933 32.337507 30.042969 32.5 C 30.279632 31.077588 31.508399 30 33 30 L 55 30 C 56.491605 30 57.720368 31.077588 57.957031 32.5 C 57.984067 32.337507 58 32.170397 58 32 C 58 30.338 56.662002 29 55 29 L 33 29 z "
     transform="scale(0.26458334)" />
</svg>
