<?xml version="1.0" encoding="UTF-8" standalone="no"?>
<svg
   width="64"
   height="64"
   enable-background="new"
   version="1.0"
   id="svg47"
   sodipodi:docname="plasma.svg"
   inkscape:version="1.2.1 (9c6d41e410, 2022-07-14)"
   xmlns:inkscape="http://www.inkscape.org/namespaces/inkscape"
   xmlns:sodipodi="http://sodipodi.sourceforge.net/DTD/sodipodi-0.dtd"
   xmlns:xlink="http://www.w3.org/1999/xlink"
   xmlns="http://www.w3.org/2000/svg"
   xmlns:svg="http://www.w3.org/2000/svg">
  <sodipodi:namedview
     id="namedview49"
     pagecolor="#ffffff"
     bordercolor="#666666"
     borderopacity="1.0"
     inkscape:pageshadow="2"
     inkscape:pageopacity="0.0"
     inkscape:pagecheckerboard="0"
     showgrid="false"
     inkscape:zoom="12.40625"
     inkscape:cx="32"
     inkscape:cy="32"
     inkscape:window-width="1920"
     inkscape:window-height="1006"
     inkscape:window-x="0"
     inkscape:window-y="0"
     inkscape:window-maximized="1"
     inkscape:current-layer="svg47"
     inkscape:showpageshadow="2"
     inkscape:deskcolor="#d1d1d1" />
  <defs
     id="defs5">
    <filter
       id="a"
       x="-0.032333333"
       y="-0.032333333"
       width="1.0646667"
       height="1.0646667"
       color-interpolation-filters="sRGB">
      <feGaussianBlur
         stdDeviation="4.8"
         id="feGaussianBlur2" />
    </filter>
    <linearGradient
       inkscape:collect="always"
       xlink:href="#linearGradient6263"
       id="linearGradient4314"
       x1="14.128906"
       y1="15.838867"
       x2="48"
       y2="49.838867"
       gradientUnits="userSpaceOnUse"
       gradientTransform="translate(5e-7,-0.3747535)" />
    <linearGradient
       inkscape:collect="always"
       id="linearGradient6263">
      <stop
         style="stop-color:#000000;stop-opacity:1;"
         offset="0"
         id="stop6259" />
      <stop
         style="stop-color:#000000;stop-opacity:0;"
         offset="1"
         id="stop6261" />
    </linearGradient>
  </defs>
  <circle
     cx="32"
     cy="32"
     r="28"
     enable-background="new"
     id="circle37"
     style="stroke-width:0.116666;fill:#3daee9;fill-opacity:1" />
  <path
     id="rect1530"
     style="opacity:0.2;fill:url(#linearGradient4314);fill-opacity:1;stroke-width:0.999999;stroke-linecap:round;stroke-linejoin:round"
     d="m 25.140625,15.302981 -3.28125,3.281249 17.849609,17.84961 -3.072265,3.072265 13.458984,13.458985 A 28,28 0 0 0 59.365234,37.508058 L 49,27.142824 42.990234,33.15259 Z m -3.542969,12.968749 -5.46875,5.46875 10.81836,10.81836 -2.865235,2.865234 11.910157,11.910156 a 28,28 0 0 0 11.960937,-4.707031 z" />
  <path
     id="path88"
     d="m 23.500389,15 c -1.177232,0 -2.124967,0.94774 -2.124967,2.124968 0,1.177229 0.947735,2.124969 2.124967,2.124969 1.177232,0 2.124967,-0.94774 2.124967,-2.124969 C 25.625356,15.94774 24.677621,15 23.500389,15 Z m 13.35731,0 -4.857441,4.856922 7.285901,7.285902 -7.285901,7.285381 4.857441,4.857432 L 49,27.142824 44.143081,22.285902 Z M 18.187451,27.749809 C 16.421604,27.749809 15,29.171412 15,30.937255 c 0,1.765855 1.421604,3.187458 3.187451,3.187458 1.765848,0 3.187451,-1.421603 3.187451,-3.187458 0,-1.765843 -1.421603,-3.187446 -3.187451,-3.187446 z m 9.562354,12.749798 c -2.354464,0 -4.249934,1.895478 -4.249934,4.249936 0,2.354469 1.89547,4.249937 4.249934,4.249937 2.354465,0 4.249936,-1.895468 4.249936,-4.249937 0,-2.354458 -1.895471,-4.249936 -4.249936,-4.249936 z"
     style="fill:#ffffff;stroke-width:0.26562"
     sodipodi:nodetypes="sssssccccccccssssssssss" />
</svg>
