<?xml version="1.0" encoding="UTF-8" standalone="no"?>
<!-- Created with Inkscape (http://www.inkscape.org/) -->

<svg
   width="64"
   height="64"
   viewBox="0 0 16.933333 16.933333"
   version="1.1"
   id="svg5"
   inkscape:version="1.1.1 (3bf5ae0d25, 2021-09-20, custom)"
   sodipodi:docname="qalculator.svg"
   xmlns:inkscape="http://www.inkscape.org/namespaces/inkscape"
   xmlns:sodipodi="http://sodipodi.sourceforge.net/DTD/sodipodi-0.dtd"
   xmlns:xlink="http://www.w3.org/1999/xlink"
   xmlns="http://www.w3.org/2000/svg"
   xmlns:svg="http://www.w3.org/2000/svg">
  <sodipodi:namedview
     id="namedview7"
     pagecolor="#ffffff"
     bordercolor="#666666"
     borderopacity="1.0"
     inkscape:pageshadow="2"
     inkscape:pageopacity="0.0"
     inkscape:pagecheckerboard="0"
     inkscape:document-units="px"
     showgrid="false"
     units="px"
     height="48px"
     inkscape:zoom="1"
     inkscape:cx="-78"
     inkscape:cy="36.5"
     inkscape:window-width="1920"
     inkscape:window-height="1012"
     inkscape:window-x="0"
     inkscape:window-y="0"
     inkscape:window-maximized="1"
     inkscape:current-layer="svg5"
     inkscape:lockguides="true" />
  <defs
     id="defs2">
    <linearGradient
       inkscape:collect="always"
       xlink:href="#linearGradient11192"
       id="linearGradient11194"
       x1="0.4447121"
       y1="-1.8023899"
       x2="12.951"
       y2="9.5994987"
       gradientUnits="userSpaceOnUse"
       gradientTransform="translate(-7.4083334,7.4083334)" />
    <linearGradient
       inkscape:collect="always"
       id="linearGradient11192">
      <stop
         style="stop-color:#333333;stop-opacity:1;"
         offset="0"
         id="stop11188" />
      <stop
         style="stop-color:#333333;stop-opacity:0;"
         offset="1"
         id="stop11190" />
    </linearGradient>
  </defs>
  <path
     id="path883"
     style="fill:#4d4d4d;stroke-width:0.529167;stroke-linecap:round;stroke-linejoin:round;stroke-dasharray:6.35, 0.529167"
     d="M 15.875,8.4666662 A 7.4083333,7.4083333 0 0 1 8.4666662,15.875 7.4083333,7.4083333 0 0 1 1.0583329,8.4666662 7.4083333,7.4083333 0 0 1 8.4666662,1.0583329 7.4083333,7.4083333 0 0 1 15.875,8.4666662 Z" />
  <path
     id="rect13214"
     style="fill:#5f6368;stroke-width:9;stroke-linecap:round;stroke-linejoin:round"
     d="M 4 32 A 28 28 0 0 0 32 60 L 32 32 L 4 32 z "
     transform="scale(0.26458333)" />
  <path
     id="rect9466"
     style="fill:#ad1457;fill-opacity:1;stroke-width:9;stroke-linecap:round;stroke-linejoin:round"
     d="M 32,4 V 60 C 47.463973,60 60,47.463973 60,32 60,16.536027 47.463973,4 32,4 Z"
     transform="scale(0.26458333)"
     sodipodi:nodetypes="ccsc" />
  <path
     id="rect858"
     style="fill:url(#linearGradient11194);fill-opacity:1;stroke-width:0.0352101"
     d="M 1.0583337,8.4666667 8.4666686,15.875 l -2e-6,-7.4083334 z"
     sodipodi:nodetypes="cccc" />
  <path
     id="rect11712-0"
     style="fill:#f1f1f1;fill-opacity:1;stroke-width:0.166017"
     d="m 10.583334,7.6729165 v 0.5291667 h 2.645833 V 7.6729165 Z m 0,1.0583334 v 0.5291657 h 2.645833 V 8.7312499 Z"
     sodipodi:nodetypes="cccccccccc" />
  <path
     id="path9290"
     style="font-weight:500;font-size:6.71721px;line-height:1.25;font-family:'Google Sans';-inkscape-font-specification:'Google Sans Medium';fill:#f1f1f1;fill-opacity:1;stroke-width:0.093295"
     d="m 5.289654,10.054334 c -0.248785,0 -0.473721,0.05848 -0.6752373,0.175412 -0.016187,0.0094 -0.032032,0.01908 -0.047657,0.02899 -0.1787126,0.111289 -0.3211606,0.25691 -0.4263297,0.437527 -0.033846,0.05813 -0.062578,0.117616 -0.086414,0.178571 l 2.939e-4,0.0012 c -0.056993,0.144187 -0.08556,0.296984 -0.08556,0.458488 0,0.236346 0.05475,0.445106 0.1642159,0.62672 0.1069775,0.181612 0.2513198,0.322221 0.4329328,0.421735 v 0.02239 H 4.5458017 4.021 v 0.380682 h 0.6473896 0.4237458 v -0.541166 c -0.025501,-0.0065 -0.050556,-0.01387 -0.074931,-0.02211 -0.024374,-0.0083 -0.04795,-0.01733 -0.071198,-0.02728 -0.023248,-0.01 -0.045918,-0.02078 -0.068041,-0.03244 -0.022122,-0.01167 -0.043888,-0.02423 -0.064883,-0.03762 -0.020994,-0.01338 -0.041283,-0.02768 -0.061151,-0.04278 -0.019868,-0.01508 -0.039253,-0.03087 -0.057993,-0.04766 -0.018739,-0.01679 -0.036937,-0.03461 -0.054547,-0.05312 -0.017611,-0.01851 -0.03462,-0.03777 -0.051102,-0.05799 -0.016482,-0.02022 -0.031799,-0.04087 -0.046222,-0.06202 -0.014422,-0.02114 -0.027831,-0.04282 -0.040192,-0.06488 -0.012362,-0.02207 -0.023861,-0.04447 -0.034163,-0.06747 -0.010303,-0.023 -0.019606,-0.04669 -0.027848,-0.07062 -0.00824,-0.02393 -0.01535,-0.04806 -0.021532,-0.07292 -0.00618,-0.02487 -0.011382,-0.05027 -0.015503,-0.07607 -0.00412,-0.0258 -0.00712,-0.05222 -0.00919,-0.07895 -0.00207,-0.02673 -0.00316,-0.05386 -0.00316,-0.08153 0,-0.02114 7.644e-4,-0.04198 0.00202,-0.06258 10e-4,-0.01653 0.00251,-0.03291 0.00431,-0.04909 0.00117,-0.01011 0.00253,-0.02018 0.00402,-0.03014 0.00114,-0.0079 0.00239,-0.01572 0.00373,-0.02354 0.00277,-0.01573 0.00588,-0.03142 0.00947,-0.04679 0.020207,-0.0866 0.053439,-0.167597 0.09962,-0.243166 0.079611,-0.136832 0.189112,-0.243844 0.3284318,-0.320968 0.042681,-0.02483 0.086418,-0.04578 0.1314877,-0.06287 8.42e-5,-3.2e-5 2.058e-4,3.1e-5 2.939e-4,0 2.059e-4,-7.5e-5 3.822e-4,-2.06e-4 5.722e-4,-2.95e-4 0.012403,-0.0047 0.025023,-0.0088 0.037608,-0.01292 0.014701,-0.0047 0.029558,-0.0096 0.044499,-0.01349 8.97e-5,-2.4e-5 1.91e-4,2.3e-5 2.94e-4,0 0.07464,-0.01958 0.1521858,-0.02953 0.2328305,-0.02986 0.00307,0 0.00612,2.64e-4 0.00919,2.94e-4 0.014868,7.8e-5 0.029558,6.67e-4 0.044213,0.0014 0.0025,1.35e-4 0.00497,1.32e-4 0.00747,2.93e-4 0.00595,3.68e-4 0.011886,9.17e-4 0.017799,0.0014 0.00933,7.15e-4 0.018605,0.0016 0.027848,0.0026 0.010738,0.0012 0.021528,0.0025 0.032154,0.004 0.00914,0.0013 0.018224,0.003 0.027273,0.0047 0.00885,0.0016 0.017647,0.0031 0.026413,0.0048 0.013377,0.0028 0.026722,0.0058 0.039906,0.0092 0.00153,3.98e-4 0.00306,7.86e-4 0.00459,0.0012 9e-5,2.4e-5 1.911e-4,-2.3e-5 2.94e-4,0 0.00117,3.09e-4 0.00228,8.33e-4 0.00344,0.0012 0.073312,0.0199 0.1436677,0.04924 0.2110118,0.08842 0.1393198,0.07712 0.2488204,0.184136 0.3284318,0.320967 0.071837,0.117551 0.1121702,0.248514 0.1211524,0.39274 0.00127,0.02061 0.00202,0.04143 0.00202,0.06258 0,0.02768 -0.0011,0.05479 -0.00316,0.08153 -0.00207,0.02673 -0.00507,0.05315 -0.00919,0.07895 -0.00413,0.0258 -0.00932,0.05122 -0.015503,0.07608 -0.00618,0.02487 -0.013289,0.04898 -0.021532,0.07292 -0.00824,0.02393 -0.017546,0.04763 -0.027848,0.07062 -0.010303,0.023 -0.021801,0.04539 -0.034163,0.06747 -0.012363,0.02207 -0.025771,0.04374 -0.040193,0.06488 -0.014422,0.02113 -0.029739,0.0418 -0.046222,0.06202 -0.016482,0.02021 -0.033491,0.03948 -0.051102,0.05799 -0.017611,0.01851 -0.035808,0.03632 -0.054547,0.05312 -0.018738,0.01679 -0.038126,0.03257 -0.057993,0.04766 -0.019868,0.01508 -0.040156,0.0294 -0.061151,0.04278 -0.020994,0.01337 -0.042761,0.02594 -0.064882,0.03762 -0.022122,0.01167 -0.044792,0.02248 -0.068041,0.03243 -0.023248,0.01 -0.046823,0.01903 -0.071198,0.02727 -0.024375,0.0083 -0.049431,0.01558 -0.074931,0.02211 v 0.541166 h 0.423743 0.6473896 V 12.405371 H 6.037531 6.0174344 v -0.02239 c 0.011445,-0.0062 0.022433,-0.01322 0.033589,-0.01982 0.1657167,-0.09809 0.2991288,-0.231795 0.3993432,-0.401927 0.109466,-0.181613 0.1642159,-0.390373 0.1642159,-0.62672 0,-0.161302 -0.028996,-0.313884 -0.08584,-0.457908 l 5.723e-4,-0.0017 c -0.02384,-0.06091 -0.052574,-0.120399 -0.086419,-0.178526 -0.1144409,-0.19654 -0.272471,-0.352081 -0.4739867,-0.466521 -0.020153,-0.01155 -0.040558,-0.02232 -0.06115,-0.03273 -0.011792,-0.006 -0.023653,-0.01187 -0.035599,-0.01751 -0.011282,-0.0053 -0.022753,-0.01027 -0.034163,-0.01522 -0.020638,-0.009 -0.041499,-0.01738 -0.062586,-0.02526 -0.00146,-5.44e-4 -0.00286,-0.0012 -0.00431,-0.0018 -0.00113,-4.26e-4 -0.00231,-7.14e-4 -0.00344,-0.0012 -0.024502,-0.009 -0.049252,-0.01719 -0.074357,-0.02468 -0.00173,-5.14e-4 -0.00343,-0.0013 -0.00517,-0.0018 -0.00133,-3.96e-4 -0.00268,-7.86e-4 -0.00402,-0.0012 -0.025243,-0.0073 -0.050802,-0.01398 -0.076653,-0.01982 -0.00133,-2.94e-4 -0.00268,-5.56e-4 -0.00402,-8.33e-4 -0.00123,-2.8e-4 -0.00248,-6.12e-4 -0.00373,-8.34e-4 -0.025603,-0.0056 -0.051603,-0.0105 -0.077802,-0.01464 -0.00182,-2.95e-4 -0.00363,-6.12e-4 -0.00546,-8.34e-4 -0.00172,-2.65e-4 -0.00346,-6.11e-4 -0.00517,-8.33e-4 -0.018703,-0.0028 -0.037553,-0.0052 -0.056558,-0.0072 -0.018158,-0.002 -0.036417,-0.0038 -0.054834,-0.0052 -0.00605,-4.27e-4 -0.012008,-7.86e-4 -0.018087,-0.0012 -0.0022,-1.33e-4 -0.0044,-1.63e-4 -0.0066,-2.94e-4 -0.026088,-0.0014 -0.05235,-0.0024 -0.07895,-0.0026 -0.00221,-10e-6 -0.00439,0 -0.0066,0 z" />
  <path
     d="m 4.9957831,4.8143405 c 0,0 0.2288817,0.4988448 0.3345194,0.8040204 C 5.2187961,5.8237675 5.0251269,6.081993 4.8842767,6.2697936 4.802114,6.3812997 4.7258201,6.422381 4.6906075,6.422381 c -0.088031,0 -0.2230129,-0.1584565 -0.440157,-0.1584565 -0.2171442,0 -0.2817006,0.1232443 -0.2817006,0.2875694 0,0.205407 0.2230129,0.3169131 0.4166821,0.3169131 0.2817005,0 0.3814694,-0.052819 0.6983826,-0.416682 0.082163,-0.088032 0.2464879,-0.3110444 0.3521257,-0.4636323 l 0.1115064,0.3403885 c 0.00587,0.017606 0.011738,0.035213 0.017606,0.052819 0.088031,0.2699632 0.1584565,0.4871073 0.3814695,0.4871073 0.2464879,0 0.5164509,-0.058688 0.8685766,-0.4518946 L 6.6742489,6.2639245 C 6.5333986,6.4047752 6.3866796,6.422381 6.2986482,6.422381 c -0.070425,0 -0.1349816,-0.04108 -0.1643254,-0.1115061 L 5.8056722,5.5127232 6.3045169,4.8378156 c 0.070425,-0.088031 0.1291128,-0.1056377 0.1584566,-0.1056377 0.023475,0 0.0939,0.023475 0.146719,0.052819 0.052819,0.035213 0.1760629,0.082163 0.2640943,0.082163 0.1525878,0 0.269963,-0.1701941 0.269963,-0.3462569 0,-0.1878004 -0.2054066,-0.2817006 -0.4049445,-0.2817006 -0.346257,0 -0.5692699,0.2993069 -0.8098891,0.6162199 0,0 -0.1584565,0.2054067 -0.2054066,0.2758318 L 5.5767905,4.6500153 C 5.4828903,4.3389709 5.4652841,4.2333332 5.318565,4.2333332 c -0.2054066,0 -0.7394639,0.2640943 -0.9507393,0.3873383 0.011738,0.064556 0.052819,0.1819315 0.099769,0.2288816 0.070425,-0.035213 0.2523567,-0.1115065 0.3286506,-0.1115065 0.076294,0 0.1701941,0.00587 0.1995378,0.076294 z"
     style="font-weight:500;font-size:10.5833px;line-height:1.25;font-family:'Noto Sans CJK KR';-inkscape-font-specification:'Noto Sans CJK KR Medium';fill:#f1f1f1;fill-opacity:1;stroke-width:0.146719"
     id="path35513" />
</svg>
