<?xml version="1.0" encoding="UTF-8" standalone="no"?>
<!-- Created with Inkscape (http://www.inkscape.org/) -->

<svg
   width="64"
   height="64"
   viewBox="0 0 16.933333 16.933334"
   version="1.1"
   id="svg5"
   inkscape:version="1.1.1 (3bf5ae0d25, 2021-09-20, custom)"
   sodipodi:docname="reversi.svg"
   xmlns:inkscape="http://www.inkscape.org/namespaces/inkscape"
   xmlns:sodipodi="http://sodipodi.sourceforge.net/DTD/sodipodi-0.dtd"
   xmlns:xlink="http://www.w3.org/1999/xlink"
   xmlns="http://www.w3.org/2000/svg"
   xmlns:svg="http://www.w3.org/2000/svg">
  <sodipodi:namedview
     id="namedview7"
     pagecolor="#ffffff"
     bordercolor="#666666"
     borderopacity="1.0"
     inkscape:pageshadow="2"
     inkscape:pageopacity="0.0"
     inkscape:pagecheckerboard="0"
     inkscape:document-units="px"
     showgrid="false"
     units="px"
     height="64px"
     inkscape:zoom="8.7173008"
     inkscape:cx="36.135039"
     inkscape:cy="43.07526"
     inkscape:window-width="1920"
     inkscape:window-height="1012"
     inkscape:window-x="0"
     inkscape:window-y="0"
     inkscape:window-maximized="1"
     inkscape:current-layer="svg5" />
  <defs
     id="defs2">
    <linearGradient
       inkscape:collect="always"
       id="linearGradient9404">
      <stop
         style="stop-color:#000000;stop-opacity:1;"
         offset="0"
         id="stop9400" />
      <stop
         style="stop-color:#000000;stop-opacity:0;"
         offset="1"
         id="stop9402" />
    </linearGradient>
    <linearGradient
       inkscape:collect="always"
       xlink:href="#linearGradient9404"
       id="linearGradient9406"
       x1="37.136719"
       y1="14.568359"
       x2="59.980469"
       y2="34.568359"
       gradientUnits="userSpaceOnUse" />
    <linearGradient
       inkscape:collect="always"
       xlink:href="#linearGradient9404"
       id="linearGradient9764"
       x1="33.136719"
       y1="33.00293"
       x2="54.869141"
       y2="55.00293"
       gradientUnits="userSpaceOnUse" />
    <linearGradient
       inkscape:collect="always"
       xlink:href="#linearGradient9404"
       id="linearGradient10220"
       x1="10.136719"
       y1="32.558594"
       x2="39"
       y2="60.558594"
       gradientUnits="userSpaceOnUse" />
    <linearGradient
       inkscape:collect="always"
       xlink:href="#linearGradient9404"
       id="linearGradient10676"
       x1="8.1367188"
       y1="12.568359"
       x2="33"
       y2="34.568359"
       gradientUnits="userSpaceOnUse" />
  </defs>
  <circle
     style="fill:#1fca5c;stroke-width:0.529167;stroke-linecap:round;stroke-linejoin:round;fill-opacity:1"
     id="path1039"
     cx="8.4666662"
     cy="8.4666662"
     r="7.4083333" />
  <path
     id="rect1761"
     style="opacity:1;fill:#168850;fill-opacity:1;stroke-width:2;stroke-linecap:round;stroke-linejoin:round"
     d="M 32 4 A 28 28 0 0 0 31 4.0371094 L 31 31 L 4.0371094 31 A 28 28 0 0 0 4 32 A 28 28 0 0 0 4.0371094 33 L 31 33 L 31 59.962891 A 28 28 0 0 0 32 60 A 28 28 0 0 0 33 59.962891 L 33 33 L 59.962891 33 A 28 28 0 0 0 60 32 A 28 28 0 0 0 59.980469 31 L 33 31 L 33 4.0195312 A 28 28 0 0 0 32 4 z "
     transform="scale(0.26458334)" />
  <path
     id="rect7354"
     style="opacity:0.2;fill:url(#linearGradient10676);stroke-width:2;stroke-linecap:round;stroke-linejoin:round;fill-opacity:1"
     d="M 26.15625,14.136719 14.136719,26.15625 18.978516,31 H 31 V 18.978516 Z"
     transform="scale(0.26458334)" />
  <path
     id="rect7762"
     style="opacity:0.2;stroke-width:2;stroke-linecap:round;stroke-linejoin:round;fill-opacity:1;fill:url(#linearGradient10220)"
     d="m 26.15625,37.136719 -12.019531,12.019531 9.58789,9.587891 A 28,28 0 0 0 31,59.980469 v -18 z"
     transform="scale(0.26458334)" />
  <path
     id="rect8019"
     style="opacity:0.2;stroke-width:2;stroke-linecap:round;stroke-linejoin:round;fill-opacity:1;fill:url(#linearGradient9764)"
     d="M 49.15625,37.136719 37.136719,49.15625 44.847656,56.869141 A 28,28 0 0 0 56.869141,44.847656 Z"
     transform="scale(0.26458334)" />
  <path
     id="rect8234"
     style="opacity:0.2;stroke-width:2;stroke-linecap:round;stroke-linejoin:round;fill-opacity:1;fill:url(#linearGradient9406)"
     d="M 49.15625,14.136719 37.136719,26.15625 41.980469,31 h 18 a 28,28 0 0 0 -1.279297,-7.320312 z"
     transform="scale(0.26458334)" />
  <circle
     style="opacity:1;fill:#f9f9f9;fill-opacity:1;stroke-width:0.56224;stroke-linecap:round;stroke-linejoin:round"
     id="path3169"
     cx="5.4239588"
     cy="5.4239588"
     r="2.2489583" />
  <circle
     style="opacity:1;fill:#4d4d4d;fill-opacity:1;stroke-width:0.496879;stroke-linecap:round;stroke-linejoin:round"
     id="path3309"
     cx="5.4239583"
     cy="11.509376"
     r="2.2489583" />
  <circle
     style="opacity:1;fill:#f9f9f9;fill-opacity:1;stroke-width:0.529167;stroke-linecap:round;stroke-linejoin:round"
     id="path3503"
     cx="11.509376"
     cy="11.509376"
     r="2.2489583" />
  <circle
     style="opacity:1;fill:#4d4d4d;fill-opacity:1;stroke-width:0.529167;stroke-linecap:round;stroke-linejoin:round"
     id="path3795"
     cx="11.509376"
     cy="5.4239583"
     r="2.2489583" />
</svg>
