<?xml version="1.0" encoding="UTF-8" standalone="no"?>
<!-- Created with Inkscape (http://www.inkscape.org/) -->

<svg
   width="64"
   height="64"
   viewBox="0 0 16.933333 16.933333"
   version="1.1"
   id="svg5"
   inkscape:version="1.1.1 (3bf5ae0d25, 2021-09-20, custom)"
   sodipodi:docname="skype.svg"
   xmlns:inkscape="http://www.inkscape.org/namespaces/inkscape"
   xmlns:sodipodi="http://sodipodi.sourceforge.net/DTD/sodipodi-0.dtd"
   xmlns="http://www.w3.org/2000/svg"
   xmlns:svg="http://www.w3.org/2000/svg">
  <sodipodi:namedview
     id="namedview7"
     pagecolor="#ffffff"
     bordercolor="#666666"
     borderopacity="1.0"
     inkscape:pageshadow="2"
     inkscape:pageopacity="0.0"
     inkscape:pagecheckerboard="0"
     inkscape:document-units="px"
     showgrid="false"
     units="px"
     height="48px"
     inkscape:zoom="3.9999998"
     inkscape:cx="47.500002"
     inkscape:cy="12.125001"
     inkscape:window-width="1512"
     inkscape:window-height="937"
     inkscape:window-x="45"
     inkscape:window-y="29"
     inkscape:window-maximized="0"
     inkscape:current-layer="svg5"
     inkscape:lockguides="true" />
  <defs
     id="defs2">
    <linearGradient
       gradientUnits="userSpaceOnUse"
       y2="18.354"
       x2="11.125"
       y1="1.1059999"
       x1="8.3929996"
       id="a"
       gradientTransform="matrix(0.35604133,0,0,0.35604133,2.8189567,2.8189569)">
      <stop
         id="stop2"
         stop-color="#00b7f0"
         offset=".012" />
      <stop
         id="stop4"
         stop-color="#009de5"
         offset=".339" />
      <stop
         id="stop6"
         stop-color="#0082d9"
         offset=".755" />
      <stop
         id="stop8"
         stop-color="#0078d4"
         offset="1" />
    </linearGradient>
    <linearGradient
       gradientUnits="userSpaceOnUse"
       y2="17.889"
       x2="29.546"
       y1="26.645"
       x1="14.379"
       id="b"
       gradientTransform="matrix(0.35604133,0,0,0.35604133,2.8189567,2.8189569)">
      <stop
         id="stop11"
         stop-color="#0078d4"
         offset="0" />
      <stop
         id="stop13"
         stop-color="#007ad5"
         offset=".37" />
      <stop
         id="stop15"
         stop-color="#0082d9"
         offset=".573" />
      <stop
         id="stop17"
         stop-color="#0090df"
         offset=".735" />
      <stop
         id="stop19"
         stop-color="#00a3e7"
         offset=".875" />
      <stop
         id="stop21"
         stop-color="#00bcf2"
         offset="1" />
    </linearGradient>
    <linearGradient
       gradientUnits="userSpaceOnUse"
       y2="30.662001"
       x2="24.291"
       y1="6.6890001"
       x1="10.45"
       id="c"
       gradientTransform="matrix(0.35604133,0,0,0.35604133,2.8189567,2.8189569)">
      <stop
         id="stop24"
         stop-color="#00b7f0"
         offset="0" />
      <stop
         id="stop26"
         stop-color="#007cc1"
         offset="1" />
    </linearGradient>
  </defs>
  <circle
     style="fill:#ffffff;stroke-width:0.529167;stroke-linecap:round;stroke-linejoin:round;stroke-dasharray:6.35, 0.529167"
     id="path892"
     cx="8.4666662"
     cy="8.4666662"
     r="7.4083333" />
  <path
     id="path31"
     style="fill:url(#a);stroke-width:0.356041"
     d="M 9.41213,6.2832389 A 3.1185659,3.1082406 0 0 1 6.293564,9.3914795 3.1185659,3.1082406 0 0 1 3.174998,6.2832389 3.1185659,3.1082406 0 0 1 6.293564,3.1749982 3.1185659,3.1082406 0 0 1 9.41213,6.2832389" />
  <path
     id="path33"
     style="fill:url(#b);stroke-width:0.356041"
     d="M 13.758326,10.746929 A 3.1196342,3.1093089 0 0 1 10.638692,13.856238 3.1196342,3.1093089 0 0 1 7.5190579,10.746929 3.1196342,3.1093089 0 0 1 10.638692,7.6376203 3.1196342,3.1093089 0 0 1 13.758326,10.746929" />
  <path
     id="path35"
     opacity="0.05"
     fill-rule="evenodd"
     d="M 3.1863914,6.5492019 A 3.11821,3.11821 0 1 0 6.6816491,3.198853 5.6663978,5.6663978 0 0 0 3.1863914,6.5492019 Z"
     style="stroke-width:0.356041" />
  <path
     id="path37"
     opacity="0.05"
     fill-rule="evenodd"
     d="m 13.750138,10.523691 a 3.1192781,3.1192781 0 1 0 -3.394142,3.31973 5.6663978,5.6663978 0 0 0 3.394142,-3.320086 z"
     style="stroke-width:0.356041" />
  <path
     id="path39"
     opacity="0.1"
     fill-rule="evenodd"
     d="M 3.3323683,7.2598604 A 3.1171418,3.1171418 0 1 0 7.3905274,3.3729572 5.3025235,5.3025235 0 0 0 3.3323683,7.2598604 Z"
     style="stroke-width:0.356041" />
  <path
     id="path41"
     opacity="0.1"
     fill-rule="evenodd"
     d="M 13.608433,9.7930945 A 3.11821,3.11821 0 1 0 9.6236186,13.687831 5.3025235,5.3025235 0 0 0 13.608433,9.7930945 Z"
     style="stroke-width:0.356041" />
  <path
     id="path43"
     opacity="0.1"
     fill-rule="evenodd"
     d="M 3.4470136,7.5546626 A 3.1164298,3.1164298 0 1 0 7.6817692,3.4993519 5.1223666,5.1223666 0 0 0 3.4470136,7.5546626 Z"
     style="stroke-width:0.356041" />
  <path
     id="path45"
     opacity="0.1"
     fill-rule="evenodd"
     d="M 13.493432,9.4922395 A 3.1174979,3.1174979 0 1 0 9.3231197,13.566777 5.1220106,5.1220106 0 0 0 13.493432,9.4922395 Z"
     style="stroke-width:0.356041" />
  <path
     id="path47"
     style="fill:url(#c);stroke-width:0.356041"
     d="M 13.406558,8.5387612 A 4.9393614,4.9229835 0 0 1 8.4671964,13.461744 4.9393614,4.9229835 0 0 1 3.5278351,8.5387612 4.9393614,4.9229835 0 0 1 8.4671964,3.6157777 4.9393614,4.9229835 0 0 1 13.406558,8.5387612" />
  <path
     id="path49"
     fill-rule="evenodd"
     fill="#ffffff"
     d="M 7.0782791,8.367861 A 1.5516281,1.5516281 0 0 1 6.5915706,7.8544494 1.4191807,1.4191807 0 0 1 6.4249433,7.1448591 1.27534,1.27534 0 0 1 6.7254422,6.2860874 1.80869,1.80869 0 0 1 7.5087331,5.7627066 3.0245711,3.0245711 0 0 1 8.5341321,5.5900266 3.9819662,3.9819662 0 0 1 9.2163073,5.6423646 2.4630939,2.4630939 0 0 1 9.6894862,5.7644868 0.91716247,0.91716247 0 0 1 10.059769,6.0008983 0.47851955,0.47851955 0 0 1 10.174058,6.3188432 0.46071748,0.46071748 0 0 1 10.053717,6.6503177 0.40019045,0.40019045 0 0 1 9.7514374,6.7763563 0.54438719,0.54438719 0 0 1 9.5267754,6.7257984 4.0709766,4.0709766 0 0 0 8.9916452,6.5299757 1.9422055,1.9422055 0 0 0 8.4760974,6.4658882 1.1767166,1.1767166 0 0 0 7.8302384,6.6310914 0.53726637,0.53726637 0 0 0 7.5724645,7.1135274 0.48528433,0.48528433 0 0 0 7.706336,7.4528348 a 1.2197976,1.2197976 0 0 0 0.3606699,0.25813 q 0.2267983,0.112509 0.6764785,0.2983626 a 0.70140142,0.70140142 0 0 1 0.096843,0.038809 4.8054898,4.8054898 0 0 1 0.8374092,0.430454 1.688348,1.688348 0 0 1 0.5155484,0.5290774 1.395682,1.395682 0 0 1 0.186209,0.7348693 1.4779276,1.4779276 0 0 1 -0.257774,0.8858309 1.5324019,1.5324019 0 0 1 -0.7209836,0.53513 3.0395248,3.0395248 0 0 1 -1.0837898,0.176596 3.4144364,3.4144364 0 0 1 -1.4772155,-0.279491 0.80394132,0.80394132 0 0 1 -0.3040593,-0.236412 0.53156971,0.53156971 0 0 1 -0.098979,-0.321861 0.42048481,0.42048481 0 0 1 0.129955,-0.327558 0.47887559,0.47887559 0 0 1 0.3350349,-0.118206 0.85699148,0.85699148 0 0 1 0.3916455,0.100759 q 0.2250181,0.112509 0.3549732,0.168763 a 1.783055,1.783055 0 0 0 0.3061955,0.09684 1.7517233,1.7517233 0 0 0 0.3934257,0.04059 A 1.0503219,1.0503219 0 0 0 9.0090913,10.28728 0.58212757,0.58212757 0 0 0 9.2319731,9.8044878 0.51269952,0.51269952 0 0 0 9.0924049,9.4520069 1.4836242,1.4836242 0 0 0 8.6815332,9.1529322 Q 8.4098737,9.0098035 7.9174685,8.8040117 A 4.7321453,4.7321453 0 0 1 7.0782791,8.367861"
     style="stroke-width:0.356041" />
</svg>
