<?xml version="1.0" encoding="UTF-8" standalone="no"?>
<!-- Created with Inkscape (http://www.inkscape.org/) -->

<svg
   width="64"
   height="64"
   viewBox="0 0 16.933333 16.933334"
   version="1.1"
   id="svg5"
   inkscape:version="1.1.1 (3bf5ae0d25, 2021-09-20, custom)"
   sodipodi:docname="tetravex.svg"
   xmlns:inkscape="http://www.inkscape.org/namespaces/inkscape"
   xmlns:sodipodi="http://sodipodi.sourceforge.net/DTD/sodipodi-0.dtd"
   xmlns="http://www.w3.org/2000/svg"
   xmlns:svg="http://www.w3.org/2000/svg">
  <sodipodi:namedview
     id="namedview7"
     pagecolor="#ffffff"
     bordercolor="#666666"
     borderopacity="1.0"
     inkscape:pageshadow="2"
     inkscape:pageopacity="0.0"
     inkscape:pagecheckerboard="0"
     inkscape:document-units="px"
     showgrid="false"
     units="px"
     height="64px"
     inkscape:zoom="11.313708"
     inkscape:cx="32.968854"
     inkscape:cy="34.957592"
     inkscape:window-width="1920"
     inkscape:window-height="1019"
     inkscape:window-x="0"
     inkscape:window-y="0"
     inkscape:window-maximized="1"
     inkscape:current-layer="svg5"
     showguides="false" />
  <defs
     id="defs2" />
  <circle
     style="fill:#f2f2f2;stroke-width:0.529167;stroke-linecap:round;stroke-linejoin:round"
     id="path1039"
     cx="8.4666662"
     cy="8.4666662"
     r="7.4083333" />
  <path
     id="path2187"
     style="opacity:1;fill:#88d3ef;fill-opacity:1;stroke-width:2;stroke-linecap:round;stroke-linejoin:round"
     d="M 12.214844 12.214844 A 28 28 0 0 0 4 32 A 28 28 0 0 0 12.214844 51.785156 L 32 32 L 12.214844 12.214844 z "
     transform="scale(0.26458334)" />
  <path
     id="path2318"
     style="opacity:1;fill:#51e191;fill-opacity:1;stroke-width:2;stroke-linecap:round;stroke-linejoin:round"
     d="M 32 32 L 12.214844 51.785156 A 28 28 0 0 0 32 60 A 28 28 0 0 0 51.785156 51.785156 L 32 32 z "
     transform="scale(0.26458334)" />
  <path
     id="path3664"
     style="opacity:1;fill:#cf71e7;fill-opacity:1;stroke-width:2;stroke-linecap:round;stroke-linejoin:round"
     d="M 51.796875 12.203125 L 32 32 L 51.785156 51.785156 A 28 28 0 0 0 60 32 A 28 28 0 0 0 51.796875 12.203125 z "
     transform="scale(0.26458334)" />
  <path
     d="m 8.9807795,4.5796077 q -0.2721112,0.2877241 -0.6356697,0.2877241 -0.4282406,0 -0.6825085,-0.2988762 -0.2542679,-0.3011067 -0.2542679,-0.7895687 0,-0.3211805 0.1293644,-0.5821396 Q 7.6670622,2.9357881 7.9057171,2.7908108 8.144372,2.6458335 8.4588613,2.6458335 q 0.4906924,0 0.7784165,0.3657889 0.2877242,0.3657889 0.2877242,0.9791544 v 0.1516685 q 0,0.8787855 -0.3970147,1.3404825 Q 8.7309725,5.9446247 7.9436342,5.951316 H 7.8789521 V 5.5030015 h 0.078065 Q 8.4365571,5.4963103 8.6930554,5.2732683 8.9495537,5.0479959 8.9807795,4.5796077 Z M 8.4588613,4.443552 q 0.1628206,0 0.3055675,-0.093678 Q 8.9071757,4.256196 8.9852404,4.0911453 V 3.8792558 q 0,-0.3590976 -0.1472077,-0.5776788 -0.1472078,-0.2185812 -0.3814019,-0.2185812 -0.2341941,0 -0.3747105,0.1940466 -0.1382861,0.1918161 -0.1382861,0.4862315 0,0.3055676 0.1405165,0.4929229 0.1405165,0.1873552 0.3747106,0.1873552 z"
     style="font-weight:500;font-size:4.5679px;line-height:1.25;font-family:Roboto;-inkscape-font-specification:'Roboto Medium';stroke-width:0.114197"
     id="path27035" />
  <path
     d="M 4.5562248,7.1437497 V 7.5860056 H 4.4902165 Q 4.0413597,7.5926064 3.7729258,7.8324368 3.5044918,8.0722671 3.4538854,8.5123227 3.711318,8.2416885 4.1117686,8.2416885 q 0.4246537,0 0.6688846,0.2992379 0.2464311,0.2992378 0.2464311,0.7722976 0,0.4884618 -0.2882364,0.7921 -0.2860362,0.301438 -0.7524952,0.301438 -0.4796606,0 -0.7788984,-0.354244 Q 2.9104167,9.6982727 2.9104167,9.1240001 V 8.941377 q 0,-0.8427066 0.4092517,-1.3201669 Q 3.7311205,7.1437497 4.5012178,7.1437497 Z M 3.9819522,8.6729431 q -0.1760223,0 -0.3234409,0.099013 -0.1452184,0.099013 -0.213427,0.2640334 v 0.1628206 q 0,0.356445 0.1496189,0.5676717 0.1496189,0.2090265 0.387249,0.2090265 0.23763,0 0.3762476,-0.1782226 0.1386175,-0.1782225 0.1386175,-0.4686592 0,-0.2904368 -0.1408178,-0.4730599 Q 4.2151817,8.6729436 3.9819522,8.6729431 Z"
     style="font-weight:500;font-size:4.50617px;line-height:1.25;font-family:Roboto;-inkscape-font-specification:'Roboto Medium';stroke-width:0.112654"
     id="path27038" />
  <path
     d="m 13.687337,7.9078254 q 0,0.2374041 -0.12203,0.4237775 -0.122031,0.1841546 -0.33281,0.2906537 0.252935,0.1175927 0.388278,0.3217159 0.137561,0.2041232 0.137561,0.461496 0,0.4259962 -0.288435,0.6767125 -0.288435,0.248498 -0.767681,0.248498 -0.481464,0 -0.772118,-0.250716 -0.288435,-0.250717 -0.288435,-0.6744945 0,-0.2595915 0.137561,-0.4659334 0.137562,-0.206342 0.38606,-0.3172785 -0.208561,-0.1064991 -0.330591,-0.2906537 -0.119812,-0.1863734 -0.119812,-0.4237775 0,-0.4126839 0.266248,-0.6545255 0.266248,-0.2418417 0.718869,-0.2418417 0.454839,0 0.721087,0.2418417 0.266248,0.2418416 0.266248,0.6545255 z m -0.468152,1.4710183 q 0,-0.2396229 -0.144218,-0.3860591 -0.141999,-0.148655 -0.377184,-0.148655 -0.235186,0 -0.377184,0.1464363 -0.13978,0.1464362 -0.13978,0.3882778 0,0.2374042 0.137561,0.3794029 0.13978,0.1419988 0.38384,0.1419988 0.244061,0 0.379403,-0.1375613 0.137562,-0.1375613 0.137562,-0.3838404 z m -0.06878,-1.4510498 q 0,-0.2107794 -0.12203,-0.3461219 -0.12203,-0.1375613 -0.328372,-0.1375613 -0.206342,0 -0.326154,0.1309051 -0.119811,0.1286864 -0.119811,0.3527781 0,0.2218731 0.119811,0.3527782 0.12203,0.1309051 0.328372,0.1309051 0.206342,0 0.326154,-0.1309051 0.12203,-0.1309051 0.12203,-0.3527782 z"
     style="font-weight:500;font-size:4.54396px;line-height:1.25;font-family:Roboto;-inkscape-font-specification:'Roboto Medium';stroke-width:0.113599;fill:#ffffff"
     id="path27041" />
  <path
     d="m 9.1403893,12.976302 h 0.4111396 v 0.44294 H 9.1403893 v 0.735963 H 8.5884175 V 13.419242 H 7.1596507 l -0.0159,-0.33618 1.4264952,-2.235146 h 0.5701438 z m -1.4174092,0 h 0.8654374 v -1.381066 l -0.040887,0.07269 z"
     style="font-weight:500;font-size:4.65201px;line-height:1.25;font-family:Roboto;-inkscape-font-specification:'Roboto Medium';stroke-width:0.1163"
     id="path27044" />
</svg>
