<?xml version="1.0" encoding="UTF-8" standalone="no"?>
<!-- Created with Inkscape (http://www.inkscape.org/) -->

<svg
   width="64"
   height="64"
   viewBox="0 0 16.933333 16.933334"
   version="1.1"
   id="svg5"
   inkscape:version="1.1.1 (3bf5ae0d25, 2021-09-20, custom)"
   sodipodi:docname="usb-creator.svg"
   xmlns:inkscape="http://www.inkscape.org/namespaces/inkscape"
   xmlns:sodipodi="http://sodipodi.sourceforge.net/DTD/sodipodi-0.dtd"
   xmlns:xlink="http://www.w3.org/1999/xlink"
   xmlns="http://www.w3.org/2000/svg"
   xmlns:svg="http://www.w3.org/2000/svg">
  <sodipodi:namedview
     id="namedview7"
     pagecolor="#ffffff"
     bordercolor="#666666"
     borderopacity="1.0"
     inkscape:pageshadow="2"
     inkscape:pageopacity="0.0"
     inkscape:pagecheckerboard="0"
     inkscape:document-units="px"
     showgrid="false"
     units="px"
     height="64px"
     inkscape:zoom="8"
     inkscape:cx="32.75"
     inkscape:cy="46.125"
     inkscape:window-width="1920"
     inkscape:window-height="1002"
     inkscape:window-x="0"
     inkscape:window-y="0"
     inkscape:window-maximized="1"
     inkscape:current-layer="svg5" />
  <defs
     id="defs2">
    <linearGradient
       inkscape:collect="always"
       id="linearGradient28010">
      <stop
         style="stop-color:#4d4d4d;stop-opacity:1;"
         offset="0"
         id="stop28006" />
      <stop
         style="stop-color:#4d4d4d;stop-opacity:0;"
         offset="1"
         id="stop28008" />
    </linearGradient>
    <linearGradient
       inkscape:collect="always"
       xlink:href="#linearGradient28010"
       id="linearGradient8239"
       x1="27"
       y1="21"
       x2="60.080078"
       y2="59.289062"
       gradientUnits="userSpaceOnUse" />
  </defs>
  <circle
     style="fill:#666666;stroke-width:0.529167;stroke-linecap:round;stroke-linejoin:round;fill-opacity:1"
     id="path1039"
     cx="8.4666662"
     cy="8.4666662"
     r="7.4083333" />
  <path
     id="path7428"
     style="opacity:0.2;fill:url(#linearGradient8239);fill-opacity:1;stroke-width:2;stroke-linecap:round;stroke-linejoin:round"
     d="M 39.416016 13.583984 L 21.583984 50.416016 L 31.136719 59.966797 A 28 28 0 0 0 32 60 A 28 28 0 0 0 59.921875 34.091797 A 28 28 0 0 0 59.921875 34.089844 L 39.416016 13.583984 z "
     transform="scale(0.26458334)" />
  <path
     id="rect1575"
     style="fill:#ffffff;stroke-width:0.529167;stroke-linecap:round;stroke-linejoin:round"
     d="m 6.8791671,3.4395833 h 3.1749999 c 0.293158,0 0.529166,0.2360083 0.529166,0.5291667 V 8.2020835 H 6.3500004 V 3.96875 c 0,-0.2931584 0.2360083,-0.5291667 0.5291667,-0.5291667 z"
     sodipodi:nodetypes="sssccss" />
  <path
     id="rect8512"
     style="fill:#7cbcea;stroke-width:0.676661;stroke-linecap:round;stroke-linejoin:round;fill-opacity:1"
     d="m 5.8208335,6.0854167 c -0.1465792,0 -0.2645834,0.1180042 -0.2645834,0.2645833 v 6.614583 c 0,0.293158 0.2360084,0.529167 0.5291667,0.529167 h 4.7625002 c 0.293158,0 0.529167,-0.236009 0.529167,-0.529167 V 6.35 c 0,-0.1465791 -0.118005,-0.2645833 -0.264584,-0.2645833 z" />
  <path
     id="rect7075"
     style="fill:#cccccc;fill-opacity:1;stroke-width:2;stroke-linecap:round;stroke-linejoin:round"
     d="M 27 15 L 27 21 L 29 21 L 29 15 L 27 15 z M 31 15 L 31 21 L 33 21 L 33 15 L 31 15 z M 35 15 L 35 21 L 37 21 L 37 15 L 35 15 z "
     transform="scale(0.26458334)" />
</svg>
