<?xml version="1.0" encoding="UTF-8" standalone="no"?>
<svg
   width="64"
   height="64"
   version="1.1"
   id="svg18"
   sodipodi:docname="utilities-system-monitor.svg"
   inkscape:version="1.1.1 (3bf5ae0d25, 2021-09-20, custom)"
   xmlns:inkscape="http://www.inkscape.org/namespaces/inkscape"
   xmlns:sodipodi="http://sodipodi.sourceforge.net/DTD/sodipodi-0.dtd"
   xmlns:xlink="http://www.w3.org/1999/xlink"
   xmlns="http://www.w3.org/2000/svg"
   xmlns:svg="http://www.w3.org/2000/svg">
  <defs
     id="defs22">
    <linearGradient
       inkscape:collect="always"
       id="linearGradient4940">
      <stop
         style="stop-color:#ffffff;stop-opacity:1;"
         offset="0"
         id="stop4936" />
      <stop
         style="stop-color:#ffffff;stop-opacity:0.07450981"
         offset="1"
         id="stop4938" />
    </linearGradient>
    <linearGradient
       inkscape:collect="always"
       id="linearGradient4393">
      <stop
         style="stop-color:#f9f06b;stop-opacity:1;"
         offset="0"
         id="stop4389" />
      <stop
         style="stop-color:#f9f06b;stop-opacity:0;"
         offset="1"
         id="stop4391" />
    </linearGradient>
    <linearGradient
       inkscape:collect="always"
       xlink:href="#linearGradient4393"
       id="linearGradient4395"
       x1="48.733501"
       y1="32.674736"
       x2="8.0566406"
       y2="32.802734"
       gradientUnits="userSpaceOnUse" />
    <radialGradient
       inkscape:collect="always"
       xlink:href="#linearGradient4940"
       id="radialGradient4942"
       cx="35.662109"
       cy="42.6875"
       fx="35.662109"
       fy="42.6875"
       r="20"
       gradientUnits="userSpaceOnUse"
       gradientTransform="matrix(-0.00438343,-1.5147284,4.1901252,-0.01212559,-143.04754,97.22352)" />
  </defs>
  <sodipodi:namedview
     id="namedview20"
     pagecolor="#ffffff"
     bordercolor="#666666"
     borderopacity="1.0"
     inkscape:pageshadow="2"
     inkscape:pageopacity="0.0"
     inkscape:pagecheckerboard="0"
     showgrid="false"
     inkscape:zoom="8.4410872"
     inkscape:cx="1.8954904"
     inkscape:cy="24.108269"
     inkscape:window-width="1920"
     inkscape:window-height="1019"
     inkscape:window-x="0"
     inkscape:window-y="0"
     inkscape:window-maximized="1"
     inkscape:current-layer="svg18" />
  <circle
     style="fill:#f6f5f4;fill-opacity:1"
     cx="32"
     cy="32"
     r="28"
     id="circle4" />
  <circle
     style="fill:#241f31;stroke-width:0.857142;fill-opacity:1"
     cx="32"
     cy="32"
     r="24"
     id="circle4-5" />
  <path
     id="rect998-6"
     style="fill:#e6a50a;stroke-width:0.265311;opacity:0.236;fill-opacity:1"
     d="M 28.734375 13 L 20.767578 32.802734 L 8.0566406 32.802734 A 24 24 0 0 0 8.2773438 35.568359 L 22.705078 35.568359 L 27.947266 21.169922 L 35.115234 51 L 42.292969 32.556641 L 55.960938 32.556641 A 24 24 0 0 0 56 32 A 24 24 0 0 0 55.894531 29.791016 L 40.355469 29.791016 L 35.662109 42.6875 L 28.734375 13 z " />
  <path
     id="rect998-6-2"
     style="opacity:1;fill:url(#linearGradient4395);fill-opacity:1;stroke-width:0.265311"
     d="M 28.734375 13 L 20.767578 32.802734 L 8.0566406 32.802734 C 8.0768176 33.728094 8.1505088 34.651511 8.2773438 35.568359 L 22.705078 35.568359 L 27.947266 21.169922 L 35.115234 51 L 42.292969 32.556641 L 47.138672 32.546875 A 1.383 1.383 0 0 0 47.277344 32.556641 A 1.383 1.383 0 0 0 48.660156 31.173828 A 1.383 1.383 0 0 0 47.28125 29.791016 C 47.280937 29.787743 47.279605 29.784522 47.279297 29.78125 L 40.355469 29.791016 L 35.662109 42.6875 L 28.734375 13 z " />
  <circle
     style="fill:url(#radialGradient4942);fill-opacity:1;stroke-width:0.714285;opacity:0.05"
     cx="32"
     cy="32"
     r="20"
     id="circle4-5-9" />
</svg>
