<?xml version="1.0" encoding="UTF-8" standalone="no"?>
<!-- Created with Inkscape (http://www.inkscape.org/) -->

<svg
   width="64"
   height="64"
   viewBox="0 0 16.933333 16.933333"
   version="1.1"
   id="svg5"
   inkscape:version="1.1.1 (3bf5ae0d25, 2021-09-20, custom)"
   sodipodi:docname="xfce.svg"
   xmlns:inkscape="http://www.inkscape.org/namespaces/inkscape"
   xmlns:sodipodi="http://sodipodi.sourceforge.net/DTD/sodipodi-0.dtd"
   xmlns="http://www.w3.org/2000/svg"
   xmlns:svg="http://www.w3.org/2000/svg">
  <sodipodi:namedview
     id="namedview7"
     pagecolor="#ffffff"
     bordercolor="#666666"
     borderopacity="1.0"
     inkscape:pageshadow="2"
     inkscape:pageopacity="0.0"
     inkscape:pagecheckerboard="0"
     inkscape:document-units="px"
     showgrid="false"
     units="px"
     height="48px"
     inkscape:zoom="4.3365533"
     inkscape:cx="33.206095"
     inkscape:cy="17.871336"
     inkscape:window-width="1920"
     inkscape:window-height="1012"
     inkscape:window-x="0"
     inkscape:window-y="0"
     inkscape:window-maximized="1"
     inkscape:current-layer="svg5"
     inkscape:lockguides="true" />
  <defs
     id="defs2" />
  <circle
     style="opacity:1;fill:#00aade;fill-opacity:1;stroke-width:3.92191;stroke-linecap:round;stroke-linejoin:round"
     id="path850"
     cx="8.4666662"
     cy="8.4666662"
     r="7.4083333" />
  <path
     id="path10"
     style="fill:#f9f9f9;stroke-width:0.754268"
     d="M 7.127963,3.7048641 C 6.9816823,3.7112541 6.8675643,3.7593721 6.8289083,3.7593721 5.9245403,3.9011694 6.2571841,5.2852557 6.6403403,6.5878802 6.6697603,6.920512 6.3239588,6.7736151 6.1203077,6.4228839 5.4248711,4.5575786 5.1333462,4.5900838 4.9417627,4.5342649 4.756205,4.4927861 4.1025194,4.8907731 4.1138342,5.6450442 4.1169705,5.8600213 4.3731141,6.8869116 4.3731141,7.2021967 3.9461987,7.5763125 3.8277034,8.7446214 3.719801,9.2887949 3.4742148,10.809134 4.085559,14.047884 8.9031461,13.022736 11.993132,12.238062 12.441012,11.020083 12.913144,10.50065 13.705832,9.3535297 12.913392,8.3147772 12.650918,8.1435597 10.432615,6.5467718 8.1547234,6.8884563 8.1253067,6.635022 8.1101977,6.3461378 8.1150347,5.5125976 8.0766917,5.2237141 7.9247597,3.87857 7.44978,3.6908158 7.127963,3.7048641 Z m 5.134035,1.6028213 c -0.0039,-1.335e-4 -0.0077,0.0016 -0.01178,0.00589 -0.424651,0.4563334 -0.350487,2.1622293 -0.262227,2.1478989 0.419422,-0.085502 0.393967,-2.1496533 0.274012,-2.1537912 z m 1.203589,0.2563337 c -0.0022,1.599e-4 -0.0047,4.752e-4 -0.0074,0.00147 -0.163036,0.060037 -1.133999,1.4728864 -0.948728,2.0138389 0.08826,0.250412 1.119452,-1.5674875 0.969353,-2.0064735 -0.0024,-0.00641 -0.0067,-0.00932 -0.01326,-0.00884 z M 8.7189981,7.8533427 c 0.4165712,1e-7 0.7542688,0.3376978 0.7542687,0.754269 1e-7,0.4165712 -0.3376975,0.7542689 -0.7542687,0.754269 -0.4165711,-2e-7 -0.7542685,-0.3376979 -0.7542684,-0.754269 -1e-7,-0.4165711 0.3376973,-0.7542688 0.7542684,-0.754269 z m 1.2801944,2.5427113 c 0.03102,3.76e-4 0.05901,0.0043 0.08692,0.0088 0.208934,0.0528 -1.5156996,0.951629 -1.6499606,0.827928 -0.0821,-0.07908 0.9155554,-0.726078 1.4584491,-0.827928 0.0396,-0.006 0.07358,-0.0091 0.104596,-0.0088 z m 0.3461965,0.577487 c 0.179514,0.01511 -0.9986502,1.23455 -1.1314022,1.107832 -0.0973,-0.08826 0.7633187,-1.137249 1.1314022,-1.107832 z"
     sodipodi:nodetypes="ccccccccccccccsccssccccccsssssccccccccc" />
</svg>
