<?xml version="1.0" encoding="UTF-8" standalone="no"?>
<!-- Created with Inkscape (http://www.inkscape.org/) -->

<svg
   width="16"
   height="16"
   viewBox="0 0 4.2333332 4.2333335"
   version="1.1"
   id="svg5"
   inkscape:version="1.1.1 (3bf5ae0d25, 2021-09-20, custom)"
   sodipodi:docname="start-here-symbolic.svg"
   xmlns:inkscape="http://www.inkscape.org/namespaces/inkscape"
   xmlns:sodipodi="http://sodipodi.sourceforge.net/DTD/sodipodi-0.dtd"
   xmlns="http://www.w3.org/2000/svg"
   xmlns:svg="http://www.w3.org/2000/svg">
  <sodipodi:namedview
     id="namedview7"
     pagecolor="#ffffff"
     bordercolor="#666666"
     borderopacity="1.0"
     inkscape:pageshadow="2"
     inkscape:pageopacity="0.0"
     inkscape:pagecheckerboard="0"
     inkscape:document-units="px"
     showgrid="false"
     units="px"
     height="16px"
     inkscape:zoom="48.875"
     inkscape:cx="8"
     inkscape:cy="8"
     inkscape:window-width="1920"
     inkscape:window-height="1002"
     inkscape:window-x="0"
     inkscape:window-y="0"
     inkscape:window-maximized="1"
     inkscape:current-layer="svg5" />
  <defs
     id="defs2" />
  <path
     id="path846"
     style="fill:#dfdfdf;stroke-width:0.529167;stroke-linecap:round;stroke-linejoin:round"
     d="M 1.0583333,0.79374999 A 0.26458336,0.26458336 0 0 0 0.79374999,1.0583333 0.26458336,0.26458336 0 0 0 1.0583333,1.3229166 0.26458336,0.26458336 0 0 0 1.3229166,1.0583333 0.26458336,0.26458336 0 0 0 1.0583333,0.79374999 Z m 1.0583333,0 A 0.26458336,0.26458336 0 0 0 1.8520833,1.0583333 0.26458336,0.26458336 0 0 0 2.1166666,1.3229166 0.26458336,0.26458336 0 0 0 2.38125,1.0583333 0.26458336,0.26458336 0 0 0 2.1166666,0.79374999 Z m 1.0583334,0 A 0.26458336,0.26458336 0 0 0 2.9104166,1.0583333 0.26458336,0.26458336 0 0 0 3.175,1.3229166 0.26458336,0.26458336 0 0 0 3.4395833,1.0583333 0.26458336,0.26458336 0 0 0 3.175,0.79374999 Z M 1.0583333,1.8520833 A 0.26458336,0.26458336 0 0 0 0.79374999,2.1166666 0.26458336,0.26458336 0 0 0 1.0583333,2.38125 0.26458336,0.26458336 0 0 0 1.3229166,2.1166666 0.26458336,0.26458336 0 0 0 1.0583333,1.8520833 Z m 1.0583333,0 A 0.26458336,0.26458336 0 0 0 1.8520833,2.1166666 0.26458336,0.26458336 0 0 0 2.1166666,2.38125 0.26458336,0.26458336 0 0 0 2.38125,2.1166666 0.26458336,0.26458336 0 0 0 2.1166666,1.8520833 Z m 1.0583334,0 A 0.26458336,0.26458336 0 0 0 2.9104166,2.1166666 0.26458336,0.26458336 0 0 0 3.175,2.38125 0.26458336,0.26458336 0 0 0 3.4395833,2.1166666 0.26458336,0.26458336 0 0 0 3.175,1.8520833 Z M 1.0583333,2.9104166 A 0.26458336,0.26458336 0 0 0 0.79374999,3.175 0.26458336,0.26458336 0 0 0 1.0583333,3.4395833 0.26458336,0.26458336 0 0 0 1.3229166,3.175 0.26458336,0.26458336 0 0 0 1.0583333,2.9104166 Z m 1.0583333,0 A 0.26458336,0.26458336 0 0 0 1.8520833,3.175 0.26458336,0.26458336 0 0 0 2.1166666,3.4395833 0.26458336,0.26458336 0 0 0 2.38125,3.175 0.26458336,0.26458336 0 0 0 2.1166666,2.9104166 Z m 1.0583334,0 A 0.26458336,0.26458336 0 0 0 2.9104166,3.175 0.26458336,0.26458336 0 0 0 3.175,3.4395833 0.26458336,0.26458336 0 0 0 3.4395833,3.175 0.26458336,0.26458336 0 0 0 3.175,2.9104166 Z" />
</svg>
