<?xml version="1.0" encoding="UTF-8" standalone="no"?>
<svg
   width="16"
   height="16"
   version="1.1"
   id="svg4"
   sodipodi:docname="preferences-system-symbolic.svg"
   inkscape:version="1.1.1 (3bf5ae0d25, 2021-09-20, custom)"
   xmlns:inkscape="http://www.inkscape.org/namespaces/inkscape"
   xmlns:sodipodi="http://sodipodi.sourceforge.net/DTD/sodipodi-0.dtd"
   xmlns="http://www.w3.org/2000/svg"
   xmlns:svg="http://www.w3.org/2000/svg">
  <defs
     id="defs8" />
  <sodipodi:namedview
     id="namedview6"
     pagecolor="#ffffff"
     bordercolor="#666666"
     borderopacity="1.0"
     inkscape:pageshadow="2"
     inkscape:pageopacity="0.0"
     inkscape:pagecheckerboard="0"
     showgrid="false"
     inkscape:zoom="49.5625"
     inkscape:cx="8"
     inkscape:cy="8"
     inkscape:window-width="1853"
     inkscape:window-height="1048"
     inkscape:window-x="67"
     inkscape:window-y="32"
     inkscape:window-maximized="1"
     inkscape:current-layer="svg4" />
  <path
     id="path2"
     style="fill:#dfdfdf;stroke-width:1.14286"
     d="M 5.9308035,0 5.7477679,2.1026786 C 5.0825861,2.3511383 4.4647582,2.710153 3.9196429,3.1651785 L 2,2.2633929 0,5.7254464 1.7366071,6.9375 C 1.6760678,7.2885549 1.6453922,7.6437635 1.6450893,8 c 3.029e-4,0.3562365 0.030978,0.7114451 0.091518,1.0625 L 2e-7,10.263393 l 2,3.462054 1.9084822,-0.901786 c 0.5485707,0.456139 1.1700787,0.815203 1.8392855,1.0625 L 5.9308035,16 h 3.9999996 l 0.1718749,-2.113839 c 0.669208,-0.247297 1.290715,-0.606361 1.839287,-1.0625 l 1.919642,0.901786 2,-3.462054 -1.747768,-1.212054 C 14.177568,8.7043704 14.211798,8.3527416 14.216518,8 14.216866,7.6399471 14.186189,7.2811551 14.125,6.9263393 l 1.736607,-1.2008929 -2,-3.4620535 -1.919642,0.9017856 C 11.393393,2.7090389 10.771886,2.3499755 10.102678,2.1026786 L 9.9308031,0 Z m 0.9486607,1.1428571 h 2.1093749 l 0.149554,1.859375 A 5.1428571,5.1428571 0 0 1 11.649553,4.4508928 L 13.34375,3.6607143 14.399553,5.4866071 12.863839,6.5491072 A 5.1428571,5.1428571 0 0 1 13.073661,8 5.1428571,5.1428571 0 0 1 12.866071,9.446429 l 1.533482,1.071428 -1.055803,1.825893 -1.698661,-0.803572 a 5.1428571,5.1428571 0 0 1 -2.5044639,1.446429 l -0.151786,1.870536 H 6.8794642 L 6.7165178,12.986607 A 5.1428571,5.1428571 0 0 1 4.2187499,11.54241 L 2.5223214,12.34375 1.4665178,10.517857 2.9955357,9.448661 A 5.1428571,5.1428571 0 0 1 2.7879464,8 5.1428571,5.1428571 0 0 1 2.9977679,6.5446429 L 1.4665178,5.4866071 2.5223214,3.6607143 4.2209821,4.4553571 A 5.1428571,5.1428571 0 0 1 6.7165178,3.0133929 Z M 7.9308035,5.7142857 C 6.6684378,5.7142857 5.6450893,6.7376349 5.6450893,8 c 0,1.262365 1.0233485,2.285714 2.2857142,2.285714 1.2623646,0 2.2857145,-1.023349 2.2857145,-2.285714 0,-1.2623651 -1.0233499,-2.2857143 -2.2857145,-2.2857143 z" />
</svg>
