<?xml version="1.0" encoding="UTF-8" standalone="no"?>
<svg
   width="64"
   height="64"
   enable-background="new"
   version="1.0"
   id="svg28"
   sodipodi:docname="cs-desklets.svg"
   inkscape:version="1.1.1 (3bf5ae0d25, 2021-09-20, custom)"
   xmlns:inkscape="http://www.inkscape.org/namespaces/inkscape"
   xmlns:sodipodi="http://sodipodi.sourceforge.net/DTD/sodipodi-0.dtd"
   xmlns="http://www.w3.org/2000/svg"
   xmlns:svg="http://www.w3.org/2000/svg">
  <sodipodi:namedview
     id="namedview30"
     pagecolor="#ffffff"
     bordercolor="#666666"
     borderopacity="1.0"
     inkscape:pageshadow="2"
     inkscape:pageopacity="0.0"
     inkscape:pagecheckerboard="true"
     showgrid="false"
     inkscape:zoom="1"
     inkscape:cx="29"
     inkscape:cy="33"
     inkscape:window-width="1920"
     inkscape:window-height="1002"
     inkscape:window-x="0"
     inkscape:window-y="0"
     inkscape:window-maximized="1"
     inkscape:current-layer="svg28" />
  <defs
     id="defs8">
    <filter
       id="b"
       x="-0.032928571"
       y="-0.032928571"
       width="1.0658571"
       height="1.0658571"
       color-interpolation-filters="sRGB">
      <feGaussianBlur
         stdDeviation="4.48"
         id="feGaussianBlur2" />
    </filter>
    <filter
       id="a"
       x="-0.024"
       y="-0.024"
       width="1.048"
       height="1.048"
       color-interpolation-filters="sRGB">
      <feGaussianBlur
         stdDeviation="4.48"
         id="feGaussianBlur5" />
    </filter>
  </defs>
  <circle
     style="fill:#ffb300;fill-opacity:1;stroke-width:1.41633;stroke-linecap:round;stroke-linejoin:round;stroke-dasharray:16.996, 1.41633"
     id="path848"
     cx="32"
     cy="32"
     r="28" />
  <path
     id="rect1480"
     style="fill:#ffffff;fill-opacity:1;stroke-width:2;stroke-linecap:round;stroke-linejoin:round"
     d="M 19 16 C 17.338 16 16 17.338 16 19 L 16 45 C 16 46.662 17.338 48 19 48 L 37 48 L 48 37 L 48 19 C 48 17.338 46.662 16 45 16 L 19 16 z M 19 19 L 45 19 L 45 33 L 33 33 L 33 45 L 19 45 L 19 19 z M 36 36 L 45 36 L 36 45 L 36 36 z " />
</svg>
