<?xml version="1.0" encoding="UTF-8" standalone="no"?>
<!-- Created with Inkscape (http://www.inkscape.org/) -->

<svg
   width="64"
   height="64"
   viewBox="0 0 16.933333 16.933334"
   version="1.1"
   id="svg828"
   sodipodi:docname="info.svg"
   inkscape:version="1.1.1 (3bf5ae0d25, 2021-09-20, custom)"
   xmlns:inkscape="http://www.inkscape.org/namespaces/inkscape"
   xmlns:sodipodi="http://sodipodi.sourceforge.net/DTD/sodipodi-0.dtd"
   xmlns="http://www.w3.org/2000/svg"
   xmlns:svg="http://www.w3.org/2000/svg">
  <sodipodi:namedview
     id="namedview830"
     pagecolor="#ffffff"
     bordercolor="#666666"
     borderopacity="1.0"
     inkscape:pageshadow="2"
     inkscape:pageopacity="0.0"
     inkscape:pagecheckerboard="0"
     inkscape:document-units="px"
     showgrid="false"
     units="px"
     height="64px"
     inkscape:zoom="4"
     inkscape:cx="-6"
     inkscape:cy="53"
     inkscape:window-width="1920"
     inkscape:window-height="1002"
     inkscape:window-x="0"
     inkscape:window-y="0"
     inkscape:window-maximized="1"
     inkscape:current-layer="svg828" />
  <defs
     id="defs825" />
  <circle
     style="fill:#90a4ae;fill-opacity:1;stroke-width:0.576115;stroke-linecap:round;stroke-linejoin:round;stroke-dasharray:6.91338, 0.576115"
     id="path911"
     cx="8.4666662"
     cy="8.4666672"
     r="7.4083333" />
  <path
     id="path4615"
     style="fill:#ffffff;fill-opacity:1;stroke-width:2;stroke-linecap:round;stroke-linejoin:round"
     d="M 32 14 A 17.999999 17.999999 0 0 0 14 32 A 17.999999 17.999999 0 0 0 32 50 A 17.999999 17.999999 0 0 0 50 32 A 17.999999 17.999999 0 0 0 32 14 z M 32 17 A 15 15 0 0 1 47 32 A 15 15 0 0 1 32 47 A 15 15 0 0 1 17 32 A 15 15 0 0 1 32 17 z M 32 22 A 2.0000001 2.0000001 0 0 0 30 24 A 2.0000001 2.0000001 0 0 0 32 26 A 2.0000001 2.0000001 0 0 0 34 24 A 2.0000001 2.0000001 0 0 0 32 22 z M 30 30 L 30 42 L 34 42 L 34 30 L 30 30 z "
     transform="scale(0.26458334)" />
</svg>
