<?xml version="1.0" encoding="UTF-8" standalone="no"?>
<svg
   width="64"
   height="64"
   enable-background="new"
   version="1.0"
   id="svg28"
   sodipodi:docname="network-wireless.svg"
   inkscape:version="1.1.1 (3bf5ae0d25, 2021-09-20, custom)"
   xmlns:inkscape="http://www.inkscape.org/namespaces/inkscape"
   xmlns:sodipodi="http://sodipodi.sourceforge.net/DTD/sodipodi-0.dtd"
   xmlns="http://www.w3.org/2000/svg"
   xmlns:svg="http://www.w3.org/2000/svg">
  <sodipodi:namedview
     id="namedview30"
     pagecolor="#ffffff"
     bordercolor="#666666"
     borderopacity="1.0"
     inkscape:pageshadow="2"
     inkscape:pageopacity="0.0"
     inkscape:pagecheckerboard="0"
     showgrid="false"
     inkscape:zoom="1"
     inkscape:cx="31"
     inkscape:cy="53"
     inkscape:window-width="1920"
     inkscape:window-height="1002"
     inkscape:window-x="0"
     inkscape:window-y="0"
     inkscape:window-maximized="1"
     inkscape:current-layer="svg28" />
  <defs
     id="defs8">
    <filter
       id="b"
       x="-0.032928571"
       y="-0.032928571"
       width="1.0658571"
       height="1.0658571"
       color-interpolation-filters="sRGB">
      <feGaussianBlur
         stdDeviation="4.48"
         id="feGaussianBlur2" />
    </filter>
    <filter
       id="a"
       x="-0.024"
       y="-0.024"
       width="1.048"
       height="1.048"
       color-interpolation-filters="sRGB">
      <feGaussianBlur
         stdDeviation="4.48"
         id="feGaussianBlur5" />
    </filter>
  </defs>
  <circle
     style="fill:#5e92f3;fill-opacity:1;stroke-width:1.41633;stroke-linecap:round;stroke-linejoin:round;stroke-dasharray:16.996, 1.41633"
     id="path848"
     cx="32"
     cy="32"
     r="28" />
  <path
     id="path850"
     style="fill:#ffffff;stroke-width:1.71428;stroke-linecap:round;stroke-linejoin:round"
     d="M 32 20 A 24 24 0 0 0 16.201172 25.943359 L 18.566406 28.646484 A 22 22 0 0 1 32 24 A 22 22 0 0 1 45.464844 28.611328 L 47.798828 25.943359 A 24 24 0 0 0 32 20 z M 32 28 A 18 18 0 0 0 21.207031 31.666016 L 23.835938 34.669922 A 14 14 0 0 1 32 32 A 14 14 0 0 1 40.185547 34.646484 L 42.826172 31.628906 A 18 18 0 0 0 32 28 z M 32 36 A 12 12 0 0 0 26.306641 37.492188 L 32 44 L 37.722656 37.460938 A 12 12 0 0 0 32 36 z " />
</svg>
