<?xml version="1.0" encoding="UTF-8" standalone="no"?>
<svg
   width="64"
   height="64"
   enable-background="new"
   version="1.0"
   id="svg28"
   sodipodi:docname="accessibility.svg"
   inkscape:version="1.1.1 (3bf5ae0d25, 2021-09-20, custom)"
   xmlns:inkscape="http://www.inkscape.org/namespaces/inkscape"
   xmlns:sodipodi="http://sodipodi.sourceforge.net/DTD/sodipodi-0.dtd"
   xmlns="http://www.w3.org/2000/svg"
   xmlns:svg="http://www.w3.org/2000/svg">
  <sodipodi:namedview
     id="namedview30"
     pagecolor="#ffffff"
     bordercolor="#666666"
     borderopacity="1.0"
     inkscape:pageshadow="2"
     inkscape:pageopacity="0.0"
     inkscape:pagecheckerboard="0"
     showgrid="false"
     inkscape:zoom="1"
     inkscape:cx="-40"
     inkscape:cy="110.5"
     inkscape:window-width="1920"
     inkscape:window-height="996"
     inkscape:window-x="0"
     inkscape:window-y="0"
     inkscape:window-maximized="1"
     inkscape:current-layer="svg28"
     showguides="false" />
  <defs
     id="defs8">
    <filter
       id="b"
       x="-0.032928571"
       y="-0.032928571"
       width="1.0658571"
       height="1.0658571"
       color-interpolation-filters="sRGB">
      <feGaussianBlur
         stdDeviation="4.48"
         id="feGaussianBlur2" />
    </filter>
    <filter
       id="a"
       x="-0.024"
       y="-0.024"
       width="1.048"
       height="1.048"
       color-interpolation-filters="sRGB">
      <feGaussianBlur
         stdDeviation="4.48"
         id="feGaussianBlur5" />
    </filter>
  </defs>
  <circle
     style="fill:#7b1fa2;fill-opacity:1;stroke-width:1.41633;stroke-linecap:round;stroke-linejoin:round;stroke-dasharray:16.996, 1.41633"
     id="path848"
     cx="32"
     cy="32"
     r="28" />
  <path
     id="path1020"
     style="opacity:1;fill:#ffffff;fill-opacity:1;stroke-width:2.66667;stroke-linecap:round;stroke-linejoin:round"
     d="m 32,13 c -2.209139,0 -4,1.790861 -4,4 0,2.209139 1.790861,4 4,4 2.209139,0 4,-1.790861 4,-4 0,-2.209139 -1.790861,-4 -4,-4 z m -10.849609,8.035156 -1.185547,2.736328 C 22.556807,24.736416 25.254007,25.39072 28,25.720703 V 44 h 3 v -8 h 2 v 8 h 3 V 25.720703 c 2.745993,-0.329983 5.443193,-0.984287 8.035156,-1.949219 L 42.849609,21.035156 C 39.374,22.31293 35.702981,22.977745 32,23 28.297019,22.977745 24.626,22.31293 21.150391,21.035156 Z"
     sodipodi:nodetypes="ssssscccccccccccccc" />
  <rect
     style="opacity:1;fill:#ffffff;fill-opacity:1;stroke-width:1.33334;stroke-linecap:round;stroke-linejoin:round"
     id="rect2508"
     width="4"
     height="4"
     x="30"
     y="47" />
  <rect
     style="opacity:1;fill:#ffffff;fill-opacity:1;stroke-width:1.33333;stroke-linecap:round;stroke-linejoin:round"
     id="rect2612"
     width="4"
     height="4"
     x="22"
     y="47" />
  <rect
     style="opacity:1;fill:#ffffff;fill-opacity:1;stroke-width:1.6;stroke-linecap:round;stroke-linejoin:round"
     id="rect2796"
     width="4"
     height="4"
     x="38"
     y="47" />
</svg>
