<?xml version="1.0" encoding="UTF-8" standalone="no"?>
<!-- Created with Inkscape (http://www.inkscape.org/) -->

<svg
   width="64"
   height="64"
   viewBox="0 0 16.933333 16.933334"
   version="1.1"
   id="svg5"
   inkscape:version="1.1.1 (3bf5ae0d25, 2021-09-20, custom)"
   sodipodi:docname="preferences-system-search.svg"
   xmlns:inkscape="http://www.inkscape.org/namespaces/inkscape"
   xmlns:sodipodi="http://sodipodi.sourceforge.net/DTD/sodipodi-0.dtd"
   xmlns="http://www.w3.org/2000/svg"
   xmlns:svg="http://www.w3.org/2000/svg">
  <sodipodi:namedview
     id="namedview7"
     pagecolor="#ffffff"
     bordercolor="#666666"
     borderopacity="1.0"
     inkscape:pageshadow="2"
     inkscape:pageopacity="0.0"
     inkscape:pagecheckerboard="0"
     inkscape:document-units="px"
     showgrid="false"
     units="px"
     height="64px"
     inkscape:zoom="4"
     inkscape:cx="49.5"
     inkscape:cy="56.5"
     inkscape:window-width="1920"
     inkscape:window-height="1002"
     inkscape:window-x="0"
     inkscape:window-y="0"
     inkscape:window-maximized="1"
     inkscape:current-layer="svg5" />
  <defs
     id="defs2" />
  <circle
     style="fill:#0091ea;stroke-width:0.529167;stroke-linecap:round;stroke-linejoin:round;fill-opacity:1"
     id="path1168"
     cx="8.4666662"
     cy="8.4666662"
     r="7.4083333" />
  <path
     id="path1014"
     style="fill:#ffffff;fill-opacity:1;stroke-width:0.507119;stroke-linecap:round;stroke-linejoin:round"
     d="m 4.8599387,4.8599386 c 1.1882515,-1.1882514 3.1147877,-1.1882514 4.3030392,0 C 10.241239,5.9399214 10.352661,7.65159 9.4235134,8.8622477 L 10.721132,10.159867 10.908221,9.9727776 12.688317,11.752874 11.752873,12.688318 9.9727776,10.908222 10.159866,10.721132 8.8622474,9.4235139 C 7.6515897,10.352662 5.9399214,10.241238 4.8599387,9.1629781 c -1.1882516,-1.1882515 -1.1882516,-3.114788 0,-4.3030395 z m 0.561266,0.5612661 c -0.8782728,0.8782729 -0.8782728,2.3022345 0,3.1805074 0.8782728,0.8782726 2.3022343,0.8782726 3.1805071,0 0.8782728,-0.8782729 0.8782728,-2.3022345 0,-3.1805074 -0.8782728,-0.8782726 -2.3022343,-0.8782726 -3.1805071,0 z"
     sodipodi:nodetypes="sccccccccccssssss" />
</svg>
