<?xml version="1.0" encoding="UTF-8" standalone="no"?>
<svg
   width="64"
   height="64"
   enable-background="new"
   version="1.0"
   id="svg47"
   sodipodi:docname="preferences-desktop-display-color.svg"
   inkscape:version="1.1.1 (3bf5ae0d25, 2021-09-20, custom)"
   xmlns:inkscape="http://www.inkscape.org/namespaces/inkscape"
   xmlns:sodipodi="http://sodipodi.sourceforge.net/DTD/sodipodi-0.dtd"
   xmlns="http://www.w3.org/2000/svg"
   xmlns:svg="http://www.w3.org/2000/svg">
  <sodipodi:namedview
     id="namedview49"
     pagecolor="#ffffff"
     bordercolor="#666666"
     borderopacity="1.0"
     inkscape:pageshadow="2"
     inkscape:pageopacity="0.0"
     inkscape:pagecheckerboard="0"
     showgrid="false"
     inkscape:zoom="12.265625"
     inkscape:cx="31.959236"
     inkscape:cy="32"
     inkscape:window-width="1920"
     inkscape:window-height="1012"
     inkscape:window-x="0"
     inkscape:window-y="0"
     inkscape:window-maximized="1"
     inkscape:current-layer="svg47" />
  <defs
     id="defs5">
    <filter
       id="a"
       x="-0.012"
       y="-0.012"
       width="1.024"
       height="1.024"
       color-interpolation-filters="sRGB">
      <feGaussianBlur
         stdDeviation="2.24"
         id="feGaussianBlur2" />
    </filter>
  </defs>
  <g
     stroke-width="11.19"
     id="g35"
     transform="matrix(0.12499833,0,0,0.12499833,5.344e-5,0.00124467)">
    <path
       d="m 414.23,97.773 c -1.5906,1.5905 65.754,158.25 65.754,158.25 l -65.754,158.25 c 0,0 -158.25,-83.651 -158.25,-158.25 0,-74.598 158.25,-158.25 158.25,-158.25 z"
       fill="#4caf50"
       id="path11" />
    <path
       d="M 97.773,414.23 C 99.3634,412.6394 32.019,255.98 32.019,255.98 L 97.773,97.73 c 0,0 158.25,83.651 158.25,158.25 0,74.598 -158.25,158.25 -158.25,158.25 z"
       fill="#f44336"
       id="path13" />
    <path
       d="m 97.773,414.23 158.25,65.55 c 0,0 156.66,-67.14 158.25,-65.55 L 256.023,255.98 Z"
       fill="#673ab7"
       id="path15" />
    <path
       d="M 414.23,97.773 C 412.6396,99.3635 255.98,32.019 255.98,32.019 L 97.73,97.773 255.98,256.023 Z"
       fill="#ffeb3b"
       id="path17" />
    <path
       d="m 256.04,32 c -0.0444,57.266 21.872,114.55 65.752,158.43 L 414.64,97.582 C 374.153,57.038 318.127,32.016 256.04,32.004 Z"
       fill="#cddc39"
       id="path19" />
    <path
       d="m 414.64,97.578 -92.848,92.848 c 43.822,43.823 101.01,65.741 158.2,65.754 4e-5,-0.0601 0.002,-0.11961 0.002,-0.17969 0,-61.991 -24.933,-117.94 -65.355,-158.42 z"
       fill="#8bc34a"
       id="path21" />
    <path
       d="m 321.57,321.8 c -43.822,43.822 -65.741,101.01 -65.754,158.2 0.0601,4e-5 0.11961,0.002 0.17969,0.002 61.991,0 117.94,-24.933 158.42,-65.355 l -92.848,-92.848 z"
       fill="#3f51b5"
       id="path23" />
    <path
       d="m 479.83,256.04 c -57.208,0 -114.42,21.918 -158.25,65.754 l 92.848,92.848 c 40.544,-40.487 65.566,-96.513 65.578,-158.6 -0.058,-4e-5 -0.11587,-0.002 -0.17383,-0.002 z"
       fill="#009688"
       id="path25" />
    <path
       d="m 190.43,321.57 -92.961,92.961 c 40.488,40.488 96.487,65.465 158.54,65.465 0.0594,0 0.11832,-0.002 0.17773,-0.002 0.0439,-57.265 -21.873,-114.54 -65.752,-158.42 z"
       fill="#9c27b0"
       id="path27" />
    <path
       d="m 32.174,255.82 c -0.05731,0 -0.11456,0.002 -0.17188,0.002 -4.6e-5,0.0594 -0.002,0.1183 -0.002,0.17773 0,62.048 24.977,118.05 65.465,158.54 l 92.961,-92.961 c -43.835,-43.835 -101.04,-65.754 -158.25,-65.754 z"
       fill="#e91e63"
       id="path29" />
    <path
       d="M 256,32 C 194.009,32 138.06,56.932 97.58,97.354 l 93.072,93.072 c 43.878,-43.879 65.793,-101.16 65.75,-158.42 -0.13383,-2.32e-4 -0.2665,-0.0059 -0.40039,-0.0059 z"
       fill="#f9ce1d"
       id="path31" />
    <path
       d="M 97.578,97.354 C 57.024,137.851 32,193.895 32,256.004 c 0,0.0588 0.0019,0.11702 0.002,0.17578 57.34,0.1015 114.71,-21.813 158.65,-65.75 L 97.58,97.35778 Z"
       fill="#ff5722"
       id="path33" />
  </g>
  <g
     fill="#ffffff"
     id="g43"
     transform="matrix(0.12499833,0,0,0.12499833,5.344e-5,0.00124467)">
    <path
       d="m 256,96 c 88.365,0 160,71.635 160,160 0,88.365 -71.635,160 -160,160 C 167.635,416 96,344.365 96,256 96,167.635 167.635,96 256,96 Z"
       opacity="0.2"
       stroke-width="16"
       id="path37" />
    <circle
       cx="256"
       cy="256"
       r="93"
       opacity="0.2"
       stroke-width="16"
       id="circle39" />
    <path
       d="M 256,32 C 131.9,32 32,131.904 32,256 c 0,0.23298 0.0112,0.46332 0.0156,0.69531 0.69904,-123.49 100.32,-222.7 223.98,-222.7 123.67,0 223.3,99.216 223.98,222.71 0.005,-0.23848 0.0156,-0.47532 0.0156,-0.71484 0,-124.1 -99.904,-224 -224,-224 z"
       opacity="0.2"
       id="path41" />
  </g>
  <path
     id="rect1701"
     style="fill:#ffffff;fill-opacity:1;stroke-width:2.15384;stroke-linecap:round;stroke-linejoin:round"
     d="M 31.999828,12.201 26.201,17.999828 H 17.999828 V 26.201 l -5.798828,5.798828 5.798828,5.798828 v 8.201172 H 26.201 l 5.798828,5.798828 5.798828,-5.798828 h 8.201172 V 37.798656 L 51.798656,31.999828 45.999828,26.201 v -8.201172 h -8.201172 z m 0,4.242187 4.556641,4.556641 h 6.443359 v 6.443359 l 4.556641,4.556641 -4.556641,4.556641 v 6.443359 h -6.443359 l -4.556641,4.556641 -4.556641,-4.556641 h -6.443359 v -6.443359 l -4.556641,-4.556641 4.556641,-4.556641 v -6.443359 h 6.443359 z m 0,5.556641 v 20 c 5.522848,0 10,-4.477152 10,-10 0,-5.522848 -4.477152,-10 -10,-10 z" />
</svg>
