<?xml version="1.0" encoding="UTF-8" standalone="no"?>
<!-- Created with Inkscape (http://www.inkscape.org/) -->

<svg
   width="64"
   height="64"
   viewBox="0 0 16.933333 16.933334"
   version="1.1"
   id="svg5"
   inkscape:version="1.1.1 (3bf5ae0d25, 2021-09-20, custom)"
   sodipodi:docname="preferences-language-locale.svg"
   xmlns:inkscape="http://www.inkscape.org/namespaces/inkscape"
   xmlns:sodipodi="http://sodipodi.sourceforge.net/DTD/sodipodi-0.dtd"
   xmlns="http://www.w3.org/2000/svg"
   xmlns:svg="http://www.w3.org/2000/svg">
  <sodipodi:namedview
     id="namedview7"
     pagecolor="#ffffff"
     bordercolor="#666666"
     borderopacity="1.0"
     inkscape:pageshadow="2"
     inkscape:pageopacity="0.0"
     inkscape:pagecheckerboard="0"
     inkscape:document-units="px"
     showgrid="false"
     units="px"
     height="64px"
     inkscape:zoom="4"
     inkscape:cx="20.5"
     inkscape:cy="61.75"
     inkscape:window-width="1920"
     inkscape:window-height="1002"
     inkscape:window-x="0"
     inkscape:window-y="0"
     inkscape:window-maximized="1"
     inkscape:current-layer="svg5" />
  <defs
     id="defs2" />
  <circle
     style="fill:#64b5f6;stroke-width:0.529167;stroke-linecap:round;stroke-linejoin:round;fill-opacity:1"
     id="path1168"
     cx="8.4666662"
     cy="8.4666662"
     r="7.4083333" />
  <path
     id="path1032"
     style="fill:#ffffff;fill-opacity:1;stroke-width:2;stroke-linecap:round;stroke-linejoin:round"
     d="M 32 14 C 31.132378 14 30.280082 14.064618 29.445312 14.183594 C 29.442764 14.183957 29.440048 14.183229 29.4375 14.183594 A 17.999999 17.999999 0 0 0 29.425781 14.185547 C 28.57627 14.30757 27.746367 14.490335 26.939453 14.726562 A 17.999999 17.999999 0 0 0 26.921875 14.732422 C 26.565436 14.837171 26.212137 14.948462 25.865234 15.074219 C 25.896208 15.078991 25.927929 15.086834 25.958984 15.091797 A 17.999999 17.999999 0 0 0 15.412109 25.101562 C 15.175285 25.667179 14.969741 26.247284 14.791016 26.837891 A 17.999999 17.999999 0 0 0 14.607422 27.482422 C 14.562329 27.654367 14.516628 27.826319 14.476562 28 L 14.5 28 A 17.999999 17.999999 0 0 0 14 32 A 17.999999 17.999999 0 0 0 14.513672 36 L 14.474609 36 C 14.557051 36.357191 14.653814 36.709206 14.757812 37.058594 A 17.999999 17.999999 0 0 0 14.894531 37.503906 C 15.060151 38.011436 15.246701 38.510952 15.455078 39 L 15.484375 39 A 17.999999 17.999999 0 0 0 25.466797 48.724609 C 25.435881 48.727146 25.403866 48.73198 25.373047 48.734375 C 25.874599 48.933185 26.387925 49.109336 26.910156 49.263672 A 17.999999 17.999999 0 0 0 26.939453 49.273438 C 26.941431 49.274018 26.943334 49.27481 26.945312 49.275391 C 27.753864 49.51253 28.586249 49.693975 29.4375 49.816406 C 30.274568 49.936798 31.129408 50 32 50 C 32.285371 50 32.569438 49.991662 32.851562 49.978516 A 17.999999 17.999999 0 0 0 33.070312 49.964844 C 33.280854 49.952482 33.490683 49.937511 33.699219 49.917969 A 17.999999 17.999999 0 0 0 33.916016 49.894531 C 34.149054 49.869845 34.381029 49.842089 34.611328 49.808594 C 34.621081 49.807175 34.630877 49.806122 34.640625 49.804688 A 17.999999 17.999999 0 0 0 34.695312 49.794922 C 34.94691 49.757111 35.197238 49.714128 35.445312 49.666016 A 17.999999 17.999999 0 0 0 35.582031 49.638672 C 35.838324 49.586892 36.09153 49.529336 36.34375 49.466797 C 36.353426 49.464398 36.363377 49.463352 36.373047 49.460938 A 17.999999 17.999999 0 0 0 36.390625 49.455078 C 36.985013 49.305987 37.569394 49.132286 38.138672 48.925781 C 38.134192 48.925092 38.129481 48.924521 38.125 48.923828 A 17.999999 17.999999 0 0 0 48.572266 39 L 48.59375 39 C 49.001223 38.036181 49.324974 37.032768 49.560547 36 L 49.509766 36 A 17.999999 17.999999 0 0 0 50 32 A 17.999999 17.999999 0 0 0 49.496094 28 L 49.5625 28 C 49.326946 26.967394 49.001389 25.964238 48.59375 25 L 48.533203 25 A 17.999999 17.999999 0 0 0 38.613281 15.265625 C 38.617798 15.265273 38.622439 15.264021 38.626953 15.263672 C 38.503222 15.214632 38.376997 15.171383 38.251953 15.125 A 17.999999 17.999999 0 0 0 37.982422 15.025391 C 37.779374 14.953742 37.573471 14.886808 37.367188 14.822266 A 17.999999 17.999999 0 0 0 37.1875 14.765625 C 36.947387 14.693255 36.705139 14.626982 36.460938 14.564453 C 36.431332 14.556873 36.40271 14.546497 36.373047 14.539062 A 17.999999 17.999999 0 0 0 36.353516 14.535156 C 36.077983 14.466432 35.799909 14.403526 35.519531 14.347656 C 35.516894 14.347131 35.514356 14.346227 35.511719 14.345703 A 17.999999 17.999999 0 0 0 35.509766 14.345703 C 35.222531 14.288633 34.93261 14.238512 34.640625 14.195312 C 34.449131 14.166981 34.255918 14.145275 34.0625 14.123047 A 17.999999 17.999999 0 0 0 33.734375 14.083984 C 33.452228 14.056822 33.168656 14.035388 32.882812 14.021484 A 17.999999 17.999999 0 0 0 32.873047 14.021484 C 32.583903 14.007577 32.292624 14 32 14 z M 32.007812 17.316406 C 34.514486 18.898991 36.449182 21.822617 37.642578 25 L 26.363281 25 C 27.559653 21.821564 29.497247 18.897129 32.007812 17.316406 z M 37.201172 17.935547 A 15 15 0 0 1 45.232422 25 L 40.849609 25 C 40.031534 22.40938 38.798195 19.907672 37.201172 17.935547 z M 26.763672 17.982422 C 25.184266 19.946553 23.964236 22.429973 23.152344 25 L 18.787109 25 A 15 15 0 0 1 26.763672 17.982422 z M 17.583984 28 L 22.398438 28 C 22.139857 29.377196 22.000538 30.733381 22 32 C 22.000526 33.266619 22.139859 34.622804 22.398438 36 L 17.583984 36 A 15 15 0 0 1 17 32 A 15 15 0 0 1 17.583984 28 z M 25.46875 28 L 38.535156 28 C 38.838971 29.375879 38.999995 30.737656 39 32 C 38.999252 33.262379 38.837738 34.624271 38.533203 36 L 25.466797 36 C 25.162262 34.624271 25.000748 33.262379 25 32 C 25.000833 30.737481 25.164077 29.37567 25.46875 28 z M 41.601562 28 L 46.423828 28 A 15 15 0 0 1 47 32 A 15 15 0 0 1 46.416016 36 L 41.603516 36 C 41.861776 34.622768 41.999922 33.266527 42 32 C 41.999922 30.732936 41.860136 29.377684 41.601562 28 z M 18.787109 39 L 23.152344 39 C 23.96424 41.570027 25.18426 44.053447 26.763672 46.017578 A 15 15 0 0 1 18.787109 39 z M 26.361328 39 L 37.638672 39 C 36.443673 42.176734 34.507716 45.098601 32 46.679688 C 29.492284 45.098601 27.556327 42.176734 26.361328 39 z M 40.851562 39 L 45.212891 39 A 15 15 0 0 1 37.244141 46.013672 C 38.821049 44.049393 40.040916 41.568578 40.851562 39 z "
     transform="scale(0.26458334)" />
</svg>
