<?xml version="1.0" encoding="UTF-8" standalone="no"?>
<!-- Created with Inkscape (http://www.inkscape.org/) -->

<svg
   width="64"
   height="64"
   viewBox="0 0 16.933333 16.933334"
   version="1.1"
   id="svg828"
   sodipodi:docname="thunderbolt.svg"
   inkscape:version="1.1.1 (3bf5ae0d25, 2021-09-20, custom)"
   xmlns:inkscape="http://www.inkscape.org/namespaces/inkscape"
   xmlns:sodipodi="http://sodipodi.sourceforge.net/DTD/sodipodi-0.dtd"
   xmlns="http://www.w3.org/2000/svg"
   xmlns:svg="http://www.w3.org/2000/svg">
  <sodipodi:namedview
     id="namedview830"
     pagecolor="#ffffff"
     bordercolor="#666666"
     borderopacity="1.0"
     inkscape:pageshadow="2"
     inkscape:pageopacity="0.0"
     inkscape:pagecheckerboard="0"
     inkscape:document-units="px"
     showgrid="false"
     units="px"
     height="64px"
     inkscape:zoom="1"
     inkscape:cx="-63"
     inkscape:cy="18"
     inkscape:window-width="1920"
     inkscape:window-height="1002"
     inkscape:window-x="0"
     inkscape:window-y="0"
     inkscape:window-maximized="1"
     inkscape:current-layer="svg828" />
  <defs
     id="defs825" />
  <circle
     style="fill:#1774c6;fill-opacity:1;stroke-width:0.576115;stroke-linecap:round;stroke-linejoin:round;stroke-dasharray:6.91338, 0.576115"
     id="path911"
     cx="8.4666662"
     cy="8.4666672"
     r="7.4083333" />
  <path
     id="path4615"
     style="fill:#ffffff;fill-opacity:1;stroke-width:2;stroke-linecap:round;stroke-linejoin:round"
     d="m 32,14 c -9.941126,-10e-7 -18.000001,8.058874 -18,18 -10e-7,9.941126 8.058874,18.000001 18,18 9.941126,10e-7 18.000001,-8.058874 18,-18 10e-7,-9.941126 -8.058874,-18.000001 -18,-18 z M 29.662109,17.181641 24,32 h 7.501 L 30,38 l -2,-2 1,8 6,-5 H 32 L 38,28 H 31.142578 L 35.589844,17.435547 C 42.139793,19.044879 47,24.95359 47,32 47,40.284271 40.284271,47 32,47 23.715729,47 17,40.284271 17,32 17,24.510888 22.488075,18.304236 29.662109,17.181641 Z"
     transform="scale(0.26458334)"
     sodipodi:nodetypes="ssssscccccccccccsssc" />
</svg>
