<?xml version="1.0" encoding="UTF-8" standalone="no"?>
<svg
   width="64"
   height="64"
   enable-background="new"
   version="1.0"
   id="svg47"
   sodipodi:docname="preferences-ubuntu-panel.svg"
   inkscape:version="1.1.1 (3bf5ae0d25, 2021-09-20, custom)"
   xmlns:inkscape="http://www.inkscape.org/namespaces/inkscape"
   xmlns:sodipodi="http://sodipodi.sourceforge.net/DTD/sodipodi-0.dtd"
   xmlns="http://www.w3.org/2000/svg"
   xmlns:svg="http://www.w3.org/2000/svg">
  <sodipodi:namedview
     id="namedview49"
     pagecolor="#ffffff"
     bordercolor="#666666"
     borderopacity="1.0"
     inkscape:pageshadow="2"
     inkscape:pageopacity="0.0"
     inkscape:pagecheckerboard="0"
     showgrid="false"
     inkscape:zoom="4.3365533"
     inkscape:cx="17.294841"
     inkscape:cy="50.270338"
     inkscape:window-width="1920"
     inkscape:window-height="1002"
     inkscape:window-x="0"
     inkscape:window-y="0"
     inkscape:window-maximized="1"
     inkscape:current-layer="svg47" />
  <defs
     id="defs5">
    <filter
       id="a"
       x="-0.032333333"
       y="-0.032333333"
       width="1.0646667"
       height="1.0646667"
       color-interpolation-filters="sRGB">
      <feGaussianBlur
         stdDeviation="4.8"
         id="feGaussianBlur2" />
    </filter>
  </defs>
  <circle
     cx="32"
     cy="32"
     r="28"
     enable-background="new"
     id="circle37"
     style="stroke-width:0.116666;fill:#843e64;fill-opacity:1" />
  <path
     id="rect1220"
     style="fill:#ffffff;fill-opacity:1;stroke-width:2;stroke-linecap:round;stroke-linejoin:round"
     d="M 18 19 C 16.892 19 16 19.892 16 21 L 16 44 C 16 45.108 16.892 46 18 46 L 46 46 C 47.108 46 48 45.108 48 44 L 48 21 C 48 19.892 47.108 19 46 19 L 18 19 z M 19 22 L 24 22 L 24 27 L 19 27 L 19 22 z M 27 22 L 45 22 L 45 43 L 27 43 L 27 22 z M 19 30 L 24 30 L 24 35 L 19 35 L 19 30 z M 19 38 L 24 38 L 24 43 L 19 43 L 19 38 z " />
</svg>
