<?xml version="1.0" encoding="UTF-8" standalone="no"?>
<svg
   width="64"
   height="64"
   enable-background="new"
   version="1.0"
   id="svg28"
   sodipodi:docname="preferences-plugin.svg"
   inkscape:version="1.1.1 (3bf5ae0d25, 2021-09-20, custom)"
   xmlns:inkscape="http://www.inkscape.org/namespaces/inkscape"
   xmlns:sodipodi="http://sodipodi.sourceforge.net/DTD/sodipodi-0.dtd"
   xmlns="http://www.w3.org/2000/svg"
   xmlns:svg="http://www.w3.org/2000/svg">
  <sodipodi:namedview
     id="namedview30"
     pagecolor="#ffffff"
     bordercolor="#666666"
     borderopacity="1.0"
     inkscape:pageshadow="2"
     inkscape:pageopacity="0.0"
     inkscape:pagecheckerboard="0"
     showgrid="false"
     inkscape:zoom="8.7173008"
     inkscape:cx="13.651015"
     inkscape:cy="34.815823"
     inkscape:window-width="1920"
     inkscape:window-height="1019"
     inkscape:window-x="0"
     inkscape:window-y="0"
     inkscape:window-maximized="1"
     inkscape:current-layer="svg28" />
  <defs
     id="defs8">
    <filter
       id="b"
       x="-0.032928571"
       y="-0.032928571"
       width="1.0658571"
       height="1.0658571"
       color-interpolation-filters="sRGB">
      <feGaussianBlur
         stdDeviation="4.48"
         id="feGaussianBlur2" />
    </filter>
    <filter
       id="a"
       x="-0.024"
       y="-0.024"
       width="1.048"
       height="1.048"
       color-interpolation-filters="sRGB">
      <feGaussianBlur
         stdDeviation="4.48"
         id="feGaussianBlur5" />
    </filter>
  </defs>
  <circle
     style="fill:#9ccc65;fill-opacity:1;stroke-width:1.41633;stroke-linecap:round;stroke-linejoin:round;stroke-dasharray:16.996, 1.41633"
     id="path848"
     cx="32"
     cy="32"
     r="28" />
  <path
     id="rect1220"
     style="fill:#ffffff;fill-opacity:1;stroke-width:2;stroke-linecap:round;stroke-linejoin:round"
     d="m 31,15 c -3.313708,0 -6,2.686292 -6,6 0.0052,0.68225 0.126743,1.358615 0.359375,2 H 22 21 c -1.108,0 -2,0.892 -2,2 v 20 c 0,1.108 0.892,2 2,2 h 20 c 1.108,0 2,-0.892 2,-2 v -1 -3.359375 c 0.641385,0.232632 1.31775,0.354166 2,0.359375 3.313708,0 6,-2.686292 6,-6 0,-3.313708 -2.686292,-6 -6,-6 -0.68225,0.0052 -1.358615,0.126743 -2,0.359375 V 26 25 c 0,-1.108 -0.892,-2 -2,-2 H 40 36.640625 C 36.873257,22.358615 36.994791,21.68225 37,21 37,17.686292 34.313708,15 31,15 Z m 0,3 c 1.656854,0 3,1.343146 3,3 -0.03428,1.712091 -0.779297,2.360122 -0.779297,4 0,0.554 0.446,1 1,1 H 36.882812 39 40 v 1 2.359375 2.419922 c 0,0.554 0.446,1 1,1 1.629875,0.02411 2.553279,-0.740473 4,-0.779297 1.656854,0 3,1.343146 3,3 0,1.656854 -1.343146,3 -3,3 -1.619753,-0.01858 -2.317888,-0.805623 -4,-0.779297 -0.554,0 -1,0.446 -1,1 V 40.640625 43 44 H 22 V 26 h 1 2.359375 2.419922 c 0.554,0 1,-0.446 1,-1 C 29.122789,23.490441 28.020511,22.469647 28,21 c 0,-1.656854 1.343146,-3 3,-3 z"
     sodipodi:nodetypes="scccsssssscccscccsscccssccscccccsccsccscccccccsccs" />
</svg>
