<?xml version="1.0" encoding="UTF-8" standalone="no"?>
<svg
   width="64"
   height="64"
   enable-background="new"
   version="1.0"
   id="svg28"
   sodipodi:docname="preferences-system-network-vpn.svg"
   inkscape:version="1.1.1 (3bf5ae0d25, 2021-09-20, custom)"
   xmlns:inkscape="http://www.inkscape.org/namespaces/inkscape"
   xmlns:sodipodi="http://sodipodi.sourceforge.net/DTD/sodipodi-0.dtd"
   xmlns="http://www.w3.org/2000/svg"
   xmlns:svg="http://www.w3.org/2000/svg">
  <sodipodi:namedview
     id="namedview30"
     pagecolor="#ffffff"
     bordercolor="#666666"
     borderopacity="1.0"
     inkscape:pageshadow="2"
     inkscape:pageopacity="0.0"
     inkscape:pagecheckerboard="0"
     showgrid="false"
     inkscape:zoom="1"
     inkscape:cx="11"
     inkscape:cy="24.5"
     inkscape:window-width="1920"
     inkscape:window-height="1019"
     inkscape:window-x="0"
     inkscape:window-y="0"
     inkscape:window-maximized="1"
     inkscape:current-layer="svg28" />
  <defs
     id="defs8">
    <filter
       id="b"
       x="-0.032928571"
       y="-0.032928571"
       width="1.0658571"
       height="1.0658571"
       color-interpolation-filters="sRGB">
      <feGaussianBlur
         stdDeviation="4.48"
         id="feGaussianBlur2" />
    </filter>
    <filter
       id="a"
       x="-0.024"
       y="-0.024"
       width="1.048"
       height="1.048"
       color-interpolation-filters="sRGB">
      <feGaussianBlur
         stdDeviation="4.48"
         id="feGaussianBlur5" />
    </filter>
  </defs>
  <circle
     style="fill:#3f51b5;fill-opacity:1;stroke-width:1.41633;stroke-linecap:round;stroke-linejoin:round;stroke-dasharray:16.996, 1.41633"
     id="path848"
     cx="32"
     cy="32"
     r="28" />
  <path
     id="path847"
     style="fill:#ffffff;stroke-width:2.125;stroke-linecap:round;stroke-linejoin:round"
     d="m 22.5,24 c -4.69442,0 -8.5,3.80558 -8.5,8.5 0,4.69442 3.80558,8.5 8.5,8.5 2.92997,-0.0028 5.651965,-1.514314 7.203125,-4 H 37 v 5 h 10 v -5 h 3 V 28 H 29.708984 C 28.15672,25.512547 25.432054,24.000731 22.5,24 Z m 0,3 c 2.459689,2.18e-4 4.620192,1.633554 5.291016,4 H 47 v 3 h -3 v 5 H 40 V 34 H 27.787109 C 27.116681,36.365052 24.95824,37.998036 22.5,38 19.462434,38 17,35.537566 17,32.5 17,29.462434 19.462434,27 22.5,27 Z m 0,3 C 21.119288,30 20,31.119288 20,32.5 20,33.880712 21.119288,35 22.5,35 23.880712,35 25,33.880712 25,32.5 25,31.119288 23.880712,30 22.5,30 Z"
     sodipodi:nodetypes="csccccccccccccccccccccscsssss" />
</svg>
