<?xml version="1.0" encoding="UTF-8" standalone="no"?>
<svg
   width="64"
   height="64"
   enable-background="new"
   version="1.0"
   id="svg28"
   sodipodi:docname="system-run.svg"
   inkscape:version="1.1.1 (3bf5ae0d25, 2021-09-20, custom)"
   xmlns:inkscape="http://www.inkscape.org/namespaces/inkscape"
   xmlns:sodipodi="http://sodipodi.sourceforge.net/DTD/sodipodi-0.dtd"
   xmlns="http://www.w3.org/2000/svg"
   xmlns:svg="http://www.w3.org/2000/svg">
  <sodipodi:namedview
     id="namedview30"
     pagecolor="#ffffff"
     bordercolor="#666666"
     borderopacity="1.0"
     inkscape:pageshadow="2"
     inkscape:pageopacity="0.0"
     inkscape:pagecheckerboard="0"
     showgrid="false"
     inkscape:zoom="6.0078125"
     inkscape:cx="31.958387"
     inkscape:cy="26.964889"
     inkscape:window-width="1920"
     inkscape:window-height="1002"
     inkscape:window-x="0"
     inkscape:window-y="0"
     inkscape:window-maximized="1"
     inkscape:current-layer="svg28" />
  <defs
     id="defs8">
    <filter
       id="b"
       x="-0.032928571"
       y="-0.032928571"
       width="1.0658571"
       height="1.0658571"
       color-interpolation-filters="sRGB">
      <feGaussianBlur
         stdDeviation="4.48"
         id="feGaussianBlur2" />
    </filter>
    <filter
       id="a"
       x="-0.024"
       y="-0.024"
       width="1.048"
       height="1.048"
       color-interpolation-filters="sRGB">
      <feGaussianBlur
         stdDeviation="4.48"
         id="feGaussianBlur5" />
    </filter>
  </defs>
  <circle
     style="fill:#808a99;fill-opacity:1;stroke-width:1.41633;stroke-linecap:round;stroke-linejoin:round;stroke-dasharray:16.996, 1.41633"
     id="path848"
     cx="32"
     cy="32"
     r="28" />
  <path
     id="rect1220"
     style="fill:#ffffff;fill-opacity:1;stroke-width:2;stroke-linecap:round;stroke-linejoin:round"
     d="M 18 18 C 16.892 18 16 18.892 16 20 L 16 44 C 16 45.108 16.892 46 18 46 L 46 46 C 47.108 46 48 45.108 48 44 L 48 20 C 48 18.892 47.108 18 46 18 L 18 18 z M 19 26 L 45 26 L 45 43 L 19 43 L 19 26 z M 27 29 L 27 40 L 37 34.5 L 27 29 z M 29 32 L 33.5 34.5 L 29 37 L 29 32 z " />
</svg>
