<?xml version="1.0" encoding="UTF-8" standalone="no"?>
<svg
   width="16"
   height="16"
   version="1.1"
   id="svg6"
   sodipodi:docname="cs-cat-hardware.svg"
   inkscape:version="1.1.1 (3bf5ae0d25, 2021-09-20, custom)"
   xmlns:inkscape="http://www.inkscape.org/namespaces/inkscape"
   xmlns:sodipodi="http://sodipodi.sourceforge.net/DTD/sodipodi-0.dtd"
   xmlns="http://www.w3.org/2000/svg"
   xmlns:svg="http://www.w3.org/2000/svg">
  <defs
     id="defs10" />
  <sodipodi:namedview
     id="namedview8"
     pagecolor="#ffffff"
     bordercolor="#666666"
     borderopacity="1.0"
     inkscape:pageshadow="2"
     inkscape:pageopacity="0.0"
     inkscape:pagecheckerboard="0"
     showgrid="false"
     inkscape:zoom="48.875"
     inkscape:cx="8"
     inkscape:cy="11.273657"
     inkscape:window-width="1920"
     inkscape:window-height="1002"
     inkscape:window-x="0"
     inkscape:window-y="0"
     inkscape:window-maximized="1"
     inkscape:current-layer="svg6" />
  <path
     id="rect1240"
     style="fill:#80cbc4;fill-opacity:1;stroke-width:2;stroke-linecap:round;stroke-linejoin:round"
     d="M 5,1 V 3 C 3.892,3 3,3.9727513 3,5 H 1 V 7 H 3 V 9 H 1 v 2 h 2 c 0,1.108 0.892,2 2,2 v 2 h 2 v -2 h 2 v 2 h 2 v -2 c 1.108,0 2,-0.612644 2,-2 h 2 V 9 H 13 V 7 h 2 V 5 H 13 C 13,3.892 12.108,3 11,3 V 1 H 9 V 3 H 7 V 1 Z m 0,4 h 6 v 6 H 5 Z"
     sodipodi:nodetypes="cccccccccccccccccccccccccccccccccccccc" />
</svg>
