<?xml version="1.0" encoding="UTF-8" standalone="no"?>
<svg
   width="16"
   height="16"
   version="1.1"
   id="svg6"
   sodipodi:docname="cs-cat-themes.svg"
   inkscape:version="1.1.1 (3bf5ae0d25, 2021-09-20, custom)"
   xmlns:inkscape="http://www.inkscape.org/namespaces/inkscape"
   xmlns:sodipodi="http://sodipodi.sourceforge.net/DTD/sodipodi-0.dtd"
   xmlns="http://www.w3.org/2000/svg"
   xmlns:svg="http://www.w3.org/2000/svg">
  <defs
     id="defs10" />
  <sodipodi:namedview
     id="namedview8"
     pagecolor="#ffffff"
     bordercolor="#666666"
     borderopacity="1.0"
     inkscape:pageshadow="2"
     inkscape:pageopacity="0.0"
     inkscape:pagecheckerboard="0"
     showgrid="false"
     inkscape:zoom="16"
     inkscape:cx="6.3125"
     inkscape:cy="11.4375"
     inkscape:window-width="1920"
     inkscape:window-height="1002"
     inkscape:window-x="0"
     inkscape:window-y="0"
     inkscape:window-maximized="1"
     inkscape:current-layer="svg6" />
  <path
     id="path923"
     style="fill:#ff768b;fill-opacity:1;stroke-width:2.0702;stroke-linecap:round;stroke-linejoin:round"
     d="m 8.0253906,0.00585938 c -4.418278,0 -7.99999997,3.58172202 -7.99999997,8.00000002 H 0.01953125 C -0.00153249,11.867526 3.1370951,16.012085 8,16 c 2.100566,-0.0052 4.010612,-0.75864 5.4375,-2 0.766061,-0.804473 0.372407,-2.019776 -0.238281,-2 h -1.40625 c -0.554,0 -1,-0.446 -1,-1 0,-0.554 0.446,-1 1,-1 h 2.943359 c 0.927378,-0.026231 1.313171,-1.1760829 1.238281,-1.9941406 0,-4.4182782 -3.53094,-8.00000026 -7.9492184,-8.00000002 z m 0,2.00000002 c 2.9112424,-2e-7 5.2990244,2.0734176 5.8360964,4.8240887 C 13.950693,7.3864349 14.116931,8 13.032965,8 h -1.239996 c -1.662,0 -3.0000004,1.338 -3.0000002,3 -3e-7,1.107483 0.5942211,2.070116 1.4824222,2.589844 C 9.5735359,13.853894 8.805705,13.993661 8,14 4.0279213,14.03125 2.0155434,10.775902 2.0253906,8.0058594 c 0,-3.3137085 2.6862915,-5.9999998 6,-6 z M 6.3496094,3.3457031 c -0.5522847,0 -1,0.4477153 -1,1 0,0.5522847 0.4477153,1 1,1 0.5522847,0 1,-0.4477153 1,-1 0,-0.5522847 -0.4477153,-1 -1,-1 z m 2.9765625,0.023437 c -0.5522847,0 -1,0.4477153 -1,1 0,0.5522847 0.4477153,1 1,1 0.5522848,1e-7 1.0000001,-0.4477152 1.0000001,-1 0,-0.5522848 -0.4477153,-1.0000001 -1.0000001,-1 z m 2.2187501,1.9472656 c -0.552285,0 -1,0.4477153 -1,1 0,0.5522847 0.447715,1 1,1 0.552285,0 1,-0.4477153 1,-1 0,-0.5522847 -0.447715,-1 -1,-1 z M 4.1679688,5.9003906 c -0.5522847,0 -1,0.4477153 -1,1 0,0.5522847 0.4477153,1 1,1 0.5522847,0 1,-0.4477153 1,-1 0,-0.5522847 -0.4477153,-1 -1,-1 z"
     sodipodi:nodetypes="scccccsssccssccsscscsssssssssssssssssssss" />
</svg>
