<?xml version="1.0" encoding="UTF-8" standalone="no"?>
<!-- Created with Inkscape (http://www.inkscape.org/) -->

<svg
   width="16"
   height="16"
   viewBox="0 0 4.2333332 4.2333335"
   version="1.1"
   id="svg5"
   inkscape:version="1.1.1 (3bf5ae0d25, 2021-09-20, custom)"
   sodipodi:docname="help-about.svg"
   xmlns:inkscape="http://www.inkscape.org/namespaces/inkscape"
   xmlns:sodipodi="http://sodipodi.sourceforge.net/DTD/sodipodi-0.dtd"
   xmlns="http://www.w3.org/2000/svg"
   xmlns:svg="http://www.w3.org/2000/svg">
  <sodipodi:namedview
     id="namedview7"
     pagecolor="#ffffff"
     bordercolor="#666666"
     borderopacity="1.0"
     inkscape:pageshadow="2"
     inkscape:pageopacity="0.0"
     inkscape:pagecheckerboard="0"
     inkscape:document-units="px"
     showgrid="false"
     units="px"
     height="16px"
     inkscape:zoom="22.627417"
     inkscape:cx="11.578874"
     inkscape:cy="11.689359"
     inkscape:window-width="1920"
     inkscape:window-height="1019"
     inkscape:window-x="0"
     inkscape:window-y="0"
     inkscape:window-maximized="1"
     inkscape:current-layer="svg5" />
  <defs
     id="defs2" />
  <path
     id="path846"
     style="fill:#90a4ae;fill-opacity:1;stroke-width:2.00912;stroke-linecap:round;stroke-linejoin:round"
     d="M 8 0 C 3.5817222 1.6568541e-07 1.6568541e-07 3.5817222 0 8 C 1.6568541e-07 12.418278 3.5817222 16 8 16 C 12.418278 16 16 12.418278 16 8 C 16 3.5817222 12.418278 1.6568541e-07 8 0 z M 8 2 C 11.313709 1.9999999 14 4.6862916 14 8 C 14 11.313709 11.313709 14 8 14 C 4.6862916 14 1.9999999 11.313709 2 8 C 1.9999999 4.6862916 4.6862916 1.9999999 8 2 z M 8 4 A 0.99999994 0.99999994 0 0 0 7 5 A 0.99999994 0.99999994 0 0 0 8 6 A 0.99999994 0.99999994 0 0 0 9 5 A 0.99999994 0.99999994 0 0 0 8 4 z M 7 7 L 7 12 L 9 12 L 9 7 L 7 7 z "
     transform="scale(0.26458333)" />
</svg>
