<?xml version="1.0" encoding="UTF-8" standalone="no"?>
<svg
   width="16"
   height="16"
   version="1.1"
   id="svg4"
   sodipodi:docname="media-optical-symbolic.svg"
   inkscape:version="1.1.1 (3bf5ae0d25, 2021-09-20)"
   xmlns:inkscape="http://www.inkscape.org/namespaces/inkscape"
   xmlns:sodipodi="http://sodipodi.sourceforge.net/DTD/sodipodi-0.dtd"
   xmlns="http://www.w3.org/2000/svg"
   xmlns:svg="http://www.w3.org/2000/svg">
  <defs
     id="defs8" />
  <sodipodi:namedview
     id="namedview6"
     pagecolor="#ffffff"
     bordercolor="#666666"
     borderopacity="1.0"
     inkscape:pageshadow="2"
     inkscape:pageopacity="0.0"
     inkscape:pagecheckerboard="0"
     showgrid="false"
     inkscape:zoom="36.460193"
     inkscape:cx="5.4717208"
     inkscape:cy="9.640651"
     inkscape:window-width="1853"
     inkscape:window-height="1012"
     inkscape:window-x="67"
     inkscape:window-y="32"
     inkscape:window-maximized="1"
     inkscape:current-layer="svg4" />
  <path
     id="path2"
     d="M 8 1 C 4.16 1 1 4.16 1 8 C 1 11.84 4.16 15 8 15 C 11.84 15 15 11.84 15 8 C 15 4.16 11.84 1 8 1 z M 8 2 C 11.29143 2 14 4.7085715 14 8 C 14 11.291429 11.29143 14 8 14 C 4.7085715 14 2 11.291429 2 8 C 2 4.7085715 4.7085715 2 8 2 z M 8 5 A 3 3 0 0 0 5 8 A 3 3 0 0 0 8 11 A 3 3 0 0 0 11 8 A 3 3 0 0 0 8 5 z M 8 6 C 9.0999998 6 10 6.9 10 8 C 10 9.1 9.0999998 10 8 10 C 6.9 10 6 9.1 6 8 C 6 6.9 6.9 6 8 6 z "
     style="fill:#555555;fill-opacity:1" />
</svg>
