<?xml version="1.0" encoding="UTF-8" standalone="no"?>
<svg
   width="16"
   height="16"
   version="1.1"
   id="svg4"
   sodipodi:docname="drive-removable-media-symbolic.svg"
   inkscape:version="1.1.1 (3bf5ae0d25, 2021-09-20)"
   xmlns:inkscape="http://www.inkscape.org/namespaces/inkscape"
   xmlns:sodipodi="http://sodipodi.sourceforge.net/DTD/sodipodi-0.dtd"
   xmlns="http://www.w3.org/2000/svg"
   xmlns:svg="http://www.w3.org/2000/svg">
  <defs
     id="defs8" />
  <sodipodi:namedview
     id="namedview6"
     pagecolor="#ffffff"
     bordercolor="#666666"
     borderopacity="1.0"
     inkscape:pageshadow="2"
     inkscape:pageopacity="0.0"
     inkscape:pagecheckerboard="0"
     showgrid="false"
     inkscape:zoom="12.890625"
     inkscape:cx="2.6763636"
     inkscape:cy="20.518788"
     inkscape:window-width="1853"
     inkscape:window-height="1012"
     inkscape:window-x="67"
     inkscape:window-y="32"
     inkscape:window-maximized="1"
     inkscape:current-layer="svg4" />
  <path
     id="path2"
     style="fill:#444444"
     d="M 1.9570312 1 C 1.765625 1.0022164 1 1.068604 1 2 L 1 14 C 1 14 0.9563533 15 2 15 L 14 15 C 15.007057 15 15 14 15 14 L 15 2 C 15 0.99650598 14 1 14 1 L 2 1 C 2 1 1.984375 0.99968337 1.9570312 1 z M 3 3 L 13 3 L 13 13 L 3 13 L 3 3 z M 8 5.25 L 5 8.75 L 11 8.75 L 8 5.25 z M 5 9.75 L 5 10.75 L 11 10.75 L 11 9.75 L 5 9.75 z " />
</svg>
