<?xml version="1.0" encoding="UTF-8" standalone="no"?>
<!-- Created with Inkscape (http://www.inkscape.org/) -->

<svg
   width="64"
   height="64"
   viewBox="0 0 16.933333 16.933333"
   version="1.1"
   id="svg5"
   inkscape:version="1.1.1 (3bf5ae0d25, 2021-09-20, custom)"
   sodipodi:docname="dialog-password.svg"
   xmlns:inkscape="http://www.inkscape.org/namespaces/inkscape"
   xmlns:sodipodi="http://sodipodi.sourceforge.net/DTD/sodipodi-0.dtd"
   xmlns="http://www.w3.org/2000/svg"
   xmlns:svg="http://www.w3.org/2000/svg">
  <sodipodi:namedview
     id="namedview7"
     pagecolor="#ffffff"
     bordercolor="#666666"
     borderopacity="1.0"
     inkscape:pageshadow="2"
     inkscape:pageopacity="0.0"
     inkscape:pagecheckerboard="false"
     inkscape:document-units="px"
     showgrid="false"
     units="px"
     height="48px"
     inkscape:zoom="5.6568542"
     inkscape:cx="30.140427"
     inkscape:cy="18.473165"
     inkscape:window-width="1541"
     inkscape:window-height="947"
     inkscape:window-x="23"
     inkscape:window-y="15"
     inkscape:window-maximized="0"
     inkscape:current-layer="svg5"
     inkscape:lockguides="true" />
  <defs
     id="defs2" />
  <circle
     style="fill:#90a4ae;stroke-width:0.529167;stroke-linecap:round;stroke-linejoin:round;stroke-dasharray:6.35, 0.529167;opacity:1;fill-opacity:1"
     id="path931"
     cx="8.4666662"
     cy="8.4666662"
     r="7.4083333" />
  <path
     id="path1072"
     style="fill:#ffffff;fill-opacity:1;stroke-width:1.7639;stroke-linecap:round;stroke-linejoin:round"
     d="m 8.4666665,6.35 c -0.5845013,0 -1.0583332,0.4738319 -1.0583332,1.0583332 5.3e-5,0.3780531 0.201763,0.7273687 0.5291666,0.9163952 V 10.847916 H 8.9958331 V 8.3247284 C 9.3232367,8.1357019 9.5249469,7.7863863 9.5249999,7.4083332 9.5249999,6.8238318 9.0511679,6.3499999 8.4666665,6.35 Z"
     sodipodi:nodetypes="sccccccs" />
  <path
     id="path1303"
     style="fill:#ffffff;fill-opacity:1;stroke-width:9.99999;stroke-linecap:round;stroke-linejoin:round"
     d="M 32 14 A 18 18 0 0 0 14 32 A 18 18 0 0 0 32 50 A 18 18 0 0 0 50 32 A 18 18 0 0 0 32 14 z M 32 17 A 15 15 0 0 1 47 32 A 15 15 0 0 1 32 47 A 15 15 0 0 1 17 32 A 15 15 0 0 1 32 17 z "
     transform="scale(0.26458333)" />
</svg>
