<?xml version="1.0" encoding="UTF-8" standalone="no"?>
<!-- Created with Inkscape (http://www.inkscape.org/) -->

<svg
   width="64"
   height="64"
   viewBox="0 0 16.933333 16.933334"
   version="1.1"
   id="svg5"
   inkscape:version="1.1.1 (3bf5ae0d25, 2021-09-20, custom)"
   sodipodi:docname="system-switch-user.svg"
   xmlns:inkscape="http://www.inkscape.org/namespaces/inkscape"
   xmlns:sodipodi="http://sodipodi.sourceforge.net/DTD/sodipodi-0.dtd"
   xmlns="http://www.w3.org/2000/svg"
   xmlns:svg="http://www.w3.org/2000/svg">
  <sodipodi:namedview
     id="namedview7"
     pagecolor="#ffffff"
     bordercolor="#666666"
     borderopacity="1.0"
     inkscape:pageshadow="2"
     inkscape:pageopacity="0.0"
     inkscape:pagecheckerboard="0"
     inkscape:document-units="px"
     showgrid="false"
     units="px"
     height="64px"
     inkscape:zoom="8"
     inkscape:cx="31.125"
     inkscape:cy="36.9375"
     inkscape:window-width="1920"
     inkscape:window-height="996"
     inkscape:window-x="0"
     inkscape:window-y="0"
     inkscape:window-maximized="1"
     inkscape:current-layer="svg5" />
  <defs
     id="defs2" />
  <circle
     style="fill:#2196f3;stroke-width:0.529167;stroke-linecap:round;stroke-linejoin:round;fill-opacity:1"
     id="path1168"
     cx="8.4666662"
     cy="8.4666662"
     r="7.4083333" />
  <path
     id="path1439"
     style="fill:#ffffff;fill-opacity:1;stroke-width:1.75;stroke-linecap:round;stroke-linejoin:round"
     d="M 32 18 C 28.134007 18 25 21.134007 25 25 C 25 28.865993 28.134007 32 32 32 C 35.865993 32 39 28.865993 39 25 C 39 21.134007 35.865993 18 32 18 z M 32 21 C 34.209139 21 36 22.790861 36 25 C 36 27.209139 34.209139 29 32 29 C 29.790861 29 28 27.209139 28 25 C 28 22.790861 29.790861 21 32 21 z M 48.929688 27.429688 L 46.806641 29.550781 L 50.257812 33 L 38 33 L 38 36 L 50.257812 36 L 46.806641 39.449219 L 48.929688 41.570312 L 56 34.5 L 48.929688 27.429688 z M 32 35 C 27.089317 35.0032 22.393145 37.012656 19 40.5625 L 19 46 L 25 46 L 27.800781 43 L 22 43 L 22 41.830078 C 24.74857 39.366522 28.308966 38.002899 32 38 C 32.153303 38.000007 32.306177 38.003128 32.458984 38.007812 L 35.025391 35.257812 C 34.032643 35.088398 33.020982 35.000143 32 35 z M 35.070312 39.429688 L 28 46.5 L 35.070312 53.570312 L 37.193359 51.449219 L 33.742188 48 L 46 48 L 46 45 L 33.742188 45 L 37.193359 41.550781 L 35.070312 39.429688 z "
     transform="scale(0.26458334)" />
</svg>
