<?xml version="1.0" encoding="UTF-8" standalone="no"?>
<!-- Created with Inkscape (http://www.inkscape.org/) -->

<svg
   width="64"
   height="64"
   viewBox="0 0 16.933333 16.933334"
   version="1.1"
   id="svg5"
   inkscape:version="1.1.1 (3bf5ae0d25, 2021-09-20, custom)"
   sodipodi:docname="system-reboot.svg"
   xmlns:inkscape="http://www.inkscape.org/namespaces/inkscape"
   xmlns:sodipodi="http://sodipodi.sourceforge.net/DTD/sodipodi-0.dtd"
   xmlns="http://www.w3.org/2000/svg"
   xmlns:svg="http://www.w3.org/2000/svg">
  <sodipodi:namedview
     id="namedview7"
     pagecolor="#ffffff"
     bordercolor="#666666"
     borderopacity="1.0"
     inkscape:pageshadow="2"
     inkscape:pageopacity="0.0"
     inkscape:pagecheckerboard="0"
     inkscape:document-units="px"
     showgrid="false"
     units="px"
     height="64px"
     inkscape:zoom="1"
     inkscape:cx="-3"
     inkscape:cy="18.5"
     inkscape:window-width="1920"
     inkscape:window-height="1019"
     inkscape:window-x="0"
     inkscape:window-y="0"
     inkscape:window-maximized="1"
     inkscape:current-layer="svg5" />
  <defs
     id="defs2" />
  <circle
     style="fill:#6fbe37;fill-opacity:1;stroke-width:0.566797;stroke-linecap:round;stroke-linejoin:round;stroke-dasharray:6.80157, 0.566797"
     id="path890"
     cx="8.4666662"
     cy="8.4666662"
     r="7.4083333" />
  <path
     id="path3981"
     style="fill:#ffffff;fill-opacity:1;stroke-width:2;stroke-linecap:round;stroke-linejoin:round;stroke-dasharray:24, 2"
     d="M 27.5 11.376953 L 20.429688 18.447266 L 27.5 25.519531 L 29.621094 23.398438 L 26.482422 20.259766 A 13 13 0 0 1 32 19 A 13 13 0 0 1 45 32 A 13 13 0 0 1 34 44.841797 L 34 47.857422 A 16.000001 16.000001 0 0 0 48 32 A 16.000001 16.000001 0 0 0 32 16 A 16.000001 16.000001 0 0 0 25.871094 17.248047 L 29.621094 13.498047 L 27.5 11.376953 z M 19.431641 22.158203 A 16.000001 16.000001 0 0 0 16 32 A 16.000001 16.000001 0 0 0 30 47.857422 L 30 44.841797 A 13 13 0 0 1 19 32 A 13 13 0 0 1 21.550781 24.277344 L 19.431641 22.158203 z "
     transform="scale(0.26458334)" />
</svg>
