<?xml version="1.0" encoding="UTF-8" standalone="no"?>
<svg
   width="16"
   height="16"
   version="1.1"
   id="svg4"
   sodipodi:docname="alarm-symbolic.svg"
   inkscape:version="1.1.1 (3bf5ae0d25, 2021-09-20)"
   xmlns:inkscape="http://www.inkscape.org/namespaces/inkscape"
   xmlns:sodipodi="http://sodipodi.sourceforge.net/DTD/sodipodi-0.dtd"
   xmlns="http://www.w3.org/2000/svg"
   xmlns:svg="http://www.w3.org/2000/svg">
  <defs
     id="defs8" />
  <sodipodi:namedview
     id="namedview6"
     pagecolor="#ffffff"
     bordercolor="#666666"
     borderopacity="1.0"
     inkscape:pageshadow="2"
     inkscape:pageopacity="0.0"
     inkscape:pagecheckerboard="0"
     showgrid="false"
     inkscape:zoom="12.67971"
     inkscape:cx="-4.2193393"
     inkscape:cy="17.074523"
     inkscape:window-width="1853"
     inkscape:window-height="1012"
     inkscape:window-x="67"
     inkscape:window-y="32"
     inkscape:window-maximized="1"
     inkscape:current-layer="svg4" />
  <path
     id="path2"
     style="fill:#dfdfdf;stroke-width:0.857143"
     d="M 3.8398438 1.0996094 L 0.3046875 4.6347656 L 1.3652344 5.6953125 L 4.9003906 2.1601562 L 3.8398438 1.0996094 z M 12.160156 1.0996094 L 11.099609 2.1601562 L 14.634766 5.6953125 L 15.695312 4.6347656 L 12.160156 1.0996094 z M 8 3 A 6 6 0 0 0 2 9 A 6 6 0 0 0 8 15 A 6 6 0 0 0 14 9 A 6 6 0 0 0 8 3 z M 8 4.7148438 A 4.2857143 4.2857143 0 0 1 12.285156 9 A 4.2857143 4.2857143 0 0 1 8 13.285156 A 4.2857143 4.2857143 0 0 1 3.7148438 9 A 4.2857143 4.2857143 0 0 1 8 4.7148438 z M 7.1425781 5.5722656 L 7.1425781 9.3515625 L 9.5351562 11.751953 L 10.751953 10.535156 L 8.8574219 8.6484375 L 8.8574219 5.5722656 L 7.1425781 5.5722656 z " />
</svg>
