<?xml version="1.0" encoding="UTF-8" standalone="no"?>
<svg
   width="16"
   height="16"
   version="1.1"
   xmlns="http://www.w3.org/2000/svg">
  <defs
     id="defs8" />
  <path
     id="path2"
     style="fill:#dfdfdf"
     d="M 8 1 L 4 5 L 1 5 L 1 11 L 4 11 L 8 15 L 8 1 z M 10 1 L 10 2.5 C 12.32 3.24 14 5.43 14 8 C 14 10.57 12.32 12.76 10 13.5 L 10 15 C 13.15 14.22 15.5 11.4 15.5 8 C 15.5 4.6 13.15 1.78 10 1 z M 6.5 4.9140625 L 6.5 11.085938 L 4.9179688 9.5 L 2.5 9.5 L 2.5 6.5 L 4.9179688 6.5 L 6.5 4.9140625 z M 10 5 L 10 11 C 11.06 10.42 11.789063 9.3 11.789062 8 C 11.789062 6.7 11.07 5.58 10 5 z " />
</svg>
