<?xml version="1.0" encoding="UTF-8" standalone="no"?>
<svg
   width="16"
   height="16"
   version="1.1"
   id="svg4"
   sodipodi:docname="avatar-default-symbolic.svg"
   inkscape:version="1.1.1 (3bf5ae0d25, 2021-09-20)"
   xmlns:inkscape="http://www.inkscape.org/namespaces/inkscape"
   xmlns:sodipodi="http://sodipodi.sourceforge.net/DTD/sodipodi-0.dtd"
   xmlns="http://www.w3.org/2000/svg"
   xmlns:svg="http://www.w3.org/2000/svg">
  <defs
     id="defs8" />
  <sodipodi:namedview
     id="namedview6"
     pagecolor="#ffffff"
     bordercolor="#666666"
     borderopacity="1.0"
     inkscape:pageshadow="2"
     inkscape:pageopacity="0.0"
     inkscape:pagecheckerboard="0"
     showgrid="false"
     inkscape:zoom="9.1150484"
     inkscape:cx="28.359696"
     inkscape:cy="11.793684"
     inkscape:window-width="1853"
     inkscape:window-height="1012"
     inkscape:window-x="67"
     inkscape:window-y="32"
     inkscape:window-maximized="1"
     inkscape:current-layer="svg4" />
  <path
     id="path2"
     style="fill:#dfdfdf;"
     d="M 8 2 C 6.34 2 5 3.34 5 5 C 5 6.65 6.34 8 8 8 C 9.66 8 11 6.65 11 5 C 11 3.34 9.66 2 8 2 z M 8 3.5 A 1.5 1.5 0 0 1 9.5 5 A 1.5 1.5 0 0 1 8 6.5 A 1.5 1.5 0 0 1 6.5 5 A 1.5 1.5 0 0 1 8 3.5 z M 8 10 C 2 10 2 13 2 13 L 2 15 L 14 15 L 14 13 C 14 13 14 9.99 8 10 z M 8 11.5 C 12.25 11.496 12.25 12.900391 12.25 12.900391 L 12.25 13.5 L 3.75 13.5 L 3.75 12.900391 C 3.75 12.900391 3.7500001 11.5 8 11.5 z " />
</svg>
