<?xml version="1.0" encoding="UTF-8" standalone="no"?>
<!-- Created with Inkscape (http://www.inkscape.org/) -->

<svg
   width="16"
   height="16"
   viewBox="0 0 4.2333332 4.2333335"
   version="1.1"
   id="svg5"
   inkscape:version="1.1.1 (3bf5ae0d25, 2021-09-20)"
   sodipodi:docname="dialog-question-symbolic.svg"
   xmlns:inkscape="http://www.inkscape.org/namespaces/inkscape"
   xmlns:sodipodi="http://sodipodi.sourceforge.net/DTD/sodipodi-0.dtd"
   xmlns="http://www.w3.org/2000/svg"
   xmlns:svg="http://www.w3.org/2000/svg">
  <sodipodi:namedview
     id="namedview7"
     pagecolor="#ffffff"
     bordercolor="#666666"
     borderopacity="1.0"
     inkscape:pageshadow="2"
     inkscape:pageopacity="0.0"
     inkscape:pagecheckerboard="0"
     inkscape:document-units="px"
     showgrid="false"
     units="px"
     height="16px"
     inkscape:zoom="11.733553"
     inkscape:cx="25.82338"
     inkscape:cy="4.3891223"
     inkscape:window-width="1544"
     inkscape:window-height="754"
     inkscape:window-x="586"
     inkscape:window-y="140"
     inkscape:window-maximized="0"
     inkscape:current-layer="layer1" />
  <defs
     id="defs2" />
  <g
     inkscape:label="레이어 1"
     inkscape:groupmode="layer"
     id="layer1">
    <path
       id="path31"
       style="fill:#dedede;fill-opacity:1;fill-rule:evenodd;stroke-width:1.91978"
       d="M 8 1 A 6.9999998 6.9999998 0 0 0 1 8 A 6.9999998 6.9999998 0 0 0 8 15 A 6.9999998 6.9999998 0 0 0 15 8 A 6.9999998 6.9999998 0 0 0 8 1 z M 8 2 A 5.9999998 5.9999998 0 0 1 14 8 A 5.9999998 5.9999998 0 0 1 8 14 A 5.9999998 5.9999998 0 0 1 2 8 A 5.9999998 5.9999998 0 0 1 8 2 z M 7.9863281 3 C 7.2636542 3 6.6782337 3.2028709 6.2265625 3.609375 C 5.7748911 4.0068455 5.4487351 4.4682487 5.25 4.9921875 L 6.3203125 5.4394531 C 6.4558139 5.0600493 6.6540465 4.7431702 6.9160156 4.4902344 C 7.1870183 4.228265 7.5483288 4.0976562 8 4.0976562 C 8.4968383 4.0976563 8.8859796 4.2329035 9.1660156 4.5039062 C 9.4460517 4.7658756 9.5859375 5.1132707 9.5859375 5.546875 C 9.5859375 5.8720774 9.5043972 6.1518488 9.3417969 6.3867188 C 9.1882286 6.6125543 8.9316494 6.8896406 8.5703125 7.2148438 C 8.1276757 7.6303814 7.8200734 7.9870533 7.6484375 8.2851562 C 7.4768016 8.5832592 7.390625 8.9584851 7.390625 9.4101562 L 7.390625 10.060547 L 8.5703125 10.060547 L 8.5703125 9.4902344 C 8.5703125 9.1650312 8.6379361 8.8806212 8.7734375 8.6367188 C 8.9089389 8.3928163 9.1257249 8.1362371 9.4238281 7.8652344 C 9.8122653 7.512931 10.127191 7.1635825 10.371094 6.8203125 C 10.62403 6.4680089 10.751953 6.0437133 10.751953 5.546875 C 10.751953 5.0681036 10.633307 4.6345309 10.398438 4.2460938 C 10.172602 3.8576566 9.8483988 3.5546929 9.4238281 3.3378906 C 9.0082905 3.112055 8.5283335 3 7.9863281 3 z M 7.9296875 11.279297 C 7.7132036 11.289354 7.5241899 11.376201 7.3632812 11.537109 C 7.2006784 11.69971 7.1191406 11.897943 7.1191406 12.132812 C 7.1191406 12.376714 7.2006784 12.584223 7.3632812 12.755859 C 7.5349154 12.91846 7.7377863 13 7.9726562 13 C 8.2165575 13 8.4213815 12.91846 8.5839844 12.755859 C 8.7556203 12.584225 8.8398438 12.376715 8.8398438 12.132812 C 8.8398438 11.897942 8.7556203 11.69971 8.5839844 11.537109 C 8.4213833 11.365473 8.2165592 11.279297 7.9726562 11.279297 C 7.957977 11.279297 7.9441198 11.278626 7.9296875 11.279297 z "
       transform="scale(0.26458333)" />
  </g>
</svg>
