<?xml version="1.0" encoding="UTF-8" standalone="no"?>
<!-- Created with Inkscape (http://www.inkscape.org/) -->

<svg
   width="16"
   height="16"
   viewBox="0 0 4.2333332 4.2333335"
   version="1.1"
   id="svg5"
   inkscape:version="1.1.1 (3bf5ae0d25, 2021-09-20)"
   sodipodi:docname="dialog-information-symbolic.svg"
   xmlns:inkscape="http://www.inkscape.org/namespaces/inkscape"
   xmlns:sodipodi="http://sodipodi.sourceforge.net/DTD/sodipodi-0.dtd"
   xmlns="http://www.w3.org/2000/svg"
   xmlns:svg="http://www.w3.org/2000/svg">
  <sodipodi:namedview
     id="namedview7"
     pagecolor="#ffffff"
     bordercolor="#666666"
     borderopacity="1.0"
     inkscape:pageshadow="2"
     inkscape:pageopacity="0.0"
     inkscape:pagecheckerboard="0"
     inkscape:document-units="px"
     showgrid="false"
     units="px"
     height="16px"
     inkscape:zoom="16.59375"
     inkscape:cx="17.416196"
     inkscape:cy="7.6233522"
     inkscape:window-width="1544"
     inkscape:window-height="754"
     inkscape:window-x="423"
     inkscape:window-y="120"
     inkscape:window-maximized="0"
     inkscape:current-layer="layer1" />
  <defs
     id="defs2" />
  <g
     inkscape:label="레이어 1"
     inkscape:groupmode="layer"
     id="layer1">
    <path
       id="path31"
       style="fill:#dedede;fill-opacity:1;fill-rule:evenodd;stroke-width:1.91978"
       d="M 8 1 C 4.1340068 0.99999989 0.99999989 4.1340068 1 8 C 0.99999989 11.865993 4.1340068 15 8 15 C 11.865993 15 15 11.865993 15 8 C 15 4.1340068 11.865993 0.99999989 8 1 z M 8 2 C 11.313709 1.9999999 14 4.6862916 14 8 C 14 11.313709 11.313709 14 8 14 C 4.6862916 14 1.9999999 11.313709 2 8 C 1.9999999 4.6862916 4.6862916 1.9999999 8 2 z M 8.0117188 3 C 7.7293878 3 7.4874747 3.1004167 7.2871094 3.3007812 C 7.0958527 3.4920383 7 3.729387 7 4.0117188 C 7 4.2940497 7.0958527 4.5340096 7.2871094 4.734375 C 7.487474 4.9256317 7.729387 5.0214844 8.0117188 5.0214844 C 8.294051 5.0214844 8.5294464 4.9256317 8.7207031 4.734375 C 8.9210685 4.5340107 9.0214844 4.2940507 9.0214844 4.0117188 C 9.0214844 3.7293869 8.9210685 3.4920382 8.7207031 3.3007812 C 8.5294459 3.1004167 8.2940505 3 8.0117188 3 z M 7.2597656 6.0332031 L 7.2597656 13 L 8.7617188 13 L 8.7617188 6.0332031 L 7.2597656 6.0332031 z "
       transform="scale(0.26458333)" />
  </g>
</svg>
