<?xml version="1.0" encoding="UTF-8" standalone="no"?>
<svg
   width="16"
   height="16"
   version="1.1"
   id="svg4"
   sodipodi:docname="microphone-sensitivity-muted-symbolic.svg"
   inkscape:version="1.1.1 (3bf5ae0d25, 2021-09-20)"
   xmlns:inkscape="http://www.inkscape.org/namespaces/inkscape"
   xmlns:sodipodi="http://sodipodi.sourceforge.net/DTD/sodipodi-0.dtd"
   xmlns="http://www.w3.org/2000/svg"
   xmlns:svg="http://www.w3.org/2000/svg">
  <defs
     id="defs8" />
  <sodipodi:namedview
     id="namedview6"
     pagecolor="#ffffff"
     bordercolor="#666666"
     borderopacity="1.0"
     inkscape:pageshadow="2"
     inkscape:pageopacity="0.0"
     inkscape:pagecheckerboard="0"
     showgrid="false"
     inkscape:zoom="25.78125"
     inkscape:cx="0.79515151"
     inkscape:cy="11.151515"
     inkscape:window-width="1853"
     inkscape:window-height="1012"
     inkscape:window-x="67"
     inkscape:window-y="32"
     inkscape:window-maximized="1"
     inkscape:current-layer="svg4" />
  <path
     id="path2"
     d="M 8 0 C 7.8975682 0 7.7970209 0.0056602403 7.6972656 0.015625 C 7.6940268 0.015951736 7.6907355 0.015287916 7.6875 0.015625 C 7.5983638 0.024818077 7.5104477 0.03985186 7.4238281 0.056640625 C 7.409649 0.059417545 7.3949622 0.061475558 7.3808594 0.064453125 C 7.3755595 0.065560764 7.3705238 0.067223906 7.3652344 0.068359375 C 7.2956903 0.083288246 7.2278012 0.1014517 7.1601562 0.12109375 C 7.1556481 0.12241877 7.1509833 0.12365418 7.1464844 0.125 C 7.1203936 0.13280476 7.0941341 0.13993954 7.0683594 0.1484375 C 7.037406 0.15851441 7.0070609 0.17059568 6.9765625 0.18164062 C 6.0951866 0.5051734 5.4148859 1.2350234 5.1445312 2.1445312 L 7 4 L 7 3 C 7 2.45 7.45 2 8 2 C 8.55 2 9 2.45 9 3 L 9 6 L 11 8 L 11 3 C 11 2.89625 10.994595 2.7943604 10.984375 2.6933594 C 10.974155 2.5923584 10.959395 2.4922853 10.939453 2.3945312 C 10.919512 2.2967774 10.894399 2.2014307 10.865234 2.1074219 C 10.836069 2.0134131 10.803516 1.9198438 10.765625 1.8300781 C 10.727734 1.7403125 10.68479 1.6533838 10.638672 1.5683594 C 10.592554 1.483335 10.542129 1.4000977 10.488281 1.3203125 C 10.434434 1.2405273 10.377485 1.1638915 10.316406 1.0898438 C 10.255327 1.0157959 10.190859 0.94476564 10.123047 0.87695312 C 10.055234 0.80914062 9.9842042 0.74467285 9.9101562 0.68359375 C 9.8361085 0.62251465 9.7594727 0.56556641 9.6796875 0.51171875 C 9.5999023 0.45787109 9.516665 0.4074463 9.4316406 0.36132812 C 9.3466162 0.31520997 9.2596875 0.27226563 9.1699219 0.234375 C 9.0801562 0.19648437 8.9865869 0.16393066 8.8925781 0.13476562 C 8.7985693 0.10560059 8.7032226 0.080488281 8.6054688 0.060546875 C 8.5077147 0.040605469 8.4076416 0.025844727 8.3066406 0.015625 C 8.2056396 0.0054052734 8.10375 0 8 0 z M 2.5 1 L 1 2.5 L 5 6.5 L 5 8 C 5 9.6599997 6.3400002 11 8 11 C 8.0944888 11 8.1870698 10.994823 8.2792969 10.986328 C 8.3266735 10.981805 8.3732641 10.973554 8.4199219 10.966797 C 8.4597062 10.961231 8.4998001 10.956323 8.5390625 10.949219 C 8.6055244 10.936783 8.6715503 10.923068 8.7363281 10.90625 C 8.7441577 10.904278 8.7519609 10.902423 8.7597656 10.900391 C 8.7649986 10.898986 8.7701693 10.897917 8.7753906 10.896484 C 8.9325494 10.85337 9.0829834 10.795683 9.2285156 10.728516 L 9.9746094 11.474609 C 9.6784043 11.644269 9.3616526 11.77466 9.0332031 11.863281 C 8.9216169 11.893389 8.8094218 11.919168 8.6953125 11.939453 C 8.5812032 11.959738 8.4656108 11.974143 8.3496094 11.984375 C 8.2336079 11.994607 8.1172628 12.000053 8 12 C 7.72125 12 7.4493164 11.972676 7.1875 11.919922 C 7.0565918 11.893545 6.9284497 11.860872 6.8027344 11.822266 C 6.6770191 11.78366 6.5534766 11.739648 6.4335938 11.689453 C 6.3137109 11.639258 6.197395 11.582629 6.0839844 11.521484 C 5.9705737 11.460339 5.8602051 11.393721 5.7539062 11.322266 C 5.6476074 11.250811 5.545813 11.174875 5.4472656 11.09375 C 5.3487183 11.012625 5.2542187 10.926093 5.1640625 10.835938 C 5.0739063 10.745779 4.9873755 10.651282 4.90625 10.552734 C 4.8251245 10.454187 4.7491895 10.352393 4.6777344 10.246094 C 4.6062793 10.139795 4.5396606 10.029426 4.4785156 9.9160156 C 4.4173706 9.802605 4.3607422 9.6862891 4.3105469 9.5664062 C 4.2603516 9.4465236 4.2163403 9.3229809 4.1777344 9.1972656 C 4.1391284 9.0715503 4.1064551 8.9434082 4.0800781 8.8125 C 4.0273242 8.5506836 4 8.27875 4 8 L 4 7 L 2 7 L 2 8 C 2 10.97 4.16 13.430156 7 13.910156 L 7 16 L 9 16 L 9 13.910156 C 9.1381594 13.886805 9.2734327 13.856772 9.4082031 13.824219 L 9.4101562 13.824219 L 9.4121094 13.824219 C 10.143071 13.647167 10.819302 13.333797 11.417969 12.917969 L 13.5 15 L 15 13.5 L 2.5 1 z M 12 7 L 12 8 C 12 8.307 11.948859 8.5978594 11.880859 8.8808594 L 11.898438 8.8984375 L 13.46875 10.46875 C 13.809928 9.7164121 14 8.8803755 14 8 L 14 7 L 12 7 z "
     style="fill:#dfdfdf;fill-opacity:1" />
</svg>
