<?xml version="1.0" encoding="UTF-8" standalone="no"?>
<svg
   width="16"
   height="16"
   version="1.1"
   id="svg4"
   sodipodi:docname="network-wireless-signal-good-symbolic.svg"
   inkscape:version="1.1 (c4e8f9ed74, 2021-05-24)"
   xmlns:inkscape="http://www.inkscape.org/namespaces/inkscape"
   xmlns:sodipodi="http://sodipodi.sourceforge.net/DTD/sodipodi-0.dtd"
   xmlns="http://www.w3.org/2000/svg"
   xmlns:svg="http://www.w3.org/2000/svg">
  <defs
     id="defs8" />
  <sodipodi:namedview
     id="namedview6"
     pagecolor="#ffffff"
     bordercolor="#666666"
     borderopacity="1.0"
     inkscape:pageshadow="2"
     inkscape:pageopacity="0.0"
     inkscape:pagecheckerboard="0"
     showgrid="false"
     inkscape:zoom="47.75"
     inkscape:cx="8.0104712"
     inkscape:cy="8"
     inkscape:window-width="1519"
     inkscape:window-height="991"
     inkscape:window-x="26"
     inkscape:window-y="23"
     inkscape:window-maximized="0"
     inkscape:current-layer="svg4" />
  <path
     id="path827"
     style="fill:#dfdfdf;fill-opacity:1"
     d="M 8 1 C 4.9494 1 2.0806 2.0732 0 4 L 1.9863281 6.7324219 L 2.9101562 8.0019531 L 4.3769531 10.017578 L 8 15 L 11.621094 10.019531 L 11.738281 9.8574219 L 13.087891 8.0039062 L 14.009766 6.734375 L 16 4 C 13.919 2.0731 11.051 1 8 1 z M 8 3 C 9.9284169 3 11.635471 3.64124 13.130859 4.546875 L 12.507812 5.4042969 A 8 8 0 0 0 8 4 A 8 8 0 0 0 3.4902344 5.4023438 L 2.8691406 4.546875 C 4.3645301 3.641319 6.0719604 3 8 3 z " />
</svg>
