<?xml version="1.0" encoding="UTF-8" standalone="no"?>
<svg
   height="16"
   width="16"
   version="1.1"
   id="svg8"
   sodipodi:docname="system-shutdown-symbolic.svg"
   inkscape:version="1.1.1 (3bf5ae0d25, 2021-09-20)"
   xmlns:inkscape="http://www.inkscape.org/namespaces/inkscape"
   xmlns:sodipodi="http://sodipodi.sourceforge.net/DTD/sodipodi-0.dtd"
   xmlns="http://www.w3.org/2000/svg"
   xmlns:svg="http://www.w3.org/2000/svg">
  <defs
     id="defs12" />
  <sodipodi:namedview
     id="namedview10"
     pagecolor="#ffffff"
     bordercolor="#666666"
     borderopacity="1.0"
     inkscape:pageshadow="2"
     inkscape:pageopacity="0.0"
     inkscape:pagecheckerboard="0"
     showgrid="false"
     inkscape:zoom="12.890625"
     inkscape:cx="3.6848485"
     inkscape:cy="5.7018182"
     inkscape:window-width="1853"
     inkscape:window-height="1012"
     inkscape:window-x="67"
     inkscape:window-y="32"
     inkscape:window-maximized="1"
     inkscape:current-layer="g6" />
  <g
     transform="translate(-32,-868.36)"
     fill="#dfdfdf"
     id="g6">
    <path
       id="rect2"
       d="M 7,1.0019531 V 8.0039062 H 9 V 1.0019531 Z m 4.59375,2.1972657 -1.197266,1.6015624 c 1.376993,1.02699 1.942134,2.8197419 1.404297,4.4511719 C 11.26692,10.884733 9.74906,11.993026 8.03125,12.003906 6.313711,12.019306 4.778172,10.934497 4.21875,9.3105469 3.656156,7.6882869 4.1941575,5.8873137 5.5546875,4.8398438 L 4.3320312,3.2558594 c -2.036487,1.57642 -2.8417181,4.2744044 -2.0019531,6.7089844 0.843416,2.4320702 3.1427019,4.0572922 5.7167969,4.0390622 2.574402,-0.0217 4.848948,-1.681663 5.654297,-4.1269529 0.80046,-2.44722 -0.04732,-5.1331944 -2.107422,-6.6777343 z"
       transform="translate(32,868.36)" />
  </g>
</svg>
