<?xml version="1.0" encoding="UTF-8" standalone="no"?>
<svg
   width="16"
   height="16"
   version="1.1"
   id="svg4"
   sodipodi:docname="application-menu-symbolic.svg"
   inkscape:version="1.1.1 (3bf5ae0d25, 2021-09-20)"
   xmlns:inkscape="http://www.inkscape.org/namespaces/inkscape"
   xmlns:sodipodi="http://sodipodi.sourceforge.net/DTD/sodipodi-0.dtd"
   xmlns="http://www.w3.org/2000/svg"
   xmlns:svg="http://www.w3.org/2000/svg">
  <defs
     id="defs8" />
  <sodipodi:namedview
     id="namedview6"
     pagecolor="#ffffff"
     bordercolor="#666666"
     borderopacity="1.0"
     inkscape:pageshadow="2"
     inkscape:pageopacity="0.0"
     inkscape:pagecheckerboard="0"
     showgrid="false"
     inkscape:zoom="24.65625"
     inkscape:cx="-2.4131812"
     inkscape:cy="7.1584284"
     inkscape:window-width="1853"
     inkscape:window-height="1012"
     inkscape:window-x="67"
     inkscape:window-y="32"
     inkscape:window-maximized="1"
     inkscape:current-layer="svg4" />
  <path
     id="path2"
     style="fill:#444"
     d="M 6.25 1 L 6.0898438 2.8398438 C 5.5078097 3.0572459 4.9672103 3.3713839 4.4902344 3.7695312 L 2.8105469 2.9804688 L 1.0605469 6.0097656 L 2.5800781 7.0703125 C 2.5271062 7.3774855 2.5002651 7.6882931 2.5 8 C 2.5002651 8.3117069 2.5271061 8.6225145 2.5800781 8.9296875 L 1.0605469 9.9804688 L 2.8105469 13.009766 L 4.4804688 12.220703 C 4.9604684 12.619825 5.5042879 12.934006 6.0898438 13.150391 L 6.25 15 L 9.75 15 L 9.9003906 13.150391 C 10.485947 12.934006 11.029766 12.619825 11.509766 12.220703 L 13.189453 13.009766 L 14.939453 9.9804688 L 13.410156 8.9199219 C 13.465919 8.6163241 13.49587 8.3086489 13.5 8 C 13.500305 7.6849537 13.473462 7.3710107 13.419922 7.0605469 L 14.939453 6.0097656 L 13.189453 2.9804688 L 11.509766 3.7695312 C 11.029766 3.370409 10.485947 3.0562286 9.9003906 2.8398438 L 9.75 1 L 6.25 1 z M 7.0800781 2 L 8.9257812 2 L 9.0566406 3.6269531 C 9.8954624 3.8300303 10.658193 4.270041 11.253906 4.8945312 L 12.736328 4.203125 L 13.660156 5.8007812 L 12.316406 6.7304688 C 12.437913 7.1427075 12.499739 7.570227 12.5 8 C 12.500001 8.4283701 12.43884 8.8545459 12.318359 9.265625 L 13.660156 10.203125 L 12.736328 11.800781 L 11.25 11.097656 C 10.655635 11.720468 9.8950889 12.159714 9.0585938 12.363281 L 8.9257812 14 L 7.0800781 14 L 6.9375 12.363281 C 6.103331 12.159227 5.3449674 11.720745 4.7519531 11.099609 L 3.2675781 11.800781 L 2.34375 10.203125 L 3.6816406 9.2675781 C 3.5609786 8.8558711 3.4998126 8.4290244 3.5 8 C 3.4998869 7.5689182 3.5617166 7.1400567 3.6835938 6.7265625 L 2.34375 5.8007812 L 3.2675781 4.203125 L 4.7539062 4.8984375 C 5.3466346 4.278336 6.1042548 3.8405698 6.9375 3.6367188 L 7.0800781 2 z M 8 5.5 C 6.6192875 5.5 5.5 6.6192881 5.5 8 C 5.5 9.3807117 6.6192875 10.5 8 10.5 C 9.3807117 10.5 10.5 9.3807117 10.5 8 C 10.5 6.6192881 9.3807117 5.5 8 5.5 z " />
</svg>
