<?xml version="1.0" encoding="UTF-8" standalone="no"?>
<svg
   width="16"
   height="16"
   version="1.1"
   id="svg4"
   sodipodi:docname="tab-new-symbolic.svg"
   inkscape:version="1.1.1 (3bf5ae0d25, 2021-09-20)"
   xmlns:inkscape="http://www.inkscape.org/namespaces/inkscape"
   xmlns:sodipodi="http://sodipodi.sourceforge.net/DTD/sodipodi-0.dtd"
   xmlns="http://www.w3.org/2000/svg"
   xmlns:svg="http://www.w3.org/2000/svg">
  <defs
     id="defs8" />
  <sodipodi:namedview
     id="namedview6"
     pagecolor="#ffffff"
     bordercolor="#666666"
     borderopacity="1.0"
     inkscape:pageshadow="2"
     inkscape:pageopacity="0.0"
     inkscape:pagecheckerboard="0"
     showgrid="false"
     showguides="true"
     inkscape:zoom="12.890625"
     inkscape:cx="2.1333333"
     inkscape:cy="8.8048485"
     inkscape:window-width="1853"
     inkscape:window-height="1012"
     inkscape:window-x="67"
     inkscape:window-y="32"
     inkscape:window-maximized="1"
     inkscape:current-layer="svg4" />
  <path
     id="path2"
     style="fill:#444"
     d="M 4 2 C 4 2 2 2 2 4 L 2 12 L 0 12 L 0 14 L 16 14 L 16 12 L 14 12 L 14 4 C 14 4 14 2 12 2 L 4 2 z M 4 4 L 12 4 L 12 12 L 4 12 L 4 4 z M 7.5 5.5 L 7.5 7.5 L 5.5 7.5 L 5.5 8.5 L 7.5 8.5 L 7.5 10.5 L 8.5 10.5 L 8.5 8.5 L 10.5 8.5 L 10.5 7.5 L 8.5 7.5 L 8.5 5.5 L 7.5 5.5 z " />
</svg>
