<?xml version="1.0" encoding="UTF-8" standalone="no"?>
<svg
   width="16"
   height="16"
   version="1.1"
   id="svg6"
   sodipodi:docname="airplane-mode-disabled-symbolic.svg"
   inkscape:version="1.1.1 (3bf5ae0d25, 2021-09-20, custom)"
   xmlns:inkscape="http://www.inkscape.org/namespaces/inkscape"
   xmlns:sodipodi="http://sodipodi.sourceforge.net/DTD/sodipodi-0.dtd"
   xmlns="http://www.w3.org/2000/svg"
   xmlns:svg="http://www.w3.org/2000/svg">
  <defs
     id="defs10" />
  <sodipodi:namedview
     id="namedview8"
     pagecolor="#ffffff"
     bordercolor="#666666"
     borderopacity="1.0"
     inkscape:pageshadow="2"
     inkscape:pageopacity="0.0"
     inkscape:pagecheckerboard="0"
     showgrid="false"
     inkscape:zoom="44.3125"
     inkscape:cx="7.9887165"
     inkscape:cy="8"
     inkscape:window-width="1920"
     inkscape:window-height="996"
     inkscape:window-x="0"
     inkscape:window-y="0"
     inkscape:window-maximized="1"
     inkscape:current-layer="svg6" />
  <path
     id="path2"
     style="fill:#555555;opacity:.35"
     d="M 2.3398438 0.9296875 L 0.9296875 2.3398438 L 5.5898438 7 L 3.0898438 7 L 1.8691406 5.2207031 C 1.7291406 5.0107031 1.7392969 5 1.5292969 5 L 1.2792969 5 C 0.88929688 5 1.0292969 5.4296875 1.0292969 5.4296875 L 1.3105469 8 L 1.0292969 10.560547 C 1.0292969 10.560547 0.88054688 11 1.3105469 11 L 1.5292969 11 C 1.7492969 11 1.7291406 10.989297 1.8691406 10.779297 L 3.0898438 9 L 7.5898438 9 L 5.9707031 13.970703 C 5.7207031 14.960703 5.7 15 6.5 15 L 6.5605469 15 C 6.9305469 15 6.9507031 14.95 7.2207031 14.5 L 9.5742188 10.984375 L 13.650391 15.060547 L 15.060547 13.650391 L 2.3398438 0.9296875 z M 6.5 1 C 5.7 1 5.7007031 1.0105469 5.9707031 2.0605469 L 6.2109375 2.8105469 L 12.400391 9 L 14 9 C 14.55 9 15 8.55 15 8 C 15 7.44 14.55 7 14 7 L 10.900391 7 L 7.2207031 1.5 C 6.9307031 1.01 6.93 1 6.5 1 z " />
</svg>
