<?xml version="1.0" encoding="UTF-8" standalone="no"?>
<!-- Created with Inkscape (http://www.inkscape.org/) -->

<svg
   width="16"
   height="16"
   viewBox="0 0 4.2333332 4.2333335"
   version="1.1"
   id="svg5"
   inkscape:version="1.1.1 (3bf5ae0d25, 2021-09-20)"
   sodipodi:docname="dialog-error-symbolic.svg"
   xmlns:inkscape="http://www.inkscape.org/namespaces/inkscape"
   xmlns:sodipodi="http://sodipodi.sourceforge.net/DTD/sodipodi-0.dtd"
   xmlns="http://www.w3.org/2000/svg"
   xmlns:svg="http://www.w3.org/2000/svg">
  <sodipodi:namedview
     id="namedview7"
     pagecolor="#ffffff"
     bordercolor="#666666"
     borderopacity="1.0"
     inkscape:pageshadow="2"
     inkscape:pageopacity="0.0"
     inkscape:pagecheckerboard="0"
     inkscape:document-units="px"
     showgrid="false"
     units="px"
     height="16px"
     inkscape:zoom="16.59375"
     inkscape:cx="17.416196"
     inkscape:cy="7.6233522"
     inkscape:window-width="1544"
     inkscape:window-height="754"
     inkscape:window-x="423"
     inkscape:window-y="120"
     inkscape:window-maximized="0"
     inkscape:current-layer="layer1" />
  <defs
     id="defs2" />
  <g
     inkscape:label="레이어 1"
     inkscape:groupmode="layer"
     id="layer1">
    <path
       id="path31"
       style="fill:#f44336;fill-opacity:1;fill-rule:evenodd;stroke-width:1.91978"
       d="M 8 1 C 4.1340068 0.99999989 0.99999989 4.1340068 1 8 C 0.99999989 11.865993 4.1340068 15 8 15 C 11.865993 15 15 11.865993 15 8 C 15 4.1340068 11.865993 0.99999989 8 1 z M 8 2 C 11.313709 1.9999999 14 4.6862916 14 8 C 14 11.313709 11.313709 14 8 14 C 4.6862916 14 1.9999999 11.313709 2 8 C 1.9999999 4.6862916 4.6862916 1.9999999 8 2 z M 7.2265625 3 L 7.2265625 6.0058594 L 7.3789062 9.6894531 L 8.625 9.6894531 L 8.7773438 6.0058594 L 8.7773438 3 L 7.2265625 3 z M 8.0019531 10.880859 C 7.7064787 10.880859 7.4526085 10.982407 7.2402344 11.185547 C 7.0370948 11.388686 6.9355469 11.638118 6.9355469 11.933594 C 6.9355469 12.229068 7.0370948 12.482938 7.2402344 12.695312 C 7.4526073 12.898452 7.7064775 13 8.0019531 13 C 8.2974288 13 8.5468605 12.898452 8.75 12.695312 C 8.9623742 12.482939 9.0683594 12.229069 9.0683594 11.933594 C 9.0683594 11.638118 8.9623742 11.388686 8.75 11.185547 C 8.5468605 10.982407 8.2974288 10.880859 8.0019531 10.880859 z "
       transform="scale(0.26458333)" />
  </g>
</svg>
