<?xml version="1.0" encoding="UTF-8" standalone="no"?>
<svg
   width="16"
   height="16"
   version="1.1"
   id="svg6"
   sodipodi:docname="network-wireless-disabled-symbolic.svg"
   inkscape:version="1.1.1 (3bf5ae0d25, 2021-09-20, custom)"
   xmlns:inkscape="http://www.inkscape.org/namespaces/inkscape"
   xmlns:sodipodi="http://sodipodi.sourceforge.net/DTD/sodipodi-0.dtd"
   xmlns="http://www.w3.org/2000/svg"
   xmlns:svg="http://www.w3.org/2000/svg">
  <defs
     id="defs10" />
  <sodipodi:namedview
     id="namedview8"
     pagecolor="#ffffff"
     bordercolor="#666666"
     borderopacity="1.0"
     inkscape:pageshadow="2"
     inkscape:pageopacity="0.0"
     inkscape:pagecheckerboard="0"
     showgrid="false"
     inkscape:zoom="45.254834"
     inkscape:cx="8.3747959"
     inkscape:cy="6.993728"
     inkscape:window-width="1920"
     inkscape:window-height="1019"
     inkscape:window-x="0"
     inkscape:window-y="0"
     inkscape:window-maximized="1"
     inkscape:current-layer="svg6" />
  <path
     id="path2"
     fill="#555555"
     d="M 2 0 L 0.5859375 1.4140625 L 1.9394531 2.7675781 C 1.2517616 3.2040601 0.60011068 3.720555 0 4.3203125 L 8 14.007812 L 10.341797 11.169922 L 12.585938 13.414062 L 14 12 L 11.621094 9.6210938 L 10.53125 8.53125 L 5.015625 3.015625 L 3.8105469 1.8105469 L 2 0 z M 8 1.0078125 C 7.3349217 1.0078125 6.6704267 1.0690005 6.0136719 1.1855469 L 7.375 2.546875 C 7.5287975 2.5364548 7.6832958 2.5303797 7.8378906 2.5273438 C 9.9960092 2.4849621 12.2092 3.1666565 13.800781 4.6992188 L 11.833984 7.0058594 L 12.900391 8.0722656 L 16 4.3203125 C 13.791 2.1124625 10.895463 1.0078125 8 1.0078125 z M 3.1191406 3.9472656 L 9.2304688 10.058594 L 8 11.5 L 2.1992188 4.6992188 C 2.477584 4.4234649 2.7867006 4.1728192 3.1191406 3.9472656 z " />
</svg>
