<?xml version="1.0" encoding="UTF-8" standalone="no"?>
<svg
   width="16"
   height="16"
   version="1.1"
   id="svg6"
   sodipodi:docname="nm-signal-50-secure-symbolic.svg"
   inkscape:version="1.1.1 (3bf5ae0d25, 2021-09-20, custom)"
   xmlns:inkscape="http://www.inkscape.org/namespaces/inkscape"
   xmlns:sodipodi="http://sodipodi.sourceforge.net/DTD/sodipodi-0.dtd"
   xmlns="http://www.w3.org/2000/svg"
   xmlns:svg="http://www.w3.org/2000/svg">
  <defs
     id="defs10" />
  <sodipodi:namedview
     id="namedview8"
     pagecolor="#ffffff"
     bordercolor="#666666"
     borderopacity="1.0"
     inkscape:pageshadow="2"
     inkscape:pageopacity="0.0"
     inkscape:pagecheckerboard="0"
     showgrid="false"
     inkscape:zoom="16"
     inkscape:cx="3.5625"
     inkscape:cy="16.46875"
     inkscape:window-width="1920"
     inkscape:window-height="1019"
     inkscape:window-x="0"
     inkscape:window-y="0"
     inkscape:window-maximized="1"
     inkscape:current-layer="svg6" />
  <path
     id="path2"
     fill="#555555"
     d="M 8 1.0078125 C 5.1045375 1.0078125 2.20915 2.1124625 0 4.3203125 L 8 14.007812 L 9 12.796875 L 9 11 L 10 11 A 3 3 0 0 1 12.958984 8.0039062 L 16 4.3203125 C 13.791 2.1124625 10.895463 1.0078125 8 1.0078125 z M 7.8378906 2.5273438 C 9.9960092 2.4849621 12.2092 3.1666565 13.800781 4.6992188 L 11.75 7.1035156 C 9.4711185 5.6448012 6.5288815 5.6448012 4.25 7.1035156 L 2.1992188 4.6992188 C 3.5751633 3.3361826 5.679772 2.5697251 7.8378906 2.5273438 z " />
  <path
     d="m 13,9 c -1.108,0 -2,0.91 -2,2.031 v 0.968999 H 10 V 16 h 6 V 11.999999 H 15 V 11.031 C 15,9.911 14.108,9 13,9 Z m 0,0.9999995 c 0.554,0 1,0.4420005 1,1.0000005 v 0.999999 H 12 V 11 c 0,-0.558 0.446,-1.0000005 1,-1.0000005 z"
     color="#000000"
     fill="#555555"
     overflow="visible"
     id="path8" />
</svg>
