<?xml version="1.0" encoding="UTF-8" standalone="no"?>
<!-- Created with Inkscape (http://www.inkscape.org/) -->

<svg
   width="64"
   height="64"
   viewBox="0 0 16.933333 16.933333"
   version="1.1"
   id="svg5"
   inkscape:version="1.1.1 (3bf5ae0d25, 2021-09-20, custom)"
   sodipodi:docname="dialog-error.svg"
   xmlns:inkscape="http://www.inkscape.org/namespaces/inkscape"
   xmlns:sodipodi="http://sodipodi.sourceforge.net/DTD/sodipodi-0.dtd"
   xmlns:xlink="http://www.w3.org/1999/xlink"
   xmlns="http://www.w3.org/2000/svg"
   xmlns:svg="http://www.w3.org/2000/svg">
  <sodipodi:namedview
     id="namedview7"
     pagecolor="#ffffff"
     bordercolor="#666666"
     borderopacity="1.0"
     inkscape:pageshadow="2"
     inkscape:pageopacity="0.0"
     inkscape:pagecheckerboard="false"
     inkscape:document-units="px"
     showgrid="false"
     units="px"
     height="48px"
     inkscape:zoom="0.99999995"
     inkscape:cx="-269.00001"
     inkscape:cy="-86.000004"
     inkscape:window-width="1920"
     inkscape:window-height="1002"
     inkscape:window-x="0"
     inkscape:window-y="0"
     inkscape:window-maximized="1"
     inkscape:current-layer="svg5"
     inkscape:lockguides="true" />
  <defs
     id="defs2">
    <linearGradient
       inkscape:collect="always"
       id="linearGradient7649">
      <stop
         style="stop-color:#999999;stop-opacity:1"
         offset="0"
         id="stop7645" />
      <stop
         style="stop-color:#999999;stop-opacity:0"
         offset="1"
         id="stop7647" />
    </linearGradient>
    <linearGradient
       inkscape:collect="always"
       xlink:href="#linearGradient7649"
       id="linearGradient7651"
       x1="19.585938"
       y1="27.009766"
       x2="50.000916"
       y2="59.009766"
       gradientUnits="userSpaceOnUse"
       gradientTransform="translate(0.31932783,-2.9995311)" />
  </defs>
  <circle
     style="opacity:1;fill:#d84315;fill-opacity:1;stroke:none;stroke-width:2.64583;stroke-linecap:round;stroke-linejoin:round;stroke-miterlimit:4;stroke-dasharray:none;stroke-opacity:1"
     id="path8561"
     cx="8.4666662"
     cy="8.4666662"
     r="7.4083333" />
  <path
     id="path6487"
     style="font-size:13.3153px;line-height:1.25;font-family:'Google Sans';-inkscape-font-specification:'Google Sans';opacity:0.2;fill:url(#linearGradient7651);fill-opacity:1;stroke-width:1.25814"
     d="M 34.333984 13.019531 L 30.558594 38.433594 L 31.330078 39.205078 L 47.457031 55.332031 A 28 28 0 0 0 58.603516 40.689453 L 48.537109 27.222656 L 34.333984 13.019531 z M 34.699219 44.201172 L 31.333984 45.28125 L 29.904297 48.449219 L 40.220703 58.765625 A 28 28 0 0 0 46.458984 55.960938 L 34.699219 44.201172 z "
     transform="scale(0.26458333)" />
  <path
     d="M 7.9658531,6.6805493 V 3.4449315 H 9.0843383 V 6.6805493 L 8.9511853,10.169158 H 8.0856908 Z m 0.5592426,6.3780287 q -0.3595131,0 -0.6125038,-0.239675 -0.2396754,-0.252991 -0.2396754,-0.612504 0,-0.346198 0.2396754,-0.585873 0.2529907,-0.252991 0.6125038,-0.252991 0.3461978,0 0.5858732,0.252991 0.2529907,0.239675 0.2529907,0.585873 0,0.359513 -0.2529907,0.612504 -0.2396754,0.239675 -0.5858732,0.239675 z"
     style="font-size:13.3153px;line-height:1.25;font-family:'Google Sans';-inkscape-font-specification:'Google Sans';fill:#ffffff;stroke-width:0.332883"
     id="path5150" />
</svg>
