<?xml version="1.0" encoding="UTF-8" standalone="no"?>
<!-- Created with Inkscape (http://www.inkscape.org/) -->

<svg
   width="64"
   height="64"
   viewBox="0 0 16.933333 16.933334"
   version="1.1"
   id="svg5"
   inkscape:version="1.1.1 (3bf5ae0d25, 2021-09-20, custom)"
   sodipodi:docname="image-loading.svg"
   xmlns:inkscape="http://www.inkscape.org/namespaces/inkscape"
   xmlns:sodipodi="http://sodipodi.sourceforge.net/DTD/sodipodi-0.dtd"
   xmlns="http://www.w3.org/2000/svg"
   xmlns:svg="http://www.w3.org/2000/svg">
  <sodipodi:namedview
     id="namedview7"
     pagecolor="#ffffff"
     bordercolor="#666666"
     borderopacity="1.0"
     inkscape:pageshadow="2"
     inkscape:pageopacity="0.0"
     inkscape:pagecheckerboard="0"
     inkscape:document-units="px"
     showgrid="false"
     units="px"
     height="64px"
     inkscape:zoom="6.109375"
     inkscape:cx="49.432225"
     inkscape:cy="19.969309"
     inkscape:window-width="1920"
     inkscape:window-height="1002"
     inkscape:window-x="0"
     inkscape:window-y="0"
     inkscape:window-maximized="1"
     inkscape:current-layer="svg5" />
  <defs
     id="defs2" />
  <circle
     style="fill:#f9f9f9;fill-opacity:1;stroke-width:0.566797;stroke-linecap:round;stroke-linejoin:round;stroke-dasharray:6.80157, 0.566797"
     id="path890"
     cx="8.4666662"
     cy="8.4666662"
     r="7.4083333" />
  <path
     id="path3981"
     style="fill:#666666;fill-opacity:1;stroke-width:2;stroke-linecap:round;stroke-linejoin:round;stroke-dasharray:24, 2"
     d="M 33.402344 16.123047 L 33.402344 19.076172 A 13 13 0 0 1 41.179688 22.794922 A 13 13 0 0 1 41.193359 22.806641 A 13 13 0 0 1 41.228516 22.84375 A 13 13 0 0 1 41.625 23.261719 A 13 13 0 0 1 41.712891 23.359375 A 13 13 0 0 1 42.068359 23.777344 A 13 13 0 0 1 42.177734 23.912109 A 13 13 0 0 1 42.193359 23.931641 A 13 13 0 0 1 42.476562 24.304688 A 13 13 0 0 1 42.595703 24.466797 A 13 13 0 0 1 42.621094 24.503906 A 13 13 0 0 1 42.869141 24.871094 A 13 13 0 0 1 43.037109 25.134766 A 13 13 0 0 1 43.25 25.488281 A 13 13 0 0 1 43.314453 25.597656 A 13 13 0 0 1 43.380859 25.71875 A 13 13 0 0 1 43.591797 26.115234 A 13 13 0 0 1 43.628906 26.1875 A 13 13 0 0 1 43.712891 26.363281 A 13 13 0 0 1 43.884766 26.734375 A 13 13 0 0 1 43.912109 26.794922 A 13 13 0 0 1 43.994141 26.990234 A 13 13 0 0 1 44.148438 27.375 A 13 13 0 0 1 44.164062 27.414062 A 13 13 0 0 1 44.248047 27.640625 A 13 13 0 0 1 44.384766 28.046875 A 13 13 0 0 1 44.394531 28.080078 A 13 13 0 0 1 44.460938 28.298828 A 13 13 0 0 1 44.59375 28.777344 A 13 13 0 0 1 44.638672 28.957031 A 13 13 0 0 1 44.734375 29.392578 A 13 13 0 0 1 44.789062 29.667969 A 13 13 0 0 1 44.789062 29.669922 A 13 13 0 0 1 44.863281 30.130859 A 13 13 0 0 1 44.890625 30.316406 A 13 13 0 0 1 44.892578 30.330078 A 13 13 0 0 1 44.945312 30.822266 A 13 13 0 0 1 44.960938 30.996094 A 13 13 0 0 1 44.966797 31.095703 A 13 13 0 0 1 44.988281 31.46875 A 13 13 0 0 1 44.998047 31.832031 A 13 13 0 0 1 45 32 A 13 13 0 0 1 44.998047 32.050781 A 13 13 0 0 1 44.962891 32.970703 A 13 13 0 0 1 44.861328 33.892578 A 13 13 0 0 1 44.839844 34.025391 A 13 13 0 0 1 44.6875 34.818359 A 13 13 0 0 1 44.660156 34.941406 A 13 13 0 0 1 44.121094 36.697266 A 13 13 0 0 1 44.068359 36.824219 A 13 13 0 0 1 43.736328 37.587891 A 13 13 0 0 1 43.712891 37.640625 A 13 13 0 0 1 43.703125 37.660156 A 13 13 0 0 1 43.261719 38.492188 A 13 13 0 0 1 43.257812 38.5 A 13 13 0 0 1 43.244141 38.521484 A 13 13 0 0 1 42.761719 39.289062 A 13 13 0 0 1 42.740234 39.322266 A 13 13 0 0 1 42.720703 39.347656 A 13 13 0 0 1 42.164062 40.105469 A 13 13 0 0 1 41.5625 40.804688 A 13 13 0 0 1 41.470703 40.900391 A 13 13 0 0 1 41.193359 41.193359 A 13 13 0 0 1 41.087891 41.283203 A 13 13 0 0 1 39.742188 42.431641 A 13 13 0 0 1 39.541016 42.580078 A 13 13 0 0 1 38 43.523438 A 13 13 0 0 1 37.822266 43.617188 A 13 13 0 0 1 36.111328 44.324219 A 13 13 0 0 1 35.947266 44.380859 A 13 13 0 0 1 34.019531 44.839844 A 13 13 0 0 1 32 45 A 13 13 0 0 1 29.953125 44.833984 A 13 13 0 0 1 29.945312 44.833984 A 13 13 0 0 1 29.929688 44.830078 A 13 13 0 0 1 28.001953 44.363281 A 13 13 0 0 1 27.892578 44.326172 A 13 13 0 0 1 26.115234 43.583984 A 13 13 0 0 1 26.021484 43.535156 A 13 13 0 0 1 24.390625 42.529297 A 13 13 0 0 1 24.333984 42.494141 L 22.21875 44.609375 A 16.000001 16.000001 0 0 0 23.705078 45.648438 A 16.000001 16.000001 0 0 0 24.195312 45.947266 A 16.000001 16.000001 0 0 0 26.28125 46.919922 A 16.000001 16.000001 0 0 0 26.863281 47.125 A 16.000001 16.000001 0 0 0 28.960938 47.6875 A 16.000001 16.000001 0 0 0 29.544922 47.787109 A 16.000001 16.000001 0 0 0 31.695312 47.972656 A 16.000001 16.000001 0 0 0 32.226562 47.980469 A 16.000001 16.000001 0 0 0 34.541016 47.779297 A 16.000001 16.000001 0 0 0 34.964844 47.707031 A 16.000001 16.000001 0 0 0 37.328125 47.074219 A 16.000001 16.000001 0 0 0 37.671875 46.941406 A 16.000001 16.000001 0 0 0 39.835938 45.931641 A 16.000001 16.000001 0 0 0 40.128906 45.765625 A 16.000001 16.000001 0 0 0 42.177734 44.330078 A 16.000001 16.000001 0 0 0 42.333984 44.207031 A 16.000001 16.000001 0 0 0 44.244141 42.296875 A 16.000001 16.000001 0 0 0 44.265625 42.271484 A 16.000001 16.000001 0 0 0 45.855469 40 A 16.000001 16.000001 0 0 0 47.033203 37.474609 A 16.000001 16.000001 0 0 0 47.035156 37.472656 A 16.000001 16.000001 0 0 0 47.035156 37.470703 A 16.000001 16.000001 0 0 0 47.753906 34.794922 A 16.000001 16.000001 0 0 0 47.759766 34.765625 A 16.000001 16.000001 0 0 0 47.998047 32.021484 A 16.000001 16.000001 0 0 0 47.998047 32.019531 A 16.000001 16.000001 0 0 0 47.998047 32.017578 A 16.000001 16.000001 0 0 0 47.998047 32.015625 A 16.000001 16.000001 0 0 0 47.998047 32.013672 A 16.000001 16.000001 0 0 0 47.998047 32.011719 A 16.000001 16.000001 0 0 0 47.998047 32.009766 A 16.000001 16.000001 0 0 0 47.998047 32.007812 A 16.000001 16.000001 0 0 0 47.998047 32.005859 A 16.000001 16.000001 0 0 0 47.998047 32.003906 A 16.000001 16.000001 0 0 0 47.998047 32.001953 A 16.000001 16.000001 0 0 0 47.998047 32 A 16.000001 16.000001 0 0 0 47.998047 31.998047 A 16.000001 16.000001 0 0 0 47.998047 31.996094 A 16.000001 16.000001 0 0 0 47.998047 31.994141 A 16.000001 16.000001 0 0 0 47.998047 31.992188 A 16.000001 16.000001 0 0 0 47.998047 31.990234 A 16.000001 16.000001 0 0 0 47.998047 31.988281 A 16.000001 16.000001 0 0 0 47.998047 31.986328 A 16.000001 16.000001 0 0 0 47.998047 31.984375 A 16.000001 16.000001 0 0 0 47.998047 31.982422 A 16.000001 16.000001 0 0 0 47.998047 31.980469 A 16.000001 16.000001 0 0 0 47.998047 31.978516 A 16.000001 16.000001 0 0 0 47.759766 29.234375 A 16.000001 16.000001 0 0 0 47.753906 29.205078 A 16.000001 16.000001 0 0 0 47.035156 26.529297 A 16.000001 16.000001 0 0 0 47.035156 26.527344 A 16.000001 16.000001 0 0 0 47.033203 26.525391 A 16.000001 16.000001 0 0 0 45.855469 24 A 16.000001 16.000001 0 0 0 44.265625 21.728516 A 16.000001 16.000001 0 0 0 44.244141 21.703125 A 16.000001 16.000001 0 0 0 42.376953 19.835938 A 16.000001 16.000001 0 0 0 42.130859 19.636719 A 16.000001 16.000001 0 0 0 40.242188 18.314453 A 16.000001 16.000001 0 0 0 39.691406 18 A 16.000001 16.000001 0 0 0 33.402344 16.123047 z M 30.072266 16.167969 A 16.000001 16.000001 0 0 0 29.873047 16.185547 A 16.000001 16.000001 0 0 0 28.640625 16.398438 A 16.000001 16.000001 0 0 0 27.052734 16.824219 A 16.000001 16.000001 0 0 0 26.095703 17.166016 A 16.000001 16.000001 0 0 0 24.259766 18.023438 A 16.000001 16.000001 0 0 0 23.765625 18.308594 A 16.000001 16.000001 0 0 0 21.867188 19.638672 A 16.000001 16.000001 0 0 0 21.646484 19.8125 A 16.000001 16.000001 0 0 0 19.792969 21.666016 A 16.000001 16.000001 0 0 0 19.669922 21.822266 A 16.000001 16.000001 0 0 0 18.234375 23.871094 A 16.000001 16.000001 0 0 0 18.068359 24.164062 A 16.000001 16.000001 0 0 0 17.058594 26.328125 A 16.000001 16.000001 0 0 0 16.925781 26.671875 A 16.000001 16.000001 0 0 0 16.292969 29.035156 A 16.000001 16.000001 0 0 0 16.220703 29.458984 A 16.000001 16.000001 0 0 0 16.019531 31.773438 A 16.000001 16.000001 0 0 0 16.027344 32.304688 A 16.000001 16.000001 0 0 0 16.212891 34.455078 A 16.000001 16.000001 0 0 0 16.3125 35.039062 A 16.000001 16.000001 0 0 0 16.875 37.136719 A 16.000001 16.000001 0 0 0 17.080078 37.71875 A 16.000001 16.000001 0 0 0 18.052734 39.804688 A 16.000001 16.000001 0 0 0 18.351562 40.294922 A 16.000001 16.000001 0 0 0 19.390625 41.78125 L 21.505859 39.666016 A 13 13 0 0 1 21.470703 39.609375 A 13 13 0 0 1 20.464844 37.978516 A 13 13 0 0 1 20.416016 37.884766 A 13 13 0 0 1 19.673828 36.107422 A 13 13 0 0 1 19.636719 35.998047 A 13 13 0 0 1 19.169922 34.070312 A 13 13 0 0 1 19.166016 34.046875 A 13 13 0 0 1 19 32 A 13 13 0 0 1 19.160156 29.980469 A 13 13 0 0 1 19.619141 28.052734 A 13 13 0 0 1 19.675781 27.888672 A 13 13 0 0 1 20.382812 26.177734 A 13 13 0 0 1 20.476562 26 A 13 13 0 0 1 21.419922 24.458984 A 13 13 0 0 1 21.568359 24.257812 A 13 13 0 0 1 22.716797 22.912109 A 13 13 0 0 1 22.806641 22.806641 A 13 13 0 0 1 22.910156 22.71875 A 13 13 0 0 1 24.298828 21.539062 A 13 13 0 0 1 24.455078 21.423828 A 13 13 0 0 1 26.103516 20.421875 A 13 13 0 0 1 26.173828 20.384766 A 13 13 0 0 1 30.072266 19.142578 L 30.072266 16.167969 z "
     transform="scale(0.26458334)" />
  <path
     id="rect952"
     style="fill:#666666;stroke-width:2.63292;stroke-linecap:round;stroke-linejoin:round"
     d="M 8.7312501,6.0854168 V 8.3664147 L 10.706841,9.5069136 10.309966,10.19421 7.9375001,8.8247847 V 6.0854168 Z" />
</svg>
