<?xml version="1.0" encoding="UTF-8" standalone="no"?>
<!-- Created with Inkscape (http://www.inkscape.org/) -->

<svg
   width="24"
   height="24"
   viewBox="0 0 6.3499999 6.3500002"
   version="1.1"
   id="svg5"
   inkscape:version="1.1.1 (3bf5ae0d25, 2021-09-20, custom)"
   sodipodi:docname="preferences-desktop-display.svg"
   xmlns:inkscape="http://www.inkscape.org/namespaces/inkscape"
   xmlns:sodipodi="http://sodipodi.sourceforge.net/DTD/sodipodi-0.dtd"
   xmlns="http://www.w3.org/2000/svg"
   xmlns:svg="http://www.w3.org/2000/svg">
  <sodipodi:namedview
     id="namedview7"
     pagecolor="#ffffff"
     bordercolor="#666666"
     borderopacity="1.0"
     inkscape:pageshadow="2"
     inkscape:pageopacity="0.0"
     inkscape:pagecheckerboard="0"
     inkscape:document-units="px"
     showgrid="false"
     units="px"
     height="24px"
     inkscape:zoom="16"
     inkscape:cx="12.875"
     inkscape:cy="18.03125"
     inkscape:window-width="1920"
     inkscape:window-height="1012"
     inkscape:window-x="0"
     inkscape:window-y="0"
     inkscape:window-maximized="1"
     inkscape:current-layer="svg5" />
  <defs
     id="defs2" />
  <path
     id="rect952"
     style="fill:#555555;stroke-width:0.529167;stroke-linecap:round;stroke-linejoin:round"
     d="M 3.1750992,0.930275 2.517775,1.5875993 H 1.5875992 V 2.517775 L 0.930275,3.1750992 1.5875992,3.8324234 V 4.7625992 H 2.517775 L 3.1750992,5.4199234 3.8324234,4.7625992 H 4.7625992 V 3.8324234 L 5.4199234,3.1750992 4.7625992,2.517775 V 1.5875993 H 3.8324234 Z m 0,0.7482748 0.4382161,0.4382161 H 4.2334325 V 2.7368831 L 4.6716487,3.1750992 4.2334325,3.6133154 V 4.2334326 H 3.6133153 L 3.1750992,4.6716487 2.7368831,4.2334326 H 2.1167659 V 3.6133154 L 1.6785497,3.1750992 2.1167659,2.7368831 V 2.1167659 h 0.6201172 z m 0,0.7027994 a 0.79374996,0.79374996 0 0 0 -0.79375,0.79375 0.79374996,0.79374996 0 0 0 0.79375,0.79375 0.79374996,0.79374996 0 0 0 0.79375,-0.79375 0.79374996,0.79374996 0 0 0 -0.79375,-0.79375 z" />
</svg>
