<?xml version="1.0" encoding="UTF-8" standalone="no"?>
<!-- Created with Inkscape (http://www.inkscape.org/) -->

<svg
   width="24"
   height="24"
   viewBox="0 0 6.3499999 6.3500002"
   version="1.1"
   id="svg5"
   inkscape:version="1.1.1 (3bf5ae0d25, 2021-09-20, custom)"
   sodipodi:docname="preferences-system-time.svg"
   xmlns:inkscape="http://www.inkscape.org/namespaces/inkscape"
   xmlns:sodipodi="http://sodipodi.sourceforge.net/DTD/sodipodi-0.dtd"
   xmlns="http://www.w3.org/2000/svg"
   xmlns:svg="http://www.w3.org/2000/svg">
  <sodipodi:namedview
     id="namedview7"
     pagecolor="#ffffff"
     bordercolor="#666666"
     borderopacity="1.0"
     inkscape:pageshadow="2"
     inkscape:pageopacity="0.0"
     inkscape:pagecheckerboard="0"
     inkscape:document-units="px"
     showgrid="false"
     units="px"
     height="24px"
     inkscape:zoom="35.863636"
     inkscape:cx="11.013942"
     inkscape:cy="11"
     inkscape:window-width="1920"
     inkscape:window-height="1012"
     inkscape:window-x="0"
     inkscape:window-y="0"
     inkscape:window-maximized="1"
     inkscape:current-layer="svg5" />
  <defs
     id="defs2" />
  <path
     id="path843"
     style="fill:#555555;stroke-width:0.529167;stroke-linecap:round;stroke-linejoin:round"
     d="M 3.175,1.0583333 A 2.1166665,2.1166665 0 0 0 1.0583333,3.1749999 2.1166665,2.1166665 0 0 0 3.175,5.2916666 2.1166665,2.1166665 0 0 0 5.2916666,3.1749999 2.1166665,2.1166665 0 0 0 3.175,1.0583333 Z m 0,0.5291667 A 1.5875,1.5875 0 0 1 4.7625,3.1749999 1.5875,1.5875 0 0 1 3.175,4.7624999 1.5875,1.5875 0 0 1 1.5875,3.1749999 1.5875,1.5875 0 0 1 3.175,1.5875 Z" />
  <path
     id="rect1055"
     style="fill:#555555;stroke-width:0.529167;stroke-linecap:round;stroke-linejoin:round"
     d="M 3.0427083,2.1166666 H 3.3072916 V 3.0427083 L 3.96875,3.6380208 3.7703125,3.8364583 3.0427083,3.175 Z"
     sodipodi:nodetypes="ccccccc" />
</svg>
