<?xml version="1.0" encoding="UTF-8" standalone="no"?>
<!-- Created with Inkscape (http://www.inkscape.org/) -->

<svg
   width="24"
   height="24"
   viewBox="0 0 6.3499999 6.3500002"
   version="1.1"
   id="svg5"
   inkscape:version="1.1.1 (3bf5ae0d25, 2021-09-20, custom)"
   sodipodi:docname="preferences-desktop-locale.svg"
   xmlns:inkscape="http://www.inkscape.org/namespaces/inkscape"
   xmlns:sodipodi="http://sodipodi.sourceforge.net/DTD/sodipodi-0.dtd"
   xmlns="http://www.w3.org/2000/svg"
   xmlns:svg="http://www.w3.org/2000/svg">
  <sodipodi:namedview
     id="namedview7"
     pagecolor="#ffffff"
     bordercolor="#666666"
     borderopacity="1.0"
     inkscape:pageshadow="2"
     inkscape:pageopacity="0.0"
     inkscape:pagecheckerboard="0"
     inkscape:document-units="px"
     showgrid="false"
     units="px"
     height="24px"
     inkscape:zoom="16"
     inkscape:cx="5.5625"
     inkscape:cy="19.34375"
     inkscape:window-width="1920"
     inkscape:window-height="1012"
     inkscape:window-x="0"
     inkscape:window-y="0"
     inkscape:window-maximized="1"
     inkscape:current-layer="svg5" />
  <defs
     id="defs2" />
  <path
     id="path989"
     style="fill:#555555;fill-opacity:1;stroke-width:0.529167;stroke-linecap:round;stroke-linejoin:round"
     d="M 3.175,1.0583333 A 2.1166669,2.1166669 0 0 0 1.0583333,3.175 2.1166669,2.1166669 0 0 0 3.175,5.2916667 2.1166669,2.1166669 0 0 0 5.2916667,3.175 2.1166669,2.1166669 0 0 0 3.175,1.0583333 Z m 0.0031,0.5296834 c 0.1222433,0.169174 0.2222283,0.3469718 0.3007566,0.5286499 H 2.8473715 C 2.9263983,1.9348753 3.0340414,1.756935 3.1781,1.5880167 Z m 0.6170172,0.1312582 a 1.5875001,1.5875001 0 0 1 0.563273,0.3973917 H 4.0111246 C 3.9507118,1.9786533 3.8786342,1.845692 3.7951172,1.7192749 Z M 2.552299,1.7234049 C 2.4700119,1.8485116 2.3985849,1.9802504 2.3388753,2.1166666 H 1.9978108 A 1.5875001,1.5875001 0 0 1 2.552299,1.723409 Z M 1.6810343,2.6458333 h 0.4898926 c -0.035492,0.1730155 -0.054096,0.350203 -0.05426,0.5291667 1.64e-4,0.1789522 0.01929,0.3561617 0.054777,0.5291667 H 1.6810343 A 1.5875001,1.5875001 0 0 1 1.5874999,3.175 1.5875001,1.5875001 0 0 1 1.6810343,2.6458333 Z m 1.0097575,0 H 3.6473225 C 3.6853045,2.8257907 3.7039815,3.0038468 3.7041665,3.175 3.7039813,3.3461415 3.6852995,3.5242217 3.6473225,3.7041667 H 2.6913086 C 2.6596334,3.5244058 2.6465887,3.3461058 2.6458333,3.175 2.6466006,3.0039043 2.6591207,2.8255835 2.6907918,2.6458333 Z m 1.4882813,0 H 4.6720662 A 1.5875001,1.5875001 0 0 1 4.7625002,3.175 1.5875001,1.5875001 0 0 1 4.6720662,3.7041667 H 4.1785564 C 4.2140688,3.5311524 4.2331481,3.353962 4.2333333,3.175 4.2331484,2.9961189 4.2145532,2.8187732 4.1790731,2.6458333 Z m -2.1812623,1.5875 H 2.3388753 C 2.3985843,4.3697388 2.4700158,4.5014981 2.552299,4.626591 A 1.5875001,1.5875001 0 0 1 1.9978108,4.2333333 Z m 0.8495607,0 h 0.630969 C 3.3998453,4.414841 3.3002334,4.5929622 3.1781006,4.7619833 3.0340427,4.5930659 2.926398,4.4151235 2.8473715,4.2333333 Z m 1.1637531,0 H 4.3583902 A 1.5875001,1.5875001 0 0 1 3.7946005,4.6307251 C 3.8781768,4.5042458 3.9506779,4.3714231 4.0111246,4.2333333 Z" />
</svg>
