<?xml version="1.0" encoding="UTF-8" standalone="no"?>
<svg
   width="64"
   height="64"
   version="1"
   id="svg14"
   sodipodi:docname="folder-default-network.svg"
   inkscape:version="1.1.1 (3bf5ae0d25, 2021-09-20, custom)"
   xmlns:inkscape="http://www.inkscape.org/namespaces/inkscape"
   xmlns:sodipodi="http://sodipodi.sourceforge.net/DTD/sodipodi-0.dtd"
   xmlns="http://www.w3.org/2000/svg"
   xmlns:svg="http://www.w3.org/2000/svg">
  <defs
     id="defs18" />
  <sodipodi:namedview
     id="namedview16"
     pagecolor="#ffffff"
     bordercolor="#666666"
     borderopacity="1.0"
     inkscape:pageshadow="2"
     inkscape:pageopacity="0.0"
     inkscape:pagecheckerboard="0"
     showgrid="false"
     inkscape:zoom="11.046875"
     inkscape:cx="31.954738"
     inkscape:cy="32"
     inkscape:window-width="1512"
     inkscape:window-height="937"
     inkscape:window-x="45"
     inkscape:window-y="29"
     inkscape:window-maximized="0"
     inkscape:current-layer="svg14" />
  <path
     style="fill:#237d58;fill-opacity:1"
     d="M 4,46.2 C 4,47.751 5.2488,49 6.8,49 H 57.2 C 58.751,49 60,47.751 60,46.2 V 15.8 C 60,14.249 58.751,13 57.2,13 H 32 C 27.8,13 26.4,7 22.2,7 H 6.8 C 5.2488,7 4,8.2488 4,9.8"
     id="path4" />
  <rect
     style="opacity:0.2"
     width="56"
     height="36"
     x="4"
     y="20"
     rx="2.8"
     ry="2.8"
     id="rect6" />
  <rect
     style="fill:#34be85;fill-opacity:1"
     width="56"
     height="36"
     x="4"
     y="21"
     rx="2.8"
     ry="2.8"
     id="rect10" />
  <path
     id="path5"
     class="ColorScheme-Text"
     d="m 47,38 a 7,7 0 0 0 -7,7 7,7 0 0 0 7,7 7,7 0 0 0 7,-7 7,7 0 0 0 -7,-7 z m 0,2 a 5,5 0 0 1 5,5 5,5 0 0 1 -5,5 5,5 0 0 1 -5,-5 5,5 0 0 1 5,-5 z m -0.376953,1.001953 c -0.13229,0.01345 -0.264458,0.02264 -0.392578,0.04883 -0.25722,0.05261 -0.501901,0.120723 -0.738281,0.220703 -1.129701,0.4777 -1.981457,1.470088 -2.285157,2.679688 0.0078,0.0085 0.01642,0.01384 0.02539,0.02344 0.2119,0.226359 0.767918,0.540462 1.179688,0.689452 0.22518,0.08149 0.659311,0.208502 0.957031,0.269532 0.29774,0.06091 0.496127,0.120647 0.466797,0.123047 -0.02933,0.0024 -0.162542,0.101683 -0.294922,0.220703 -0.25251,0.22701 -0.381114,0.427819 -0.490235,0.787109 -0.05988,0.19673 -0.0545,0.262651 0.02344,0.369141 0.04703,0.06417 0.257626,0.21427 0.466796,0.34375 0.20917,0.12948 0.453776,0.308018 0.541016,0.392578 0.32499,0.315 0.541016,0.878581 0.541016,1.425781 0,0.14002 0.01321,0.214244 0.02344,0.246094 0.02658,0.0024 0.04756,-0.0024 0.07422,0 0.06016,-0.0232 0.151532,-0.05125 0.294922,-0.123047 1.2014,-0.6014 1.749412,-1.378003 1.695313,-2.408203 -0.0431,-0.82155 -0.427875,-1.119972 -1.990235,-1.451172 -1.1505,-0.24383 -1.769531,-0.658327 -1.769531,-1.179687 0,-0.13749 0.04706,-0.217008 0.197265,-0.367188 0.16143,-0.16145 0.19357,-0.173367 0.31836,-0.148437 0.07946,0.01589 0.285579,0.121154 0.443359,0.246094 0.35518,0.28124 0.529201,0.392578 0.712891,0.392578 0.07825,0 0.146484,-0.01172 0.146484,-0.02344 0,-0.01172 -0.05888,-0.102536 -0.123047,-0.197266 -0.35462,-0.5225 -0.331308,-1.499284 0.05078,-2.333984 0.06,-0.13104 0.103946,-0.220924 0.09766,-0.246094 -0.05308,0.0031 -0.119255,-0.0055 -0.171875,0 z m 3.666015,1.84375 c -0.123117,0.0316 -0.640384,0.58221 -0.765624,0.833984 -0.264901,0.532601 -0.165594,0.881559 0.466796,1.548829 0.21909,0.23117 0.481914,0.543223 0.564454,0.689453 0.08253,0.14625 0.152545,0.26506 0.171874,0.24414 0.01934,-0.02092 0.07768,-0.187537 0.123047,-0.367187 0.11923,-0.4721 0.12853,-1.294431 0,-1.769531 -0.09956,-0.36801 -0.448635,-1.122588 -0.541015,-1.179688 -0.0045,-0.0028 -0.01132,-0.0021 -0.01953,0 z"
     style="fill:#ffffff" />
</svg>
