<?xml version="1.0" encoding="UTF-8" standalone="no"?>
<svg
   width="64"
   height="64"
   version="1"
   id="svg14"
   sodipodi:docname="folder-bookmark.svg"
   inkscape:version="1.1.1 (3bf5ae0d25, 2021-09-20, custom)"
   xmlns:inkscape="http://www.inkscape.org/namespaces/inkscape"
   xmlns:sodipodi="http://sodipodi.sourceforge.net/DTD/sodipodi-0.dtd"
   xmlns="http://www.w3.org/2000/svg"
   xmlns:svg="http://www.w3.org/2000/svg">
  <defs
     id="defs18" />
  <sodipodi:namedview
     id="namedview16"
     pagecolor="#ffffff"
     bordercolor="#666666"
     borderopacity="1.0"
     inkscape:pageshadow="2"
     inkscape:pageopacity="0.0"
     inkscape:pagecheckerboard="0"
     showgrid="false"
     inkscape:zoom="12.328125"
     inkscape:cx="31.959442"
     inkscape:cy="32"
     inkscape:window-width="1920"
     inkscape:window-height="1019"
     inkscape:window-x="0"
     inkscape:window-y="0"
     inkscape:window-maximized="1"
     inkscape:current-layer="svg14" />
  <path
     style="fill:#005b4f;fill-opacity:1"
     d="M 4,46.2 C 4,47.751 5.2488,49 6.8,49 H 57.2 C 58.751,49 60,47.751 60,46.2 V 15.8 C 60,14.249 58.751,13 57.2,13 H 32 C 27.8,13 26.4,7 22.2,7 H 6.8 C 5.2488,7 4,8.2488 4,9.8"
     id="path4" />
  <rect
     style="opacity:0.2"
     width="56"
     height="36"
     x="4"
     y="20"
     rx="2.8"
     ry="2.8"
     id="rect6" />
  <rect
     style="fill:#00897b;fill-opacity:1"
     width="56"
     height="36"
     x="4"
     y="21"
     rx="2.8"
     ry="2.8"
     id="rect10" />
  <path
     id="path5"
     class="ColorScheme-Text"
     d="m 47.150391,36.400005 a 2.0002,2.0002 0 0 0 -1.871093,1.28125 l -1.125,2.914062 -3.115235,0.166016 a 2.0002,2.0002 0 0 0 -1.15625,3.546875 l 2.423828,1.974609 -0.800781,3.019531 a 2.0002,2.0002 0 0 0 3.021484,2.191407 l 2.617188,-1.695313 2.617188,1.695313 a 2.0002,2.0002 0 0 0 3.021484,-2.191407 l -0.800781,-3.019531 2.423828,-1.974609 a 2.0002,2.0002 0 0 0 -1.15625,-3.546875 l -3.115235,-0.166016 -1.125,-2.914062 a 2.0002,2.0002 0 0 0 -1.859375,-1.28125 z m -0.0059,2 1.589844,4.125 4.410197,0.232422 -3.427734,2.789062 1.132812,4.267578 -3.705078,-2.398437 -3.705078,2.398437 1.132812,-4.267578 -3.427734,-2.789062 4.410156,-0.232422 z"
     style="fill:#ffffff" />
</svg>
