<?xml version="1.0" encoding="UTF-8" standalone="no"?>
<svg
   width="64"
   height="64"
   version="1"
   id="svg14"
   sodipodi:docname="folder-template.svg"
   inkscape:version="1.1.1 (3bf5ae0d25, 2021-09-20, custom)"
   xmlns:inkscape="http://www.inkscape.org/namespaces/inkscape"
   xmlns:sodipodi="http://sodipodi.sourceforge.net/DTD/sodipodi-0.dtd"
   xmlns="http://www.w3.org/2000/svg"
   xmlns:svg="http://www.w3.org/2000/svg">
  <defs
     id="defs18">
  </defs>
  <sodipodi:namedview
     id="namedview16"
     pagecolor="#ffffff"
     bordercolor="#666666"
     borderopacity="1.0"
     inkscape:pageshadow="2"
     inkscape:pageopacity="0.0"
     inkscape:pagecheckerboard="0"
     showgrid="false"
     inkscape:zoom="15.78"
     inkscape:cx="32.065906"
     inkscape:cy="31.970849"
     inkscape:window-width="1920"
     inkscape:window-height="1019"
     inkscape:window-x="0"
     inkscape:window-y="0"
     inkscape:window-maximized="1"
     inkscape:current-layer="svg14" />
  <path
     style="fill:#007c91;fill-opacity:1"
     d="M 4,46.2 C 4,47.751 5.2488,49 6.8,49 H 57.2 C 58.751,49 60,47.751 60,46.2 V 15.8 C 60,14.249 58.751,13 57.2,13 H 32 C 27.8,13 26.4,7 22.2,7 H 6.8 C 5.2488,7 4,8.2488 4,9.8"
     id="path4" />
  <rect
     style="opacity:0.2"
     width="56"
     height="36"
     x="4"
     y="20"
     rx="2.8"
     ry="2.8"
     id="rect6" />
  <rect
     style="fill:#00acc1;fill-opacity:1"
     width="56"
     height="36"
     x="4"
     y="21"
     rx="2.8"
     ry="2.8"
     id="rect10" />
  <path
     id="path32"
     style="stroke-width:0.666663;fill:#ffffff"
     d="m 46,37 v 2 h -1 c -0.554011,0 -1,0.446003 -1,1 v 4 l 0.539062,0.539063 -3.408203,5.964844 L 41,53 42.869141,51.496094 43.591797,50.230469 C 44.657258,50.735133 45.821139,50.9976 47,51 c 1.178395,0 2.341522,-0.266553 3.40625,-0.771484 L 51.130859,51.496094 53,53 52.869141,50.503907 52.101562,49.16211 C 53.936821,47.64265 54.999333,45.382522 55,43 h -2 c -0.0027,1.663593 -0.694448,3.251304 -1.912109,4.384766 L 49.460938,44.541016 50,44 v -4 c 0,-0.553997 -0.446003,-1 -1,-1 h -1 v -2 z m 1,4 c 0.553997,0 1,0.446004 1,1 0,0.553998 -0.446003,1 -1,1 -0.554011,0 -1,-0.446001 -1,-1 0,-0.553997 0.445989,-1 1,-1 z m -0.992188,5.00586 c 0.62793,0.306532 1.265265,0.531598 1.986329,0 l 1.417968,2.480469 C 48.652313,48.822727 47.830863,48.997601 47,49 46.169737,49 45.348974,48.822061 44.589844,48.486329 Z" />
</svg>
