<?xml version="1.0" encoding="UTF-8" standalone="no"?>
<svg
   width="64"
   height="64"
   version="1"
   id="svg14"
   sodipodi:docname="folder-cloud.svg"
   inkscape:version="1.1.1 (3bf5ae0d25, 2021-09-20, custom)"
   xmlns:inkscape="http://www.inkscape.org/namespaces/inkscape"
   xmlns:sodipodi="http://sodipodi.sourceforge.net/DTD/sodipodi-0.dtd"
   xmlns="http://www.w3.org/2000/svg"
   xmlns:svg="http://www.w3.org/2000/svg">
  <defs
     id="defs18" />
  <sodipodi:namedview
     id="namedview16"
     pagecolor="#ffffff"
     bordercolor="#666666"
     borderopacity="1.0"
     inkscape:pageshadow="2"
     inkscape:pageopacity="0.0"
     inkscape:pagecheckerboard="0"
     showgrid="false"
     inkscape:zoom="1"
     inkscape:cx="21"
     inkscape:cy="58.5"
     inkscape:window-width="1920"
     inkscape:window-height="1019"
     inkscape:window-x="0"
     inkscape:window-y="0"
     inkscape:window-maximized="1"
     inkscape:current-layer="svg14" />
  <path
     style="fill:#5c007a;fill-opacity:1"
     d="M 4,46.2 C 4,47.751 5.2488,49 6.8,49 H 57.2 C 58.751,49 60,47.751 60,46.2 V 15.8 C 60,14.249 58.751,13 57.2,13 H 32 C 27.8,13 26.4,7 22.2,7 H 6.8 C 5.2488,7 4,8.2488 4,9.8"
     id="path4" />
  <rect
     style="opacity:0.2"
     width="56"
     height="36"
     x="4"
     y="20"
     rx="2.8"
     ry="2.8"
     id="rect6" />
  <rect
     style="fill:#8e24aa;fill-opacity:1"
     width="56"
     height="36"
     x="4"
     y="21"
     rx="2.8"
     ry="2.8"
     id="rect10" />
  <path
     id="path845"
     style="fill:#ffffff;stroke-width:2.33333;stroke-linecap:round;stroke-linejoin:round"
     d="m 44,38 c -2.711135,0.0021 -5.177241,1.569619 -6.330078,4.023438 C 35.047186,42.19695 33.006588,44.371539 33,47 c 0,2.761424 2.238576,5 5,5 h 13 c 2.209139,0 4,-1.790861 4,-4 0,-2.209139 -1.790861,-4 -4,-4 -0.02411,0.0017 -0.0482,0.0037 -0.07227,0.0059 C 50.433299,40.559701 47.481446,38.000653 44,38 Z"
     sodipodi:nodetypes="cccccsccc" />
</svg>
