<?xml version="1.0" encoding="UTF-8" standalone="no"?>
<svg
   width="64"
   height="64"
   version="1"
   id="svg14"
   sodipodi:docname="folder-documents].svg"
   inkscape:version="1.1.1 (3bf5ae0d25, 2021-09-20, custom)"
   xmlns:inkscape="http://www.inkscape.org/namespaces/inkscape"
   xmlns:sodipodi="http://sodipodi.sourceforge.net/DTD/sodipodi-0.dtd"
   xmlns="http://www.w3.org/2000/svg"
   xmlns:svg="http://www.w3.org/2000/svg">
  <defs
     id="defs18">
  </defs>
  <sodipodi:namedview
     id="namedview16"
     pagecolor="#ffffff"
     bordercolor="#666666"
     borderopacity="1.0"
     inkscape:pageshadow="2"
     inkscape:pageopacity="0.0"
     inkscape:pagecheckerboard="0"
     showgrid="false"
     inkscape:zoom="5.5790725"
     inkscape:cx="53.055414"
     inkscape:cy="10.664855"
     inkscape:window-width="1920"
     inkscape:window-height="1019"
     inkscape:window-x="0"
     inkscape:window-y="0"
     inkscape:window-maximized="1"
     inkscape:current-layer="svg14" />
  <path
     style="fill:#007c91;fill-opacity:1"
     d="M 4,46.2 C 4,47.751 5.2488,49 6.8,49 H 57.2 C 58.751,49 60,47.751 60,46.2 V 15.8 C 60,14.249 58.751,13 57.2,13 H 32 C 27.8,13 26.4,7 22.2,7 H 6.8 C 5.2488,7 4,8.2488 4,9.8"
     id="path4" />
  <rect
     style="opacity:0.2"
     width="56"
     height="36"
     x="4"
     y="20"
     rx="2.8"
     ry="2.8"
     id="rect6" />
  <rect
     style="fill:#00acc1;fill-opacity:1"
     width="56"
     height="36"
     x="4"
     y="21"
     rx="2.8"
     ry="2.8"
     id="rect10" />
  <path
     id="path5"
     class="ColorScheme-Text"
     d="m 43,34.999938 c -1.108,0 -2,0.892 -2,2 V 51 c 0,1.108 0.892,2 2,2 h 10 c 1.108,0 2,-0.892 2,-2 V 39.999938 l -4.999938,-5 z m 0,2 h 6.171937 L 53,40.828063 V 51 H 43 Z"
     style="color:#727272;fill:#ffffff"
     sodipodi:nodetypes="ssssssccscccccc" />
</svg>
